<svg width="20" height="18" viewBox="0 0 20 18" fill="none" xmlns="http://www.w3.org/2000/svg">
<path d="M2.5 0C1.12109 0 0 1.12109 0 2.5V15C0 16.3789 1.12109 17.5 2.5 17.5H17.5C18.8789 17.5 20 16.3789 20 15V6.25C20 4.87109 18.8789 3.75 17.5 3.75H3.125C2.78125 3.75 2.5 3.46875 2.5 3.125C2.5 2.78125 2.78125 2.5 3.125 2.5H17.5C18.1914 2.5 18.75 1.94141 18.75 1.25C18.75 0.558594 18.1914 0 17.5 0H2.5ZM16.25 9.375C16.5815 9.375 16.8995 9.5067 17.1339 9.74112C17.3683 9.97554 17.5 10.2935 17.5 10.625C17.5 10.9565 17.3683 11.2745 17.1339 11.5089C16.8995 11.7433 16.5815 11.875 16.25 11.875C15.9185 11.875 15.6005 11.7433 15.3661 11.5089C15.1317 11.2745 15 10.9565 15 10.625C15 10.2935 15.1317 9.97554 15.3661 9.74112C15.6005 9.5067 15.9185 9.375 16.25 9.375Z" fill="#262626"/>
</svg>
