<svg width="202" height="26" viewBox="0 0 202 26" fill="none" xmlns="http://www.w3.org/2000/svg">
<path d="M202 26H0V0H202V26Z" stroke="#E5E7EB"/>
<path d="M1.40909 19V7.36364H5.47727C6.28788 7.36364 6.95644 7.50379 7.48295 7.78409C8.00947 8.06061 8.40152 8.43371 8.65909 8.90341C8.91667 9.36932 9.04545 9.88636 9.04545 10.4545C9.04545 10.9545 8.95644 11.3674 8.77841 11.6932C8.60417 12.0189 8.37311 12.2765 8.08523 12.4659C7.80114 12.6553 7.49242 12.7955 7.15909 12.8864V13C7.51515 13.0227 7.87311 13.1477 8.23295 13.375C8.5928 13.6023 8.89394 13.928 9.13636 14.3523C9.37879 14.7765 9.5 15.2955 9.5 15.9091C9.5 16.4924 9.36742 17.017 9.10227 17.483C8.83712 17.9489 8.41856 18.3182 7.84659 18.5909C7.27462 18.8636 6.5303 19 5.61364 19H1.40909ZM2.81818 17.75H5.61364C6.53409 17.75 7.1875 17.572 7.57386 17.2159C7.96402 16.8561 8.15909 16.4205 8.15909 15.9091C8.15909 15.5152 8.05871 15.1515 7.85795 14.8182C7.6572 14.4811 7.37121 14.2121 7 14.0114C6.62879 13.8068 6.18939 13.7045 5.68182 13.7045H2.81818V17.75ZM2.81818 12.4773H5.43182C5.85606 12.4773 6.23864 12.3939 6.57955 12.2273C6.92424 12.0606 7.19697 11.8258 7.39773 11.5227C7.60227 11.2197 7.70455 10.8636 7.70455 10.4545C7.70455 9.94318 7.52652 9.50947 7.17045 9.15341C6.81439 8.79356 6.25 8.61364 5.47727 8.61364H2.81818V12.4773ZM14.2017 19.2045C13.6487 19.2045 13.1468 19.1004 12.696 18.892C12.2453 18.6799 11.8873 18.375 11.6222 17.9773C11.357 17.5758 11.2244 17.0909 11.2244 16.5227C11.2244 16.0227 11.3229 15.6174 11.5199 15.3068C11.7169 14.9924 11.9801 14.7462 12.3097 14.5682C12.6392 14.3902 13.0028 14.2576 13.4006 14.1705C13.8021 14.0795 14.2055 14.0076 14.6108 13.9545C15.1411 13.8864 15.571 13.8352 15.9006 13.8011C16.2339 13.7633 16.4763 13.7008 16.6278 13.6136C16.7831 13.5265 16.8608 13.375 16.8608 13.1591V13.1136C16.8608 12.553 16.7074 12.1174 16.4006 11.8068C16.0975 11.4962 15.6373 11.3409 15.0199 11.3409C14.3797 11.3409 13.8778 11.4811 13.5142 11.7614C13.1506 12.0417 12.8949 12.3409 12.7472 12.6591L11.4744 12.2045C11.7017 11.6742 12.0047 11.2614 12.3835 10.9659C12.7661 10.6667 13.1828 10.4583 13.6335 10.3409C14.0881 10.2197 14.535 10.1591 14.9744 10.1591C15.2547 10.1591 15.5767 10.1932 15.9403 10.2614C16.3078 10.3258 16.6619 10.4602 17.0028 10.6648C17.3475 10.8693 17.6335 11.178 17.8608 11.5909C18.0881 12.0038 18.2017 12.5568 18.2017 13.25V19H16.8608V17.8182H16.7926C16.7017 18.0076 16.5502 18.2102 16.3381 18.4261C16.1259 18.642 15.8438 18.8258 15.4915 18.9773C15.1392 19.1288 14.7093 19.2045 14.2017 19.2045ZM14.4062 18C14.9366 18 15.3835 17.8958 15.7472 17.6875C16.1146 17.4792 16.3911 17.2102 16.5767 16.8807C16.7661 16.5511 16.8608 16.2045 16.8608 15.8409V14.6136C16.804 14.6818 16.679 14.7443 16.4858 14.8011C16.2964 14.8542 16.0767 14.9015 15.8267 14.9432C15.5805 14.9811 15.34 15.0152 15.1051 15.0455C14.8741 15.072 14.6866 15.0947 14.5426 15.1136C14.1941 15.1591 13.8684 15.233 13.5653 15.3352C13.2661 15.4337 13.0237 15.5833 12.8381 15.7841C12.6563 15.9811 12.5653 16.25 12.5653 16.5909C12.5653 17.0568 12.7377 17.4091 13.0824 17.6477C13.4309 17.8826 13.8722 18 14.4062 18ZM21.9901 7.36364V19H20.6491V7.36364H21.9901ZM27.0142 19.2045C26.4612 19.2045 25.9593 19.1004 25.5085 18.892C25.0578 18.6799 24.6998 18.375 24.4347 17.9773C24.1695 17.5758 24.0369 17.0909 24.0369 16.5227C24.0369 16.0227 24.1354 15.6174 24.3324 15.3068C24.5294 14.9924 24.7926 14.7462 25.1222 14.5682C25.4517 14.3902 25.8153 14.2576 26.2131 14.1705C26.6146 14.0795 27.018 14.0076 27.4233 13.9545C27.9536 13.8864 28.3835 13.8352 28.7131 13.8011C29.0464 13.7633 29.2888 13.7008 29.4403 13.6136C29.5956 13.5265 29.6733 13.375 29.6733 13.1591V13.1136C29.6733 12.553 29.5199 12.1174 29.2131 11.8068C28.91 11.4962 28.4498 11.3409 27.8324 11.3409C27.1922 11.3409 26.6903 11.4811 26.3267 11.7614C25.9631 12.0417 25.7074 12.3409 25.5597 12.6591L24.2869 12.2045C24.5142 11.6742 24.8172 11.2614 25.196 10.9659C25.5786 10.6667 25.9953 10.4583 26.446 10.3409C26.9006 10.2197 27.3475 10.1591 27.7869 10.1591C28.0672 10.1591 28.3892 10.1932 28.7528 10.2614C29.1203 10.3258 29.4744 10.4602 29.8153 10.6648C30.16 10.8693 30.446 11.178 30.6733 11.5909C30.9006 12.0038 31.0142 12.5568 31.0142 13.25V19H29.6733V17.8182H29.6051C29.5142 18.0076 29.3627 18.2102 29.1506 18.4261C28.9384 18.642 28.6563 18.8258 28.304 18.9773C27.9517 19.1288 27.5218 19.2045 27.0142 19.2045ZM27.2188 18C27.7491 18 28.196 17.8958 28.5597 17.6875C28.9271 17.4792 29.2036 17.2102 29.3892 16.8807C29.5786 16.5511 29.6733 16.2045 29.6733 15.8409V14.6136C29.6165 14.6818 29.4915 14.7443 29.2983 14.8011C29.1089 14.8542 28.8892 14.9015 28.6392 14.9432C28.393 14.9811 28.1525 15.0152 27.9176 15.0455C27.6866 15.072 27.4991 15.0947 27.3551 15.1136C27.0066 15.1591 26.6809 15.233 26.3778 15.3352C26.0786 15.4337 25.8362 15.5833 25.6506 15.7841C25.4688 15.9811 25.3778 16.25 25.3778 16.5909C25.3778 17.0568 25.5502 17.4091 25.8949 17.6477C26.2434 17.8826 26.6847 18 27.2188 18ZM34.8026 13.75V19H33.4616V10.2727H34.7571V11.6364H34.8707C35.0753 11.1932 35.3859 10.8371 35.8026 10.5682C36.2192 10.2955 36.7571 10.1591 37.4162 10.1591C38.0071 10.1591 38.5241 10.2803 38.9673 10.5227C39.4105 10.7614 39.7552 11.125 40.0014 11.6136C40.2476 12.0985 40.3707 12.7121 40.3707 13.4545V19H39.0298V13.5455C39.0298 12.8598 38.8518 12.3258 38.4957 11.9432C38.1397 11.5568 37.651 11.3636 37.0298 11.3636C36.6018 11.3636 36.2192 11.4564 35.8821 11.642C35.5488 11.8277 35.2855 12.0985 35.0923 12.4545C34.8991 12.8106 34.8026 13.2424 34.8026 13.75ZM46.3665 19.1818C45.5483 19.1818 44.8438 18.9886 44.2528 18.6023C43.6619 18.2159 43.2074 17.6837 42.8892 17.0057C42.571 16.3277 42.4119 15.553 42.4119 14.6818C42.4119 13.7955 42.5748 13.0133 42.9006 12.3352C43.2301 11.6534 43.6884 11.1212 44.2756 10.7386C44.8665 10.3523 45.5559 10.1591 46.3438 10.1591C46.9574 10.1591 47.5104 10.2727 48.0028 10.5C48.4953 10.7273 48.8987 11.0455 49.2131 11.4545C49.5275 11.8636 49.7225 12.3409 49.7983 12.8864H48.4574C48.3551 12.4886 48.1278 12.1364 47.7756 11.8295C47.4271 11.5189 46.9574 11.3636 46.3665 11.3636C45.8438 11.3636 45.3854 11.5 44.9915 11.7727C44.6013 12.0417 44.2964 12.4223 44.0767 12.9148C43.8608 13.4034 43.7528 13.9773 43.7528 14.6364C43.7528 15.3106 43.8589 15.8977 44.071 16.3977C44.2869 16.8977 44.59 17.286 44.9801 17.5625C45.3741 17.839 45.8362 17.9773 46.3665 17.9773C46.715 17.9773 47.0312 17.9167 47.3153 17.7955C47.5994 17.6742 47.84 17.5 48.0369 17.2727C48.2339 17.0455 48.3741 16.7727 48.4574 16.4545H49.7983C49.7225 16.9697 49.535 17.4337 49.2358 17.8466C48.9403 18.2557 48.5483 18.5814 48.0597 18.8239C47.5748 19.0625 47.0104 19.1818 46.3665 19.1818ZM55.4176 19.1818C54.5767 19.1818 53.8513 18.9962 53.2415 18.625C52.6354 18.25 52.1676 17.7273 51.8381 17.0568C51.5123 16.3826 51.3494 15.5985 51.3494 14.7045C51.3494 13.8106 51.5123 13.0227 51.8381 12.3409C52.1676 11.6553 52.6259 11.1212 53.2131 10.7386C53.804 10.3523 54.4934 10.1591 55.2812 10.1591C55.7358 10.1591 56.1847 10.2348 56.6278 10.3864C57.071 10.5379 57.4744 10.7841 57.8381 11.125C58.2017 11.4621 58.4915 11.9091 58.7074 12.4659C58.9233 13.0227 59.0312 13.7083 59.0312 14.5227V15.0909H52.304V13.9318H57.6676C57.6676 13.4394 57.5691 13 57.3722 12.6136C57.179 12.2273 56.9025 11.9223 56.5426 11.6989C56.1866 11.4754 55.7661 11.3636 55.2812 11.3636C54.7472 11.3636 54.285 11.4962 53.8949 11.7614C53.5085 12.0227 53.2112 12.3636 53.0028 12.7841C52.7945 13.2045 52.6903 13.6553 52.6903 14.1364V14.9091C52.6903 15.5682 52.804 16.1269 53.0312 16.5852C53.2623 17.0398 53.5824 17.3864 53.9915 17.625C54.4006 17.8598 54.8759 17.9773 55.4176 17.9773C55.7699 17.9773 56.0881 17.928 56.3722 17.8295C56.66 17.7273 56.9081 17.5758 57.1165 17.375C57.3248 17.1705 57.4858 16.9167 57.5994 16.6136L58.8949 16.9773C58.7585 17.4167 58.5294 17.803 58.2074 18.1364C57.8854 18.4659 57.4877 18.7235 57.0142 18.9091C56.5407 19.0909 56.0085 19.1818 55.4176 19.1818Z" fill="#262626"/>
<g clip-path="url(#clip0_8245_3010)">
<path d="M184.5 4.25C183.121 4.25 182 5.37109 182 6.75V19.25C182 20.6289 183.121 21.75 184.5 21.75H199.5C200.879 21.75 202 20.6289 202 19.25V10.5C202 9.12109 200.879 8 199.5 8H185.125C184.781 8 184.5 7.71875 184.5 7.375C184.5 7.03125 184.781 6.75 185.125 6.75H199.5C200.191 6.75 200.75 6.19141 200.75 5.5C200.75 4.80859 200.191 4.25 199.5 4.25H184.5ZM198.25 13.625C198.582 13.625 198.899 13.7567 199.134 13.9911C199.368 14.2255 199.5 14.5435 199.5 14.875C199.5 15.2065 199.368 15.5245 199.134 15.7589C198.899 15.9933 198.582 16.125 198.25 16.125C197.918 16.125 197.601 15.9933 197.366 15.7589C197.132 15.5245 197 15.2065 197 14.875C197 14.5435 197.132 14.2255 197.366 13.9911C197.601 13.7567 197.918 13.625 198.25 13.625Z" fill="#262626"/>
</g>
<defs>
<clipPath id="clip0_8245_3010">
<rect width="20" height="20" fill="white" transform="translate(182 3)"/>
</clipPath>
</defs>
</svg>
