<svg width="224" height="224" viewBox="0 0 224 224" fill="none" xmlns="http://www.w3.org/2000/svg">
<path d="M42 41.9998C42 34.5738 44.95 27.4519 50.201 22.2008C55.452 16.9498 62.5739 13.9998 70 13.9998C77.4261 13.9998 84.548 16.9498 89.799 22.2008C95.05 27.4519 98 34.5738 98 41.9998C98 49.4259 95.05 56.5478 89.799 61.7988C84.548 67.0498 77.4261 69.9998 70 69.9998C62.5739 69.9998 55.452 67.0498 50.201 61.7988C44.95 56.5478 42 49.4259 42 41.9998ZM70 27.9998C66.287 27.9998 62.726 29.4748 60.1005 32.1003C57.475 34.7258 56 38.2868 56 41.9998C56 45.7129 57.475 49.2738 60.1005 51.8993C62.726 54.5248 66.287 55.9998 70 55.9998C73.713 55.9998 77.274 54.5248 79.8995 51.8993C82.525 49.2738 84 45.7129 84 41.9998C84 38.2868 82.525 34.7258 79.8995 32.1003C77.274 29.4748 73.713 27.9998 70 27.9998ZM136.906 64.1758C133.973 61.9385 131.511 59.1437 129.661 55.9519C127.812 52.7602 126.611 49.2343 126.128 45.5771C125.646 41.9198 125.89 38.2033 126.848 34.6409C127.806 31.0785 129.459 27.7406 131.711 24.8189C133.963 21.8972 136.771 19.4493 139.972 17.6159C143.173 15.7825 146.705 14.5998 150.364 14.1356C154.024 13.6715 157.739 13.935 161.297 14.9112C164.854 15.8874 168.184 17.5569 171.094 19.8238C176.824 24.4075 180.526 31.0574 181.403 38.3426C182.28 45.6279 180.262 52.9662 175.783 58.7788C171.305 64.5913 164.723 68.4134 157.455 69.4228C150.187 70.4321 142.799 68.548 136.906 64.1758ZM154 27.9998C150.287 27.9998 146.726 29.4748 144.101 32.1003C141.475 34.7258 140 38.2868 140 41.9998C140 45.7129 141.475 49.2738 144.101 51.8993C146.726 54.5248 150.287 55.9998 154 55.9998C157.713 55.9998 161.274 54.5248 163.899 51.8993C166.525 49.2738 168 45.7129 168 41.9998C168 38.2868 166.525 34.7258 163.899 32.1003C161.274 29.4748 157.713 27.9998 154 27.9998ZM35 83.9998H72.38C70.84 88.3818 70 93.0998 70 97.9998H35C33.1435 97.9998 31.363 98.7373 30.0503 100.05C28.7375 101.363 28 103.143 28 105C28 116.438 32.55 124.922 39.732 130.69C43.036 133.35 46.998 135.492 51.478 137.06C48.1881 140.557 45.6529 144.693 44.03 149.212C39.3278 147.33 34.9269 144.769 30.968 141.61C20.44 133.14 14 120.624 14 105C14 99.4303 16.2125 94.0889 20.1508 90.1506C24.089 86.2123 29.4305 83.9998 35 83.9998ZM87.752 83.9998C84.039 90.4345 83.0342 98.0806 84.9587 105.256C86.8832 112.432 91.5793 118.549 98.014 122.262C104.449 125.975 112.095 126.98 119.27 125.055C126.446 123.131 132.563 118.435 136.276 112C139.989 105.565 140.994 97.919 139.069 90.7435C137.145 83.568 132.449 77.4509 126.014 73.7378C119.579 70.0248 111.933 69.02 104.758 70.9445C97.5822 72.869 91.465 77.5651 87.752 83.9998ZM108.864 84.3498C110.915 83.8865 113.044 83.8897 115.094 84.3594C117.144 84.8291 119.062 85.7531 120.707 87.0634C122.352 88.3736 123.681 90.0366 124.598 91.9295C125.514 93.8224 125.993 95.8969 126 97.9998C126 99.0825 125.883 100.128 125.65 101.136C125.088 103.571 123.885 105.811 122.166 107.623C120.446 109.436 118.273 110.756 115.871 111.445C113.47 112.135 110.927 112.169 108.508 111.544C106.088 110.92 103.88 109.659 102.113 107.893C100.345 106.126 99.0826 103.92 98.4559 101.501C97.8291 99.0819 97.8611 96.5395 98.5485 94.1372C99.236 91.735 100.554 89.5605 102.365 87.8394C104.177 86.1184 106.43 84.9135 108.864 84.3498ZM184.254 130.69C180.95 133.35 176.988 135.492 172.508 137.06C175.793 140.558 178.323 144.694 179.942 149.212C184.702 147.266 189.112 144.732 193.018 141.61C203.56 133.14 210 120.624 210 105C210 99.4303 207.788 94.0889 203.849 90.1506C199.911 86.2123 194.57 83.9998 189 83.9998H151.62C153.16 88.3818 154 93.0998 154 97.9998H189C190.857 97.9998 192.637 98.7373 193.95 100.05C195.263 101.363 196 103.143 196 105C196 116.438 191.436 124.922 184.254 130.69ZM147 140C152.57 140 157.911 142.212 161.849 146.151C165.788 150.089 168 155.43 168 161C168 176.624 161.574 189.14 151.032 197.61C140.658 205.94 126.742 210 112 210C97.258 210 83.342 205.94 72.968 197.61C62.44 189.14 56 176.624 56 161C55.9926 158.24 56.5308 155.506 57.5835 152.955C58.6362 150.404 60.1828 148.086 62.1343 146.134C64.0858 144.183 66.4037 142.636 68.9549 141.583C71.5061 140.531 74.2402 139.992 77 140H147ZM147 154H77C75.1435 154 73.363 154.737 72.0503 156.05C70.7375 157.363 70 159.143 70 161C70 172.438 74.55 180.922 81.732 186.69C89.096 192.598 99.68 196 112 196C124.32 196 134.904 192.598 142.268 186.69C149.45 180.922 154 172.438 154 161C154 159.143 153.263 157.363 151.95 156.05C150.637 154.737 148.857 154 147 154Z" fill="#091DFF"/>
</svg>
