<svg width="238" height="214" viewBox="0 0 238 214" fill="none" xmlns="http://www.w3.org/2000/svg">
<path d="M8.49225 43.9536L22.7736 44.0248V67.2144H14.1278C11.3744 67.3325 9.30051 69.4722 9.30051 72.1973L9.44687 121.863C9.44687 124.567 11.6462 126.764 14.3526 126.764H22.7736V132.69H14.7179C12.297 132.69 10.3982 134.587 10.3982 137.016L10.4694 151.271C10.4694 153.65 12.4074 155.586 14.7923 155.586H22.773V188.067C22.773 193.232 26.9783 197.433 32.1486 197.433C37.319 197.433 41.5204 193.232 41.5204 188.067C41.5204 186.613 41.5204 158.744 41.5204 159.83L56.1663 174.093C58.09 176.015 60.6898 177.072 63.4929 177.072H104.864V178.119C104.864 180.612 103.627 182.948 101.538 184.377L93.009 190.367C88.2052 184.354 78.9831 187.879 78.9831 195.225C78.9831 199.59 82.5376 203.14 86.9069 203.14C91.2762 203.14 94.834 199.59 94.834 195.225C94.834 194.707 94.634 194.257 94.5393 193.767L103.631 187.38C106.695 185.28 108.526 181.815 108.526 178.118V177.072H128.811V198.536C125.36 199.392 122.739 202.372 122.739 206.08C122.739 210.445 126.297 213.999 130.666 213.999C135.036 213.999 138.59 210.445 138.59 206.08C138.59 202.355 135.947 199.365 132.472 198.526V177.072H155.907V178.119C155.907 181.816 157.738 185.28 160.781 187.367L168.349 192.712C166.462 198.25 170.685 203.14 175.767 203.14C180.136 203.14 183.691 199.59 183.691 195.225C183.691 188.23 175.266 184.681 170.247 189.572L162.877 184.366C160.806 182.948 159.569 180.611 159.569 178.119V177.072H201.787C204.616 177.072 207.372 175.901 209.368 173.843C221.68 160.364 222.806 160.723 224.166 156.757C224.173 156.744 224.186 156.74 224.193 156.73C225.346 154.643 224.562 150.613 224.812 114.773C224.812 113.762 223.993 112.944 222.981 112.944C221.969 112.944 221.15 113.762 221.15 114.773V152.955L215.057 149.583C214.181 149.097 213.058 149.415 212.568 150.297C212.078 151.179 212.396 152.293 213.283 152.783L220.214 156.619C218.981 158.828 220.545 156.466 206.722 171.315C206.368 171.679 205.905 171.886 205.485 172.161L200.682 164.342C200.157 163.485 199.034 163.214 198.165 163.742C197.303 164.267 197.035 165.396 197.564 166.257L201.941 173.383C-11.3051 173.433 93.7558 173.408 63.4942 173.415C61.6706 173.415 59.9868 172.736 58.7388 171.49L43.5956 156.744C42.2796 155.426 41.5249 153.64 41.5249 151.847C41.5249 82.6339 41.5249 241.618 41.5249 65.0075C41.6439 64.2738 41.0584 61.7654 43.5381 59.2889L58.8061 44.0901C59.7947 43.0228 61.6582 42.1253 63.5472 42.1253H199.011L195.25 48.2904C194.503 49.5143 195.399 51.0697 196.812 51.0697C197.427 51.0697 198.031 50.759 198.374 50.1911L202.658 43.1684C205.291 44.6488 200.496 41.0803 218.92 57.6101C219.5 58.1349 219.93 58.753 220.285 59.4247L213.252 63.486C211.158 64.6903 213 67.8736 215.083 66.6511L221.147 63.1485V100.607C221.147 101.618 221.966 102.436 222.978 102.436C223.99 102.436 224.809 101.618 224.809 100.607V62.6074C224.809 59.9136 223.717 57.022 221.391 54.9097L206.462 41.2435C204.893 39.7722 201.891 38.4681 199.396 38.4681H158.247C158.443 37.2834 157.263 32.6849 161.49 29.5772L168.894 24.4154C173.919 29.337 182.354 25.7522 182.354 18.7752C182.354 14.4104 178.797 10.8562 174.427 10.8562C169.401 10.8562 165.121 15.6936 167.009 21.2706L159.359 26.6053C153.41 30.9702 154.772 37.459 154.586 38.4681H131.151V15.4684C134.618 14.6238 137.254 11.6376 137.254 7.91894C137.254 3.55412 133.696 0 129.327 0C124.958 0 121.4 3.55412 121.4 7.91894C121.4 11.6323 124.029 14.6166 127.49 15.4645V38.4668H107.134V35.9055C107.134 32.2156 105.342 28.7326 102.325 26.5753L93.2063 20.219C93.3004 19.7334 93.4997 19.285 93.4997 18.7739C93.4997 14.409 89.9419 10.8549 85.5726 10.8549C81.2034 10.8549 77.6456 14.409 77.6456 18.7739C77.6456 26.0662 86.8448 29.698 91.6833 23.6178L100.211 29.5616C104.451 32.5948 103.28 37.2958 103.473 38.4668H63.5465C60.4997 38.4668 57.6822 39.9054 56.1696 41.5496L41.5197 56.1303V31.8801C41.5197 29.2972 39.5242 27.2724 37.0322 27.2724C29.4801 27.0583 8.70526 26.9794 8.49094 26.9794C3.80802 26.9794 0 30.7874 0 35.4668C0 40.1463 3.80802 43.9536 8.49225 43.9536ZM26.4353 114.051H37.8594V158.391H26.4353C26.4353 146.551 26.4353 113.237 26.4353 114.051ZM37.8594 110.393H26.4353C26.4353 109.061 26.4353 66.153 26.4353 66.8965H37.8594V110.393ZM32.1493 193.775C28.9992 193.775 26.4353 191.214 26.4353 188.067V162.048H37.8594V188.067C37.8594 191.214 35.2993 193.775 32.1493 193.775ZM8.48506 30.6373C8.69219 30.6373 29.4207 30.7156 36.9799 30.9303C37.4804 30.9303 37.8594 31.3376 37.8594 31.8807V63.2392H26.4353V44.0254C26.4353 41.936 24.7619 40.2964 22.6273 40.2964H8.4929C5.82899 40.2964 3.66231 38.1319 3.66231 35.4668C3.66231 32.8017 5.82834 30.6373 8.48506 30.6373Z" fill="#091DFF"/>
<path d="M70.5808 162.177C69.5687 162.177 68.75 162.995 68.75 164.006C68.75 165.017 69.5687 165.835 70.5808 165.835H100.22C101.232 165.835 102.051 165.017 102.051 164.006C102.051 162.995 101.232 162.177 100.22 162.177H70.5808Z" fill="#091DFF"/>
<path d="M222.801 38.4561C223.444 39.2394 224.6 39.3425 225.375 38.6989L235.094 30.6618C235.873 30.0189 235.984 28.8649 235.337 28.0901C234.689 27.3081 233.535 27.2004 232.762 27.8473L223.044 35.8843C222.264 36.5273 222.153 37.6813 222.801 38.4561Z" fill="#091DFF"/>
<path d="M225.604 41.9004C225.436 42.8972 226.104 43.8404 227.102 44.0114C227.356 44.0545 235.924 45.5257 236.181 45.5257C238.404 45.5257 238.686 42.2712 236.484 41.8933L227.717 40.4037C226.738 40.2321 225.779 40.9037 225.604 41.9004Z" fill="#091DFF"/>
<path d="M218.378 33.8554C219.15 33.8554 219.869 33.3626 220.119 32.5872L222.776 24.3536C223.087 23.3928 222.558 22.3602 221.596 22.0534C220.642 21.7388 219.605 22.2714 219.294 23.2322L216.637 31.4658C216.255 32.6459 217.139 33.8554 218.378 33.8554Z" fill="#091DFF"/>
<path fill-rule="evenodd" clip-rule="evenodd" d="M194.693 72.6532C194.693 81.9292 187.164 89.4499 177.879 89.4499C168.593 89.4499 161.065 81.9292 161.065 72.6532C161.065 63.3772 168.593 55.8564 177.879 55.8564C187.164 55.8564 194.693 63.3772 194.693 72.6532ZM133.155 85.822C133.108 86.0903 133.059 86.3566 133.003 86.6203L133.017 86.6393L131.442 95.9081C131.038 98.2866 131.597 100.726 132.994 102.693C134.391 104.659 136.512 105.991 138.893 106.395L149.999 108.279L150.024 108.312C153.712 109.145 157.074 111.04 159.693 113.765C162.315 116.487 164.079 119.917 164.768 123.629C165.458 127.342 165.044 131.175 163.577 134.656C162.109 138.136 159.654 141.112 156.511 143.213C153.368 145.313 149.681 146.45 145.9 146.478C142.12 146.508 138.414 145.43 135.241 143.379C132.068 141.327 129.565 138.39 128.044 134.934C126.523 131.477 126.049 127.648 126.682 123.926L128.394 113.84C128.799 111.461 128.24 109.022 126.843 107.055C125.446 105.089 123.325 103.757 120.944 103.352L111.817 101.805L111.798 101.779C107.959 101.322 104.345 99.7278 101.421 97.1998C98.4979 94.6718 96.3999 91.3246 95.4002 87.5949C94.3998 83.8652 94.5403 79.92 95.8066 76.2693C97.0729 72.6186 99.4022 69.4326 102.501 67.1193C105.596 64.8061 109.316 63.4732 113.179 63.2911C117.041 63.1089 120.868 64.0893 124.17 66.1037C127.469 68.118 130.089 71.0729 131.691 74.5885C133.292 78.1035 133.804 82.0179 133.156 85.8273L133.154 85.8227L133.155 85.822ZM197.32 119.425C197.32 125.711 192.219 130.807 185.926 130.807C179.633 130.807 174.533 125.712 174.533 119.425C174.533 113.139 179.633 108.044 185.926 108.044C192.219 108.044 197.32 113.139 197.32 119.425ZM101.696 130.116C101.696 140.787 93.0361 149.438 82.3537 149.438C71.6712 149.438 63.0117 140.787 63.0117 130.116C63.0117 119.444 71.6712 110.794 82.3537 110.794C93.0361 110.794 101.696 119.444 101.696 130.116Z" fill="#091DFF"/>
</svg>
