<svg width="206" height="202" viewBox="0 0 206 202" fill="none" xmlns="http://www.w3.org/2000/svg">
<g clip-path="url(#clip0_7219_3540)">
<path d="M47.458 180.601C49.9158 180.601 51.9082 178.624 51.9082 176.185C51.9082 173.746 49.9158 171.77 47.458 171.77C45.0002 171.77 43.0078 173.746 43.0078 176.185C43.0078 178.624 45.0002 180.601 47.458 180.601Z" fill="#091DFF"/>
<path d="M116.079 121.159C118.537 121.159 120.529 119.183 120.529 116.744C120.529 114.305 118.537 112.328 116.079 112.328C113.621 112.328 111.629 114.305 111.629 116.744C111.629 119.183 113.621 121.159 116.079 121.159Z" fill="#091DFF"/>
<path d="M94.4736 120.854C96.9535 120.854 98.9238 122.824 98.9238 125.269C98.9238 127.715 96.9195 129.685 94.4736 129.685C92.0277 129.685 90.0234 127.715 90.0234 125.269C90.0234 122.824 92.0277 120.854 94.4736 120.854Z" fill="#091DFF"/>
<path d="M133.235 27.4453C135.715 27.4453 137.686 29.4154 137.686 31.861C137.686 34.3066 135.681 36.2767 133.235 36.2767C130.789 36.2767 128.785 34.3066 128.785 31.861C128.785 29.4154 130.789 27.4453 133.235 27.4453Z" fill="#091DFF"/>
<path d="M85.8799 23.3691C88.3598 23.3691 90.3301 25.3392 90.3301 27.7848C90.3301 30.2304 88.3258 32.2005 85.8799 32.2005C83.434 32.2005 81.4297 30.2304 81.4297 27.7848C81.4297 25.3392 83.434 23.3691 85.8799 23.3691Z" fill="#091DFF"/>
<path d="M60.1611 44.7347C62.6189 44.7347 64.6113 42.7577 64.6113 40.319C64.6113 37.8803 62.6189 35.9033 60.1611 35.9033C57.7034 35.9033 55.7109 37.8803 55.7109 40.319C55.7109 42.7577 57.7034 44.7347 60.1611 44.7347Z" fill="#091DFF"/>
<path d="M197.71 110.29C192.581 108.252 187.078 109.611 183.646 113.687L174.712 123.537C168.869 129.991 160.648 133.727 151.714 133.727H148.962C131.807 133.727 111.56 150.031 111.56 170.751V193.169H94.4047V170.751C94.4047 150.371 77.5891 133.727 57.0027 133.727H54.251C45.3166 133.727 37.0957 129.991 31.2526 123.537L22.3183 113.687C18.8872 109.611 13.0442 108.252 8.2543 110.29C-0.306385 113.347 -2.71833 124.216 3.09071 130.67L24.6963 154.786C32.2378 162.938 42.8707 167.694 54.217 167.694C57.3084 167.694 60.06 170.071 60.06 173.468V193.169H47.0152C44.6032 193.169 42.565 195.207 42.565 197.584C42.565 199.962 44.6372 202 47.0152 202H158.508C160.92 202 162.958 199.962 162.958 197.584C162.958 195.207 160.886 193.169 158.508 193.169H145.463V173.468C145.463 170.411 147.875 167.694 151.306 167.694C162.618 167.694 173.251 162.938 180.793 154.786L202.398 130.67C208.581 123.877 206.169 113.347 197.609 110.29H197.71ZM68.7226 193.203V173.502C68.7226 165.69 62.2002 159.236 54.3189 159.236C45.3846 159.236 37.1636 155.5 31.3206 149.046L9.71505 124.929C8.0165 122.891 8.35621 119.495 11.4136 118.136C12.093 117.796 14.1652 117.117 16.2035 119.155L25.1379 129.005C32.6794 137.157 43.3123 141.913 54.6247 141.913H57.3763C73.1728 141.913 86.1837 154.82 86.1837 170.445V192.863H68.6887V193.203H68.7226ZM196.352 124.929L174.746 149.046C168.903 155.5 160.682 159.236 151.748 159.236C143.866 159.236 137.344 165.69 137.344 173.502V193.203H120.189V170.785C120.189 163.652 123.62 156.519 129.802 150.744C135.645 145.31 142.847 142.253 149.03 142.253H151.782C163.094 142.253 173.727 137.497 181.302 129.345L190.237 119.495C191.935 117.457 194.347 118.136 195.027 118.476C197.778 119.155 198.118 122.891 196.386 124.929H196.352Z" fill="#091DFF"/>
<path d="M59.1091 50.8486C57.4106 50.8486 55.6781 51.8676 54.9986 53.9056C54.3192 55.604 54.9986 57.642 56.6972 58.661L81.3941 76.3237L72.12 105.195C71.1009 107.913 73.1391 110.63 76.2305 110.63C77.2496 110.63 77.929 110.29 78.6424 109.951L103.339 92.288L128.036 109.951C129.395 110.97 131.467 110.97 133.2 109.951C134.559 108.932 135.272 106.894 134.898 105.195L125.624 76.3237L150.321 58.661C151.68 57.642 152.393 55.604 152.02 53.9056C151.34 52.2073 149.948 50.8486 147.909 50.8486H117.369L108.095 21.9769C107.416 20.2786 106.023 18.9199 103.985 18.9199C101.947 18.9199 100.554 19.9389 99.8743 21.9769L90.6002 50.8486H59.0412H59.1091ZM96.8509 56.3173L103.034 36.9562L109.216 56.3173C109.896 58.0156 111.289 59.3743 113.327 59.3743H133.913L117.437 71.2626C116.078 72.2816 115.365 74.3196 115.739 76.018L121.921 95.379L105.446 83.4906C104.087 82.4716 102.014 82.4716 100.282 83.4906L83.806 95.379L89.9887 76.018C90.6682 74.3196 89.9887 72.2816 88.2902 71.2626L72.154 59.3743H92.7404C94.4389 59.3743 96.1715 58.0156 96.8509 56.3173Z" fill="#091DFF"/>
<path d="M48.4762 121.533L56.3574 113.721C58.0899 112.022 58.0899 109.305 56.3574 107.607C54.6589 105.908 51.9072 105.908 50.1747 107.607L42.2934 115.419C40.5949 117.117 40.5949 119.835 42.2934 121.533C44.026 123.231 46.7436 123.231 48.4762 121.533Z" fill="#091DFF"/>
<path d="M155.859 15.1835L163.74 7.37116C165.439 5.67282 165.439 2.95549 163.74 1.25715C162.008 -0.441185 159.29 -0.441185 157.558 1.25715L149.676 9.06949C147.978 10.7678 147.978 13.4852 149.676 15.1835C151.409 16.8818 154.126 16.8818 155.859 15.1835Z" fill="#091DFF"/>
<path d="M21.708 65.8274H32.6806C35.0926 65.8274 37.1308 63.7894 37.1308 61.4118C37.1308 59.0341 35.0586 56.9961 32.6806 56.9961H21.708C19.2961 56.9961 17.2578 59.0341 17.2578 61.4118C17.2578 63.7894 19.33 65.8274 21.708 65.8274Z" fill="#091DFF"/>
<path d="M169.242 61.7174C169.242 64.0951 171.314 66.1331 173.692 66.1331H184.665C187.077 66.1331 189.115 64.0951 189.115 61.7174C189.115 59.3398 187.043 57.3018 184.665 57.3018H173.692C170.941 57.3018 169.242 59.3398 169.242 61.7174Z" fill="#091DFF"/>
<path d="M50.2087 15.1837C51.9072 16.882 54.6589 16.882 56.3914 15.1837C58.1239 13.4854 58.1239 10.768 56.3914 9.06971L48.4762 1.29133C46.7776 -0.407006 44.026 -0.407006 42.2934 1.29133C40.5949 2.98966 40.5949 5.707 42.2934 7.40534L50.1747 15.2177L50.2087 15.1837Z" fill="#091DFF"/>
<path d="M155.859 107.947C154.16 106.248 151.409 106.248 149.676 107.947C147.978 109.645 147.978 112.362 149.676 114.061L157.558 121.873C159.256 123.571 162.008 123.571 163.74 121.873C165.439 120.175 165.439 117.457 163.74 115.759L155.859 107.947Z" fill="#091DFF"/>
<path d="M42.2928 87.1927C41.2736 85.1547 38.8617 84.1357 36.7895 84.8151L26.4962 89.2307C24.424 90.2497 23.4049 92.6274 24.0843 94.6654C25.1034 96.7034 27.5154 97.7224 29.5876 97.0431L39.8808 92.6274C42.2928 91.9481 43.3119 89.2307 42.2928 87.1927Z" fill="#091DFF"/>
<path d="M163.772 35.9369C164.791 37.9749 167.203 38.9939 169.275 38.3146L179.568 33.8989C181.641 32.8799 182.66 30.5022 181.98 28.4642C180.961 26.4262 178.549 25.4072 176.477 26.0865L166.184 30.5022C163.772 31.1815 162.753 33.8989 163.772 35.9369Z" fill="#091DFF"/>
<path d="M25.8517 35.2575L36.1449 39.3335C38.2172 40.3525 40.9348 38.9938 41.6482 36.9558C42.6674 34.9178 41.3085 32.2005 39.2363 31.5212L28.9431 27.4452C26.8708 26.4262 24.1532 27.7848 23.4398 29.8228C22.7604 32.2005 23.7795 34.5782 25.8517 35.2575Z" fill="#091DFF"/>
<path d="M166.832 91.6091L177.125 95.6851C179.198 96.7041 181.915 95.3454 182.629 93.3074C183.648 91.2694 182.289 88.5521 180.217 87.8727L169.924 83.7967C167.851 82.7777 165.134 84.1364 164.42 86.1744C163.401 88.2124 164.42 90.5901 166.832 91.6091Z" fill="#091DFF"/>
<path d="M17.2558 167.728C10.0539 167.728 4.21094 173.502 4.21094 180.635C4.21094 187.768 10.0539 193.542 17.2558 193.542C24.4576 193.542 30.3006 187.768 30.3006 180.635C30.3006 173.502 24.4576 167.728 17.2558 167.728ZM17.2558 184.711C14.8439 184.711 12.8056 182.673 12.8056 180.295C12.8056 177.918 14.8778 175.88 17.2558 175.88C19.6338 175.88 21.706 177.918 21.706 180.295C21.706 182.673 19.6338 184.711 17.2558 184.711Z" fill="#091DFF"/>
<path d="M190.848 163.618C185.005 163.618 180.215 168.374 180.215 174.148C180.215 179.922 185.005 184.678 190.848 184.678C196.691 184.678 201.481 179.922 201.481 174.148C201.82 168.374 196.691 163.618 190.848 163.618ZM190.848 176.22C189.829 176.22 188.776 175.201 188.776 174.182C188.776 173.163 189.795 172.144 190.848 172.144C191.901 172.144 192.92 173.163 192.92 174.182C193.26 175.201 192.241 176.22 190.848 176.22Z" fill="#091DFF"/>
</g>
<defs>
<clipPath id="clip0_7219_3540">
<rect width="206" height="202" fill="white"/>
</clipPath>
</defs>
</svg>
