<svg width="62" height="62" viewBox="0 0 62 62" fill="none" xmlns="http://www.w3.org/2000/svg">
<path d="M32.1299 2.11938L31.6227 5.18463C29.4777 5.17209 27.3395 5.42755 25.2578 5.9451L24.1149 2.91025L17.4396 5.42294L18.6393 8.60553C16.8202 9.64563 15.1329 10.901 13.6139 12.3444L10.8968 10.1152L6.37094 15.625L9.17123 17.9221C8.12119 19.6969 7.28777 21.5911 6.68881 23.5644L3.04837 22.9625L1.88672 29.9975L5.5687 30.6067C5.52341 32.6917 5.72769 34.7393 6.16278 36.7144L2.66245 38.0313L5.17514 44.7066L8.64145 43.401C9.61907 45.2206 10.8093 46.9177 12.1871 48.4566L9.89029 51.2532L15.4039 55.7753L17.6252 53.0696C19.3672 54.1737 21.2628 55.077 23.2787 55.7488L22.7301 59.0789L29.7648 60.2406L30.2907 57.0579C32.476 57.1638 34.6215 56.9925 36.6935 56.5699L37.7798 59.4495L44.4513 56.9368L43.4184 54.1933C45.3707 53.1837 47.1876 51.9314 48.8258 50.4661L50.9977 52.2486L55.5199 46.7348L53.4385 45.0282C54.6356 43.1394 55.5821 41.1029 56.2539 38.9699L58.8462 39.3974L60.0038 32.3625L57.4536 31.9424C57.5265 29.7008 57.3064 27.4594 56.7987 25.2749L59.2017 24.3704L56.689 17.6951L54.2445 18.6147C53.1675 16.6628 51.8449 14.8568 50.309 13.241L52.023 11.1521L46.5133 6.62625L44.7308 8.79819C42.8664 7.6943 40.84 6.81588 38.6838 6.1983L39.1642 3.28091L32.1295 2.11914L32.1299 2.11938ZM31.1575 7.92438C32.5287 7.90666 33.8988 8.01048 35.2517 8.23462C47.8441 10.3131 56.3875 22.2338 54.3089 34.8261C52.2305 47.4181 40.3098 55.9618 27.7175 53.8833C15.1254 51.8045 6.58177 39.8837 8.66022 27.2916C10.479 16.2733 19.8362 8.35426 30.5821 7.93927C30.774 7.932 30.9647 7.9268 31.1573 7.92425L31.1575 7.92438ZM31.1838 10.1873C31.0098 10.1894 30.835 10.1921 30.6619 10.1986C20.9557 10.5664 12.5375 17.6964 10.8933 27.6587C9.01393 39.0441 16.703 49.7711 28.0886 51.6504C39.4739 53.5297 50.1971 45.8406 52.0764 34.455C53.9558 23.0698 46.2704 12.3466 34.8848 10.4673C33.6618 10.2653 32.4234 10.1716 31.1839 10.1873H31.1838ZM31.2332 12.3858C32.323 12.3718 33.4304 12.4519 34.5443 12.6358C44.7278 14.3166 51.6003 23.9086 49.9195 34.092C48.2387 44.2754 38.6505 51.1481 28.467 49.4673C25.3419 48.9514 22.5298 47.6896 20.1796 45.895L33.4622 29.7139L39.8612 34.9663L46.9376 26.3459L33.8328 15.5952L21.5004 19.8976L30.0981 26.9514L17.046 42.8599C13.7782 38.8558 12.1822 33.5204 13.0916 28.0108C14.5624 19.1004 22.0869 12.726 30.7677 12.3973C30.9227 12.3915 31.0773 12.388 31.2331 12.386L31.2332 12.3858Z" fill="#212121"/>
</svg>
