<svg width="35" height="36" viewBox="0 0 35 36" fill="none" xmlns="http://www.w3.org/2000/svg">
<path d="M17.504 24.2966C15.834 24.2966 14.2323 23.6331 13.0514 22.4523C11.8706 21.2714 11.2071 19.6697 11.2071 17.9997C11.2071 16.3297 11.8706 14.7281 13.0514 13.5472C14.2323 12.3663 15.834 11.7029 17.504 11.7029C19.174 11.7029 20.7756 12.3663 21.9565 13.5472C23.1374 14.7281 23.8008 16.3297 23.8008 17.9997C23.8008 19.6697 23.1374 21.2714 21.9565 22.4523C20.7756 23.6331 19.174 24.2966 17.504 24.2966ZM30.8712 19.7448C30.9432 19.1691 30.9972 18.5934 30.9972 17.9997C30.9972 17.406 30.9432 16.8123 30.8712 16.2006L34.6673 13.2681C35.0092 12.9982 35.0991 12.5125 34.8832 12.1167L31.285 5.89183C31.0691 5.49603 30.5834 5.33411 30.1876 5.49603L25.7078 7.29512C24.7723 6.59347 23.8008 5.98178 22.6674 5.53201L22.0017 0.764412C21.9652 0.552509 21.8548 0.360384 21.6901 0.222078C21.5255 0.0837714 21.3172 0.00821376 21.1022 0.00879236H13.9058C13.456 0.00879236 13.0782 0.332629 13.0062 0.764412L12.3406 5.53201C11.2071 5.98178 10.2356 6.59347 9.30011 7.29512L4.82037 5.49603C4.42457 5.33411 3.93881 5.49603 3.72292 5.89183L0.124734 12.1167C-0.109148 12.5125 -0.00120234 12.9982 0.340625 13.2681L4.13671 16.2006C4.06475 16.8123 4.01078 17.406 4.01078 17.9997C4.01078 18.5934 4.06475 19.1691 4.13671 19.7448L0.340625 22.7313C-0.00120234 23.0012 -0.109148 23.487 0.124734 23.8828L3.72292 30.1076C3.93881 30.5034 4.42457 30.6474 4.82037 30.5034L9.30011 28.6863C10.2356 29.406 11.2071 30.0177 12.3406 30.4674L13.0062 35.235C13.0782 35.6668 13.456 35.9907 13.9058 35.9907H21.1022C21.5519 35.9907 21.9297 35.6668 22.0017 35.235L22.6674 30.4674C23.8008 29.9997 24.7723 29.406 25.7078 28.6863L30.1876 30.5034C30.5834 30.6474 31.0691 30.5034 31.285 30.1076L34.8832 23.8828C35.0991 23.487 35.0092 23.0012 34.6673 22.7313L30.8712 19.7448Z" fill="white"/>
</svg>
