<svg width="221" height="27" viewBox="0 0 221 27" fill="none" xmlns="http://www.w3.org/2000/svg">
<g clip-path="url(#clip0_7685_12035)">
<path fill-rule="evenodd" clip-rule="evenodd" d="M75.7945 20.131H80.4049C81.2013 20.131 82.1906 20.0386 82.8937 19.5889C83.5283 19.1824 83.6714 18.3693 83.6714 17.6301C83.6714 15.5297 81.5248 15.271 80.0067 15.271H75.7883V20.131H75.7945ZM27.177 20.0447H35.5827V23.7898H23.5497V3.37664H27.1832V20.0447H27.177ZM13.9369 19.1516V13.5771H17.5705V20.7531L17.5021 20.8332C15.5048 23.1985 12.7548 24.0177 9.8554 24.0177C7.15512 24.0177 4.77838 23.0876 2.83716 21.0426C0.883502 18.9914 0 16.4352 0 13.5155C0 10.5958 0.914611 8.00256 2.88694 5.93291C4.82193 3.90021 7.15512 2.90234 9.8554 2.90234C12.3939 2.90234 14.7209 3.65382 16.6434 5.47093L16.8177 5.63724L14.8578 8.65548L14.64 8.45221C14.024 7.88552 13.3272 7.39891 12.5557 7.12788C11.7717 6.8507 10.9193 6.7583 10.0918 6.7583C8.36216 6.7583 6.84403 7.33731 5.581 8.62468C4.29307 9.94901 3.76422 11.6306 3.76422 13.5339C3.76422 15.4373 4.26196 17.0942 5.525 18.4124C6.71959 19.6567 8.15062 20.248 9.80563 20.248C11.2429 20.248 12.6926 19.9647 13.9307 19.1516H13.9369ZM118.57 20.0447H126.975V23.7898H114.942V3.37664H118.576V20.0447H118.57ZM100.452 8.42141L97.6768 15.2094H103.233L100.458 8.42141H100.452ZM96.0778 19.1269L94.2423 23.6235L94.1739 23.7898H90.2852L98.6287 3.37664H102.287L110.631 23.7898H106.742L106.674 23.6235L104.838 19.1269H96.084H96.0778ZM75.7945 11.6121H79.4841C80.9089 11.6121 82.595 11.3103 82.595 9.42544C82.595 8.7294 82.4395 8.03335 81.8919 7.6145C81.2573 7.13404 80.2618 7.04165 79.5152 7.04165H75.8008V11.6183L75.7945 11.6121ZM84.1443 13.1336C84.978 13.4416 85.7122 13.9343 86.3095 14.6735C87.0685 15.6159 87.3858 16.7555 87.3858 17.9936C87.3858 19.4657 86.913 20.7531 86.0046 21.8434C84.6669 23.4449 82.3835 23.7836 80.4858 23.7836H72.161V3.37664H79.5899C80.6973 3.37664 81.8422 3.49983 82.8999 3.87557C83.6838 4.15276 84.474 4.58394 85.0278 5.2615C85.8801 6.30865 86.3592 7.51594 86.3592 8.91419C86.3592 10.3124 85.9797 11.6984 84.8846 12.6038C84.6731 12.7763 84.3993 12.9981 84.1629 13.1274C84.1629 13.1274 84.1505 13.1274 84.1505 13.1336H84.1443Z" fill="black"/>
<path fill-rule="evenodd" clip-rule="evenodd" d="M193.856 13.8977L189.687 18.4435V23.5191H187.833V3.65414H189.687V15.9181L200.719 3.65414H203.276L195.175 12.4748L203.531 23.5191H201.117L193.856 13.9038V13.8977ZM166.355 23.3466L166.287 23.5129H164.327L172.907 3.51863H174.518L183.098 23.5129H181.064L180.995 23.3466C177.797 15.7517 177.511 15.1111 173.691 6.05025C169.653 15.5731 169.709 15.3883 166.361 23.3466H166.355ZM207.743 3.65414H221.002V5.51436H207.743V3.65414ZM207.743 12.5857H221.002V14.4459H209.466V21.6527H221.002V23.5129H207.743V12.5857ZM145.027 18.2403C145.027 19.0287 144.877 19.7925 144.554 20.5009C144.243 21.1846 143.807 21.7759 143.26 22.2625C142.681 22.7738 142.015 23.1372 141.306 23.3897C140.51 23.6731 139.67 23.7901 138.836 23.7901C137.473 23.7901 136.123 23.5622 134.86 22.9955C133.603 22.435 132.465 21.6034 131.451 20.6302L131.258 20.4454L132.477 18.9425L132.676 19.1396C133.131 19.5954 133.603 20.0204 134.114 20.3961C134.568 20.7349 135.053 21.0244 135.563 21.2523C136.067 21.4802 136.59 21.6466 137.125 21.7574C137.716 21.8806 138.32 21.9299 138.917 21.9299C139.514 21.9299 140.112 21.8498 140.678 21.6527C141.163 21.4864 141.63 21.2462 142.028 20.9012C142.382 20.5933 142.669 20.2175 142.88 19.7802C143.086 19.3428 143.185 18.8685 143.185 18.3819V18.3265C143.185 17.8953 143.129 17.458 142.986 17.0514C142.843 16.6511 142.582 16.3308 142.27 16.0659C141.841 15.6963 141.306 15.4253 140.796 15.2159C140.012 14.8956 139.153 14.68 138.332 14.4952C137.386 14.2857 136.428 14.0209 135.526 13.639C134.835 13.3495 134.151 12.9737 133.572 12.4625C133.081 12.0251 132.683 11.4893 132.434 10.8486C132.179 10.1957 132.079 9.48735 132.079 8.78515V8.72971C132.079 7.98439 132.228 7.26987 132.54 6.60462C132.851 5.94554 133.28 5.37885 133.809 4.90455C134.369 4.39946 135.016 4.03604 135.706 3.77733C136.478 3.49399 137.281 3.37695 138.089 3.37695C139.253 3.37695 140.454 3.53095 141.543 3.97444C142.582 4.39946 143.527 5.03391 144.392 5.78539L144.597 5.96402L143.422 7.5409L143.216 7.34995C142.482 6.66622 141.648 6.07489 140.727 5.72379C139.863 5.39117 138.96 5.24334 138.04 5.24334C137.461 5.24334 136.87 5.31725 136.322 5.52052C135.856 5.68683 135.408 5.92706 135.022 6.25968C134.68 6.55535 134.406 6.90645 134.213 7.32531C134.027 7.72569 133.933 8.15686 133.933 8.60652V8.66196C133.933 9.09929 133.989 9.54279 134.132 9.95549C134.275 10.362 134.537 10.6947 134.848 10.9657C135.283 11.3476 135.85 11.6309 136.372 11.8404C137.193 12.173 138.083 12.407 138.942 12.598C140.454 12.9368 142.358 13.5096 143.558 14.5999C144.579 15.53 145.033 16.7619 145.033 18.191V18.2464L145.027 18.2403ZM156.929 5.51436V23.5129H155.075V5.51436H148.835V3.65414H163.17V5.51436H156.929Z" fill="black"/>
<path fill-rule="evenodd" clip-rule="evenodd" d="M60.1213 24.0489C64.5077 20.9752 66.5733 15.5793 65.3539 10.3991C64.1344 5.21876 59.8662 1.28889 54.5652 0.451172C59.7915 1.70159 63.4375 6.11192 63.8917 11.1752C62.6225 9.17328 60.9986 7.47321 59.132 6.12424C58.8458 4.76911 58.3854 3.44478 57.7445 2.17588C58.1241 3.32774 58.3792 4.50424 58.5098 5.69306C56.9606 4.67055 55.262 3.88211 53.4701 3.35238C54.3536 2.70561 55.2994 2.11428 56.2886 1.59071C55.0194 1.99109 53.8123 2.51466 52.6862 3.14295C50.1352 2.51466 47.4225 2.41611 44.7098 2.93352C47.1736 2.71177 49.5877 2.97048 51.8462 3.63573C49.8677 4.87382 48.1505 6.44454 46.763 8.25548C45.2449 8.05221 43.6832 8.02142 42.1028 8.17541C43.5836 8.19389 45.0333 8.37252 46.4332 8.69282C44.9898 10.6886 43.9383 12.9615 43.3472 15.3822C42.3828 15.2898 41.406 15.296 40.4105 15.3946C41.3749 15.4561 42.3206 15.6101 43.2414 15.838C42.9054 17.3903 42.7623 19.0041 42.8308 20.6426C40.4229 18.1602 39.1039 14.6923 39.4772 11.015C38.5128 16.2446 40.8398 21.5357 45.3693 24.3938C49.8988 27.2519 55.7224 27.1164 60.1088 24.0427L60.1213 24.0489ZM60.5257 20.6364C59.1382 22.0655 57.4148 23.1496 55.4985 23.7717C55.1127 22.9771 54.6647 22.2256 54.1545 21.5234C55.7722 20.0389 57.0912 18.2403 58.0121 16.2138C59.02 17.5566 59.8662 19.0411 60.5195 20.6364H60.5257ZM56.9357 14.8956C56.8362 15.1112 56.7304 15.3206 56.6184 15.5301C55.6913 17.2794 54.4781 18.844 53.0408 20.1621C50.9378 17.8892 48.1567 16.3062 45.0955 15.6533C45.699 13.3311 46.6821 11.1259 47.9949 9.124C51.4543 10.2204 54.5465 12.2223 56.9357 14.8956ZM51.7094 21.2647C50.409 22.2441 48.9655 23.0387 47.4163 23.6239C46.3212 23.2235 45.3071 22.6753 44.3987 22.01C44.3302 20.0882 44.5107 18.1972 44.9213 16.3678C47.5905 17.3656 49.9361 19.0596 51.7094 21.2647ZM61.9132 18.9179C61.0546 17.2425 59.9782 15.721 58.7214 14.3905C59.3809 12.2962 59.6111 10.1095 59.4058 7.95366C61.2412 9.65989 62.7469 11.7419 63.786 14.1072L63.7051 14.563C63.3878 16.1645 62.7718 17.6305 61.9132 18.9179ZM57.6014 13.2879C55.0132 10.9411 51.8338 9.29647 48.3869 8.54499C49.5939 6.82644 51.0498 5.26188 52.7235 3.92523C54.8763 4.67671 56.8673 5.80393 58.6032 7.2453C58.6405 9.29647 58.3045 11.3415 57.6077 13.2879H57.6014ZM52.7297 22.6999C53.0408 23.1927 53.327 23.704 53.5821 24.2337C52.4498 24.4123 51.2676 24.4308 50.0792 24.2768C51.0187 23.8333 51.9022 23.3036 52.7297 22.6999Z" fill="black"/>
</g>
<defs>
<clipPath id="clip0_7685_12035">
<rect width="221" height="26" fill="white" transform="translate(0 0.457031)"/>
</clipPath>
</defs>
</svg>
