<svg width="106" height="51" viewBox="0 0 106 51" fill="none" xmlns="http://www.w3.org/2000/svg">
<g clip-path="url(#clip0_7685_11901)">
<path d="M45.7812 11.0712L47.1443 15.7319L57.3246 5.69291L64.1037 7.48418L65.9202 14.1693L55.7342 24.2139H61.8236L70.7227 15.4383L67.6194 4.01727L56.0377 0.957031L45.7812 11.0712Z" fill="black"/>
<path d="M44.1784 1.17578H50.2678L40.0798 11.2225L41.8963 17.9076L48.6755 19.6988L58.8395 9.67577L60.1263 14.4117L49.9623 24.4347L38.3806 21.3745L35.2773 9.95347L44.1784 1.17578Z" fill="black"/>
<path d="M0 46.8626V32.5195H5.56792C6.61901 32.5195 7.49255 32.6829 8.18854 33.0098C8.88925 33.332 9.41245 33.7732 9.75809 34.3335C10.1084 34.8937 10.2836 35.5287 10.2836 36.2383C10.2836 36.822 10.17 37.3215 9.94271 37.7371C9.71543 38.148 9.41006 38.4818 9.02661 38.7386C8.64306 38.9954 8.21458 39.1798 7.74112 39.2918V39.4319C8.25719 39.4599 8.75196 39.6164 9.22544 39.9012C9.70359 40.1813 10.0942 40.5782 10.3973 41.0917C10.7003 41.6053 10.8517 42.2263 10.8517 42.9546C10.8517 43.6971 10.6695 44.3647 10.3049 44.9577C9.94033 45.5459 9.39116 46.0105 8.65727 46.3513C7.92339 46.6922 7.00014 46.8626 5.88751 46.8626H0ZM2.63482 44.6915H5.4685C6.42489 44.6915 7.11377 44.5118 7.53516 44.1523C7.96127 43.7881 8.17433 43.3212 8.17433 42.7516C8.17433 42.3267 8.0678 41.9438 7.85474 41.603C7.64169 41.2575 7.33867 40.9867 6.94569 40.7906C6.55273 40.5898 6.08399 40.4895 5.53952 40.4895H2.63482V44.6915ZM2.63482 38.6195H5.24123C5.69576 38.6195 6.1053 38.5378 6.46987 38.3744C6.83443 38.2064 7.12088 37.9706 7.3292 37.6671C7.54226 37.3589 7.64879 36.9947 7.64879 36.5746C7.64879 36.0189 7.44994 35.5613 7.05222 35.2018C6.65926 34.8424 6.07452 34.6626 5.29805 34.6626H2.63482V38.6195Z" fill="black"/>
<path d="M19.9841 42.3385V36.1055H22.5549V46.8627H20.0621V44.9508H19.9485C19.7023 45.553 19.2975 46.0456 18.7341 46.4285C18.1754 46.8114 17.4865 47.0028 16.6674 47.0028C15.9525 47.0028 15.3204 46.8464 14.7712 46.5335C14.2268 46.2161 13.8006 45.7562 13.4929 45.1539C13.1851 44.5469 13.0312 43.8139 13.0312 42.9548V36.1055H15.6021V42.5626C15.6021 43.2442 15.7915 43.7859 16.1703 44.1874C16.549 44.5889 17.0462 44.7897 17.6617 44.7897C18.0405 44.7897 18.4074 44.6987 18.7625 44.5165C19.1176 44.3345 19.4087 44.0637 19.636 43.7042C19.868 43.34 19.9841 42.8847 19.9841 42.3385Z" fill="black"/>
<path d="M27.7701 32.5195V46.8626H25.1992V32.5195H27.7701Z" fill="black"/>
<path d="M30.5273 46.8626V32.5195H33.0983V37.8842H33.2048C33.3374 37.6228 33.5244 37.3449 33.7658 37.0508C34.0073 36.7519 34.334 36.4975 34.746 36.2874C35.1579 36.0727 35.6834 35.9653 36.3225 35.9653C37.1653 35.9653 37.9253 36.1777 38.6022 36.6025C39.2841 37.0228 39.8238 37.6461 40.2215 38.4725C40.6239 39.2942 40.8252 40.3027 40.8252 41.4979C40.8252 42.6792 40.6287 43.683 40.2357 44.5094C39.8427 45.3358 39.3078 45.9661 38.6307 46.4004C37.9536 46.8346 37.1866 47.0517 36.3297 47.0517C35.7046 47.0517 35.1862 46.949 34.7743 46.7435C34.3624 46.5381 34.031 46.2906 33.78 46.0011C33.5339 45.707 33.3421 45.4292 33.2048 45.1677H33.0556V46.8626H30.5273ZM33.0486 41.4839C33.0486 42.1796 33.148 42.789 33.3469 43.3119C33.5505 43.8348 33.8416 44.2433 34.2204 44.5375C34.6039 44.8269 35.0679 44.9716 35.6123 44.9716C36.1805 44.9716 36.6564 44.8222 37.0399 44.5235C37.4234 44.22 37.7122 43.8067 37.9063 43.2838C38.1051 42.7562 38.2046 42.1563 38.2046 41.4839C38.2046 40.8163 38.1075 40.2234 37.9134 39.7051C37.7193 39.1868 37.4304 38.7806 37.047 38.4865C36.6634 38.1924 36.1853 38.0452 35.6123 38.0452C35.0632 38.0452 34.5968 38.1876 34.2133 38.4725C33.8298 38.7572 33.5386 39.1565 33.3397 39.6701C33.1456 40.1836 33.0486 40.7883 33.0486 41.4839Z" fill="black"/>
<path d="M46.1504 47.0792C45.4591 47.0792 44.8365 46.9579 44.2826 46.7151C43.7333 46.4676 43.2977 46.1034 42.9758 45.6225C42.6586 45.1417 42.5 44.5487 42.5 43.8437C42.5 43.2367 42.6136 42.7348 42.8409 42.3379C43.0681 41.9411 43.3782 41.6236 43.7712 41.3855C44.1642 41.1473 44.6068 40.9676 45.0993 40.8462C45.5964 40.7202 46.1101 40.6291 46.6404 40.5731C47.2795 40.5077 47.798 40.4493 48.1957 40.398C48.5934 40.3419 48.8823 40.258 49.0621 40.1459C49.2468 40.0291 49.3391 39.8494 49.3391 39.6066V39.5646C49.3391 39.037 49.1805 38.6284 48.8633 38.339C48.5461 38.0495 48.0892 37.9047 47.4926 37.9047C46.8629 37.9047 46.3634 38.0402 45.9941 38.311C45.6296 38.5817 45.3834 38.9016 45.2555 39.2704L42.855 38.9343C43.0444 38.2806 43.3569 37.7344 43.7925 37.2955C44.2281 36.852 44.7607 36.5204 45.3904 36.301C46.0202 36.0769 46.7162 35.9648 47.4784 35.9648C48.004 35.9648 48.5272 36.0256 49.048 36.1469C49.5688 36.2683 50.0446 36.4691 50.4754 36.7493C50.9062 37.0247 51.2519 37.4006 51.5123 37.8768C51.7775 38.353 51.9101 38.9483 51.9101 39.6627V46.8621H49.4386V45.3844H49.3533C49.1971 45.6832 48.977 45.9634 48.6929 46.2249C48.4135 46.4817 48.0608 46.6894 47.6346 46.8481C47.2133 47.0022 46.7185 47.0792 46.1504 47.0792ZM46.8179 45.2163C47.334 45.2163 47.7815 45.116 48.1602 44.9152C48.539 44.7098 48.8301 44.439 49.0338 44.1028C49.242 43.7667 49.3462 43.4001 49.3462 43.0033V41.7357C49.2657 41.801 49.1284 41.8617 48.9343 41.9177C48.7449 41.9737 48.5318 42.0228 48.2951 42.0648C48.0584 42.1068 47.824 42.1442 47.5921 42.1769C47.36 42.2095 47.1588 42.2376 46.9884 42.2609C46.6049 42.3122 46.2616 42.3963 45.9586 42.513C45.6556 42.6297 45.4165 42.7932 45.2413 43.0033C45.0661 43.2087 44.9785 43.4749 44.9785 43.8017C44.9785 44.2686 45.1513 44.621 45.497 44.8592C45.8426 45.0972 46.283 45.2163 46.8179 45.2163Z" fill="black"/>
<path d="M62.512 36.4632C62.4457 35.8517 62.1664 35.3753 61.674 35.0346C61.1863 34.6937 60.5519 34.5233 59.7707 34.5233C59.2214 34.5233 58.7504 34.6051 58.3574 34.7685C57.9644 34.9318 57.6638 35.1536 57.4554 35.4337C57.2471 35.7139 57.1406 36.0337 57.1359 36.3932C57.1359 36.6921 57.2045 36.9511 57.3418 37.1706C57.4838 37.3901 57.6756 37.5768 57.917 37.7308C58.1585 37.8803 58.426 38.0064 58.7196 38.1091C59.0131 38.2118 59.3091 38.2982 59.6073 38.3682L60.9709 38.7044C61.5201 38.8304 62.048 39.0008 62.5546 39.2156C63.066 39.4304 63.5228 39.7011 63.9253 40.028C64.3325 40.3548 64.6545 40.7494 64.8912 41.2116C65.1279 41.6738 65.2463 42.2154 65.2463 42.8364C65.2463 43.6767 65.0285 44.4168 64.5929 45.0564C64.1573 45.6915 63.5276 46.1887 62.7038 46.5482C61.8847 46.9031 60.8928 47.0804 59.728 47.0804C58.5965 47.0804 57.614 46.9077 56.7808 46.5622C55.9522 46.2167 55.3035 45.7125 54.8348 45.0495C54.3708 44.3865 54.1199 43.5787 54.082 42.6263H56.6743C56.7121 43.1259 56.8683 43.5414 57.143 43.8729C57.4176 44.2044 57.775 44.4518 58.2153 44.6152C58.6604 44.7787 59.1576 44.8604 59.7067 44.8604C60.2797 44.8604 60.7815 44.7763 61.2124 44.6083C61.648 44.4355 61.9888 44.1974 62.235 43.8939C62.4812 43.5857 62.6067 43.2262 62.6114 42.8153C62.6067 42.4418 62.4954 42.1337 62.2777 41.8909C62.0599 41.6435 61.7545 41.438 61.3615 41.2746C60.9733 41.1065 60.5187 40.9571 59.9979 40.8264L58.3431 40.4062C57.1453 40.1027 56.1984 39.6428 55.5024 39.0265C54.8111 38.4056 54.4655 37.5814 54.4655 36.5543C54.4655 35.7092 54.6975 34.9692 55.1615 34.3342C55.6302 33.6992 56.267 33.2066 57.0719 32.8564C57.8768 32.5017 58.7883 32.3242 59.8062 32.3242C60.8383 32.3242 61.7426 32.5017 62.5191 32.8564C63.3003 33.2066 63.9134 33.6946 64.3586 34.3202C64.8036 34.9412 65.0332 35.6555 65.0474 36.4632H62.512Z" fill="black"/>
<path d="M69.7307 46.8627L66.6484 36.1055H69.2691L71.1867 43.6691H71.286L73.2461 36.1055H75.8384L77.7985 43.6272H77.905L79.7942 36.1055H82.4219L79.3326 46.8627H76.6551L74.6097 39.5932H74.4606L72.4153 46.8627H69.7307Z" fill="black"/>
<path d="M87.3574 47.0792C86.6661 47.0792 86.0435 46.9579 85.4896 46.7151C84.9403 46.4676 84.5048 46.1034 84.1828 45.6225C83.8656 45.1417 83.707 44.5487 83.707 43.8437C83.707 43.2367 83.8206 42.7348 84.0479 42.3379C84.2751 41.9411 84.5852 41.6236 84.9782 41.3855C85.3712 41.1473 85.8139 40.9676 86.3063 40.8462C86.8035 40.7202 87.3171 40.6291 87.8474 40.5731C88.487 40.5077 89.0046 40.4493 89.403 40.398C89.8005 40.3419 90.0894 40.258 90.2696 40.1459C90.4542 40.0291 90.5461 39.8494 90.5461 39.6066V39.5646C90.5461 39.037 90.3879 38.6284 90.0699 38.339C89.7528 38.0495 89.2961 37.9047 88.6999 37.9047C88.0699 37.9047 87.5705 38.0402 87.2011 38.311C86.8366 38.5817 86.5904 38.9016 86.4625 39.2704L84.062 38.9343C84.2514 38.2806 84.5639 37.7344 84.9995 37.2955C85.4351 36.852 85.9677 36.5204 86.5975 36.301C87.2272 36.0769 87.9232 35.9648 88.6858 35.9648C89.2113 35.9648 89.7343 36.0256 90.2546 36.1469C90.7757 36.2683 91.2518 36.4691 91.682 36.7493C92.1131 37.0247 92.4594 37.4006 92.7191 37.8768C92.9841 38.353 93.1174 38.9483 93.1174 39.6627V46.8621H90.6459V45.3844H90.5602C90.4038 45.6832 90.1839 45.9634 89.8995 46.2249C89.6203 46.4817 89.2679 46.6894 88.8421 46.8481C88.4199 47.0022 87.9256 47.0792 87.3574 47.0792ZM88.0249 45.2163C88.5409 45.2163 88.9887 45.116 89.3668 44.9152C89.7458 44.7098 90.0373 44.439 90.2404 44.1028C90.4489 43.7667 90.5531 43.4001 90.5531 43.0033V41.7357C90.4727 41.801 90.3358 41.8617 90.1415 41.9177C89.9516 41.9737 89.7387 42.0228 89.502 42.0648C89.2652 42.1068 89.0311 42.1442 88.7988 42.1769C88.5674 42.2095 88.366 42.2376 88.1954 42.2609C87.8119 42.3122 87.4686 42.3963 87.1656 42.513C86.8627 42.6297 86.6235 42.7932 86.4484 43.0033C86.2731 43.2087 86.1856 43.4749 86.1856 43.8017C86.1856 44.2686 86.3584 44.621 86.704 44.8592C87.0497 45.0972 87.49 45.2163 88.0249 45.2163Z" fill="black"/>
<path d="M95.7031 50.8961V36.1049H98.2312V37.8837H98.3805C98.513 37.6223 98.7003 37.3445 98.9414 37.0504C99.1835 36.7515 99.5103 36.4971 99.9219 36.287C100.334 36.0722 100.859 35.9648 101.499 35.9648C102.341 35.9648 103.101 36.1773 103.778 36.6021C104.46 37.0223 104.999 37.6457 105.398 38.4721C105.8 39.2938 106.001 40.3023 106.001 41.4975C106.001 42.6788 105.805 43.6826 105.412 44.509C105.019 45.3354 104.483 45.9657 103.807 46.3999C103.129 46.8342 102.363 47.0513 101.506 47.0513C100.88 47.0513 100.362 46.9486 99.9502 46.7431C99.5386 46.5377 99.2064 46.2902 98.9556 46.0007C98.71 45.7066 98.5183 45.4288 98.3805 45.1673H98.2745V50.8961H95.7031ZM98.2242 41.4835C98.2242 42.1792 98.324 42.7885 98.5227 43.3114C98.7259 43.8344 99.0174 44.2429 99.3963 44.5371C99.7797 44.8265 100.243 44.9712 100.788 44.9712C101.356 44.9712 101.833 44.8218 102.216 44.523C102.599 44.2195 102.888 43.8063 103.082 43.2834C103.281 42.7558 103.38 42.1559 103.38 41.4835C103.38 40.8159 103.283 40.2229 103.09 39.7047C102.895 39.1864 102.606 38.7802 102.223 38.4861C101.84 38.1919 101.361 38.0448 100.788 38.0448C100.239 38.0448 99.7726 38.1872 99.3893 38.4721C99.0059 38.7568 98.7144 39.156 98.5157 39.6696C98.3213 40.1832 98.2242 40.7878 98.2242 41.4835Z" fill="black"/>
</g>
<defs>
<clipPath id="clip0_7685_11901">
<rect width="106" height="50" fill="white" transform="translate(0 0.957031)"/>
</clipPath>
</defs>
</svg>
