<svg width="140" height="51" viewBox="0 0 140 51" fill="none" xmlns="http://www.w3.org/2000/svg">
<path d="M25.78 0.97762C26.1391 0.773085 26.5788 0.773085 26.9378 0.977619L36.8897 6.6487C37.0873 6.76135 37.0872 7.04708 36.8894 7.15949L33.5302 9.06813C33.1715 9.27195 32.7322 9.27167 32.3738 9.06741L26.937 5.96931C26.5784 5.765 26.1392 5.76477 25.7805 5.96869L20.347 9.05729C19.9887 9.26097 19.5501 9.26101 19.1916 9.0574L15.8398 7.15296C15.6421 7.04056 15.6419 6.75483 15.8395 6.64218L25.78 0.97762Z" fill="white"/>
<path d="M11.5738 9.72992L14.9265 11.6282C15.1244 11.7402 15.1251 12.0259 14.9277 12.1389L9.68181 15.1414C9.287 15.3674 9.28825 15.9386 9.68406 16.1628L14.9118 19.1244C15.1098 19.2365 15.1103 19.5224 14.9128 19.6351L11.574 21.5433C11.2084 21.7523 10.9826 22.1419 10.9826 22.5639V40.8649C10.9826 41.3157 10.4971 41.5986 10.1066 41.3751L0.590927 35.9314C0.22555 35.7222 0 35.3329 0 34.9111V16.3521C0 15.9297 0.226303 15.5397 0.592648 15.331L10.4189 9.73152C10.7768 9.52756 11.2153 9.52696 11.5738 9.72992Z" fill="white"/>
<path d="M33.532 22.1977L36.7463 24.0239C37.1134 24.2324 37.3402 24.6228 37.3402 25.0459V43.713C37.3402 44.1382 37.1111 44.5302 36.7412 44.7379L26.933 50.2451C26.5758 50.4457 26.1401 50.4448 25.7837 50.2426L15.9697 44.6756C15.6022 44.4671 15.375 44.0766 15.375 43.6532V24.7037C15.375 24.4921 15.4884 24.2969 15.672 24.1926L19.1832 22.1977C19.5411 21.9943 19.9789 21.994 20.337 22.1969L25.7814 25.2812C26.139 25.4838 26.5762 25.4838 26.9339 25.2812L32.3782 22.1969C32.7363 21.994 33.1742 21.9943 33.532 22.1977Z" fill="white"/>
<path d="M41.0149 9.72602L37.6567 11.6274C37.4587 11.7394 37.4581 12.0251 37.6555 12.1381L42.9013 15.1406C43.2962 15.3666 43.295 15.9378 42.8991 16.162L37.6714 19.1236C37.4734 19.2357 37.4729 19.5215 37.6705 19.6343L41.0092 21.5425C41.3749 21.7515 41.6006 22.1411 41.6006 22.5631V40.8685C41.6006 41.3183 42.0842 41.6012 42.4747 41.3797L52.1217 35.9084C52.4891 35.6999 52.7163 35.3094 52.7163 34.886V16.314C52.7163 15.888 52.4865 15.4955 52.1154 15.2881L42.1614 9.72292C41.8048 9.52355 41.3704 9.52473 41.0149 9.72602Z" fill="white"/>
<path fill-rule="evenodd" clip-rule="evenodd" d="M79.1963 18.4421C78.1423 17.8908 76.9663 17.6152 75.6679 17.6152H69.7109V33.3744H75.6679C76.9663 33.3744 78.1423 33.0988 79.1963 32.5473C80.2654 31.996 81.1131 31.192 81.7395 30.1352C82.3656 29.0786 82.6788 27.8303 82.6788 26.3907V24.5989C82.6788 23.1593 82.3656 21.911 81.7395 20.8542C81.1131 19.7976 80.2654 18.9935 79.1963 18.4421ZM75.6679 30.5488H73.2622V20.4408H75.6679C76.6454 20.4408 77.4397 20.7624 78.0507 21.4057C78.6617 22.0336 78.9672 22.9296 78.9672 24.0934V26.8961C78.9672 28.0601 78.6617 28.9636 78.0507 29.6068C77.4397 30.2348 76.6454 30.5488 75.6679 30.5488ZM97.8812 33.3744H101.41V27.2867H105.465C106.336 27.2867 107.13 27.0722 107.848 26.6434C108.581 26.2146 109.154 25.6326 109.566 24.8976C109.994 24.147 110.208 23.3353 110.208 22.4624V22.3245C110.208 21.4362 109.994 20.6323 109.566 19.9124C109.138 19.1927 108.558 18.6336 107.825 18.2355C107.107 17.8219 106.32 17.6152 105.465 17.6152H97.8812V33.3744ZM104.64 24.507H101.41V20.4408H104.64C105.236 20.4408 105.717 20.6399 106.083 21.0381C106.465 21.4209 106.656 21.8804 106.656 22.4165V22.5542C106.656 23.075 106.465 23.5345 106.083 23.9326C105.702 24.3156 105.221 24.507 104.64 24.507ZM120.814 33.3744V26.8042H115.384V33.3744H111.832V17.6152H115.361V23.8637H120.814V17.6152H124.342V33.3744H120.814ZM134.638 27.3326V33.3744H131.11V27.3326L125.726 17.6152H129.713L132.989 23.8637H133.103L136.38 17.6152H140L134.638 27.3326ZM95.6822 28.9864C95.6822 30.0125 95.4378 30.8779 94.9491 31.5824C94.4603 32.2714 93.8111 32.7845 93.0015 33.1214C92.2073 33.4432 91.3367 33.604 90.3896 33.604H90.0231C88.9386 33.604 87.9611 33.3742 87.0905 32.9148C86.2197 32.4553 85.5325 31.7968 85.0284 30.9391C84.5396 30.0661 84.2952 29.0324 84.2952 27.8378V27.1716C84.2952 25.9923 84.5473 24.9662 85.0513 24.0933C85.5554 23.2203 86.235 22.5541 87.0905 22.0946C87.9611 21.6352 88.9386 21.4054 90.0231 21.4054H90.3896C91.3367 21.4054 92.215 21.6045 93.0245 22.0028C93.834 22.3855 94.4832 22.9522 94.972 23.7027C95.4607 24.4378 95.7051 25.3109 95.7051 26.3216V28.0675H87.6861V28.6188C87.6861 29.3845 87.9076 30.0279 88.3505 30.5485C88.8088 31.054 89.4274 31.3067 90.2064 31.3067C90.909 31.3067 91.4589 31.1152 91.8559 30.7324C92.2684 30.3341 92.4745 29.7521 92.4745 28.9864H95.6822ZM90.046 23.7027C89.3739 23.7027 88.8241 23.9401 88.3964 24.4149C87.9839 24.8897 87.7472 25.4946 87.6861 26.2296H92.3142C92.3142 25.4486 92.1309 24.8361 91.7643 24.3919C91.413 23.9325 90.8403 23.7027 90.046 23.7027Z" fill="white"/>
<path fill-rule="evenodd" clip-rule="evenodd" d="M25.9626 10.7837L17.9483 15.3695C17.7513 15.4822 17.7517 15.7682 17.9489 15.8804L25.9639 20.4398C26.1419 20.5411 26.3598 20.5411 26.5377 20.4398L34.5527 15.8804C34.75 15.7682 34.7503 15.4822 34.5534 15.3695L26.539 10.7837C26.3604 10.6815 26.1413 10.6815 25.9626 10.7837ZM25.9626 13.2798L22.3234 15.3622C22.1262 15.4749 22.1267 15.7609 22.324 15.8731L25.9639 17.9437C26.1419 18.045 26.3598 18.045 26.5377 17.9437L30.1777 15.8731C30.375 15.7609 30.3753 15.4749 30.1783 15.3622L26.539 13.2798C26.3604 13.1775 26.1413 13.1775 25.9626 13.2798Z" fill="#E4A055"/>
</svg>
