<svg width="155" height="35" viewBox="0 0 155 35" fill="none" xmlns="http://www.w3.org/2000/svg">
<g clip-path="url(#clip0_7685_12046)">
<path d="M38.4663 7.31204H40.0416C41.0674 7.31204 41.91 8.16668 41.91 9.20712V9.35576H41.9466C42.2397 7.73936 44.3461 6.92188 48.321 6.92188C52.2958 6.92188 52.479 7.42351 53.6879 8.42679C54.8968 9.43007 55.5013 10.7306 55.5013 12.2913V20.0946C55.5013 21.2279 55.3364 22.194 55.0251 23.0301C54.6953 23.8661 54.2924 24.5164 53.7612 24.9995C53.3032 25.4454 52.6621 25.7984 51.8379 26.0585C51.0319 26.3186 50.226 26.4858 49.42 26.5787C48.7056 26.653 47.8264 26.6902 46.7823 26.6902C45.7382 26.6902 44.6026 26.5601 43.6684 26.2814C42.7342 26.0027 42.1481 25.6126 41.91 25.0924V32.5798C41.91 33.6202 41.0674 34.4749 40.0416 34.4749H38.4297V7.31204H38.4663ZM49.9695 23.9962C50.6839 23.7918 51.1784 23.4388 51.4898 22.9186C51.8012 22.3984 51.9478 21.5995 51.9478 20.5219V13.5361C51.9478 12.3656 51.7829 11.4924 51.4898 10.9164C51.1968 10.3405 50.6656 9.95029 49.9695 9.7645C49.2551 9.56013 48.2294 9.46723 46.8556 9.46723C45.4818 9.46723 44.4744 9.56013 43.7966 9.7645C43.1189 9.96887 42.6426 10.3405 42.3679 10.8978C42.0931 11.4552 41.9466 12.347 41.9466 13.5361V20.5219C41.9466 21.5995 42.0931 22.3984 42.3862 22.9186C42.6793 23.4388 43.1738 23.8104 43.8699 23.9962C44.5659 24.2006 45.5734 24.2935 46.8922 24.2935C48.2111 24.2935 49.2551 24.2006 49.9695 23.9962Z" fill="black"/>
<path d="M60.8125 7.31204H62.2412C63.267 7.31204 64.1096 8.16668 64.1096 9.20712V10.4148C64.1096 9.82024 64.366 9.24428 64.8789 8.70548C65.3918 8.16668 66.0512 7.73936 66.8572 7.40494C67.6631 7.07051 68.4324 6.92188 69.2201 6.92188H70.9236V9.00275C70.9236 9.52297 70.5023 9.95029 69.9894 9.95029H68.982C67.3334 9.95029 66.1428 10.1732 65.4101 10.6006C64.6774 11.0279 64.3111 11.8082 64.3111 12.9415V24.4235C64.3111 25.464 63.4868 26.3186 62.4427 26.3186H60.8308V7.31204H60.8125Z" fill="black"/>
<path d="M77.1139 0.457031H78.7258C79.2387 0.457031 79.66 0.884354 79.66 1.40457V3.20676C79.66 3.72698 79.2387 4.1543 78.7258 4.1543H77.1139C76.601 4.1543 76.1797 3.72698 76.1797 3.20676V1.40457C76.1797 0.884354 76.601 0.457031 77.1139 0.457031ZM76.198 7.31277H77.8099C78.8357 7.31277 79.6783 8.16741 79.6783 9.20785V24.4057C79.6783 25.4461 78.854 26.3007 77.8099 26.3007H76.198V7.31277Z" fill="black"/>
<path d="M84.9727 7.31204H86.5846C87.6103 7.31204 88.4529 8.16668 88.4529 9.20712V9.63444C88.8193 7.83226 90.9074 6.92188 94.754 6.92188C98.6006 6.92188 99.8279 7.77652 100.597 9.50439C100.835 8.66832 101.531 8.03663 102.704 7.59073C103.876 7.14483 105.305 6.92188 107.008 6.92188C108.712 6.92188 110.965 7.36778 111.917 8.241C112.87 9.11423 113.346 10.4891 113.346 12.3842V24.4235C113.346 25.464 112.522 26.3186 111.478 26.3186H109.866V12.6257C109.866 12.1241 109.829 11.7339 109.756 11.4181C109.683 11.1022 109.518 10.7864 109.298 10.4705C108.785 9.82024 107.631 9.48581 105.854 9.48581C104.077 9.48581 103.473 9.57871 102.795 9.7645C102.118 9.95029 101.66 10.2661 101.421 10.712C101.183 11.1579 101.055 11.7896 101.055 12.6257V24.4235C101.055 25.464 100.231 26.3186 99.1868 26.3186H97.5749V12.6257C97.5749 12.1241 97.5382 11.7339 97.465 11.4181C97.3917 11.1022 97.2268 10.7864 97.007 10.4705C96.4942 9.82024 95.3585 9.48581 93.6001 9.48581C91.8416 9.48581 91.1089 9.57871 90.3945 9.7645C89.6802 9.95029 89.1673 10.2476 88.8925 10.6935C88.6178 11.1208 88.4712 11.7711 88.4712 12.6257V24.4235C88.4712 25.464 87.647 26.3186 86.6029 26.3186H84.991V7.31204H84.9727Z" fill="black"/>
<path d="M120.088 25.3715C119.117 24.4983 118.641 23.1234 118.641 21.2283V7.3125H120.253C121.278 7.3125 122.121 8.16714 122.121 9.20758V21.0426C122.121 21.5442 122.158 21.9344 122.249 22.2316C122.341 22.5289 122.506 22.8447 122.725 23.1606C123.183 23.848 124.319 24.1824 126.132 24.1824C127.946 24.1824 129.374 23.9967 130.162 23.6251C130.913 23.2535 131.279 22.5846 131.279 21.6185V7.3125H132.891C133.917 7.3125 134.76 8.16714 134.76 9.20758V24.4054C134.76 25.4458 133.935 26.3005 132.891 26.3005H131.279V23.9967C130.95 25.7988 128.898 26.7092 125.143 26.7092C121.388 26.7092 121.058 26.2633 120.106 25.3901L120.088 25.3715Z" fill="black"/>
<path d="M140.437 26.2256V24.6278C140.437 24.0519 140.95 23.606 141.517 23.6989C143.972 24.089 145.785 24.2748 146.939 24.2748C148.588 24.2748 149.778 24.1076 150.493 23.7918C151.207 23.4573 151.574 22.8628 151.574 21.971V20.0573C151.574 19.2399 151.299 18.6825 150.768 18.3295C150.236 17.9765 149.357 17.8278 148.148 17.8278H146.023C144.082 17.8278 142.616 17.4191 141.591 16.6202C140.565 15.8027 140.07 14.6694 140.07 13.2016V11.4366C140.07 8.4639 142.855 6.95898 148.423 6.95898C153.991 6.95898 150.731 7.07046 154.101 7.27483V8.72401C154.101 9.29997 153.607 9.74587 153.039 9.65297C151.207 9.39286 149.614 9.26281 148.258 9.26281C146.903 9.26281 145.181 9.4486 144.503 9.82019C143.825 10.1918 143.496 10.8049 143.496 11.6595V13.2759C143.496 14.5579 144.65 15.1896 146.939 15.1896H149.101C153.039 15.1896 155.017 16.6759 155.017 19.6672V21.3207C155.017 23.2901 154.339 24.6836 153.002 25.5011C151.665 26.3185 149.614 26.7273 146.866 26.7273C144.118 26.7273 142.763 26.5787 140.473 26.2628V26.2256H140.437Z" fill="black"/>
<path d="M28.8496 0.642578H4.12137C1.85004 0.642578 0 2.51908 0 4.82291V29.9049C0 32.2087 1.85004 34.0852 4.12137 34.0852H28.8496C31.1209 34.0852 32.9709 32.2087 32.9709 29.9049V4.82291C32.9709 2.51908 31.1209 0.642578 28.8496 0.642578ZM9.06701 27.3967V28.6601C9.06701 29.3475 8.51749 29.9235 7.82144 29.9235H5.34862C4.67088 29.9235 4.10305 29.3661 4.10305 28.6601V26.1519C4.10305 25.4644 4.65256 24.8885 5.34862 24.8885H6.59419C7.72985 24.8885 8.48086 24.3683 8.82888 24.071C8.82888 24.071 11.7413 21.1912 12.071 20.7825C12.2908 20.5224 12.7304 20.1322 12.7304 17.3267C12.7304 14.5213 14.3973 13.5737 16.4305 13.5737C18.4637 13.5737 20.1306 15.2644 20.1306 17.3267C20.1306 19.389 18.3905 21.0797 16.4305 21.0797C14.4706 21.0797 13.7928 21.1541 13.1517 21.7857L10.0561 24.9256C10.0561 24.9256 9.04869 25.8546 9.04869 27.3781H9.06701V27.3967ZM28.8496 27.3967C28.8496 28.7901 27.7322 29.9049 26.3767 29.9049H11.5398V27.3967C11.5398 26.0032 12.6389 24.8885 14.0126 24.8885H23.9039V9.8393H9.06701C7.69322 9.8393 6.59419 8.72455 6.59419 7.3311V4.82291H26.3767C27.7505 4.82291 28.8496 5.95624 28.8496 7.3311V27.3967Z" fill="black"/>
</g>
<defs>
<clipPath id="clip0_7685_12046">
<rect width="155" height="34" fill="white" transform="translate(0 0.457031)"/>
</clipPath>
</defs>
</svg>
