<svg width="122" height="44" viewBox="0 0 122 44" fill="none" xmlns="http://www.w3.org/2000/svg">
<path d="M22.4674 0.491102C22.7803 0.312862 23.1635 0.312862 23.4764 0.491102L32.149 5.43314C32.3212 5.53131 32.321 5.78031 32.1487 5.87826L29.2213 7.54155C28.9087 7.71916 28.5259 7.71892 28.2136 7.54091L23.4757 4.84109C23.1632 4.66304 22.7805 4.66284 22.4679 4.84055L17.7328 7.5321C17.4206 7.70959 17.0384 7.70963 16.726 7.53219L13.8051 5.87258C13.6328 5.77463 13.6326 5.52563 13.8048 5.42746L22.4674 0.491102Z" fill="black"/>
<path d="M10.0859 8.11861L13.0076 9.77282C13.1801 9.87049 13.1807 10.1194 13.0086 10.2179L8.43717 12.8344C8.09312 13.0314 8.09421 13.5291 8.43913 13.7245L12.9948 16.3054C13.1673 16.4031 13.1678 16.6522 12.9957 16.7505L10.0861 18.4133C9.76748 18.5954 9.57075 18.935 9.57075 19.3027V35.2511C9.57075 35.6439 9.14764 35.8904 8.80735 35.6956L0.51496 30.9517C0.196555 30.7695 0 30.4303 0 30.0627V13.8895C0 13.5214 0.19721 13.1815 0.51646 12.9996L9.07951 8.12C9.39142 7.94227 9.77349 7.94174 10.0859 8.11861Z" fill="black"/>
<path d="M29.2213 18.9827L32.0224 20.5742C32.3423 20.7559 32.5399 21.0961 32.5399 21.4648V37.7322C32.5399 38.1027 32.3403 38.4443 32.0179 38.6253L23.4706 43.4245C23.1593 43.5993 22.7796 43.5985 22.469 43.4224L13.9167 38.571C13.5964 38.3893 13.3984 38.049 13.3984 37.6801V21.1666C13.3984 20.9822 13.4973 20.8121 13.6572 20.7212L16.7171 18.9827C17.0289 18.8055 17.4105 18.8052 17.7226 18.9821L22.467 21.6698C22.7787 21.8464 23.1597 21.8464 23.4714 21.6698L28.2158 18.9821C28.5279 18.8052 28.9095 18.8055 29.2213 18.9827Z" fill="black"/>
<path d="M35.7437 8.11471L32.8173 9.77162C32.6447 9.86929 32.6441 10.1182 32.8162 10.2167L37.3876 12.8332C37.7318 13.0301 37.7307 13.5279 37.3858 13.7233L32.8301 16.3042C32.6575 16.4019 32.6571 16.651 32.8293 16.7493L35.7388 18.4121C36.0574 18.5942 36.2541 18.9338 36.2541 19.3015V35.2537C36.2541 35.6457 36.6755 35.8922 37.0159 35.6991L45.4227 30.9312C45.7429 30.7495 45.9409 30.4092 45.9409 30.0403V13.8557C45.9409 13.4846 45.7406 13.1425 45.4172 12.9617L36.7429 8.11201C36.4321 7.93827 36.0535 7.93929 35.7437 8.11471Z" fill="black"/>
<path fill-rule="evenodd" clip-rule="evenodd" d="M69.016 15.7108C68.0975 15.2304 67.0726 14.9902 65.9412 14.9902H60.75V28.7235H65.9412C67.0726 28.7235 68.0975 28.4833 69.016 28.0027C69.9476 27.5223 70.6864 26.8217 71.2322 25.9007C71.7779 24.9799 72.0508 23.8921 72.0508 22.6376V21.0761C72.0508 19.8216 71.7779 18.7338 71.2322 17.8129C70.6864 16.8921 69.9476 16.1913 69.016 15.7108ZM65.9412 26.2612H63.8447V17.4526H65.9412C66.793 17.4526 67.4852 17.7328 68.0176 18.2934C68.5501 18.8406 68.8163 19.6214 68.8163 20.6356V23.078C68.8163 24.0923 68.5501 24.8798 68.0176 25.4403C67.4852 25.9875 66.793 26.2612 65.9412 26.2612ZM85.2988 28.7235H88.3736V23.4184H91.9075C92.6664 23.4184 93.3585 23.2315 93.984 22.8578C94.623 22.4841 95.1221 21.9769 95.4816 21.3364C95.8543 20.6823 96.0406 19.975 96.0406 19.2143V19.0941C96.0406 18.32 95.8543 17.6194 95.4816 16.9921C95.1088 16.3649 94.603 15.8777 93.9641 15.5308C93.3385 15.1703 92.653 14.9902 91.9075 14.9902H85.2988V28.7235ZM91.1889 20.9961H88.3736V17.4526H91.1889C91.7079 17.4526 92.1273 17.626 92.4466 17.9731C92.7795 18.3067 92.9459 18.7071 92.9459 19.1743V19.2943C92.9459 19.7482 92.7795 20.1486 92.4466 20.4955C92.114 20.8292 91.6947 20.9961 91.1889 20.9961ZM105.283 28.7235V22.9979H100.551V28.7235H97.4564V14.9902H100.531V20.4354H105.283V14.9902H108.358V28.7235H105.283ZM117.331 23.4584V28.7235H114.256V23.4584L109.564 14.9902H113.038L115.893 20.4354H115.993L118.848 14.9902H122.003L117.331 23.4584ZM83.3825 24.8996C83.3825 25.7938 83.1696 26.5479 82.7437 27.1619C82.3177 27.7623 81.752 28.2094 81.0465 28.503C80.3543 28.7834 79.5956 28.9236 78.7703 28.9236H78.451C77.5058 28.9236 76.654 28.7234 75.8953 28.323C75.1365 27.9226 74.5377 27.3487 74.0983 26.6012C73.6723 25.8405 73.4593 24.9397 73.4593 23.8986V23.3181C73.4593 22.2904 73.6791 21.3962 74.1183 20.6355C74.5576 19.8748 75.1498 19.2942 75.8953 18.8938C76.654 18.4934 77.5058 18.2932 78.451 18.2932H78.7703C79.5956 18.2932 80.361 18.4666 81.0665 18.8137C81.7719 19.1473 82.3376 19.6411 82.7636 20.2952C83.1895 20.9357 83.4025 21.6966 83.4025 22.5774V24.0988H76.4143V24.5793C76.4143 25.2465 76.6074 25.8072 76.9934 26.2609C77.3927 26.7014 77.9318 26.9216 78.6106 26.9216C79.223 26.9216 79.7021 26.7547 80.0482 26.4211C80.4076 26.0741 80.5872 25.5669 80.5872 24.8996H83.3825ZM78.4709 20.2952C77.8852 20.2952 77.4061 20.502 77.0334 20.9157C76.6739 21.3295 76.4677 21.8567 76.4143 22.4972H80.4475C80.4475 21.8166 80.2878 21.2828 79.9683 20.8958C79.6622 20.4954 79.1631 20.2952 78.4709 20.2952Z" fill="black"/>
<path fill-rule="evenodd" clip-rule="evenodd" d="M22.6243 9.03754L15.6403 13.0338C15.4686 13.132 15.4689 13.3812 15.6408 13.479L22.6255 17.4523C22.7806 17.5406 22.9704 17.5406 23.1255 17.4523L30.1101 13.479C30.2821 13.3812 30.2823 13.132 30.1107 13.0338L23.1266 9.03754C22.9709 8.94843 22.78 8.94843 22.6243 9.03754ZM22.6243 11.2127L19.4529 13.0274C19.2811 13.1256 19.2815 13.3749 19.4534 13.4727L22.6255 15.2771C22.7806 15.3654 22.9704 15.3654 23.1255 15.2771L26.2975 13.4727C26.4695 13.3749 26.4697 13.1256 26.2981 13.0274L23.1266 11.2127C22.9709 11.1236 22.78 11.1236 22.6243 11.2127Z" fill="black"/>
</svg>
