<svg width="157" height="53" viewBox="0 0 157 53" fill="none" xmlns="http://www.w3.org/2000/svg">
<mask id="mask0_7685_11976" style="mask-type:luminance" maskUnits="userSpaceOnUse" x="19" y="7" width="35" height="21">
<path d="M19.207 7.33594H53.433V27.0271H19.207V7.33594Z" fill="white"/>
</mask>
<g mask="url(#mask0_7685_11976)">
<path d="M53.4185 17.1466L36.3164 7.33594L19.2148 17.1466L36.3164 26.9578L53.4185 17.1466Z" fill="black"/>
</g>
<mask id="mask1_7685_11976" style="mask-type:luminance" maskUnits="userSpaceOnUse" x="19" y="17" width="18" height="20">
<path d="M19.207 17.043H36.4225V36.8723H19.207V17.043Z" fill="white"/>
</mask>
<g mask="url(#mask1_7685_11976)">
<path d="M19.2148 17.1465V36.7684L36.3164 26.9577L19.2148 17.1465Z" fill="black"/>
</g>
<mask id="mask2_7685_11976" style="mask-type:luminance" maskUnits="userSpaceOnUse" x="19" y="26" width="35" height="21">
<path d="M19.207 26.8887H53.433V46.5441H19.207V26.8887Z" fill="white"/>
</mask>
<g mask="url(#mask2_7685_11976)">
<path d="M19.2148 36.7677L36.3164 46.5789L53.4185 36.7677L36.3164 26.957L19.2148 36.7677Z" fill="black"/>
</g>
<path d="M57.3281 19.1719H61.9836C63.3906 19.1719 64.512 19.4703 65.3482 20.0667C66.1855 20.6636 66.6042 21.6305 66.6042 22.9679C66.6042 24.4618 65.9795 25.5278 64.7311 26.1659C66.8648 26.5402 67.9322 27.793 67.9322 29.925C67.9322 31.179 67.495 32.186 66.6217 32.9454C65.7494 33.7037 64.549 34.0829 63.0216 34.0829H57.3281V19.1719ZM60.7472 25.0089H61.0198C61.783 25.0089 62.3527 24.8767 62.7294 24.6124C63.1055 24.347 63.2941 23.9125 63.2941 23.3102C63.2941 22.2978 62.5358 21.7914 61.0198 21.7914H60.7472V25.0089ZM60.7472 31.4612H61.8201C63.4931 31.4612 64.3299 30.9076 64.3299 29.7994C64.3299 29.1364 64.1206 28.6608 63.7019 28.3715C63.2843 28.0828 62.6574 27.9382 61.8201 27.9382H60.7472V31.4612Z" fill="black"/>
<path d="M80.9718 19.1719V28.7875C80.9718 30.6195 80.4746 32.005 79.4803 32.9454C78.4859 33.8846 77.0304 34.3537 75.1148 34.3537C73.1986 34.3537 71.7436 33.8846 70.7493 32.9454C69.755 32.005 69.2578 30.6195 69.2578 28.7875V19.1719H72.6769V27.793C72.6769 28.9977 72.8677 29.8357 73.2504 30.3064C73.6326 30.776 74.254 31.0105 75.1148 31.0105C75.9767 31.0105 76.5981 30.776 76.9792 30.3064C77.3613 29.8357 77.5526 28.9977 77.5526 27.793V19.1719H80.9718Z" fill="black"/>
<path d="M86.3918 19.1719V34.0829H82.9727V19.1719H86.3918Z" fill="black"/>
<path d="M91.9933 19.1719V31.1015H97.1591V34.0829H88.5742V19.1719H91.9933Z" fill="black"/>
<path d="M98.8516 19.1719H103.197C105.283 19.1719 107.066 19.8798 108.546 21.2952C110.026 22.7111 110.766 24.4856 110.766 26.6187C110.766 28.7637 110.029 30.5442 108.555 31.9595C107.081 33.3755 105.295 34.0829 103.197 34.0829H98.8516V19.1719ZM102.271 31.0474H102.798C104.047 31.0474 105.068 30.6287 105.862 29.7907C106.657 28.9533 107.06 27.9014 107.072 26.636C107.072 25.3707 106.674 24.3166 105.879 23.4727C105.086 22.6293 104.059 22.2074 102.798 22.2074H102.271V31.0474Z" fill="black"/>
<path d="M115.696 19.1719V34.0829H112.277V19.1719H115.696Z" fill="black"/>
<path d="M126.555 19.1719V22.1532H121.298V25.1172H126.154V28.1007H121.298V34.0829H117.879V19.1719H126.555Z" fill="black"/>
<path d="M126.555 19.1719H130.665L133.794 23.9429L136.923 19.1719H141.034L135.504 27.3944V34.0829H132.085V27.3944L126.555 19.1719Z" fill="black"/>
</svg>
