<svg width="190" height="43" viewBox="0 0 190 43" fill="none" xmlns="http://www.w3.org/2000/svg">
<path d="M67.3661 28.9173C67.2728 28.6996 67.1795 28.4819 67.1173 28.2642C67.0551 28.0154 66.9929 27.7666 66.9306 27.4866C66.7129 27.7354 66.433 27.9532 66.1842 28.1709C65.9043 28.3886 65.5933 28.5752 65.2512 28.7307C64.878 28.8862 64.5047 29.0106 64.1004 29.1039C63.665 29.1972 63.1985 29.2283 62.732 29.2283C61.9855 29.2283 61.2702 29.135 60.5549 28.8862C59.9328 28.6685 59.3419 28.3575 58.8443 27.9221C58.3778 27.5177 58.0045 27.0201 57.7246 26.4603C57.4447 25.8694 57.3203 25.2473 57.3203 24.6253C57.3203 23.008 57.9112 21.7329 59.1242 20.862C60.3372 19.9601 62.141 19.5247 64.5358 19.5247H66.744V18.6227C66.7751 17.9696 66.4952 17.3165 66.0287 16.85C65.5311 16.4145 64.8469 16.1968 63.9449 16.1968C63.1363 16.1968 62.5453 16.3523 62.1721 16.7255C61.7989 17.0988 61.5812 17.5964 61.6123 18.1251H57.6624C57.6624 17.472 57.8179 16.85 58.0978 16.259C58.4089 15.6681 58.8443 15.1083 59.373 14.704C59.995 14.2374 60.6793 13.8642 61.4257 13.6465C62.3276 13.3666 63.2607 13.2422 64.1937 13.2422C65.0646 13.2422 65.9354 13.3355 66.8062 13.5843C67.5527 13.802 68.268 14.1441 68.89 14.6107C69.481 15.0461 69.9475 15.637 70.2585 16.2901C70.6006 17.0366 70.7872 17.8452 70.7561 18.6538V25.2784C70.7561 25.9627 70.7872 26.6469 70.9116 27.3311C71.0049 27.8288 71.1604 28.2953 71.3782 28.7307V28.9173H67.3661ZM63.6028 26.1493C63.976 26.1493 64.3492 26.1182 64.7225 26.0249C65.0335 25.9316 65.3756 25.8072 65.6555 25.6517C65.9043 25.5272 66.1531 25.3406 66.3708 25.1229C66.5574 24.9363 66.7129 24.7497 66.8373 24.532V21.8884H64.8158C64.287 21.8884 63.7583 21.9506 63.2296 22.075C62.8564 22.1683 62.4831 22.3238 62.1721 22.5726C61.8922 22.7592 61.6745 23.0391 61.5501 23.3501C61.4257 23.6612 61.3324 24.0033 61.3635 24.3143C61.3635 24.8119 61.5501 25.3095 61.9233 25.6517C62.2654 25.9627 62.8253 26.1493 63.6028 26.1493Z" fill="white"/>
<path d="M88.5158 13.209C89.0756 13.209 89.6355 13.2401 90.1642 13.3334C90.5996 13.3956 91.0039 13.4889 91.4082 13.5822L90.8173 17.5632C90.2886 17.4388 89.7599 17.3455 89.2311 17.2833C88.7024 17.2211 88.2048 17.19 87.6761 17.19C86.743 17.1278 85.81 17.3455 85.0013 17.812C84.3171 18.2474 83.7884 18.9005 83.5085 19.647V28.9152H79.5586V13.52H83.2597L83.4463 16.0392C84.0372 15.1995 84.8147 14.4841 85.6856 13.9865C86.5253 13.4578 87.4895 13.209 88.5158 13.209Z" fill="white"/>
<path d="M106.992 24.0979L108.329 13.5234H111.968L109.2 28.9497H105.748L103.726 19.1217L101.767 28.9186H98.2836L95.5156 13.5234H99.1234L100.461 24.1601L102.389 13.5234H105.033L106.992 24.0979Z" fill="white"/>
<path d="M124.314 29.197C123.194 29.197 122.106 29.0104 121.079 28.6061C120.146 28.2329 119.307 27.7041 118.591 27.0199C117.907 26.3357 117.347 25.5581 117.005 24.6562C116.632 23.7231 116.445 22.7279 116.445 21.7327V21.1728C116.445 20.0843 116.632 18.9646 117.005 17.9383C117.347 17.0052 117.876 16.1344 118.56 15.4191C119.213 14.7037 120.022 14.1439 120.924 13.7707C122.821 12.9932 124.967 12.9932 126.864 13.7396C127.704 14.0817 128.45 14.6104 129.072 15.2947C129.695 15.9789 130.161 16.8186 130.441 17.6895C130.752 18.6847 130.939 19.7422 130.907 20.7996V22.4791H120.426C120.489 22.9767 120.644 23.4743 120.893 23.9098C121.359 24.7806 122.106 25.4337 123.039 25.7447C123.536 25.9313 124.034 25.9935 124.563 25.9935C124.967 25.9935 125.34 25.9624 125.714 25.8691C126.087 25.8069 126.46 25.6825 126.802 25.527C127.144 25.3715 127.486 25.1849 127.797 24.9672C128.108 24.7495 128.357 24.5007 128.606 24.1897L130.596 26.3357C130.317 26.7089 130.006 27.051 129.632 27.362C129.197 27.7352 128.73 28.0151 128.233 28.264C127.673 28.5439 127.051 28.7305 126.429 28.886C125.745 29.1037 125.029 29.197 124.314 29.197ZM123.847 16.4143C123.412 16.4143 123.008 16.4765 122.634 16.6631C122.261 16.8186 121.919 17.0363 121.67 17.3474C121.39 17.6584 121.142 18.0005 120.955 18.4048C120.768 18.8402 120.613 19.3067 120.52 19.7733H127.02V19.4623C126.989 19.0579 126.926 18.6536 126.771 18.2804C126.647 17.9072 126.429 17.5962 126.149 17.3163C125.869 17.0363 125.527 16.8186 125.185 16.6631C124.749 16.5076 124.314 16.4143 123.847 16.4143Z" fill="white"/>
<path d="M146.179 28.9173C146.085 28.6996 145.992 28.4819 145.93 28.2642C145.868 28.0154 145.805 27.7354 145.774 27.4866C145.525 27.7354 145.277 27.9532 144.997 28.1709C144.717 28.3886 144.406 28.5752 144.064 28.7307C143.69 28.8862 143.317 29.0106 142.913 29.1039C142.477 29.1972 142.011 29.2283 141.544 29.2283C140.798 29.2283 140.083 29.135 139.367 28.8862C138.745 28.6685 138.154 28.3575 137.657 27.9221C136.693 27.1134 136.133 25.9005 136.133 24.6253C136.133 23.008 136.724 21.7329 137.937 20.862C139.15 19.9601 140.954 19.5247 143.348 19.5247H145.557V18.6227C145.588 17.9696 145.308 17.3165 144.841 16.85C144.344 16.4145 143.659 16.1968 142.757 16.1968C141.949 16.1968 141.358 16.3523 140.985 16.7255C140.611 17.0988 140.394 17.5964 140.425 18.1251H136.475C136.475 17.472 136.63 16.85 136.91 16.259C137.221 15.6681 137.657 15.1083 138.185 14.704C138.808 14.2374 139.492 13.8642 140.238 13.6465C141.14 13.3666 142.073 13.2422 143.006 13.2422C143.877 13.2422 144.748 13.3355 145.619 13.5843C146.365 13.802 147.081 14.1441 147.703 14.6107C148.293 15.0461 148.76 15.637 149.071 16.2901C149.413 17.0366 149.6 17.8452 149.569 18.6538V25.2784C149.569 25.9627 149.6 26.6469 149.724 27.3311C149.817 27.8288 149.973 28.2953 150.191 28.7307V28.9173H146.179ZM142.415 26.1493C142.789 26.1493 143.162 26.1182 143.535 26.0249C143.846 25.9316 144.157 25.8072 144.468 25.6517C144.717 25.5272 144.966 25.3406 145.183 25.1229C145.37 24.9363 145.525 24.7497 145.65 24.532V21.8884H143.628C143.1 21.8884 142.571 21.9506 142.042 22.075C141.669 22.1683 141.296 22.3238 140.985 22.5726C140.705 22.7592 140.487 23.0391 140.363 23.3501C140.238 23.6612 140.145 24.0033 140.176 24.3143C140.176 24.8119 140.363 25.3095 140.736 25.6517C141.078 25.9627 141.638 26.1493 142.415 26.1493Z" fill="white"/>
<path d="M162.815 24.3467L163.002 25.4664L163.189 24.4089L166.579 13.5234H170.715L164.868 28.9186H161.136L155.258 13.5234H159.394L162.815 24.3467Z" fill="white"/>
<path d="M183.439 29.197C182.319 29.197 181.231 29.0104 180.204 28.6061C179.271 28.2329 178.431 27.7041 177.716 27.0199C177.032 26.3357 176.472 25.5581 176.099 24.6562C175.726 23.7231 175.539 22.7279 175.539 21.7327V21.1728C175.539 20.0843 175.726 18.9646 176.099 17.9383C176.441 17.0052 176.97 16.1344 177.654 15.4191C178.307 14.7037 179.116 14.1439 180.018 13.7707C181.915 12.9932 184.061 12.9932 185.958 13.7396C186.798 14.0817 187.544 14.6104 188.166 15.2947C188.788 15.9789 189.255 16.8186 189.535 17.6895C189.846 18.6847 190.001 19.7422 190.001 20.7996V22.4791H179.551C179.613 22.9767 179.769 23.4743 180.018 23.9098C180.484 24.7806 181.231 25.4337 182.133 25.7447C182.63 25.9313 183.128 25.9935 183.657 25.9935C184.061 25.9935 184.434 25.9624 184.807 25.8691C185.18 25.8069 185.554 25.6825 185.896 25.527C186.238 25.3715 186.58 25.1849 186.891 24.9672C187.202 24.7495 187.451 24.5007 187.7 24.1897L189.69 26.3357C189.41 26.7089 189.099 27.051 188.726 27.362C188.291 27.7352 187.824 28.0151 187.326 28.264C186.767 28.5439 186.145 28.7305 185.523 28.886C184.869 29.1037 184.154 29.197 183.439 29.197ZM182.972 16.4143C182.537 16.4143 182.133 16.4765 181.759 16.6631C181.386 16.8186 181.044 17.0363 180.795 17.3474C180.515 17.6584 180.266 18.0005 180.08 18.4048C179.893 18.8402 179.738 19.3067 179.644 19.7733H186.145V19.4623C186.114 19.0579 186.051 18.6536 185.896 18.2804C185.771 17.9072 185.554 17.5962 185.274 17.3163C184.994 17.0363 184.652 16.8186 184.31 16.6631C183.874 16.5076 183.408 16.4143 182.972 16.4143Z" fill="white"/>
<path d="M23.8857 28.9193C23.7924 28.7015 23.6991 28.4838 23.6369 28.2661C23.5747 28.0173 23.5125 27.7374 23.4503 27.4886C23.2326 27.7374 22.9527 27.9551 22.7039 28.1728C22.424 28.3905 22.113 28.5771 21.7709 28.7326C21.3976 28.8882 20.9933 29.0126 20.6201 29.1059C20.1847 29.1992 19.7182 29.2303 19.2827 29.2303C18.5363 29.2303 17.821 29.137 17.1056 28.8882C16.4836 28.6704 15.8927 28.3594 15.3951 27.924C14.4309 27.1154 13.8711 25.9024 13.8711 24.6273C13.8711 23.01 14.462 21.7348 15.675 20.864C16.8879 19.962 18.6918 19.5266 21.0866 19.5266H23.3259V18.6247C23.357 17.9716 23.0771 17.3184 22.6106 16.8519C22.113 16.4165 21.4287 16.1988 20.5268 16.1988C19.7182 16.1988 19.1272 16.3543 18.754 16.7275C18.3808 17.1007 18.1631 17.5983 18.1942 18.1271H14.2443C14.2443 17.4739 14.3998 16.8519 14.6797 16.261C14.9907 15.6701 15.4262 15.1102 15.9549 14.7059C16.5769 14.2394 17.2611 13.8662 17.9765 13.6485C18.8784 13.3685 19.8115 13.2441 20.7445 13.2441C21.6153 13.2441 22.4862 13.3374 23.357 13.5863C24.1035 13.804 24.8188 14.1461 25.4408 14.6126C26.0317 15.048 26.5294 15.639 26.8404 16.3232C27.1825 17.0696 27.3691 17.8783 27.338 18.6869V25.3115C27.338 25.9957 27.3691 26.68 27.4935 27.3642C27.5868 27.8618 27.7423 28.3283 27.96 28.7637V28.9193H23.8857ZM20.1225 26.1512C20.4957 26.1512 20.8689 26.1201 21.211 26.0268C21.522 25.9335 21.8331 25.8091 22.1441 25.6536C22.3929 25.5292 22.6417 25.3426 22.8594 25.1249C23.046 24.9383 23.2015 24.7517 23.3259 24.534V21.8903H21.3043C20.7756 21.8903 20.2469 21.9525 19.7182 22.0769C19.3449 22.1702 18.9717 22.3258 18.6607 22.5746C18.3808 22.7612 18.1631 23.0411 18.0387 23.3521C17.9143 23.6631 17.821 24.0052 17.8521 24.3162C17.8521 24.8139 18.0387 25.3115 18.4119 25.6536C18.7851 25.9646 19.3449 26.1512 20.1225 26.1512Z" fill="white"/>
<path d="M20.6824 42.2926C9.26822 42.2926 0 33.0244 0 21.6102C0 10.196 9.26822 0.927734 20.6824 0.927734C32.0967 0.927734 41.3649 10.196 41.3649 21.6102C41.3649 33.0244 32.0967 42.2926 20.6824 42.2926ZM20.6824 3.91347C10.9166 3.91347 2.98574 11.8443 2.98574 21.6102C2.98574 31.376 10.9166 39.3069 20.6824 39.3069C30.4483 39.3069 38.3792 31.376 38.3792 21.6102C38.3792 11.8443 30.4483 3.91347 20.6824 3.91347Z" fill="white"/>
</svg>
