<svg xmlns="http://www.w3.org/2000/svg" width="136" height="69" fill="none"><path fill="#1B1B1B" d="M135.563 34.617c-.055 18.938-15.262 33.892-34.377 33.8-18.62-.09-33.664-15.317-33.628-34.054C67.595 15.662 82.93.599 101.825.69c18.731.091 33.793 15.226 33.738 33.927m-54.677-.254c-.055 11.606 9.182 20.902 20.739 20.902 11.355 0 20.757-9.405 20.739-20.757 0-11.37-9.329-20.556-20.849-20.556-11.41 0-20.593 9.06-20.648 20.41zM68.508 68.4c-5.787 0-10.881.073-15.956-.073-.73-.018-1.735-.964-2.1-1.71-5.878-12.225-11.684-24.486-17.507-36.748-1.552-3.256-3.195-6.475-4.583-9.805-.438-1.037-.511-2.529-.091-3.565 2.081-5.058 4.363-10.042 6.791-15.5 11.228 22.613 22.2 44.752 33.446 67.4m-68.352 0c5.678-11.352 11.137-22.285 16.778-33.564 3.468 7.059 6.773 13.716 9.968 20.43.273.581.073 1.51-.165 2.2-1.095 3.148-2.208 6.313-3.486 9.387-.274.655-1.242 1.456-1.918 1.474-6.882.11-13.765.073-21.177.073"/><path fill="#1B1B1B" fill-rule="evenodd" d="M135.563 34.617c-.055 18.938-15.262 33.892-34.377 33.8-18.62-.09-33.664-15.317-33.628-34.054C67.595 15.662 82.93.599 101.825.69c18.731.091 33.793 15.226 33.738 33.927m-54.677-.254c-.055 11.606 9.182 20.902 20.739 20.902 11.355 0 20.757-9.405 20.739-20.757 0-11.37-9.329-20.556-20.849-20.556-11.41 0-20.593 9.06-20.648 20.41zM68.508 68.4c-5.787 0-10.881.073-15.956-.073-.73-.018-1.735-.964-2.1-1.71-5.878-12.225-11.684-24.486-17.507-36.748-1.552-3.256-3.195-6.475-4.583-9.805-.438-1.037-.511-2.529-.091-3.565 2.081-5.058 4.363-10.042 6.791-15.5 11.228 22.613 22.2 44.752 33.446 67.4m-68.352 0c5.678-11.352 11.137-22.285 16.778-33.564 3.468 7.059 6.773 13.716 9.968 20.43.273.581.073 1.51-.165 2.2-1.095 3.148-2.208 6.313-3.486 9.387-.274.655-1.242 1.456-1.918 1.474-6.882.11-13.765.073-21.177.073" clip-rule="evenodd"/><path fill="#1B1B1B" d="M135.563 34.617c-.055 18.938-15.262 33.892-34.377 33.8-18.62-.09-33.664-15.317-33.628-34.054C67.595 15.662 82.93.599 101.825.69c18.731.091 33.793 15.226 33.738 33.927m-54.677-.254c-.055 11.606 9.182 20.902 20.739 20.902 11.355 0 20.757-9.405 20.739-20.757 0-11.37-9.329-20.556-20.849-20.556-11.41 0-20.593 9.06-20.648 20.41zM68.508 68.4c-5.787 0-10.881.073-15.956-.073-.73-.018-1.735-.964-2.1-1.71-5.878-12.225-11.684-24.486-17.507-36.748-1.552-3.256-3.195-6.475-4.583-9.805-.438-1.037-.511-2.529-.091-3.565 2.081-5.058 4.363-10.042 6.791-15.5 11.228 22.613 22.2 44.752 33.446 67.4m-68.352 0c5.678-11.352 11.137-22.285 16.778-33.564 3.468 7.059 6.773 13.716 9.968 20.43.273.581.073 1.51-.165 2.2-1.095 3.148-2.208 6.313-3.486 9.387-.274.655-1.242 1.456-1.918 1.474-6.882.11-13.765.073-21.177.073"/><path fill="#1B1B1B" d="M135.563 34.617c-.055 18.938-15.262 33.892-34.377 33.8-18.62-.09-33.664-15.317-33.628-34.054C67.595 15.662 82.93.599 101.825.69c18.731.091 33.793 15.226 33.738 33.927m-54.677-.254c-.055 11.606 9.182 20.902 20.739 20.902 11.355 0 20.757-9.405 20.739-20.757 0-11.37-9.329-20.556-20.849-20.556-11.41 0-20.593 9.06-20.648 20.41zM68.508 68.4c-5.787 0-10.881.073-15.956-.073-.73-.018-1.735-.964-2.1-1.71-5.878-12.225-11.684-24.486-17.507-36.748-1.552-3.256-3.195-6.475-4.583-9.805-.438-1.037-.511-2.529-.091-3.565 2.081-5.058 4.363-10.042 6.791-15.5 11.228 22.613 22.2 44.752 33.446 67.4m-68.352 0c5.678-11.352 11.137-22.285 16.778-33.564 3.468 7.059 6.773 13.716 9.968 20.43.273.581.073 1.51-.165 2.2-1.095 3.148-2.208 6.313-3.486 9.387-.274.655-1.242 1.456-1.918 1.474-6.882.11-13.765.073-21.177.073"/></svg>