<svg width="340" height="100" viewBox="0 0 340 100" fill="none" xmlns="http://www.w3.org/2000/svg">
<path fill-rule="evenodd" clip-rule="evenodd" d="M80 49.3877V50.3877H0V49.3877H80Z" fill="#6AC5F9"/>
<path d="M115.93 61.2568C126.187 60.1423 135.406 67.4689 136.764 77.6836L136.822 78.1719C137.946 88.6395 130.423 98.0511 120.004 99.1836C109.747 100.299 100.528 92.9717 99.1699 82.7568L99.1113 82.2686C97.9875 71.8009 105.511 62.3894 115.93 61.2568ZM139.605 13.9922C143.353 13.4039 147.188 13.9621 150.619 15.5898H150.62C153.835 17.1163 156.552 19.5173 158.472 22.5137L158.845 23.1211H158.846C160.775 26.4008 161.686 30.1874 161.457 33.9932L161.277 36.9688L161.275 36.9658L160.88 43.541C160.76 45.5304 161.43 47.4834 162.742 48.9746C163.972 50.3704 165.67 51.2521 167.502 51.4561L167.87 51.4883L178.313 52.125L178.7 52.1484L178.757 52.2061C182.305 52.6877 185.649 54.1686 188.396 56.4863C191.239 58.8804 193.319 62.0613 194.382 65.6299H194.383C195.445 69.2003 195.446 73.0051 194.383 76.5752C193.32 80.1451 191.241 83.3262 188.398 85.7217C185.557 88.1164 182.082 89.6225 178.397 90.0508L178.398 90.0518C174.945 90.4554 171.453 89.8949 168.303 88.4404L167.677 88.1377C164.574 86.5643 161.964 84.1652 160.129 81.209L159.772 80.6104C157.926 77.3794 157.061 73.6739 157.285 69.9541L157.86 60.4023C157.98 58.4129 157.309 56.4599 155.997 54.9688V54.9678C154.685 53.4793 152.841 52.5753 150.869 52.4551L142.287 51.9326L141.877 51.9072L141.869 51.8984C138.235 51.7717 134.71 50.6013 131.717 48.5146C128.601 46.3426 126.203 43.2796 124.836 39.7256C123.469 36.1718 123.19 32.2863 124.039 28.5703C124.888 24.8548 126.822 21.4808 129.599 18.8818C132.373 16.2832 135.859 14.5802 139.605 13.9922ZM211.297 48.3037C217.662 47.6118 223.37 52.2422 224.057 58.6318C224.743 65.0207 220.151 70.7692 213.786 71.4609C207.421 72.1529 201.712 67.5226 201.026 61.1328C200.34 54.744 204.933 48.9957 211.297 48.3037ZM198.655 0.578125C207.642 -0.398624 215.721 6.02239 216.91 14.9707L216.962 15.3984C217.946 24.5679 211.354 32.8153 202.226 33.8076C193.096 34.7996 184.904 28.1577 183.92 18.9873C182.936 9.8181 189.527 1.57047 198.655 0.578125Z" fill="#F1F1F1" stroke="#6AC5F9" stroke-width="2"/>
<path fill-rule="evenodd" clip-rule="evenodd" d="M243.125 47.3955H248.109V52.38H243.125V47.3955Z" fill="#6AC5F9"/>
<path fill-rule="evenodd" clip-rule="evenodd" d="M268.109 48.4922H270.901V51.2835H268.109V48.4922Z" fill="#6AC5F9"/>
<path fill-rule="evenodd" clip-rule="evenodd" d="M290.898 47.8945H294.886V51.8821H290.898V47.8945Z" fill="#6AC5F9"/>
<path fill-rule="evenodd" clip-rule="evenodd" d="M314.891 47.3955H319.875V52.38H314.891V47.3955Z" fill="#6AC5F9"/>
</svg>
