<svg xmlns="http://www.w3.org/2000/svg" width="340" height="100" fill="none"><path fill="#3242F5" fill-rule="evenodd" d="M80 49.388v1H0v-1z" clip-rule="evenodd"/><path fill="#F1F1F1" stroke="#3242F5" stroke-width="2" d="m161.276 36.966-.396 6.575a7.54 7.54 0 0 0 1.862 5.434zm0 0 .002.002.179-2.974a19.17 19.17 0 0 0-2.612-10.873 19 19 0 0 0-8.225-7.531 18.86 18.86 0 0 0-11.015-1.597 18.93 18.93 0 0 0-10.007 4.89 19.1 19.1 0 0 0-5.559 9.688 19.2 19.2 0 0 0 .797 11.155l.933-.36-.933.36a19.05 19.05 0 0 0 6.881 8.789 18.9 18.9 0 0 0 10.155 3.387l.005.005.41.025 8.582.523a7.44 7.44 0 0 1 5.128 2.513 7.54 7.54 0 0 1 1.863 5.434l-.575 9.552a19.17 19.17 0 0 0 2.487 10.656 19 19 0 0 0 7.905 7.528 18.86 18.86 0 0 0 10.721 1.914 18.9 18.9 0 0 0 10-4.33l-.644-.765.644.764a19.08 19.08 0 0 0 5.985-9.146 19.2 19.2 0 0 0-.001-10.945 19.06 19.06 0 0 0-5.985-9.143 18.9 18.9 0 0 0-9.645-4.284l-.052-.054-.386-.024-10.444-.637a7.44 7.44 0 0 1-5.128-2.513zm40.95-3.158c9.129-.992 15.72-9.24 14.736-18.41-.985-9.17-9.177-15.812-18.306-14.82-9.129.993-15.72 9.24-14.736 18.41.985 9.17 9.176 15.812 18.306 14.82Zm11.56 37.653c6.365-.692 10.957-6.44 10.271-12.829s-6.394-11.02-12.76-10.328c-6.364.692-10.956 6.44-10.27 12.829s6.394 11.02 12.759 10.328Zm-93.782 27.723c10.419-1.133 17.942-10.544 16.818-21.012s-10.473-18.048-20.893-16.915S97.987 71.8 99.111 82.268c1.124 10.47 10.473 18.048 20.893 16.916Z"/><path fill="#3242F5" fill-rule="evenodd" d="M243.125 47.396h4.984v4.984h-4.984zM268.109 48.492h2.792v2.791h-2.792zM290.898 47.895h3.988v3.987h-3.988zM314.891 47.396h4.984v4.984h-4.984z" clip-rule="evenodd"/></svg>