<svg xmlns="http://www.w3.org/2000/svg" width="1200" height="1300" fill="none"><path stroke="#3D3D3D" stroke-opacity=".6" stroke-width="2" d="m464.284 485.488.074.057-.825-2.909a195.4 195.4 0 0 0-62.078-96.115 194.5 194.5 0 0 0-105.136-44.66 194.12 194.12 0 0 0-112.037 22.154 195.1 195.1 0 0 0-80.373 81.346c-18.103 34.568-25.435 73.752-21.095 112.548a195.5 195.5 0 0 0 45.454 105.042c25.27 29.664 58.853 51.061 96.373 61.401a194.26 194.26 0 0 0 113.708-3.228l.255.139.393-.112 89.15-25.449a89.93 89.93 0 0 1 68.531 7.969 90.36 90.36 0 0 1 42.84 54.244l28.068 98.911a195.24 195.24 0 0 0 60.141 94.455 194.38 194.38 0 0 0 102.014 45.711 194.1 194.1 0 0 0 110.27-18.092c34.216-16.698 62.772-43.1 82.199-75.922 19.427-32.825 28.816-70.642 27.041-108.758a195.64 195.64 0 0 0-37.026-105.731c-22.366-30.846-53.279-54.462-88.902-67.879a193.86 193.86 0 0 0-111.134-7.751l-.055-.027-.347-.172-.372.106-108.484 30.963a89.94 89.94 0 0 1-68.531-7.969 90.36 90.36 0 0 1-42.84-54.245l-25.787-90.902-.117-.413-.186-.098a194 194 0 0 0-1.186-4.614Zm418.468-162.312c84.404-40.415 120.168-141.813 79.887-226.461-40.284-84.65-141.378-120.52-225.783-80.104-84.403 40.415-120.17 141.813-79.886 226.462 40.284 84.65 141.377 120.519 225.782 80.103ZM1134.02 663.55c57.35-27.464 81.65-96.357 54.28-153.88-27.38-57.524-96.06-81.895-153.42-54.43s-81.659 96.357-54.284 153.88c27.374 57.524 96.064 81.895 153.424 54.43Zm-855.458 617.16c97.029-46.46 138.137-163 91.827-260.31-46.31-97.318-162.5-138.542-259.53-92.081S-27.278 1091.32 19.031 1188.63c46.31 97.31 162.5 138.54 259.531 92.08Z"/></svg>