<svg width="26" height="26" viewBox="0 0 26 26" fill="none" xmlns="http://www.w3.org/2000/svg">
<path d="M21.1638 25.5801H0.5V4.84269H10.8319V6.54099H2.19215V23.8818H19.4717V15.2115H21.1638V25.5801ZM25.496 0.583992V0.580078H14.8772V2.27838H14.8839V2.2823H22.6112L12.0482 12.8828L13.2449 14.0835L23.8077 3.48303V11.2377H25.5V2.2823V0.583992H25.496Z" fill="white"/>
<path d="M21.1638 25.5801H0.5V4.84269H10.8319V6.54099H2.19215V23.8818H19.4717V15.2115H21.1638V25.5801ZM25.496 0.583992V0.580078H14.8772V2.27838H14.8839V2.2823H22.6112L12.0482 12.8828L13.2449 14.0835L23.8077 3.48303V11.2377H25.5V2.2823V0.583992H25.496Z" fill="white"/>
</svg>
