<svg width="390" height="429" viewBox="0 0 390 429" fill="none" xmlns="http://www.w3.org/2000/svg">
<mask id="mask0_8085_4147" style="mask-type:alpha" maskUnits="userSpaceOnUse" x="0" y="0" width="390" height="429">
<rect width="390" height="429" fill="white"/>
</mask>
<g mask="url(#mask0_8085_4147)">
<path d="M227.574 521.254L-89.8952 337.594C-89.9758 337.547 -90.0156 337.456 -89.9943 337.368L-5.86919 -8.21895C-5.84785 -8.3068 -5.76962 -8.37107 -5.67606 -8.37891L363.785 -38.303C363.879 -38.3102 363.967 -38.2596 364.004 -38.1767L508.219 288.916C508.255 288.999 508.232 289.095 508.161 289.154L227.829 521.233C227.758 521.292 227.655 521.3 227.574 521.254ZM-89.5356 337.316L227.664 520.82L507.757 288.938L363.665 -37.876L-5.48198 -7.97717L-89.5356 337.316ZM70.0974 427.43C70.059 427.408 70.0281 427.374 70.0097 427.333L-45.8305 164.597C-45.867 164.515 -45.8436 164.419 -45.7726 164.359L179.402 -22.057C179.474 -22.1157 179.576 -22.1243 179.657 -22.0776L434.663 125.446C434.743 125.493 434.783 125.584 434.762 125.672L367.189 403.263C367.167 403.351 367.09 403.415 366.996 403.423L70.2283 427.459C70.1813 427.463 70.1359 427.453 70.0974 427.43ZM-45.3689 164.575L70.3486 427.032L366.802 403.021L434.303 125.724L179.567 -21.6435L-45.3689 164.575ZM217.663 413.81L14.0391 296.011C13.9585 295.964 13.9186 295.874 13.9399 295.786L67.8974 74.1276C67.9185 74.0398 67.9969 73.9755 68.0903 73.9679L305.062 54.7745C305.155 54.7671 305.243 54.8179 305.28 54.9011L397.779 264.697C397.815 264.78 397.792 264.876 397.721 264.935L217.917 413.789C217.846 413.848 217.743 413.857 217.663 413.81ZM14.3986 295.733L217.752 413.376L397.317 264.719L304.941 55.2018L68.2845 74.3696L14.3986 295.733ZM116.658 353.632C116.619 353.61 116.588 353.576 116.57 353.535L42.2706 185.017C42.2342 184.935 42.2572 184.838 42.3286 184.78L186.755 65.2127C186.826 65.154 186.929 65.1454 187.009 65.1921L350.569 159.813C350.649 159.86 350.689 159.951 350.668 160.039L307.327 338.085C307.305 338.172 307.227 338.237 307.134 338.244L116.788 353.661C116.741 353.665 116.696 353.654 116.658 353.632ZM42.7323 184.995L116.909 353.234L306.94 337.843L350.209 160.091L186.92 65.6262L42.7323 184.995ZM211.277 343.547L81.9632 268.737C81.8825 268.691 81.8427 268.6 81.864 268.512L116.13 127.745C116.151 127.658 116.23 127.593 116.323 127.586L266.814 115.397C266.908 115.389 266.996 115.44 267.033 115.523L325.775 248.756C325.811 248.839 325.788 248.935 325.717 248.994L211.531 343.526C211.46 343.585 211.357 343.593 211.277 343.547ZM82.3228 268.46L211.366 343.113L325.313 248.779L266.694 115.824L116.517 127.987L82.3228 268.46ZM147.132 305.33C147.094 305.308 147.063 305.274 147.044 305.233L99.8597 198.214C99.8232 198.131 99.8462 198.035 99.9175 197.976L191.637 122.044C191.708 121.985 191.811 121.976 191.891 122.023L295.762 182.113C295.842 182.16 295.882 182.251 295.861 182.339L268.337 295.409C268.315 295.497 268.237 295.561 268.144 295.568L147.263 305.359C147.216 305.363 147.171 305.352 147.132 305.33ZM100.321 198.191L147.383 304.932L267.95 295.167L295.402 182.391L191.802 122.457L100.321 198.191ZM207.239 299.782L124.298 251.799C124.217 251.753 124.178 251.662 124.199 251.574L146.177 161.287C146.198 161.199 146.277 161.135 146.37 161.127L242.894 153.31C242.988 153.302 243.076 153.353 243.113 153.436L280.79 238.891C280.826 238.974 280.803 239.07 280.732 239.129L207.494 299.761C207.422 299.82 207.32 299.829 207.239 299.782ZM124.658 251.522L207.329 299.348L280.328 238.914L242.774 153.737L146.564 161.529L124.658 251.522ZM166.097 275.27C166.059 275.248 166.028 275.214 166.009 275.173L135.745 206.531C135.709 206.449 135.732 206.352 135.803 206.294L194.632 157.591C194.703 157.532 194.806 157.524 194.886 157.57L261.508 196.112C261.589 196.159 261.629 196.249 261.607 196.337L243.953 268.86C243.932 268.948 243.854 269.012 243.761 269.02L166.228 275.299C166.181 275.303 166.136 275.292 166.097 275.27ZM136.207 206.509L166.348 274.872L243.566 268.618L261.148 196.39L194.797 158.004L136.207 206.509Z" fill="#ABABAB"/>
<path fill-rule="evenodd" clip-rule="evenodd" d="M227.574 521.254L-89.8952 337.594C-89.9758 337.547 -90.0156 337.456 -89.9943 337.368L-5.86919 -8.21895C-5.84785 -8.3068 -5.76962 -8.37107 -5.67606 -8.37891L363.785 -38.303C363.879 -38.3102 363.967 -38.2596 364.004 -38.1767L508.219 288.916C508.255 288.999 508.232 289.095 508.161 289.154L227.829 521.233C227.758 521.292 227.655 521.3 227.574 521.254ZM-89.5356 337.316L227.664 520.82L507.757 288.938L363.665 -37.876L-5.48198 -7.97717L-89.5356 337.316ZM70.0974 427.43C70.059 427.408 70.0281 427.374 70.0097 427.333L-45.8305 164.597C-45.867 164.515 -45.8436 164.419 -45.7726 164.359L179.402 -22.057C179.474 -22.1157 179.576 -22.1243 179.657 -22.0776L434.663 125.446C434.743 125.493 434.783 125.584 434.762 125.672L367.189 403.263C367.167 403.351 367.09 403.415 366.996 403.423L70.2283 427.459C70.1813 427.463 70.1359 427.453 70.0974 427.43ZM-45.3689 164.575L70.3486 427.032L366.802 403.021L434.303 125.724L179.567 -21.6435L-45.3689 164.575ZM217.663 413.81L14.0391 296.011C13.9585 295.964 13.9186 295.874 13.9399 295.786L67.8974 74.1276C67.9185 74.0398 67.9969 73.9755 68.0903 73.9679L305.062 54.7745C305.155 54.7671 305.243 54.8179 305.28 54.9011L397.779 264.697C397.815 264.78 397.792 264.876 397.721 264.935L217.917 413.789C217.846 413.848 217.743 413.857 217.663 413.81ZM14.3986 295.733L217.752 413.376L397.317 264.719L304.941 55.2018L68.2845 74.3696L14.3986 295.733ZM116.658 353.632C116.619 353.61 116.588 353.576 116.57 353.535L42.2706 185.017C42.2342 184.935 42.2572 184.838 42.3286 184.78L186.755 65.2127C186.826 65.154 186.929 65.1454 187.009 65.1921L350.569 159.813C350.649 159.86 350.689 159.951 350.668 160.039L307.327 338.085C307.305 338.172 307.227 338.237 307.134 338.244L116.788 353.661C116.741 353.665 116.696 353.654 116.658 353.632ZM42.7323 184.995L116.909 353.234L306.94 337.843L350.209 160.091L186.92 65.6262L42.7323 184.995ZM211.277 343.547L81.9632 268.737C81.8825 268.691 81.8427 268.6 81.864 268.512L116.13 127.745C116.151 127.658 116.23 127.593 116.323 127.586L266.814 115.397C266.908 115.389 266.996 115.44 267.033 115.523L325.775 248.756C325.811 248.839 325.788 248.935 325.717 248.994L211.531 343.526C211.46 343.585 211.357 343.593 211.277 343.547ZM82.3228 268.46L211.366 343.113L325.313 248.779L266.694 115.824L116.517 127.987L82.3228 268.46ZM147.132 305.33C147.094 305.308 147.063 305.274 147.044 305.233L99.8597 198.214C99.8232 198.131 99.8462 198.035 99.9175 197.976L191.637 122.044C191.708 121.985 191.811 121.976 191.891 122.023L295.762 182.113C295.842 182.16 295.882 182.251 295.861 182.339L268.337 295.409C268.315 295.497 268.237 295.561 268.144 295.568L147.263 305.359C147.216 305.363 147.171 305.352 147.132 305.33ZM100.321 198.191L147.383 304.932L267.95 295.167L295.402 182.391L191.802 122.457L100.321 198.191ZM207.239 299.782L124.298 251.799C124.217 251.753 124.178 251.662 124.199 251.574L146.177 161.287C146.198 161.199 146.277 161.135 146.37 161.127L242.894 153.31C242.988 153.302 243.076 153.353 243.113 153.436L280.79 238.891C280.826 238.974 280.803 239.07 280.732 239.129L207.494 299.761C207.422 299.82 207.32 299.829 207.239 299.782ZM124.658 251.522L207.329 299.348L280.328 238.914L242.774 153.737L146.564 161.529L124.658 251.522ZM166.097 275.27C166.059 275.248 166.028 275.214 166.009 275.173L135.745 206.531C135.709 206.449 135.732 206.352 135.803 206.294L194.632 157.591C194.703 157.532 194.806 157.524 194.886 157.57L261.508 196.112C261.589 196.159 261.629 196.249 261.607 196.337L243.953 268.86C243.932 268.948 243.854 269.012 243.761 269.02L166.228 275.299C166.181 275.303 166.136 275.292 166.097 275.27ZM136.207 206.509L166.348 274.872L243.566 268.618L261.148 196.39L194.797 158.004L136.207 206.509Z" fill="#ABABAB"/>
<path d="M227.574 521.254L-89.8952 337.594C-89.9758 337.547 -90.0156 337.456 -89.9943 337.368L-5.86919 -8.21895C-5.84785 -8.3068 -5.76962 -8.37107 -5.67606 -8.37891L363.785 -38.303C363.879 -38.3102 363.967 -38.2596 364.004 -38.1767L508.219 288.916C508.255 288.999 508.232 289.095 508.161 289.154L227.829 521.233C227.758 521.292 227.655 521.3 227.574 521.254ZM-89.5356 337.316L227.664 520.82L507.757 288.938L363.665 -37.876L-5.48198 -7.97717L-89.5356 337.316ZM70.0974 427.43C70.059 427.408 70.0281 427.374 70.0097 427.333L-45.8305 164.597C-45.867 164.515 -45.8436 164.419 -45.7726 164.359L179.402 -22.057C179.474 -22.1157 179.576 -22.1243 179.657 -22.0776L434.663 125.446C434.743 125.493 434.783 125.584 434.762 125.672L367.189 403.263C367.167 403.351 367.09 403.415 366.996 403.423L70.2283 427.459C70.1813 427.463 70.1359 427.453 70.0974 427.43ZM-45.3689 164.575L70.3486 427.032L366.802 403.021L434.303 125.724L179.567 -21.6435L-45.3689 164.575ZM217.663 413.81L14.0391 296.011C13.9585 295.964 13.9186 295.874 13.9399 295.786L67.8974 74.1276C67.9185 74.0398 67.9969 73.9755 68.0903 73.9679L305.062 54.7745C305.155 54.7671 305.243 54.8179 305.28 54.9011L397.779 264.697C397.815 264.78 397.792 264.876 397.721 264.935L217.917 413.789C217.846 413.848 217.743 413.857 217.663 413.81ZM14.3986 295.733L217.752 413.376L397.317 264.719L304.941 55.2018L68.2845 74.3696L14.3986 295.733ZM116.658 353.632C116.619 353.61 116.588 353.576 116.57 353.535L42.2706 185.017C42.2342 184.935 42.2572 184.838 42.3286 184.78L186.755 65.2127C186.826 65.154 186.929 65.1454 187.009 65.1921L350.569 159.813C350.649 159.86 350.689 159.951 350.668 160.039L307.327 338.085C307.305 338.172 307.227 338.237 307.134 338.244L116.788 353.661C116.741 353.665 116.696 353.654 116.658 353.632ZM42.7323 184.995L116.909 353.234L306.94 337.843L350.209 160.091L186.92 65.6262L42.7323 184.995ZM211.277 343.547L81.9632 268.737C81.8825 268.691 81.8427 268.6 81.864 268.512L116.13 127.745C116.151 127.658 116.23 127.593 116.323 127.586L266.814 115.397C266.908 115.389 266.996 115.44 267.033 115.523L325.775 248.756C325.811 248.839 325.788 248.935 325.717 248.994L211.531 343.526C211.46 343.585 211.357 343.593 211.277 343.547ZM82.3228 268.46L211.366 343.113L325.313 248.779L266.694 115.824L116.517 127.987L82.3228 268.46ZM147.132 305.33C147.094 305.308 147.063 305.274 147.044 305.233L99.8597 198.214C99.8232 198.131 99.8462 198.035 99.9175 197.976L191.637 122.044C191.708 121.985 191.811 121.976 191.891 122.023L295.762 182.113C295.842 182.16 295.882 182.251 295.861 182.339L268.337 295.409C268.315 295.497 268.237 295.561 268.144 295.568L147.263 305.359C147.216 305.363 147.171 305.352 147.132 305.33ZM100.321 198.191L147.383 304.932L267.95 295.167L295.402 182.391L191.802 122.457L100.321 198.191ZM207.239 299.782L124.298 251.799C124.217 251.753 124.178 251.662 124.199 251.574L146.177 161.287C146.198 161.199 146.277 161.135 146.37 161.127L242.894 153.31C242.988 153.302 243.076 153.353 243.113 153.436L280.79 238.891C280.826 238.974 280.803 239.07 280.732 239.129L207.494 299.761C207.422 299.82 207.32 299.829 207.239 299.782ZM124.658 251.522L207.329 299.348L280.328 238.914L242.774 153.737L146.564 161.529L124.658 251.522ZM166.097 275.27C166.059 275.248 166.028 275.214 166.009 275.173L135.745 206.531C135.709 206.449 135.732 206.352 135.803 206.294L194.632 157.591C194.703 157.532 194.806 157.524 194.886 157.57L261.508 196.112C261.589 196.159 261.629 196.249 261.607 196.337L243.953 268.86C243.932 268.948 243.854 269.012 243.761 269.02L166.228 275.299C166.181 275.303 166.136 275.292 166.097 275.27ZM136.207 206.509L166.348 274.872L243.566 268.618L261.148 196.39L194.797 158.004L136.207 206.509Z" fill="#ABABAB"/>
<path fill-rule="evenodd" clip-rule="evenodd" d="M227.574 521.254L-89.8952 337.594C-89.9758 337.547 -90.0156 337.456 -89.9943 337.368L-5.86919 -8.21895C-5.84785 -8.3068 -5.76962 -8.37107 -5.67606 -8.37891L363.785 -38.303C363.879 -38.3102 363.967 -38.2596 364.004 -38.1767L508.219 288.916C508.255 288.999 508.232 289.095 508.161 289.154L227.829 521.233C227.758 521.292 227.655 521.3 227.574 521.254ZM-89.5356 337.316L227.664 520.82L507.757 288.938L363.665 -37.876L-5.48198 -7.97717L-89.5356 337.316ZM70.0974 427.43C70.059 427.408 70.0281 427.374 70.0097 427.333L-45.8305 164.597C-45.867 164.515 -45.8436 164.419 -45.7726 164.359L179.402 -22.057C179.474 -22.1157 179.576 -22.1243 179.657 -22.0776L434.663 125.446C434.743 125.493 434.783 125.584 434.762 125.672L367.189 403.263C367.167 403.351 367.09 403.415 366.996 403.423L70.2283 427.459C70.1813 427.463 70.1359 427.453 70.0974 427.43ZM-45.3689 164.575L70.3486 427.032L366.802 403.021L434.303 125.724L179.567 -21.6435L-45.3689 164.575ZM217.663 413.81L14.0391 296.011C13.9585 295.964 13.9186 295.874 13.9399 295.786L67.8974 74.1276C67.9185 74.0398 67.9969 73.9755 68.0903 73.9679L305.062 54.7745C305.155 54.7671 305.243 54.8179 305.28 54.9011L397.779 264.697C397.815 264.78 397.792 264.876 397.721 264.935L217.917 413.789C217.846 413.848 217.743 413.857 217.663 413.81ZM14.3986 295.733L217.752 413.376L397.317 264.719L304.941 55.2018L68.2845 74.3696L14.3986 295.733ZM116.658 353.632C116.619 353.61 116.588 353.576 116.57 353.535L42.2706 185.017C42.2342 184.935 42.2572 184.838 42.3286 184.78L186.755 65.2127C186.826 65.154 186.929 65.1454 187.009 65.1921L350.569 159.813C350.649 159.86 350.689 159.951 350.668 160.039L307.327 338.085C307.305 338.172 307.227 338.237 307.134 338.244L116.788 353.661C116.741 353.665 116.696 353.654 116.658 353.632ZM42.7323 184.995L116.909 353.234L306.94 337.843L350.209 160.091L186.92 65.6262L42.7323 184.995ZM211.277 343.547L81.9632 268.737C81.8825 268.691 81.8427 268.6 81.864 268.512L116.13 127.745C116.151 127.658 116.23 127.593 116.323 127.586L266.814 115.397C266.908 115.389 266.996 115.44 267.033 115.523L325.775 248.756C325.811 248.839 325.788 248.935 325.717 248.994L211.531 343.526C211.46 343.585 211.357 343.593 211.277 343.547ZM82.3228 268.46L211.366 343.113L325.313 248.779L266.694 115.824L116.517 127.987L82.3228 268.46ZM147.132 305.33C147.094 305.308 147.063 305.274 147.044 305.233L99.8597 198.214C99.8232 198.131 99.8462 198.035 99.9175 197.976L191.637 122.044C191.708 121.985 191.811 121.976 191.891 122.023L295.762 182.113C295.842 182.16 295.882 182.251 295.861 182.339L268.337 295.409C268.315 295.497 268.237 295.561 268.144 295.568L147.263 305.359C147.216 305.363 147.171 305.352 147.132 305.33ZM100.321 198.191L147.383 304.932L267.95 295.167L295.402 182.391L191.802 122.457L100.321 198.191ZM207.239 299.782L124.298 251.799C124.217 251.753 124.178 251.662 124.199 251.574L146.177 161.287C146.198 161.199 146.277 161.135 146.37 161.127L242.894 153.31C242.988 153.302 243.076 153.353 243.113 153.436L280.79 238.891C280.826 238.974 280.803 239.07 280.732 239.129L207.494 299.761C207.422 299.82 207.32 299.829 207.239 299.782ZM124.658 251.522L207.329 299.348L280.328 238.914L242.774 153.737L146.564 161.529L124.658 251.522ZM166.097 275.27C166.059 275.248 166.028 275.214 166.009 275.173L135.745 206.531C135.709 206.449 135.732 206.352 135.803 206.294L194.632 157.591C194.703 157.532 194.806 157.524 194.886 157.57L261.508 196.112C261.589 196.159 261.629 196.249 261.607 196.337L243.953 268.86C243.932 268.948 243.854 269.012 243.761 269.02L166.228 275.299C166.181 275.303 166.136 275.292 166.097 275.27ZM136.207 206.509L166.348 274.872L243.566 268.618L261.148 196.39L194.797 158.004L136.207 206.509Z" fill="#ABABAB"/>
<path d="M227.574 521.254L-89.8952 337.594C-89.9758 337.547 -90.0156 337.456 -89.9943 337.368L-5.86919 -8.21895C-5.84785 -8.3068 -5.76962 -8.37107 -5.67606 -8.37891L363.785 -38.303C363.879 -38.3102 363.967 -38.2596 364.004 -38.1767L508.219 288.916C508.255 288.999 508.232 289.095 508.161 289.154L227.829 521.233C227.758 521.292 227.655 521.3 227.574 521.254ZM-89.5356 337.316L227.664 520.82L507.757 288.938L363.665 -37.876L-5.48198 -7.97717L-89.5356 337.316ZM70.0974 427.43C70.059 427.408 70.0281 427.374 70.0097 427.333L-45.8305 164.597C-45.867 164.515 -45.8436 164.419 -45.7726 164.359L179.402 -22.057C179.474 -22.1157 179.576 -22.1243 179.657 -22.0776L434.663 125.446C434.743 125.493 434.783 125.584 434.762 125.672L367.189 403.263C367.167 403.351 367.09 403.415 366.996 403.423L70.2283 427.459C70.1813 427.463 70.1359 427.453 70.0974 427.43ZM-45.3689 164.575L70.3486 427.032L366.802 403.021L434.303 125.724L179.567 -21.6435L-45.3689 164.575ZM217.663 413.81L14.0391 296.011C13.9585 295.964 13.9186 295.874 13.9399 295.786L67.8974 74.1276C67.9185 74.0398 67.9969 73.9755 68.0903 73.9679L305.062 54.7745C305.155 54.7671 305.243 54.8179 305.28 54.9011L397.779 264.697C397.815 264.78 397.792 264.876 397.721 264.935L217.917 413.789C217.846 413.848 217.743 413.857 217.663 413.81ZM14.3986 295.733L217.752 413.376L397.317 264.719L304.941 55.2018L68.2845 74.3696L14.3986 295.733ZM116.658 353.632C116.619 353.61 116.588 353.576 116.57 353.535L42.2706 185.017C42.2342 184.935 42.2572 184.838 42.3286 184.78L186.755 65.2127C186.826 65.154 186.929 65.1454 187.009 65.1921L350.569 159.813C350.649 159.86 350.689 159.951 350.668 160.039L307.327 338.085C307.305 338.172 307.227 338.237 307.134 338.244L116.788 353.661C116.741 353.665 116.696 353.654 116.658 353.632ZM42.7323 184.995L116.909 353.234L306.94 337.843L350.209 160.091L186.92 65.6262L42.7323 184.995ZM211.277 343.547L81.9632 268.737C81.8825 268.691 81.8427 268.6 81.864 268.512L116.13 127.745C116.151 127.658 116.23 127.593 116.323 127.586L266.814 115.397C266.908 115.389 266.996 115.44 267.033 115.523L325.775 248.756C325.811 248.839 325.788 248.935 325.717 248.994L211.531 343.526C211.46 343.585 211.357 343.593 211.277 343.547ZM82.3228 268.46L211.366 343.113L325.313 248.779L266.694 115.824L116.517 127.987L82.3228 268.46ZM147.132 305.33C147.094 305.308 147.063 305.274 147.044 305.233L99.8597 198.214C99.8232 198.131 99.8462 198.035 99.9175 197.976L191.637 122.044C191.708 121.985 191.811 121.976 191.891 122.023L295.762 182.113C295.842 182.16 295.882 182.251 295.861 182.339L268.337 295.409C268.315 295.497 268.237 295.561 268.144 295.568L147.263 305.359C147.216 305.363 147.171 305.352 147.132 305.33ZM100.321 198.191L147.383 304.932L267.95 295.167L295.402 182.391L191.802 122.457L100.321 198.191ZM207.239 299.782L124.298 251.799C124.217 251.753 124.178 251.662 124.199 251.574L146.177 161.287C146.198 161.199 146.277 161.135 146.37 161.127L242.894 153.31C242.988 153.302 243.076 153.353 243.113 153.436L280.79 238.891C280.826 238.974 280.803 239.07 280.732 239.129L207.494 299.761C207.422 299.82 207.32 299.829 207.239 299.782ZM124.658 251.522L207.329 299.348L280.328 238.914L242.774 153.737L146.564 161.529L124.658 251.522ZM166.097 275.27C166.059 275.248 166.028 275.214 166.009 275.173L135.745 206.531C135.709 206.449 135.732 206.352 135.803 206.294L194.632 157.591C194.703 157.532 194.806 157.524 194.886 157.57L261.508 196.112C261.589 196.159 261.629 196.249 261.607 196.337L243.953 268.86C243.932 268.948 243.854 269.012 243.761 269.02L166.228 275.299C166.181 275.303 166.136 275.292 166.097 275.27ZM136.207 206.509L166.348 274.872L243.566 268.618L261.148 196.39L194.797 158.004L136.207 206.509Z" fill="#ABABAB"/>
<path fill-rule="evenodd" clip-rule="evenodd" d="M227.574 521.254L-89.8952 337.594C-89.9758 337.547 -90.0156 337.456 -89.9943 337.368L-5.86919 -8.21895C-5.84785 -8.3068 -5.76962 -8.37107 -5.67606 -8.37891L363.785 -38.303C363.879 -38.3102 363.967 -38.2596 364.004 -38.1767L508.219 288.916C508.255 288.999 508.232 289.095 508.161 289.154L227.829 521.233C227.758 521.292 227.655 521.3 227.574 521.254ZM-89.5356 337.316L227.664 520.82L507.757 288.938L363.665 -37.876L-5.48198 -7.97717L-89.5356 337.316ZM70.0974 427.43C70.059 427.408 70.0281 427.374 70.0097 427.333L-45.8305 164.597C-45.867 164.515 -45.8436 164.419 -45.7726 164.359L179.402 -22.057C179.474 -22.1157 179.576 -22.1243 179.657 -22.0776L434.663 125.446C434.743 125.493 434.783 125.584 434.762 125.672L367.189 403.263C367.167 403.351 367.09 403.415 366.996 403.423L70.2283 427.459C70.1813 427.463 70.1359 427.453 70.0974 427.43ZM-45.3689 164.575L70.3486 427.032L366.802 403.021L434.303 125.724L179.567 -21.6435L-45.3689 164.575ZM217.663 413.81L14.0391 296.011C13.9585 295.964 13.9186 295.874 13.9399 295.786L67.8974 74.1276C67.9185 74.0398 67.9969 73.9755 68.0903 73.9679L305.062 54.7745C305.155 54.7671 305.243 54.8179 305.28 54.9011L397.779 264.697C397.815 264.78 397.792 264.876 397.721 264.935L217.917 413.789C217.846 413.848 217.743 413.857 217.663 413.81ZM14.3986 295.733L217.752 413.376L397.317 264.719L304.941 55.2018L68.2845 74.3696L14.3986 295.733ZM116.658 353.632C116.619 353.61 116.588 353.576 116.57 353.535L42.2706 185.017C42.2342 184.935 42.2572 184.838 42.3286 184.78L186.755 65.2127C186.826 65.154 186.929 65.1454 187.009 65.1921L350.569 159.813C350.649 159.86 350.689 159.951 350.668 160.039L307.327 338.085C307.305 338.172 307.227 338.237 307.134 338.244L116.788 353.661C116.741 353.665 116.696 353.654 116.658 353.632ZM42.7323 184.995L116.909 353.234L306.94 337.843L350.209 160.091L186.92 65.6262L42.7323 184.995ZM211.277 343.547L81.9632 268.737C81.8825 268.691 81.8427 268.6 81.864 268.512L116.13 127.745C116.151 127.658 116.23 127.593 116.323 127.586L266.814 115.397C266.908 115.389 266.996 115.44 267.033 115.523L325.775 248.756C325.811 248.839 325.788 248.935 325.717 248.994L211.531 343.526C211.46 343.585 211.357 343.593 211.277 343.547ZM82.3228 268.46L211.366 343.113L325.313 248.779L266.694 115.824L116.517 127.987L82.3228 268.46ZM147.132 305.33C147.094 305.308 147.063 305.274 147.044 305.233L99.8597 198.214C99.8232 198.131 99.8462 198.035 99.9175 197.976L191.637 122.044C191.708 121.985 191.811 121.976 191.891 122.023L295.762 182.113C295.842 182.16 295.882 182.251 295.861 182.339L268.337 295.409C268.315 295.497 268.237 295.561 268.144 295.568L147.263 305.359C147.216 305.363 147.171 305.352 147.132 305.33ZM100.321 198.191L147.383 304.932L267.95 295.167L295.402 182.391L191.802 122.457L100.321 198.191ZM207.239 299.782L124.298 251.799C124.217 251.753 124.178 251.662 124.199 251.574L146.177 161.287C146.198 161.199 146.277 161.135 146.37 161.127L242.894 153.31C242.988 153.302 243.076 153.353 243.113 153.436L280.79 238.891C280.826 238.974 280.803 239.07 280.732 239.129L207.494 299.761C207.422 299.82 207.32 299.829 207.239 299.782ZM124.658 251.522L207.329 299.348L280.328 238.914L242.774 153.737L146.564 161.529L124.658 251.522ZM166.097 275.27C166.059 275.248 166.028 275.214 166.009 275.173L135.745 206.531C135.709 206.449 135.732 206.352 135.803 206.294L194.632 157.591C194.703 157.532 194.806 157.524 194.886 157.57L261.508 196.112C261.589 196.159 261.629 196.249 261.607 196.337L243.953 268.86C243.932 268.948 243.854 269.012 243.761 269.02L166.228 275.299C166.181 275.303 166.136 275.292 166.097 275.27ZM136.207 206.509L166.348 274.872L243.566 268.618L261.148 196.39L194.797 158.004L136.207 206.509Z" fill="#ABABAB"/>
<path d="M227.574 521.254L-89.8952 337.594C-89.9758 337.547 -90.0156 337.456 -89.9943 337.368L-5.86919 -8.21895C-5.84785 -8.3068 -5.76962 -8.37107 -5.67606 -8.37891L363.785 -38.303C363.879 -38.3102 363.967 -38.2596 364.004 -38.1767L508.219 288.916C508.255 288.999 508.232 289.095 508.161 289.154L227.829 521.233C227.758 521.292 227.655 521.3 227.574 521.254ZM-89.5356 337.316L227.664 520.82L507.757 288.938L363.665 -37.876L-5.48198 -7.97717L-89.5356 337.316ZM70.0974 427.43C70.059 427.408 70.0281 427.374 70.0097 427.333L-45.8305 164.597C-45.867 164.515 -45.8436 164.419 -45.7726 164.359L179.402 -22.057C179.474 -22.1157 179.576 -22.1243 179.657 -22.0776L434.663 125.446C434.743 125.493 434.783 125.584 434.762 125.672L367.189 403.263C367.167 403.351 367.09 403.415 366.996 403.423L70.2283 427.459C70.1813 427.463 70.1359 427.453 70.0974 427.43ZM-45.3689 164.575L70.3486 427.032L366.802 403.021L434.303 125.724L179.567 -21.6435L-45.3689 164.575ZM217.663 413.81L14.0391 296.011C13.9585 295.964 13.9186 295.874 13.9399 295.786L67.8974 74.1276C67.9185 74.0398 67.9969 73.9755 68.0903 73.9679L305.062 54.7745C305.155 54.7671 305.243 54.8179 305.28 54.9011L397.779 264.697C397.815 264.78 397.792 264.876 397.721 264.935L217.917 413.789C217.846 413.848 217.743 413.857 217.663 413.81ZM14.3986 295.733L217.752 413.376L397.317 264.719L304.941 55.2018L68.2845 74.3696L14.3986 295.733ZM116.658 353.632C116.619 353.61 116.588 353.576 116.57 353.535L42.2706 185.017C42.2342 184.935 42.2572 184.838 42.3286 184.78L186.755 65.2127C186.826 65.154 186.929 65.1454 187.009 65.1921L350.569 159.813C350.649 159.86 350.689 159.951 350.668 160.039L307.327 338.085C307.305 338.172 307.227 338.237 307.134 338.244L116.788 353.661C116.741 353.665 116.696 353.654 116.658 353.632ZM42.7323 184.995L116.909 353.234L306.94 337.843L350.209 160.091L186.92 65.6262L42.7323 184.995ZM211.277 343.547L81.9632 268.737C81.8825 268.691 81.8427 268.6 81.864 268.512L116.13 127.745C116.151 127.658 116.23 127.593 116.323 127.586L266.814 115.397C266.908 115.389 266.996 115.44 267.033 115.523L325.775 248.756C325.811 248.839 325.788 248.935 325.717 248.994L211.531 343.526C211.46 343.585 211.357 343.593 211.277 343.547ZM82.3228 268.46L211.366 343.113L325.313 248.779L266.694 115.824L116.517 127.987L82.3228 268.46ZM147.132 305.33C147.094 305.308 147.063 305.274 147.044 305.233L99.8597 198.214C99.8232 198.131 99.8462 198.035 99.9175 197.976L191.637 122.044C191.708 121.985 191.811 121.976 191.891 122.023L295.762 182.113C295.842 182.16 295.882 182.251 295.861 182.339L268.337 295.409C268.315 295.497 268.237 295.561 268.144 295.568L147.263 305.359C147.216 305.363 147.171 305.352 147.132 305.33ZM100.321 198.191L147.383 304.932L267.95 295.167L295.402 182.391L191.802 122.457L100.321 198.191ZM207.239 299.782L124.298 251.799C124.217 251.753 124.178 251.662 124.199 251.574L146.177 161.287C146.198 161.199 146.277 161.135 146.37 161.127L242.894 153.31C242.988 153.302 243.076 153.353 243.113 153.436L280.79 238.891C280.826 238.974 280.803 239.07 280.732 239.129L207.494 299.761C207.422 299.82 207.32 299.829 207.239 299.782ZM124.658 251.522L207.329 299.348L280.328 238.914L242.774 153.737L146.564 161.529L124.658 251.522ZM166.097 275.27C166.059 275.248 166.028 275.214 166.009 275.173L135.745 206.531C135.709 206.449 135.732 206.352 135.803 206.294L194.632 157.591C194.703 157.532 194.806 157.524 194.886 157.57L261.508 196.112C261.589 196.159 261.629 196.249 261.607 196.337L243.953 268.86C243.932 268.948 243.854 269.012 243.761 269.02L166.228 275.299C166.181 275.303 166.136 275.292 166.097 275.27ZM136.207 206.509L166.348 274.872L243.566 268.618L261.148 196.39L194.797 158.004L136.207 206.509Z" fill="#ABABAB"/>
<path fill-rule="evenodd" clip-rule="evenodd" d="M227.574 521.254L-89.8952 337.594C-89.9758 337.547 -90.0156 337.456 -89.9943 337.368L-5.86919 -8.21895C-5.84785 -8.3068 -5.76962 -8.37107 -5.67606 -8.37891L363.785 -38.303C363.879 -38.3102 363.967 -38.2596 364.004 -38.1767L508.219 288.916C508.255 288.999 508.232 289.095 508.161 289.154L227.829 521.233C227.758 521.292 227.655 521.3 227.574 521.254ZM-89.5356 337.316L227.664 520.82L507.757 288.938L363.665 -37.876L-5.48198 -7.97717L-89.5356 337.316ZM70.0974 427.43C70.059 427.408 70.0281 427.374 70.0097 427.333L-45.8305 164.597C-45.867 164.515 -45.8436 164.419 -45.7726 164.359L179.402 -22.057C179.474 -22.1157 179.576 -22.1243 179.657 -22.0776L434.663 125.446C434.743 125.493 434.783 125.584 434.762 125.672L367.189 403.263C367.167 403.351 367.09 403.415 366.996 403.423L70.2283 427.459C70.1813 427.463 70.1359 427.453 70.0974 427.43ZM-45.3689 164.575L70.3486 427.032L366.802 403.021L434.303 125.724L179.567 -21.6435L-45.3689 164.575ZM217.663 413.81L14.0391 296.011C13.9585 295.964 13.9186 295.874 13.9399 295.786L67.8974 74.1276C67.9185 74.0398 67.9969 73.9755 68.0903 73.9679L305.062 54.7745C305.155 54.7671 305.243 54.8179 305.28 54.9011L397.779 264.697C397.815 264.78 397.792 264.876 397.721 264.935L217.917 413.789C217.846 413.848 217.743 413.857 217.663 413.81ZM14.3986 295.733L217.752 413.376L397.317 264.719L304.941 55.2018L68.2845 74.3696L14.3986 295.733ZM116.658 353.632C116.619 353.61 116.588 353.576 116.57 353.535L42.2706 185.017C42.2342 184.935 42.2572 184.838 42.3286 184.78L186.755 65.2127C186.826 65.154 186.929 65.1454 187.009 65.1921L350.569 159.813C350.649 159.86 350.689 159.951 350.668 160.039L307.327 338.085C307.305 338.172 307.227 338.237 307.134 338.244L116.788 353.661C116.741 353.665 116.696 353.654 116.658 353.632ZM42.7323 184.995L116.909 353.234L306.94 337.843L350.209 160.091L186.92 65.6262L42.7323 184.995ZM211.277 343.547L81.9632 268.737C81.8825 268.691 81.8427 268.6 81.864 268.512L116.13 127.745C116.151 127.658 116.23 127.593 116.323 127.586L266.814 115.397C266.908 115.389 266.996 115.44 267.033 115.523L325.775 248.756C325.811 248.839 325.788 248.935 325.717 248.994L211.531 343.526C211.46 343.585 211.357 343.593 211.277 343.547ZM82.3228 268.46L211.366 343.113L325.313 248.779L266.694 115.824L116.517 127.987L82.3228 268.46ZM147.132 305.33C147.094 305.308 147.063 305.274 147.044 305.233L99.8597 198.214C99.8232 198.131 99.8462 198.035 99.9175 197.976L191.637 122.044C191.708 121.985 191.811 121.976 191.891 122.023L295.762 182.113C295.842 182.16 295.882 182.251 295.861 182.339L268.337 295.409C268.315 295.497 268.237 295.561 268.144 295.568L147.263 305.359C147.216 305.363 147.171 305.352 147.132 305.33ZM100.321 198.191L147.383 304.932L267.95 295.167L295.402 182.391L191.802 122.457L100.321 198.191ZM207.239 299.782L124.298 251.799C124.217 251.753 124.178 251.662 124.199 251.574L146.177 161.287C146.198 161.199 146.277 161.135 146.37 161.127L242.894 153.31C242.988 153.302 243.076 153.353 243.113 153.436L280.79 238.891C280.826 238.974 280.803 239.07 280.732 239.129L207.494 299.761C207.422 299.82 207.32 299.829 207.239 299.782ZM124.658 251.522L207.329 299.348L280.328 238.914L242.774 153.737L146.564 161.529L124.658 251.522ZM166.097 275.27C166.059 275.248 166.028 275.214 166.009 275.173L135.745 206.531C135.709 206.449 135.732 206.352 135.803 206.294L194.632 157.591C194.703 157.532 194.806 157.524 194.886 157.57L261.508 196.112C261.589 196.159 261.629 196.249 261.607 196.337L243.953 268.86C243.932 268.948 243.854 269.012 243.761 269.02L166.228 275.299C166.181 275.303 166.136 275.292 166.097 275.27ZM136.207 206.509L166.348 274.872L243.566 268.618L261.148 196.39L194.797 158.004L136.207 206.509Z" fill="#ABABAB"/>
<path d="M227.574 521.254L-89.8952 337.594C-89.9758 337.547 -90.0156 337.456 -89.9943 337.368L-5.86919 -8.21895C-5.84785 -8.3068 -5.76962 -8.37107 -5.67606 -8.37891L363.785 -38.303C363.879 -38.3102 363.967 -38.2596 364.004 -38.1767L508.219 288.916C508.255 288.999 508.232 289.095 508.161 289.154L227.829 521.233C227.758 521.292 227.655 521.3 227.574 521.254ZM-89.5356 337.316L227.664 520.82L507.757 288.938L363.665 -37.876L-5.48198 -7.97717L-89.5356 337.316ZM70.0974 427.43C70.059 427.408 70.0281 427.374 70.0097 427.333L-45.8305 164.597C-45.867 164.515 -45.8436 164.419 -45.7726 164.359L179.402 -22.057C179.474 -22.1157 179.576 -22.1243 179.657 -22.0776L434.663 125.446C434.743 125.493 434.783 125.584 434.762 125.672L367.189 403.263C367.167 403.351 367.09 403.415 366.996 403.423L70.2283 427.459C70.1813 427.463 70.1359 427.453 70.0974 427.43ZM-45.3689 164.575L70.3486 427.032L366.802 403.021L434.303 125.724L179.567 -21.6435L-45.3689 164.575ZM217.663 413.81L14.0391 296.011C13.9585 295.964 13.9186 295.874 13.9399 295.786L67.8974 74.1276C67.9185 74.0398 67.9969 73.9755 68.0903 73.9679L305.062 54.7745C305.155 54.7671 305.243 54.8179 305.28 54.9011L397.779 264.697C397.815 264.78 397.792 264.876 397.721 264.935L217.917 413.789C217.846 413.848 217.743 413.857 217.663 413.81ZM14.3986 295.733L217.752 413.376L397.317 264.719L304.941 55.2018L68.2845 74.3696L14.3986 295.733ZM116.658 353.632C116.619 353.61 116.588 353.576 116.57 353.535L42.2706 185.017C42.2342 184.935 42.2572 184.838 42.3286 184.78L186.755 65.2127C186.826 65.154 186.929 65.1454 187.009 65.1921L350.569 159.813C350.649 159.86 350.689 159.951 350.668 160.039L307.327 338.085C307.305 338.172 307.227 338.237 307.134 338.244L116.788 353.661C116.741 353.665 116.696 353.654 116.658 353.632ZM42.7323 184.995L116.909 353.234L306.94 337.843L350.209 160.091L186.92 65.6262L42.7323 184.995ZM211.277 343.547L81.9632 268.737C81.8825 268.691 81.8427 268.6 81.864 268.512L116.13 127.745C116.151 127.658 116.23 127.593 116.323 127.586L266.814 115.397C266.908 115.389 266.996 115.44 267.033 115.523L325.775 248.756C325.811 248.839 325.788 248.935 325.717 248.994L211.531 343.526C211.46 343.585 211.357 343.593 211.277 343.547ZM82.3228 268.46L211.366 343.113L325.313 248.779L266.694 115.824L116.517 127.987L82.3228 268.46ZM147.132 305.33C147.094 305.308 147.063 305.274 147.044 305.233L99.8597 198.214C99.8232 198.131 99.8462 198.035 99.9175 197.976L191.637 122.044C191.708 121.985 191.811 121.976 191.891 122.023L295.762 182.113C295.842 182.16 295.882 182.251 295.861 182.339L268.337 295.409C268.315 295.497 268.237 295.561 268.144 295.568L147.263 305.359C147.216 305.363 147.171 305.352 147.132 305.33ZM100.321 198.191L147.383 304.932L267.95 295.167L295.402 182.391L191.802 122.457L100.321 198.191ZM207.239 299.782L124.298 251.799C124.217 251.753 124.178 251.662 124.199 251.574L146.177 161.287C146.198 161.199 146.277 161.135 146.37 161.127L242.894 153.31C242.988 153.302 243.076 153.353 243.113 153.436L280.79 238.891C280.826 238.974 280.803 239.07 280.732 239.129L207.494 299.761C207.422 299.82 207.32 299.829 207.239 299.782ZM124.658 251.522L207.329 299.348L280.328 238.914L242.774 153.737L146.564 161.529L124.658 251.522ZM166.097 275.27C166.059 275.248 166.028 275.214 166.009 275.173L135.745 206.531C135.709 206.449 135.732 206.352 135.803 206.294L194.632 157.591C194.703 157.532 194.806 157.524 194.886 157.57L261.508 196.112C261.589 196.159 261.629 196.249 261.607 196.337L243.953 268.86C243.932 268.948 243.854 269.012 243.761 269.02L166.228 275.299C166.181 275.303 166.136 275.292 166.097 275.27ZM136.207 206.509L166.348 274.872L243.566 268.618L261.148 196.39L194.797 158.004L136.207 206.509Z" fill="#ABABAB"/>
<path fill-rule="evenodd" clip-rule="evenodd" d="M227.574 521.254L-89.8952 337.594C-89.9758 337.547 -90.0156 337.456 -89.9943 337.368L-5.86919 -8.21895C-5.84785 -8.3068 -5.76962 -8.37107 -5.67606 -8.37891L363.785 -38.303C363.879 -38.3102 363.967 -38.2596 364.004 -38.1767L508.219 288.916C508.255 288.999 508.232 289.095 508.161 289.154L227.829 521.233C227.758 521.292 227.655 521.3 227.574 521.254ZM-89.5356 337.316L227.664 520.82L507.757 288.938L363.665 -37.876L-5.48198 -7.97717L-89.5356 337.316ZM70.0974 427.43C70.059 427.408 70.0281 427.374 70.0097 427.333L-45.8305 164.597C-45.867 164.515 -45.8436 164.419 -45.7726 164.359L179.402 -22.057C179.474 -22.1157 179.576 -22.1243 179.657 -22.0776L434.663 125.446C434.743 125.493 434.783 125.584 434.762 125.672L367.189 403.263C367.167 403.351 367.09 403.415 366.996 403.423L70.2283 427.459C70.1813 427.463 70.1359 427.453 70.0974 427.43ZM-45.3689 164.575L70.3486 427.032L366.802 403.021L434.303 125.724L179.567 -21.6435L-45.3689 164.575ZM217.663 413.81L14.0391 296.011C13.9585 295.964 13.9186 295.874 13.9399 295.786L67.8974 74.1276C67.9185 74.0398 67.9969 73.9755 68.0903 73.9679L305.062 54.7745C305.155 54.7671 305.243 54.8179 305.28 54.9011L397.779 264.697C397.815 264.78 397.792 264.876 397.721 264.935L217.917 413.789C217.846 413.848 217.743 413.857 217.663 413.81ZM14.3986 295.733L217.752 413.376L397.317 264.719L304.941 55.2018L68.2845 74.3696L14.3986 295.733ZM116.658 353.632C116.619 353.61 116.588 353.576 116.57 353.535L42.2706 185.017C42.2342 184.935 42.2572 184.838 42.3286 184.78L186.755 65.2127C186.826 65.154 186.929 65.1454 187.009 65.1921L350.569 159.813C350.649 159.86 350.689 159.951 350.668 160.039L307.327 338.085C307.305 338.172 307.227 338.237 307.134 338.244L116.788 353.661C116.741 353.665 116.696 353.654 116.658 353.632ZM42.7323 184.995L116.909 353.234L306.94 337.843L350.209 160.091L186.92 65.6262L42.7323 184.995ZM211.277 343.547L81.9632 268.737C81.8825 268.691 81.8427 268.6 81.864 268.512L116.13 127.745C116.151 127.658 116.23 127.593 116.323 127.586L266.814 115.397C266.908 115.389 266.996 115.44 267.033 115.523L325.775 248.756C325.811 248.839 325.788 248.935 325.717 248.994L211.531 343.526C211.46 343.585 211.357 343.593 211.277 343.547ZM82.3228 268.46L211.366 343.113L325.313 248.779L266.694 115.824L116.517 127.987L82.3228 268.46ZM147.132 305.33C147.094 305.308 147.063 305.274 147.044 305.233L99.8597 198.214C99.8232 198.131 99.8462 198.035 99.9175 197.976L191.637 122.044C191.708 121.985 191.811 121.976 191.891 122.023L295.762 182.113C295.842 182.16 295.882 182.251 295.861 182.339L268.337 295.409C268.315 295.497 268.237 295.561 268.144 295.568L147.263 305.359C147.216 305.363 147.171 305.352 147.132 305.33ZM100.321 198.191L147.383 304.932L267.95 295.167L295.402 182.391L191.802 122.457L100.321 198.191ZM207.239 299.782L124.298 251.799C124.217 251.753 124.178 251.662 124.199 251.574L146.177 161.287C146.198 161.199 146.277 161.135 146.37 161.127L242.894 153.31C242.988 153.302 243.076 153.353 243.113 153.436L280.79 238.891C280.826 238.974 280.803 239.07 280.732 239.129L207.494 299.761C207.422 299.82 207.32 299.829 207.239 299.782ZM124.658 251.522L207.329 299.348L280.328 238.914L242.774 153.737L146.564 161.529L124.658 251.522ZM166.097 275.27C166.059 275.248 166.028 275.214 166.009 275.173L135.745 206.531C135.709 206.449 135.732 206.352 135.803 206.294L194.632 157.591C194.703 157.532 194.806 157.524 194.886 157.57L261.508 196.112C261.589 196.159 261.629 196.249 261.607 196.337L243.953 268.86C243.932 268.948 243.854 269.012 243.761 269.02L166.228 275.299C166.181 275.303 166.136 275.292 166.097 275.27ZM136.207 206.509L166.348 274.872L243.566 268.618L261.148 196.39L194.797 158.004L136.207 206.509Z" fill="#ABABAB"/>
<path d="M227.574 521.254L-89.8952 337.594C-89.9758 337.547 -90.0156 337.456 -89.9943 337.368L-5.86919 -8.21895C-5.84785 -8.3068 -5.76962 -8.37107 -5.67606 -8.37891L363.785 -38.303C363.879 -38.3102 363.967 -38.2596 364.004 -38.1767L508.219 288.916C508.255 288.999 508.232 289.095 508.161 289.154L227.829 521.233C227.758 521.292 227.655 521.3 227.574 521.254ZM-89.5356 337.316L227.664 520.82L507.757 288.938L363.665 -37.876L-5.48198 -7.97717L-89.5356 337.316ZM70.0974 427.43C70.059 427.408 70.0281 427.374 70.0097 427.333L-45.8305 164.597C-45.867 164.515 -45.8436 164.419 -45.7726 164.359L179.402 -22.057C179.474 -22.1157 179.576 -22.1243 179.657 -22.0776L434.663 125.446C434.743 125.493 434.783 125.584 434.762 125.672L367.189 403.263C367.167 403.351 367.09 403.415 366.996 403.423L70.2283 427.459C70.1813 427.463 70.1359 427.453 70.0974 427.43ZM-45.3689 164.575L70.3486 427.032L366.802 403.021L434.303 125.724L179.567 -21.6435L-45.3689 164.575ZM217.663 413.81L14.0391 296.011C13.9585 295.964 13.9186 295.874 13.9399 295.786L67.8974 74.1276C67.9185 74.0398 67.9969 73.9755 68.0903 73.9679L305.062 54.7745C305.155 54.7671 305.243 54.8179 305.28 54.9011L397.779 264.697C397.815 264.78 397.792 264.876 397.721 264.935L217.917 413.789C217.846 413.848 217.743 413.857 217.663 413.81ZM14.3986 295.733L217.752 413.376L397.317 264.719L304.941 55.2018L68.2845 74.3696L14.3986 295.733ZM116.658 353.632C116.619 353.61 116.588 353.576 116.57 353.535L42.2706 185.017C42.2342 184.935 42.2572 184.838 42.3286 184.78L186.755 65.2127C186.826 65.154 186.929 65.1454 187.009 65.1921L350.569 159.813C350.649 159.86 350.689 159.951 350.668 160.039L307.327 338.085C307.305 338.172 307.227 338.237 307.134 338.244L116.788 353.661C116.741 353.665 116.696 353.654 116.658 353.632ZM42.7323 184.995L116.909 353.234L306.94 337.843L350.209 160.091L186.92 65.6262L42.7323 184.995ZM211.277 343.547L81.9632 268.737C81.8825 268.691 81.8427 268.6 81.864 268.512L116.13 127.745C116.151 127.658 116.23 127.593 116.323 127.586L266.814 115.397C266.908 115.389 266.996 115.44 267.033 115.523L325.775 248.756C325.811 248.839 325.788 248.935 325.717 248.994L211.531 343.526C211.46 343.585 211.357 343.593 211.277 343.547ZM82.3228 268.46L211.366 343.113L325.313 248.779L266.694 115.824L116.517 127.987L82.3228 268.46ZM147.132 305.33C147.094 305.308 147.063 305.274 147.044 305.233L99.8597 198.214C99.8232 198.131 99.8462 198.035 99.9175 197.976L191.637 122.044C191.708 121.985 191.811 121.976 191.891 122.023L295.762 182.113C295.842 182.16 295.882 182.251 295.861 182.339L268.337 295.409C268.315 295.497 268.237 295.561 268.144 295.568L147.263 305.359C147.216 305.363 147.171 305.352 147.132 305.33ZM100.321 198.191L147.383 304.932L267.95 295.167L295.402 182.391L191.802 122.457L100.321 198.191ZM207.239 299.782L124.298 251.799C124.217 251.753 124.178 251.662 124.199 251.574L146.177 161.287C146.198 161.199 146.277 161.135 146.37 161.127L242.894 153.31C242.988 153.302 243.076 153.353 243.113 153.436L280.79 238.891C280.826 238.974 280.803 239.07 280.732 239.129L207.494 299.761C207.422 299.82 207.32 299.829 207.239 299.782ZM124.658 251.522L207.329 299.348L280.328 238.914L242.774 153.737L146.564 161.529L124.658 251.522ZM166.097 275.27C166.059 275.248 166.028 275.214 166.009 275.173L135.745 206.531C135.709 206.449 135.732 206.352 135.803 206.294L194.632 157.591C194.703 157.532 194.806 157.524 194.886 157.57L261.508 196.112C261.589 196.159 261.629 196.249 261.607 196.337L243.953 268.86C243.932 268.948 243.854 269.012 243.761 269.02L166.228 275.299C166.181 275.303 166.136 275.292 166.097 275.27ZM136.207 206.509L166.348 274.872L243.566 268.618L261.148 196.39L194.797 158.004L136.207 206.509Z" fill="#ABABAB"/>
<path fill-rule="evenodd" clip-rule="evenodd" d="M227.574 521.254L-89.8952 337.594C-89.9758 337.547 -90.0156 337.456 -89.9943 337.368L-5.86919 -8.21895C-5.84785 -8.3068 -5.76962 -8.37107 -5.67606 -8.37891L363.785 -38.303C363.879 -38.3102 363.967 -38.2596 364.004 -38.1767L508.219 288.916C508.255 288.999 508.232 289.095 508.161 289.154L227.829 521.233C227.758 521.292 227.655 521.3 227.574 521.254ZM-89.5356 337.316L227.664 520.82L507.757 288.938L363.665 -37.876L-5.48198 -7.97717L-89.5356 337.316ZM70.0974 427.43C70.059 427.408 70.0281 427.374 70.0097 427.333L-45.8305 164.597C-45.867 164.515 -45.8436 164.419 -45.7726 164.359L179.402 -22.057C179.474 -22.1157 179.576 -22.1243 179.657 -22.0776L434.663 125.446C434.743 125.493 434.783 125.584 434.762 125.672L367.189 403.263C367.167 403.351 367.09 403.415 366.996 403.423L70.2283 427.459C70.1813 427.463 70.1359 427.453 70.0974 427.43ZM-45.3689 164.575L70.3486 427.032L366.802 403.021L434.303 125.724L179.567 -21.6435L-45.3689 164.575ZM217.663 413.81L14.0391 296.011C13.9585 295.964 13.9186 295.874 13.9399 295.786L67.8974 74.1276C67.9185 74.0398 67.9969 73.9755 68.0903 73.9679L305.062 54.7745C305.155 54.7671 305.243 54.8179 305.28 54.9011L397.779 264.697C397.815 264.78 397.792 264.876 397.721 264.935L217.917 413.789C217.846 413.848 217.743 413.857 217.663 413.81ZM14.3986 295.733L217.752 413.376L397.317 264.719L304.941 55.2018L68.2845 74.3696L14.3986 295.733ZM116.658 353.632C116.619 353.61 116.588 353.576 116.57 353.535L42.2706 185.017C42.2342 184.935 42.2572 184.838 42.3286 184.78L186.755 65.2127C186.826 65.154 186.929 65.1454 187.009 65.1921L350.569 159.813C350.649 159.86 350.689 159.951 350.668 160.039L307.327 338.085C307.305 338.172 307.227 338.237 307.134 338.244L116.788 353.661C116.741 353.665 116.696 353.654 116.658 353.632ZM42.7323 184.995L116.909 353.234L306.94 337.843L350.209 160.091L186.92 65.6262L42.7323 184.995ZM211.277 343.547L81.9632 268.737C81.8825 268.691 81.8427 268.6 81.864 268.512L116.13 127.745C116.151 127.658 116.23 127.593 116.323 127.586L266.814 115.397C266.908 115.389 266.996 115.44 267.033 115.523L325.775 248.756C325.811 248.839 325.788 248.935 325.717 248.994L211.531 343.526C211.46 343.585 211.357 343.593 211.277 343.547ZM82.3228 268.46L211.366 343.113L325.313 248.779L266.694 115.824L116.517 127.987L82.3228 268.46ZM147.132 305.33C147.094 305.308 147.063 305.274 147.044 305.233L99.8597 198.214C99.8232 198.131 99.8462 198.035 99.9175 197.976L191.637 122.044C191.708 121.985 191.811 121.976 191.891 122.023L295.762 182.113C295.842 182.16 295.882 182.251 295.861 182.339L268.337 295.409C268.315 295.497 268.237 295.561 268.144 295.568L147.263 305.359C147.216 305.363 147.171 305.352 147.132 305.33ZM100.321 198.191L147.383 304.932L267.95 295.167L295.402 182.391L191.802 122.457L100.321 198.191ZM207.239 299.782L124.298 251.799C124.217 251.753 124.178 251.662 124.199 251.574L146.177 161.287C146.198 161.199 146.277 161.135 146.37 161.127L242.894 153.31C242.988 153.302 243.076 153.353 243.113 153.436L280.79 238.891C280.826 238.974 280.803 239.07 280.732 239.129L207.494 299.761C207.422 299.82 207.32 299.829 207.239 299.782ZM124.658 251.522L207.329 299.348L280.328 238.914L242.774 153.737L146.564 161.529L124.658 251.522ZM166.097 275.27C166.059 275.248 166.028 275.214 166.009 275.173L135.745 206.531C135.709 206.449 135.732 206.352 135.803 206.294L194.632 157.591C194.703 157.532 194.806 157.524 194.886 157.57L261.508 196.112C261.589 196.159 261.629 196.249 261.607 196.337L243.953 268.86C243.932 268.948 243.854 269.012 243.761 269.02L166.228 275.299C166.181 275.303 166.136 275.292 166.097 275.27ZM136.207 206.509L166.348 274.872L243.566 268.618L261.148 196.39L194.797 158.004L136.207 206.509Z" fill="#ABABAB"/>
<path d="M227.574 521.254L-89.8952 337.594C-89.9758 337.547 -90.0156 337.456 -89.9943 337.368L-5.86919 -8.21895C-5.84785 -8.3068 -5.76962 -8.37107 -5.67606 -8.37891L363.785 -38.303C363.879 -38.3102 363.967 -38.2596 364.004 -38.1767L508.219 288.916C508.255 288.999 508.232 289.095 508.161 289.154L227.829 521.233C227.758 521.292 227.655 521.3 227.574 521.254ZM-89.5356 337.316L227.664 520.82L507.757 288.938L363.665 -37.876L-5.48198 -7.97717L-89.5356 337.316ZM70.0974 427.43C70.059 427.408 70.0281 427.374 70.0097 427.333L-45.8305 164.597C-45.867 164.515 -45.8436 164.419 -45.7726 164.359L179.402 -22.057C179.474 -22.1157 179.576 -22.1243 179.657 -22.0776L434.663 125.446C434.743 125.493 434.783 125.584 434.762 125.672L367.189 403.263C367.167 403.351 367.09 403.415 366.996 403.423L70.2283 427.459C70.1813 427.463 70.1359 427.453 70.0974 427.43ZM-45.3689 164.575L70.3486 427.032L366.802 403.021L434.303 125.724L179.567 -21.6435L-45.3689 164.575ZM217.663 413.81L14.0391 296.011C13.9585 295.964 13.9186 295.874 13.9399 295.786L67.8974 74.1276C67.9185 74.0398 67.9969 73.9755 68.0903 73.9679L305.062 54.7745C305.155 54.7671 305.243 54.8179 305.28 54.9011L397.779 264.697C397.815 264.78 397.792 264.876 397.721 264.935L217.917 413.789C217.846 413.848 217.743 413.857 217.663 413.81ZM14.3986 295.733L217.752 413.376L397.317 264.719L304.941 55.2018L68.2845 74.3696L14.3986 295.733ZM116.658 353.632C116.619 353.61 116.588 353.576 116.57 353.535L42.2706 185.017C42.2342 184.935 42.2572 184.838 42.3286 184.78L186.755 65.2127C186.826 65.154 186.929 65.1454 187.009 65.1921L350.569 159.813C350.649 159.86 350.689 159.951 350.668 160.039L307.327 338.085C307.305 338.172 307.227 338.237 307.134 338.244L116.788 353.661C116.741 353.665 116.696 353.654 116.658 353.632ZM42.7323 184.995L116.909 353.234L306.94 337.843L350.209 160.091L186.92 65.6262L42.7323 184.995ZM211.277 343.547L81.9632 268.737C81.8825 268.691 81.8427 268.6 81.864 268.512L116.13 127.745C116.151 127.658 116.23 127.593 116.323 127.586L266.814 115.397C266.908 115.389 266.996 115.44 267.033 115.523L325.775 248.756C325.811 248.839 325.788 248.935 325.717 248.994L211.531 343.526C211.46 343.585 211.357 343.593 211.277 343.547ZM82.3228 268.46L211.366 343.113L325.313 248.779L266.694 115.824L116.517 127.987L82.3228 268.46ZM147.132 305.33C147.094 305.308 147.063 305.274 147.044 305.233L99.8597 198.214C99.8232 198.131 99.8462 198.035 99.9175 197.976L191.637 122.044C191.708 121.985 191.811 121.976 191.891 122.023L295.762 182.113C295.842 182.16 295.882 182.251 295.861 182.339L268.337 295.409C268.315 295.497 268.237 295.561 268.144 295.568L147.263 305.359C147.216 305.363 147.171 305.352 147.132 305.33ZM100.321 198.191L147.383 304.932L267.95 295.167L295.402 182.391L191.802 122.457L100.321 198.191ZM207.239 299.782L124.298 251.799C124.217 251.753 124.178 251.662 124.199 251.574L146.177 161.287C146.198 161.199 146.277 161.135 146.37 161.127L242.894 153.31C242.988 153.302 243.076 153.353 243.113 153.436L280.79 238.891C280.826 238.974 280.803 239.07 280.732 239.129L207.494 299.761C207.422 299.82 207.32 299.829 207.239 299.782ZM124.658 251.522L207.329 299.348L280.328 238.914L242.774 153.737L146.564 161.529L124.658 251.522ZM166.097 275.27C166.059 275.248 166.028 275.214 166.009 275.173L135.745 206.531C135.709 206.449 135.732 206.352 135.803 206.294L194.632 157.591C194.703 157.532 194.806 157.524 194.886 157.57L261.508 196.112C261.589 196.159 261.629 196.249 261.607 196.337L243.953 268.86C243.932 268.948 243.854 269.012 243.761 269.02L166.228 275.299C166.181 275.303 166.136 275.292 166.097 275.27ZM136.207 206.509L166.348 274.872L243.566 268.618L261.148 196.39L194.797 158.004L136.207 206.509Z" fill="#ABABAB"/>
<path fill-rule="evenodd" clip-rule="evenodd" d="M227.574 521.254L-89.8952 337.594C-89.9758 337.547 -90.0156 337.456 -89.9943 337.368L-5.86919 -8.21895C-5.84785 -8.3068 -5.76962 -8.37107 -5.67606 -8.37891L363.785 -38.303C363.879 -38.3102 363.967 -38.2596 364.004 -38.1767L508.219 288.916C508.255 288.999 508.232 289.095 508.161 289.154L227.829 521.233C227.758 521.292 227.655 521.3 227.574 521.254ZM-89.5356 337.316L227.664 520.82L507.757 288.938L363.665 -37.876L-5.48198 -7.97717L-89.5356 337.316ZM70.0974 427.43C70.059 427.408 70.0281 427.374 70.0097 427.333L-45.8305 164.597C-45.867 164.515 -45.8436 164.419 -45.7726 164.359L179.402 -22.057C179.474 -22.1157 179.576 -22.1243 179.657 -22.0776L434.663 125.446C434.743 125.493 434.783 125.584 434.762 125.672L367.189 403.263C367.167 403.351 367.09 403.415 366.996 403.423L70.2283 427.459C70.1813 427.463 70.1359 427.453 70.0974 427.43ZM-45.3689 164.575L70.3486 427.032L366.802 403.021L434.303 125.724L179.567 -21.6435L-45.3689 164.575ZM217.663 413.81L14.0391 296.011C13.9585 295.964 13.9186 295.874 13.9399 295.786L67.8974 74.1276C67.9185 74.0398 67.9969 73.9755 68.0903 73.9679L305.062 54.7745C305.155 54.7671 305.243 54.8179 305.28 54.9011L397.779 264.697C397.815 264.78 397.792 264.876 397.721 264.935L217.917 413.789C217.846 413.848 217.743 413.857 217.663 413.81ZM14.3986 295.733L217.752 413.376L397.317 264.719L304.941 55.2018L68.2845 74.3696L14.3986 295.733ZM116.658 353.632C116.619 353.61 116.588 353.576 116.57 353.535L42.2706 185.017C42.2342 184.935 42.2572 184.838 42.3286 184.78L186.755 65.2127C186.826 65.154 186.929 65.1454 187.009 65.1921L350.569 159.813C350.649 159.86 350.689 159.951 350.668 160.039L307.327 338.085C307.305 338.172 307.227 338.237 307.134 338.244L116.788 353.661C116.741 353.665 116.696 353.654 116.658 353.632ZM42.7323 184.995L116.909 353.234L306.94 337.843L350.209 160.091L186.92 65.6262L42.7323 184.995ZM211.277 343.547L81.9632 268.737C81.8825 268.691 81.8427 268.6 81.864 268.512L116.13 127.745C116.151 127.658 116.23 127.593 116.323 127.586L266.814 115.397C266.908 115.389 266.996 115.44 267.033 115.523L325.775 248.756C325.811 248.839 325.788 248.935 325.717 248.994L211.531 343.526C211.46 343.585 211.357 343.593 211.277 343.547ZM82.3228 268.46L211.366 343.113L325.313 248.779L266.694 115.824L116.517 127.987L82.3228 268.46ZM147.132 305.33C147.094 305.308 147.063 305.274 147.044 305.233L99.8597 198.214C99.8232 198.131 99.8462 198.035 99.9175 197.976L191.637 122.044C191.708 121.985 191.811 121.976 191.891 122.023L295.762 182.113C295.842 182.16 295.882 182.251 295.861 182.339L268.337 295.409C268.315 295.497 268.237 295.561 268.144 295.568L147.263 305.359C147.216 305.363 147.171 305.352 147.132 305.33ZM100.321 198.191L147.383 304.932L267.95 295.167L295.402 182.391L191.802 122.457L100.321 198.191ZM207.239 299.782L124.298 251.799C124.217 251.753 124.178 251.662 124.199 251.574L146.177 161.287C146.198 161.199 146.277 161.135 146.37 161.127L242.894 153.31C242.988 153.302 243.076 153.353 243.113 153.436L280.79 238.891C280.826 238.974 280.803 239.07 280.732 239.129L207.494 299.761C207.422 299.82 207.32 299.829 207.239 299.782ZM124.658 251.522L207.329 299.348L280.328 238.914L242.774 153.737L146.564 161.529L124.658 251.522ZM166.097 275.27C166.059 275.248 166.028 275.214 166.009 275.173L135.745 206.531C135.709 206.449 135.732 206.352 135.803 206.294L194.632 157.591C194.703 157.532 194.806 157.524 194.886 157.57L261.508 196.112C261.589 196.159 261.629 196.249 261.607 196.337L243.953 268.86C243.932 268.948 243.854 269.012 243.761 269.02L166.228 275.299C166.181 275.303 166.136 275.292 166.097 275.27ZM136.207 206.509L166.348 274.872L243.566 268.618L261.148 196.39L194.797 158.004L136.207 206.509Z" fill="#ABABAB"/>
<path d="M227.574 521.254L-89.8952 337.594C-89.9758 337.547 -90.0156 337.456 -89.9943 337.368L-5.86919 -8.21895C-5.84785 -8.3068 -5.76962 -8.37107 -5.67606 -8.37891L363.785 -38.303C363.879 -38.3102 363.967 -38.2596 364.004 -38.1767L508.219 288.916C508.255 288.999 508.232 289.095 508.161 289.154L227.829 521.233C227.758 521.292 227.655 521.3 227.574 521.254ZM-89.5356 337.316L227.664 520.82L507.757 288.938L363.665 -37.876L-5.48198 -7.97717L-89.5356 337.316ZM70.0974 427.43C70.059 427.408 70.0281 427.374 70.0097 427.333L-45.8305 164.597C-45.867 164.515 -45.8436 164.419 -45.7726 164.359L179.402 -22.057C179.474 -22.1157 179.576 -22.1243 179.657 -22.0776L434.663 125.446C434.743 125.493 434.783 125.584 434.762 125.672L367.189 403.263C367.167 403.351 367.09 403.415 366.996 403.423L70.2283 427.459C70.1813 427.463 70.1359 427.453 70.0974 427.43ZM-45.3689 164.575L70.3486 427.032L366.802 403.021L434.303 125.724L179.567 -21.6435L-45.3689 164.575ZM217.663 413.81L14.0391 296.011C13.9585 295.964 13.9186 295.874 13.9399 295.786L67.8974 74.1276C67.9185 74.0398 67.9969 73.9755 68.0903 73.9679L305.062 54.7745C305.155 54.7671 305.243 54.8179 305.28 54.9011L397.779 264.697C397.815 264.78 397.792 264.876 397.721 264.935L217.917 413.789C217.846 413.848 217.743 413.857 217.663 413.81ZM14.3986 295.733L217.752 413.376L397.317 264.719L304.941 55.2018L68.2845 74.3696L14.3986 295.733ZM116.658 353.632C116.619 353.61 116.588 353.576 116.57 353.535L42.2706 185.017C42.2342 184.935 42.2572 184.838 42.3286 184.78L186.755 65.2127C186.826 65.154 186.929 65.1454 187.009 65.1921L350.569 159.813C350.649 159.86 350.689 159.951 350.668 160.039L307.327 338.085C307.305 338.172 307.227 338.237 307.134 338.244L116.788 353.661C116.741 353.665 116.696 353.654 116.658 353.632ZM42.7323 184.995L116.909 353.234L306.94 337.843L350.209 160.091L186.92 65.6262L42.7323 184.995ZM211.277 343.547L81.9632 268.737C81.8825 268.691 81.8427 268.6 81.864 268.512L116.13 127.745C116.151 127.658 116.23 127.593 116.323 127.586L266.814 115.397C266.908 115.389 266.996 115.44 267.033 115.523L325.775 248.756C325.811 248.839 325.788 248.935 325.717 248.994L211.531 343.526C211.46 343.585 211.357 343.593 211.277 343.547ZM82.3228 268.46L211.366 343.113L325.313 248.779L266.694 115.824L116.517 127.987L82.3228 268.46ZM147.132 305.33C147.094 305.308 147.063 305.274 147.044 305.233L99.8597 198.214C99.8232 198.131 99.8462 198.035 99.9175 197.976L191.637 122.044C191.708 121.985 191.811 121.976 191.891 122.023L295.762 182.113C295.842 182.16 295.882 182.251 295.861 182.339L268.337 295.409C268.315 295.497 268.237 295.561 268.144 295.568L147.263 305.359C147.216 305.363 147.171 305.352 147.132 305.33ZM100.321 198.191L147.383 304.932L267.95 295.167L295.402 182.391L191.802 122.457L100.321 198.191ZM207.239 299.782L124.298 251.799C124.217 251.753 124.178 251.662 124.199 251.574L146.177 161.287C146.198 161.199 146.277 161.135 146.37 161.127L242.894 153.31C242.988 153.302 243.076 153.353 243.113 153.436L280.79 238.891C280.826 238.974 280.803 239.07 280.732 239.129L207.494 299.761C207.422 299.82 207.32 299.829 207.239 299.782ZM124.658 251.522L207.329 299.348L280.328 238.914L242.774 153.737L146.564 161.529L124.658 251.522ZM166.097 275.27C166.059 275.248 166.028 275.214 166.009 275.173L135.745 206.531C135.709 206.449 135.732 206.352 135.803 206.294L194.632 157.591C194.703 157.532 194.806 157.524 194.886 157.57L261.508 196.112C261.589 196.159 261.629 196.249 261.607 196.337L243.953 268.86C243.932 268.948 243.854 269.012 243.761 269.02L166.228 275.299C166.181 275.303 166.136 275.292 166.097 275.27ZM136.207 206.509L166.348 274.872L243.566 268.618L261.148 196.39L194.797 158.004L136.207 206.509Z" fill="#ABABAB"/>
<path fill-rule="evenodd" clip-rule="evenodd" d="M227.574 521.254L-89.8952 337.594C-89.9758 337.547 -90.0156 337.456 -89.9943 337.368L-5.86919 -8.21895C-5.84785 -8.3068 -5.76962 -8.37107 -5.67606 -8.37891L363.785 -38.303C363.879 -38.3102 363.967 -38.2596 364.004 -38.1767L508.219 288.916C508.255 288.999 508.232 289.095 508.161 289.154L227.829 521.233C227.758 521.292 227.655 521.3 227.574 521.254ZM-89.5356 337.316L227.664 520.82L507.757 288.938L363.665 -37.876L-5.48198 -7.97717L-89.5356 337.316ZM70.0974 427.43C70.059 427.408 70.0281 427.374 70.0097 427.333L-45.8305 164.597C-45.867 164.515 -45.8436 164.419 -45.7726 164.359L179.402 -22.057C179.474 -22.1157 179.576 -22.1243 179.657 -22.0776L434.663 125.446C434.743 125.493 434.783 125.584 434.762 125.672L367.189 403.263C367.167 403.351 367.09 403.415 366.996 403.423L70.2283 427.459C70.1813 427.463 70.1359 427.453 70.0974 427.43ZM-45.3689 164.575L70.3486 427.032L366.802 403.021L434.303 125.724L179.567 -21.6435L-45.3689 164.575ZM217.663 413.81L14.0391 296.011C13.9585 295.964 13.9186 295.874 13.9399 295.786L67.8974 74.1276C67.9185 74.0398 67.9969 73.9755 68.0903 73.9679L305.062 54.7745C305.155 54.7671 305.243 54.8179 305.28 54.9011L397.779 264.697C397.815 264.78 397.792 264.876 397.721 264.935L217.917 413.789C217.846 413.848 217.743 413.857 217.663 413.81ZM14.3986 295.733L217.752 413.376L397.317 264.719L304.941 55.2018L68.2845 74.3696L14.3986 295.733ZM116.658 353.632C116.619 353.61 116.588 353.576 116.57 353.535L42.2706 185.017C42.2342 184.935 42.2572 184.838 42.3286 184.78L186.755 65.2127C186.826 65.154 186.929 65.1454 187.009 65.1921L350.569 159.813C350.649 159.86 350.689 159.951 350.668 160.039L307.327 338.085C307.305 338.172 307.227 338.237 307.134 338.244L116.788 353.661C116.741 353.665 116.696 353.654 116.658 353.632ZM42.7323 184.995L116.909 353.234L306.94 337.843L350.209 160.091L186.92 65.6262L42.7323 184.995ZM211.277 343.547L81.9632 268.737C81.8825 268.691 81.8427 268.6 81.864 268.512L116.13 127.745C116.151 127.658 116.23 127.593 116.323 127.586L266.814 115.397C266.908 115.389 266.996 115.44 267.033 115.523L325.775 248.756C325.811 248.839 325.788 248.935 325.717 248.994L211.531 343.526C211.46 343.585 211.357 343.593 211.277 343.547ZM82.3228 268.46L211.366 343.113L325.313 248.779L266.694 115.824L116.517 127.987L82.3228 268.46ZM147.132 305.33C147.094 305.308 147.063 305.274 147.044 305.233L99.8597 198.214C99.8232 198.131 99.8462 198.035 99.9175 197.976L191.637 122.044C191.708 121.985 191.811 121.976 191.891 122.023L295.762 182.113C295.842 182.16 295.882 182.251 295.861 182.339L268.337 295.409C268.315 295.497 268.237 295.561 268.144 295.568L147.263 305.359C147.216 305.363 147.171 305.352 147.132 305.33ZM100.321 198.191L147.383 304.932L267.95 295.167L295.402 182.391L191.802 122.457L100.321 198.191ZM207.239 299.782L124.298 251.799C124.217 251.753 124.178 251.662 124.199 251.574L146.177 161.287C146.198 161.199 146.277 161.135 146.37 161.127L242.894 153.31C242.988 153.302 243.076 153.353 243.113 153.436L280.79 238.891C280.826 238.974 280.803 239.07 280.732 239.129L207.494 299.761C207.422 299.82 207.32 299.829 207.239 299.782ZM124.658 251.522L207.329 299.348L280.328 238.914L242.774 153.737L146.564 161.529L124.658 251.522ZM166.097 275.27C166.059 275.248 166.028 275.214 166.009 275.173L135.745 206.531C135.709 206.449 135.732 206.352 135.803 206.294L194.632 157.591C194.703 157.532 194.806 157.524 194.886 157.57L261.508 196.112C261.589 196.159 261.629 196.249 261.607 196.337L243.953 268.86C243.932 268.948 243.854 269.012 243.761 269.02L166.228 275.299C166.181 275.303 166.136 275.292 166.097 275.27ZM136.207 206.509L166.348 274.872L243.566 268.618L261.148 196.39L194.797 158.004L136.207 206.509Z" fill="#ABABAB"/>
<path fill-rule="evenodd" clip-rule="evenodd" d="M225.096 141.315H200.062V149.66L206.92 146.53H225.096V141.315Z" fill="#3242F5"/>
<path fill-rule="evenodd" clip-rule="evenodd" d="M173.992 154.875H199.025V146.53L192.167 149.66H173.992V154.875Z" fill="#3242F5"/>
<path fill-rule="evenodd" clip-rule="evenodd" d="M235.526 348.361H200.062V340.017L206.92 343.146H235.526V348.361Z" fill="#3242F5"/>
<path fill-rule="evenodd" clip-rule="evenodd" d="M186.5 182.515H199.017V186.165H186.5V182.515Z" fill="#3242F5"/>
<path fill-rule="evenodd" clip-rule="evenodd" d="M200.062 191.904H212.579V197.119H200.062V191.904Z" fill="#3242F5"/>
<path fill-rule="evenodd" clip-rule="evenodd" d="M187.531 282.128H200.048V285.778H187.531V282.128Z" fill="#3242F5"/>
<path fill-rule="evenodd" clip-rule="evenodd" d="M200.062 293.079H212.579V298.294H200.062V293.079Z" fill="#3242F5"/>
<path fill-rule="evenodd" clip-rule="evenodd" d="M200.051 134.014V212.242H199.008V134.014H200.051Z" fill="#3242F5"/>
<path fill-rule="evenodd" clip-rule="evenodd" d="M200.051 252.4V379.652H199.008V252.4H200.051Z" fill="#3242F5"/>
<path fill-rule="evenodd" clip-rule="evenodd" d="M200.051 -3.66895V104.808H199.008V-3.66895H200.051Z" fill="#3242F5"/>
<path fill-rule="evenodd" clip-rule="evenodd" d="M163.555 58.3936H199.018V66.7378L192.16 63.6086H163.555V58.3936Z" fill="#3242F5"/>
<path d="M188.981 237.544V225.217H191.832V226.161H190.06V236.6H191.832V237.544H188.981ZM201.387 230.784V231.843H197.072V230.784H201.387ZM209.473 225.217V237.544H206.622V236.6H208.394V226.161H206.622V225.217H209.473Z" fill="#3241F4"/>
<rect y="165.663" width="390" height="263.337" fill="url(#paint0_linear_8085_4147)"/>
</g>
<defs>
<linearGradient id="paint0_linear_8085_4147" x1="195" y1="165.663" x2="195" y2="229.079" gradientUnits="userSpaceOnUse">
<stop stop-color="white" stop-opacity="0"/>
<stop offset="1" stop-color="white"/>
</linearGradient>
</defs>
</svg>
