<svg width="390" height="353" viewBox="0 0 390 353" fill="none" xmlns="http://www.w3.org/2000/svg">
<mask id="mask0_8085_4147" style="mask-type:alpha" maskUnits="userSpaceOnUse" x="0" y="0" width="390" height="353">
<rect y="0.988281" width="390" height="352.012" fill="white"/>
</mask>
<g mask="url(#mask0_8085_4147)">
<path d="M227.574 428.698L-89.8952 277.997C-89.9758 277.959 -90.0156 277.884 -89.9943 277.812L-5.86919 -5.75565C-5.84785 -5.82774 -5.76962 -5.88048 -5.67606 -5.88691L363.785 -30.4409C363.879 -30.4467 363.967 -30.4052 364.004 -30.3372L508.219 238.056C508.255 238.124 508.232 238.202 508.161 238.251L227.829 428.681C227.758 428.729 227.655 428.736 227.574 428.698ZM-89.5356 277.769L227.664 428.342L507.757 238.074L363.665 -30.0905L-5.48198 -5.55727L-89.5356 277.769ZM70.0974 351.712C70.059 351.694 70.0281 351.666 70.0097 351.632L-45.8305 136.047C-45.867 135.979 -45.8436 135.9 -45.7726 135.852L179.402 -17.1103C179.474 -17.1585 179.576 -17.1655 179.657 -17.1273L434.663 103.922C434.743 103.96 434.783 104.035 434.762 104.107L367.189 331.882C367.167 331.954 367.09 332.007 366.996 332.013L70.2283 351.736C70.1813 351.739 70.1359 351.73 70.0974 351.712ZM-45.3689 136.029L70.3486 351.385L366.802 331.684L434.303 104.15L179.567 -16.771L-45.3689 136.029ZM217.663 340.536L14.0391 243.877C13.9585 243.839 13.9186 243.764 13.9399 243.692L67.8974 61.813C67.9185 61.7409 67.9969 61.6882 68.0903 61.682L305.062 45.933C305.155 45.9269 305.243 45.9686 305.28 46.0369L397.779 218.183C397.815 218.251 397.792 218.33 397.721 218.378L217.917 340.519C217.846 340.567 217.743 340.574 217.663 340.536ZM14.3986 243.649L217.752 340.18L397.317 218.201L304.941 46.2836L68.2845 62.0116L14.3986 243.649ZM116.658 291.158C116.619 291.139 116.588 291.112 116.57 291.078L42.2706 152.803C42.2342 152.735 42.2572 152.656 42.3286 152.607L186.755 54.498C186.826 54.4498 186.929 54.4428 187.009 54.481L350.569 132.122C350.649 132.16 350.689 132.234 350.668 132.306L307.327 278.4C307.305 278.472 307.227 278.525 307.134 278.531L116.788 291.182C116.741 291.185 116.696 291.176 116.658 291.158ZM42.7323 152.784L116.909 290.831L306.94 278.202L350.209 132.349L186.92 54.8372L42.7323 152.784ZM211.277 282.882L81.9632 221.498C81.8825 221.46 81.8427 221.385 81.864 221.313L116.13 105.809C116.151 105.737 116.23 105.684 116.323 105.678L266.814 95.676C266.908 95.6698 266.996 95.7117 267.033 95.7797L325.775 205.103C325.811 205.171 325.788 205.25 325.717 205.298L211.531 282.865C211.46 282.913 211.357 282.92 211.277 282.882ZM82.3228 221.27L211.366 282.526L325.313 205.121L266.694 96.0264L116.517 106.007L82.3228 221.27ZM147.132 251.524C147.094 251.506 147.063 251.478 147.044 251.444L99.8597 163.631C99.8232 163.563 99.8462 163.484 99.9175 163.436L191.637 101.13C191.708 101.082 191.811 101.075 191.891 101.113L295.762 150.42C295.842 150.458 295.882 150.533 295.861 150.604L268.337 243.383C268.315 243.455 268.237 243.508 268.144 243.514L147.263 251.548C147.216 251.551 147.171 251.542 147.132 251.524ZM100.321 163.612L147.383 251.197L267.95 243.184L295.402 150.648L191.802 101.469L100.321 163.612ZM207.239 246.971L124.298 207.6C124.217 207.562 124.178 207.487 124.199 207.415L146.177 133.331C146.198 133.259 146.277 133.206 146.37 133.2L242.894 126.785C242.988 126.779 243.076 126.821 243.113 126.889L280.79 197.008C280.826 197.076 280.803 197.155 280.732 197.203L207.494 246.955C207.422 247.003 207.32 247.01 207.239 246.971ZM124.658 207.372L207.329 246.615L280.328 197.026L242.774 127.135L146.564 133.529L124.658 207.372ZM166.097 226.858C166.059 226.84 166.028 226.813 166.009 226.779L135.745 170.456C135.709 170.388 135.732 170.309 135.803 170.26L194.632 130.298C194.703 130.25 194.806 130.243 194.886 130.281L261.508 161.906C261.589 161.944 261.629 162.019 261.607 162.091L243.953 221.599C243.932 221.671 243.854 221.724 243.761 221.73L166.228 226.882C166.181 226.885 166.136 226.877 166.097 226.858ZM136.207 170.437L166.348 226.532L243.566 221.4L261.148 162.134L194.797 130.637L136.207 170.437Z" fill="#ABABAB"/>
<path fill-rule="evenodd" clip-rule="evenodd" d="M227.574 428.698L-89.8952 277.997C-89.9758 277.959 -90.0156 277.884 -89.9943 277.812L-5.86919 -5.75565C-5.84785 -5.82774 -5.76962 -5.88048 -5.67606 -5.88691L363.785 -30.4409C363.879 -30.4467 363.967 -30.4052 364.004 -30.3372L508.219 238.056C508.255 238.124 508.232 238.202 508.161 238.251L227.829 428.681C227.758 428.729 227.655 428.736 227.574 428.698ZM-89.5356 277.769L227.664 428.342L507.757 238.074L363.665 -30.0905L-5.48198 -5.55727L-89.5356 277.769ZM70.0974 351.712C70.059 351.694 70.0281 351.666 70.0097 351.632L-45.8305 136.047C-45.867 135.979 -45.8436 135.9 -45.7726 135.852L179.402 -17.1103C179.474 -17.1585 179.576 -17.1655 179.657 -17.1273L434.663 103.922C434.743 103.96 434.783 104.035 434.762 104.107L367.189 331.882C367.167 331.954 367.09 332.007 366.996 332.013L70.2283 351.736C70.1813 351.739 70.1359 351.73 70.0974 351.712ZM-45.3689 136.029L70.3486 351.385L366.802 331.684L434.303 104.15L179.567 -16.771L-45.3689 136.029ZM217.663 340.536L14.0391 243.877C13.9585 243.839 13.9186 243.764 13.9399 243.692L67.8974 61.813C67.9185 61.7409 67.9969 61.6882 68.0903 61.682L305.062 45.933C305.155 45.9269 305.243 45.9686 305.28 46.0369L397.779 218.183C397.815 218.251 397.792 218.33 397.721 218.378L217.917 340.519C217.846 340.567 217.743 340.574 217.663 340.536ZM14.3986 243.649L217.752 340.18L397.317 218.201L304.941 46.2836L68.2845 62.0116L14.3986 243.649ZM116.658 291.158C116.619 291.139 116.588 291.112 116.57 291.078L42.2706 152.803C42.2342 152.735 42.2572 152.656 42.3286 152.607L186.755 54.498C186.826 54.4498 186.929 54.4428 187.009 54.481L350.569 132.122C350.649 132.16 350.689 132.234 350.668 132.306L307.327 278.4C307.305 278.472 307.227 278.525 307.134 278.531L116.788 291.182C116.741 291.185 116.696 291.176 116.658 291.158ZM42.7323 152.784L116.909 290.831L306.94 278.202L350.209 132.349L186.92 54.8372L42.7323 152.784ZM211.277 282.882L81.9632 221.498C81.8825 221.46 81.8427 221.385 81.864 221.313L116.13 105.809C116.151 105.737 116.23 105.684 116.323 105.678L266.814 95.676C266.908 95.6698 266.996 95.7117 267.033 95.7797L325.775 205.103C325.811 205.171 325.788 205.25 325.717 205.298L211.531 282.865C211.46 282.913 211.357 282.92 211.277 282.882ZM82.3228 221.27L211.366 282.526L325.313 205.121L266.694 96.0264L116.517 106.007L82.3228 221.27ZM147.132 251.524C147.094 251.506 147.063 251.478 147.044 251.444L99.8597 163.631C99.8232 163.563 99.8462 163.484 99.9175 163.436L191.637 101.13C191.708 101.082 191.811 101.075 191.891 101.113L295.762 150.42C295.842 150.458 295.882 150.533 295.861 150.604L268.337 243.383C268.315 243.455 268.237 243.508 268.144 243.514L147.263 251.548C147.216 251.551 147.171 251.542 147.132 251.524ZM100.321 163.612L147.383 251.197L267.95 243.184L295.402 150.648L191.802 101.469L100.321 163.612ZM207.239 246.971L124.298 207.6C124.217 207.562 124.178 207.487 124.199 207.415L146.177 133.331C146.198 133.259 146.277 133.206 146.37 133.2L242.894 126.785C242.988 126.779 243.076 126.821 243.113 126.889L280.79 197.008C280.826 197.076 280.803 197.155 280.732 197.203L207.494 246.955C207.422 247.003 207.32 247.01 207.239 246.971ZM124.658 207.372L207.329 246.615L280.328 197.026L242.774 127.135L146.564 133.529L124.658 207.372ZM166.097 226.858C166.059 226.84 166.028 226.813 166.009 226.779L135.745 170.456C135.709 170.388 135.732 170.309 135.803 170.26L194.632 130.298C194.703 130.25 194.806 130.243 194.886 130.281L261.508 161.906C261.589 161.944 261.629 162.019 261.607 162.091L243.953 221.599C243.932 221.671 243.854 221.724 243.761 221.73L166.228 226.882C166.181 226.885 166.136 226.877 166.097 226.858ZM136.207 170.437L166.348 226.532L243.566 221.4L261.148 162.134L194.797 130.637L136.207 170.437Z" fill="#ABABAB"/>
<path d="M227.574 428.698L-89.8952 277.997C-89.9758 277.959 -90.0156 277.884 -89.9943 277.812L-5.86919 -5.75565C-5.84785 -5.82774 -5.76962 -5.88048 -5.67606 -5.88691L363.785 -30.4409C363.879 -30.4467 363.967 -30.4052 364.004 -30.3372L508.219 238.056C508.255 238.124 508.232 238.202 508.161 238.251L227.829 428.681C227.758 428.729 227.655 428.736 227.574 428.698ZM-89.5356 277.769L227.664 428.342L507.757 238.074L363.665 -30.0905L-5.48198 -5.55727L-89.5356 277.769ZM70.0974 351.712C70.059 351.694 70.0281 351.666 70.0097 351.632L-45.8305 136.047C-45.867 135.979 -45.8436 135.9 -45.7726 135.852L179.402 -17.1103C179.474 -17.1585 179.576 -17.1655 179.657 -17.1273L434.663 103.922C434.743 103.96 434.783 104.035 434.762 104.107L367.189 331.882C367.167 331.954 367.09 332.007 366.996 332.013L70.2283 351.736C70.1813 351.739 70.1359 351.73 70.0974 351.712ZM-45.3689 136.029L70.3486 351.385L366.802 331.684L434.303 104.15L179.567 -16.771L-45.3689 136.029ZM217.663 340.536L14.0391 243.877C13.9585 243.839 13.9186 243.764 13.9399 243.692L67.8974 61.813C67.9185 61.7409 67.9969 61.6882 68.0903 61.682L305.062 45.933C305.155 45.9269 305.243 45.9686 305.28 46.0369L397.779 218.183C397.815 218.251 397.792 218.33 397.721 218.378L217.917 340.519C217.846 340.567 217.743 340.574 217.663 340.536ZM14.3986 243.649L217.752 340.18L397.317 218.201L304.941 46.2836L68.2845 62.0116L14.3986 243.649ZM116.658 291.158C116.619 291.139 116.588 291.112 116.57 291.078L42.2706 152.803C42.2342 152.735 42.2572 152.656 42.3286 152.607L186.755 54.498C186.826 54.4498 186.929 54.4428 187.009 54.481L350.569 132.122C350.649 132.16 350.689 132.234 350.668 132.306L307.327 278.4C307.305 278.472 307.227 278.525 307.134 278.531L116.788 291.182C116.741 291.185 116.696 291.176 116.658 291.158ZM42.7323 152.784L116.909 290.831L306.94 278.202L350.209 132.349L186.92 54.8372L42.7323 152.784ZM211.277 282.882L81.9632 221.498C81.8825 221.46 81.8427 221.385 81.864 221.313L116.13 105.809C116.151 105.737 116.23 105.684 116.323 105.678L266.814 95.676C266.908 95.6698 266.996 95.7117 267.033 95.7797L325.775 205.103C325.811 205.171 325.788 205.25 325.717 205.298L211.531 282.865C211.46 282.913 211.357 282.92 211.277 282.882ZM82.3228 221.27L211.366 282.526L325.313 205.121L266.694 96.0264L116.517 106.007L82.3228 221.27ZM147.132 251.524C147.094 251.506 147.063 251.478 147.044 251.444L99.8597 163.631C99.8232 163.563 99.8462 163.484 99.9175 163.436L191.637 101.13C191.708 101.082 191.811 101.075 191.891 101.113L295.762 150.42C295.842 150.458 295.882 150.533 295.861 150.604L268.337 243.383C268.315 243.455 268.237 243.508 268.144 243.514L147.263 251.548C147.216 251.551 147.171 251.542 147.132 251.524ZM100.321 163.612L147.383 251.197L267.95 243.184L295.402 150.648L191.802 101.469L100.321 163.612ZM207.239 246.971L124.298 207.6C124.217 207.562 124.178 207.487 124.199 207.415L146.177 133.331C146.198 133.259 146.277 133.206 146.37 133.2L242.894 126.785C242.988 126.779 243.076 126.821 243.113 126.889L280.79 197.008C280.826 197.076 280.803 197.155 280.732 197.203L207.494 246.955C207.422 247.003 207.32 247.01 207.239 246.971ZM124.658 207.372L207.329 246.615L280.328 197.026L242.774 127.135L146.564 133.529L124.658 207.372ZM166.097 226.858C166.059 226.84 166.028 226.813 166.009 226.779L135.745 170.456C135.709 170.388 135.732 170.309 135.803 170.26L194.632 130.298C194.703 130.25 194.806 130.243 194.886 130.281L261.508 161.906C261.589 161.944 261.629 162.019 261.607 162.091L243.953 221.599C243.932 221.671 243.854 221.724 243.761 221.73L166.228 226.882C166.181 226.885 166.136 226.877 166.097 226.858ZM136.207 170.437L166.348 226.532L243.566 221.4L261.148 162.134L194.797 130.637L136.207 170.437Z" fill="#ABABAB"/>
<path fill-rule="evenodd" clip-rule="evenodd" d="M227.574 428.698L-89.8952 277.997C-89.9758 277.959 -90.0156 277.884 -89.9943 277.812L-5.86919 -5.75565C-5.84785 -5.82774 -5.76962 -5.88048 -5.67606 -5.88691L363.785 -30.4409C363.879 -30.4467 363.967 -30.4052 364.004 -30.3372L508.219 238.056C508.255 238.124 508.232 238.202 508.161 238.251L227.829 428.681C227.758 428.729 227.655 428.736 227.574 428.698ZM-89.5356 277.769L227.664 428.342L507.757 238.074L363.665 -30.0905L-5.48198 -5.55727L-89.5356 277.769ZM70.0974 351.712C70.059 351.694 70.0281 351.666 70.0097 351.632L-45.8305 136.047C-45.867 135.979 -45.8436 135.9 -45.7726 135.852L179.402 -17.1103C179.474 -17.1585 179.576 -17.1655 179.657 -17.1273L434.663 103.922C434.743 103.96 434.783 104.035 434.762 104.107L367.189 331.882C367.167 331.954 367.09 332.007 366.996 332.013L70.2283 351.736C70.1813 351.739 70.1359 351.73 70.0974 351.712ZM-45.3689 136.029L70.3486 351.385L366.802 331.684L434.303 104.15L179.567 -16.771L-45.3689 136.029ZM217.663 340.536L14.0391 243.877C13.9585 243.839 13.9186 243.764 13.9399 243.692L67.8974 61.813C67.9185 61.7409 67.9969 61.6882 68.0903 61.682L305.062 45.933C305.155 45.9269 305.243 45.9686 305.28 46.0369L397.779 218.183C397.815 218.251 397.792 218.33 397.721 218.378L217.917 340.519C217.846 340.567 217.743 340.574 217.663 340.536ZM14.3986 243.649L217.752 340.18L397.317 218.201L304.941 46.2836L68.2845 62.0116L14.3986 243.649ZM116.658 291.158C116.619 291.139 116.588 291.112 116.57 291.078L42.2706 152.803C42.2342 152.735 42.2572 152.656 42.3286 152.607L186.755 54.498C186.826 54.4498 186.929 54.4428 187.009 54.481L350.569 132.122C350.649 132.16 350.689 132.234 350.668 132.306L307.327 278.4C307.305 278.472 307.227 278.525 307.134 278.531L116.788 291.182C116.741 291.185 116.696 291.176 116.658 291.158ZM42.7323 152.784L116.909 290.831L306.94 278.202L350.209 132.349L186.92 54.8372L42.7323 152.784ZM211.277 282.882L81.9632 221.498C81.8825 221.46 81.8427 221.385 81.864 221.313L116.13 105.809C116.151 105.737 116.23 105.684 116.323 105.678L266.814 95.676C266.908 95.6698 266.996 95.7117 267.033 95.7797L325.775 205.103C325.811 205.171 325.788 205.25 325.717 205.298L211.531 282.865C211.46 282.913 211.357 282.92 211.277 282.882ZM82.3228 221.27L211.366 282.526L325.313 205.121L266.694 96.0264L116.517 106.007L82.3228 221.27ZM147.132 251.524C147.094 251.506 147.063 251.478 147.044 251.444L99.8597 163.631C99.8232 163.563 99.8462 163.484 99.9175 163.436L191.637 101.13C191.708 101.082 191.811 101.075 191.891 101.113L295.762 150.42C295.842 150.458 295.882 150.533 295.861 150.604L268.337 243.383C268.315 243.455 268.237 243.508 268.144 243.514L147.263 251.548C147.216 251.551 147.171 251.542 147.132 251.524ZM100.321 163.612L147.383 251.197L267.95 243.184L295.402 150.648L191.802 101.469L100.321 163.612ZM207.239 246.971L124.298 207.6C124.217 207.562 124.178 207.487 124.199 207.415L146.177 133.331C146.198 133.259 146.277 133.206 146.37 133.2L242.894 126.785C242.988 126.779 243.076 126.821 243.113 126.889L280.79 197.008C280.826 197.076 280.803 197.155 280.732 197.203L207.494 246.955C207.422 247.003 207.32 247.01 207.239 246.971ZM124.658 207.372L207.329 246.615L280.328 197.026L242.774 127.135L146.564 133.529L124.658 207.372ZM166.097 226.858C166.059 226.84 166.028 226.813 166.009 226.779L135.745 170.456C135.709 170.388 135.732 170.309 135.803 170.26L194.632 130.298C194.703 130.25 194.806 130.243 194.886 130.281L261.508 161.906C261.589 161.944 261.629 162.019 261.607 162.091L243.953 221.599C243.932 221.671 243.854 221.724 243.761 221.73L166.228 226.882C166.181 226.885 166.136 226.877 166.097 226.858ZM136.207 170.437L166.348 226.532L243.566 221.4L261.148 162.134L194.797 130.637L136.207 170.437Z" fill="#ABABAB"/>
<path d="M227.574 428.698L-89.8952 277.997C-89.9758 277.959 -90.0156 277.884 -89.9943 277.812L-5.86919 -5.75565C-5.84785 -5.82774 -5.76962 -5.88048 -5.67606 -5.88691L363.785 -30.4409C363.879 -30.4467 363.967 -30.4052 364.004 -30.3372L508.219 238.056C508.255 238.124 508.232 238.202 508.161 238.251L227.829 428.681C227.758 428.729 227.655 428.736 227.574 428.698ZM-89.5356 277.769L227.664 428.342L507.757 238.074L363.665 -30.0905L-5.48198 -5.55727L-89.5356 277.769ZM70.0974 351.712C70.059 351.694 70.0281 351.666 70.0097 351.632L-45.8305 136.047C-45.867 135.979 -45.8436 135.9 -45.7726 135.852L179.402 -17.1103C179.474 -17.1585 179.576 -17.1655 179.657 -17.1273L434.663 103.922C434.743 103.96 434.783 104.035 434.762 104.107L367.189 331.882C367.167 331.954 367.09 332.007 366.996 332.013L70.2283 351.736C70.1813 351.739 70.1359 351.73 70.0974 351.712ZM-45.3689 136.029L70.3486 351.385L366.802 331.684L434.303 104.15L179.567 -16.771L-45.3689 136.029ZM217.663 340.536L14.0391 243.877C13.9585 243.839 13.9186 243.764 13.9399 243.692L67.8974 61.813C67.9185 61.7409 67.9969 61.6882 68.0903 61.682L305.062 45.933C305.155 45.9269 305.243 45.9686 305.28 46.0369L397.779 218.183C397.815 218.251 397.792 218.33 397.721 218.378L217.917 340.519C217.846 340.567 217.743 340.574 217.663 340.536ZM14.3986 243.649L217.752 340.18L397.317 218.201L304.941 46.2836L68.2845 62.0116L14.3986 243.649ZM116.658 291.158C116.619 291.139 116.588 291.112 116.57 291.078L42.2706 152.803C42.2342 152.735 42.2572 152.656 42.3286 152.607L186.755 54.498C186.826 54.4498 186.929 54.4428 187.009 54.481L350.569 132.122C350.649 132.16 350.689 132.234 350.668 132.306L307.327 278.4C307.305 278.472 307.227 278.525 307.134 278.531L116.788 291.182C116.741 291.185 116.696 291.176 116.658 291.158ZM42.7323 152.784L116.909 290.831L306.94 278.202L350.209 132.349L186.92 54.8372L42.7323 152.784ZM211.277 282.882L81.9632 221.498C81.8825 221.46 81.8427 221.385 81.864 221.313L116.13 105.809C116.151 105.737 116.23 105.684 116.323 105.678L266.814 95.676C266.908 95.6698 266.996 95.7117 267.033 95.7797L325.775 205.103C325.811 205.171 325.788 205.25 325.717 205.298L211.531 282.865C211.46 282.913 211.357 282.92 211.277 282.882ZM82.3228 221.27L211.366 282.526L325.313 205.121L266.694 96.0264L116.517 106.007L82.3228 221.27ZM147.132 251.524C147.094 251.506 147.063 251.478 147.044 251.444L99.8597 163.631C99.8232 163.563 99.8462 163.484 99.9175 163.436L191.637 101.13C191.708 101.082 191.811 101.075 191.891 101.113L295.762 150.42C295.842 150.458 295.882 150.533 295.861 150.604L268.337 243.383C268.315 243.455 268.237 243.508 268.144 243.514L147.263 251.548C147.216 251.551 147.171 251.542 147.132 251.524ZM100.321 163.612L147.383 251.197L267.95 243.184L295.402 150.648L191.802 101.469L100.321 163.612ZM207.239 246.971L124.298 207.6C124.217 207.562 124.178 207.487 124.199 207.415L146.177 133.331C146.198 133.259 146.277 133.206 146.37 133.2L242.894 126.785C242.988 126.779 243.076 126.821 243.113 126.889L280.79 197.008C280.826 197.076 280.803 197.155 280.732 197.203L207.494 246.955C207.422 247.003 207.32 247.01 207.239 246.971ZM124.658 207.372L207.329 246.615L280.328 197.026L242.774 127.135L146.564 133.529L124.658 207.372ZM166.097 226.858C166.059 226.84 166.028 226.813 166.009 226.779L135.745 170.456C135.709 170.388 135.732 170.309 135.803 170.26L194.632 130.298C194.703 130.25 194.806 130.243 194.886 130.281L261.508 161.906C261.589 161.944 261.629 162.019 261.607 162.091L243.953 221.599C243.932 221.671 243.854 221.724 243.761 221.73L166.228 226.882C166.181 226.885 166.136 226.877 166.097 226.858ZM136.207 170.437L166.348 226.532L243.566 221.4L261.148 162.134L194.797 130.637L136.207 170.437Z" fill="#ABABAB"/>
<path fill-rule="evenodd" clip-rule="evenodd" d="M227.574 428.698L-89.8952 277.997C-89.9758 277.959 -90.0156 277.884 -89.9943 277.812L-5.86919 -5.75565C-5.84785 -5.82774 -5.76962 -5.88048 -5.67606 -5.88691L363.785 -30.4409C363.879 -30.4467 363.967 -30.4052 364.004 -30.3372L508.219 238.056C508.255 238.124 508.232 238.202 508.161 238.251L227.829 428.681C227.758 428.729 227.655 428.736 227.574 428.698ZM-89.5356 277.769L227.664 428.342L507.757 238.074L363.665 -30.0905L-5.48198 -5.55727L-89.5356 277.769ZM70.0974 351.712C70.059 351.694 70.0281 351.666 70.0097 351.632L-45.8305 136.047C-45.867 135.979 -45.8436 135.9 -45.7726 135.852L179.402 -17.1103C179.474 -17.1585 179.576 -17.1655 179.657 -17.1273L434.663 103.922C434.743 103.96 434.783 104.035 434.762 104.107L367.189 331.882C367.167 331.954 367.09 332.007 366.996 332.013L70.2283 351.736C70.1813 351.739 70.1359 351.73 70.0974 351.712ZM-45.3689 136.029L70.3486 351.385L366.802 331.684L434.303 104.15L179.567 -16.771L-45.3689 136.029ZM217.663 340.536L14.0391 243.877C13.9585 243.839 13.9186 243.764 13.9399 243.692L67.8974 61.813C67.9185 61.7409 67.9969 61.6882 68.0903 61.682L305.062 45.933C305.155 45.9269 305.243 45.9686 305.28 46.0369L397.779 218.183C397.815 218.251 397.792 218.33 397.721 218.378L217.917 340.519C217.846 340.567 217.743 340.574 217.663 340.536ZM14.3986 243.649L217.752 340.18L397.317 218.201L304.941 46.2836L68.2845 62.0116L14.3986 243.649ZM116.658 291.158C116.619 291.139 116.588 291.112 116.57 291.078L42.2706 152.803C42.2342 152.735 42.2572 152.656 42.3286 152.607L186.755 54.498C186.826 54.4498 186.929 54.4428 187.009 54.481L350.569 132.122C350.649 132.16 350.689 132.234 350.668 132.306L307.327 278.4C307.305 278.472 307.227 278.525 307.134 278.531L116.788 291.182C116.741 291.185 116.696 291.176 116.658 291.158ZM42.7323 152.784L116.909 290.831L306.94 278.202L350.209 132.349L186.92 54.8372L42.7323 152.784ZM211.277 282.882L81.9632 221.498C81.8825 221.46 81.8427 221.385 81.864 221.313L116.13 105.809C116.151 105.737 116.23 105.684 116.323 105.678L266.814 95.676C266.908 95.6698 266.996 95.7117 267.033 95.7797L325.775 205.103C325.811 205.171 325.788 205.25 325.717 205.298L211.531 282.865C211.46 282.913 211.357 282.92 211.277 282.882ZM82.3228 221.27L211.366 282.526L325.313 205.121L266.694 96.0264L116.517 106.007L82.3228 221.27ZM147.132 251.524C147.094 251.506 147.063 251.478 147.044 251.444L99.8597 163.631C99.8232 163.563 99.8462 163.484 99.9175 163.436L191.637 101.13C191.708 101.082 191.811 101.075 191.891 101.113L295.762 150.42C295.842 150.458 295.882 150.533 295.861 150.604L268.337 243.383C268.315 243.455 268.237 243.508 268.144 243.514L147.263 251.548C147.216 251.551 147.171 251.542 147.132 251.524ZM100.321 163.612L147.383 251.197L267.95 243.184L295.402 150.648L191.802 101.469L100.321 163.612ZM207.239 246.971L124.298 207.6C124.217 207.562 124.178 207.487 124.199 207.415L146.177 133.331C146.198 133.259 146.277 133.206 146.37 133.2L242.894 126.785C242.988 126.779 243.076 126.821 243.113 126.889L280.79 197.008C280.826 197.076 280.803 197.155 280.732 197.203L207.494 246.955C207.422 247.003 207.32 247.01 207.239 246.971ZM124.658 207.372L207.329 246.615L280.328 197.026L242.774 127.135L146.564 133.529L124.658 207.372ZM166.097 226.858C166.059 226.84 166.028 226.813 166.009 226.779L135.745 170.456C135.709 170.388 135.732 170.309 135.803 170.26L194.632 130.298C194.703 130.25 194.806 130.243 194.886 130.281L261.508 161.906C261.589 161.944 261.629 162.019 261.607 162.091L243.953 221.599C243.932 221.671 243.854 221.724 243.761 221.73L166.228 226.882C166.181 226.885 166.136 226.877 166.097 226.858ZM136.207 170.437L166.348 226.532L243.566 221.4L261.148 162.134L194.797 130.637L136.207 170.437Z" fill="#ABABAB"/>
<path d="M227.574 428.698L-89.8952 277.997C-89.9758 277.959 -90.0156 277.884 -89.9943 277.812L-5.86919 -5.75565C-5.84785 -5.82774 -5.76962 -5.88048 -5.67606 -5.88691L363.785 -30.4409C363.879 -30.4467 363.967 -30.4052 364.004 -30.3372L508.219 238.056C508.255 238.124 508.232 238.202 508.161 238.251L227.829 428.681C227.758 428.729 227.655 428.736 227.574 428.698ZM-89.5356 277.769L227.664 428.342L507.757 238.074L363.665 -30.0905L-5.48198 -5.55727L-89.5356 277.769ZM70.0974 351.712C70.059 351.694 70.0281 351.666 70.0097 351.632L-45.8305 136.047C-45.867 135.979 -45.8436 135.9 -45.7726 135.852L179.402 -17.1103C179.474 -17.1585 179.576 -17.1655 179.657 -17.1273L434.663 103.922C434.743 103.96 434.783 104.035 434.762 104.107L367.189 331.882C367.167 331.954 367.09 332.007 366.996 332.013L70.2283 351.736C70.1813 351.739 70.1359 351.73 70.0974 351.712ZM-45.3689 136.029L70.3486 351.385L366.802 331.684L434.303 104.15L179.567 -16.771L-45.3689 136.029ZM217.663 340.536L14.0391 243.877C13.9585 243.839 13.9186 243.764 13.9399 243.692L67.8974 61.813C67.9185 61.7409 67.9969 61.6882 68.0903 61.682L305.062 45.933C305.155 45.9269 305.243 45.9686 305.28 46.0369L397.779 218.183C397.815 218.251 397.792 218.33 397.721 218.378L217.917 340.519C217.846 340.567 217.743 340.574 217.663 340.536ZM14.3986 243.649L217.752 340.18L397.317 218.201L304.941 46.2836L68.2845 62.0116L14.3986 243.649ZM116.658 291.158C116.619 291.139 116.588 291.112 116.57 291.078L42.2706 152.803C42.2342 152.735 42.2572 152.656 42.3286 152.607L186.755 54.498C186.826 54.4498 186.929 54.4428 187.009 54.481L350.569 132.122C350.649 132.16 350.689 132.234 350.668 132.306L307.327 278.4C307.305 278.472 307.227 278.525 307.134 278.531L116.788 291.182C116.741 291.185 116.696 291.176 116.658 291.158ZM42.7323 152.784L116.909 290.831L306.94 278.202L350.209 132.349L186.92 54.8372L42.7323 152.784ZM211.277 282.882L81.9632 221.498C81.8825 221.46 81.8427 221.385 81.864 221.313L116.13 105.809C116.151 105.737 116.23 105.684 116.323 105.678L266.814 95.676C266.908 95.6698 266.996 95.7117 267.033 95.7797L325.775 205.103C325.811 205.171 325.788 205.25 325.717 205.298L211.531 282.865C211.46 282.913 211.357 282.92 211.277 282.882ZM82.3228 221.27L211.366 282.526L325.313 205.121L266.694 96.0264L116.517 106.007L82.3228 221.27ZM147.132 251.524C147.094 251.506 147.063 251.478 147.044 251.444L99.8597 163.631C99.8232 163.563 99.8462 163.484 99.9175 163.436L191.637 101.13C191.708 101.082 191.811 101.075 191.891 101.113L295.762 150.42C295.842 150.458 295.882 150.533 295.861 150.604L268.337 243.383C268.315 243.455 268.237 243.508 268.144 243.514L147.263 251.548C147.216 251.551 147.171 251.542 147.132 251.524ZM100.321 163.612L147.383 251.197L267.95 243.184L295.402 150.648L191.802 101.469L100.321 163.612ZM207.239 246.971L124.298 207.6C124.217 207.562 124.178 207.487 124.199 207.415L146.177 133.331C146.198 133.259 146.277 133.206 146.37 133.2L242.894 126.785C242.988 126.779 243.076 126.821 243.113 126.889L280.79 197.008C280.826 197.076 280.803 197.155 280.732 197.203L207.494 246.955C207.422 247.003 207.32 247.01 207.239 246.971ZM124.658 207.372L207.329 246.615L280.328 197.026L242.774 127.135L146.564 133.529L124.658 207.372ZM166.097 226.858C166.059 226.84 166.028 226.813 166.009 226.779L135.745 170.456C135.709 170.388 135.732 170.309 135.803 170.26L194.632 130.298C194.703 130.25 194.806 130.243 194.886 130.281L261.508 161.906C261.589 161.944 261.629 162.019 261.607 162.091L243.953 221.599C243.932 221.671 243.854 221.724 243.761 221.73L166.228 226.882C166.181 226.885 166.136 226.877 166.097 226.858ZM136.207 170.437L166.348 226.532L243.566 221.4L261.148 162.134L194.797 130.637L136.207 170.437Z" fill="#ABABAB"/>
<path fill-rule="evenodd" clip-rule="evenodd" d="M227.574 428.698L-89.8952 277.997C-89.9758 277.959 -90.0156 277.884 -89.9943 277.812L-5.86919 -5.75565C-5.84785 -5.82774 -5.76962 -5.88048 -5.67606 -5.88691L363.785 -30.4409C363.879 -30.4467 363.967 -30.4052 364.004 -30.3372L508.219 238.056C508.255 238.124 508.232 238.202 508.161 238.251L227.829 428.681C227.758 428.729 227.655 428.736 227.574 428.698ZM-89.5356 277.769L227.664 428.342L507.757 238.074L363.665 -30.0905L-5.48198 -5.55727L-89.5356 277.769ZM70.0974 351.712C70.059 351.694 70.0281 351.666 70.0097 351.632L-45.8305 136.047C-45.867 135.979 -45.8436 135.9 -45.7726 135.852L179.402 -17.1103C179.474 -17.1585 179.576 -17.1655 179.657 -17.1273L434.663 103.922C434.743 103.96 434.783 104.035 434.762 104.107L367.189 331.882C367.167 331.954 367.09 332.007 366.996 332.013L70.2283 351.736C70.1813 351.739 70.1359 351.73 70.0974 351.712ZM-45.3689 136.029L70.3486 351.385L366.802 331.684L434.303 104.15L179.567 -16.771L-45.3689 136.029ZM217.663 340.536L14.0391 243.877C13.9585 243.839 13.9186 243.764 13.9399 243.692L67.8974 61.813C67.9185 61.7409 67.9969 61.6882 68.0903 61.682L305.062 45.933C305.155 45.9269 305.243 45.9686 305.28 46.0369L397.779 218.183C397.815 218.251 397.792 218.33 397.721 218.378L217.917 340.519C217.846 340.567 217.743 340.574 217.663 340.536ZM14.3986 243.649L217.752 340.18L397.317 218.201L304.941 46.2836L68.2845 62.0116L14.3986 243.649ZM116.658 291.158C116.619 291.139 116.588 291.112 116.57 291.078L42.2706 152.803C42.2342 152.735 42.2572 152.656 42.3286 152.607L186.755 54.498C186.826 54.4498 186.929 54.4428 187.009 54.481L350.569 132.122C350.649 132.16 350.689 132.234 350.668 132.306L307.327 278.4C307.305 278.472 307.227 278.525 307.134 278.531L116.788 291.182C116.741 291.185 116.696 291.176 116.658 291.158ZM42.7323 152.784L116.909 290.831L306.94 278.202L350.209 132.349L186.92 54.8372L42.7323 152.784ZM211.277 282.882L81.9632 221.498C81.8825 221.46 81.8427 221.385 81.864 221.313L116.13 105.809C116.151 105.737 116.23 105.684 116.323 105.678L266.814 95.676C266.908 95.6698 266.996 95.7117 267.033 95.7797L325.775 205.103C325.811 205.171 325.788 205.25 325.717 205.298L211.531 282.865C211.46 282.913 211.357 282.92 211.277 282.882ZM82.3228 221.27L211.366 282.526L325.313 205.121L266.694 96.0264L116.517 106.007L82.3228 221.27ZM147.132 251.524C147.094 251.506 147.063 251.478 147.044 251.444L99.8597 163.631C99.8232 163.563 99.8462 163.484 99.9175 163.436L191.637 101.13C191.708 101.082 191.811 101.075 191.891 101.113L295.762 150.42C295.842 150.458 295.882 150.533 295.861 150.604L268.337 243.383C268.315 243.455 268.237 243.508 268.144 243.514L147.263 251.548C147.216 251.551 147.171 251.542 147.132 251.524ZM100.321 163.612L147.383 251.197L267.95 243.184L295.402 150.648L191.802 101.469L100.321 163.612ZM207.239 246.971L124.298 207.6C124.217 207.562 124.178 207.487 124.199 207.415L146.177 133.331C146.198 133.259 146.277 133.206 146.37 133.2L242.894 126.785C242.988 126.779 243.076 126.821 243.113 126.889L280.79 197.008C280.826 197.076 280.803 197.155 280.732 197.203L207.494 246.955C207.422 247.003 207.32 247.01 207.239 246.971ZM124.658 207.372L207.329 246.615L280.328 197.026L242.774 127.135L146.564 133.529L124.658 207.372ZM166.097 226.858C166.059 226.84 166.028 226.813 166.009 226.779L135.745 170.456C135.709 170.388 135.732 170.309 135.803 170.26L194.632 130.298C194.703 130.25 194.806 130.243 194.886 130.281L261.508 161.906C261.589 161.944 261.629 162.019 261.607 162.091L243.953 221.599C243.932 221.671 243.854 221.724 243.761 221.73L166.228 226.882C166.181 226.885 166.136 226.877 166.097 226.858ZM136.207 170.437L166.348 226.532L243.566 221.4L261.148 162.134L194.797 130.637L136.207 170.437Z" fill="#ABABAB"/>
<path d="M227.574 428.698L-89.8952 277.997C-89.9758 277.959 -90.0156 277.884 -89.9943 277.812L-5.86919 -5.75565C-5.84785 -5.82774 -5.76962 -5.88048 -5.67606 -5.88691L363.785 -30.4409C363.879 -30.4467 363.967 -30.4052 364.004 -30.3372L508.219 238.056C508.255 238.124 508.232 238.202 508.161 238.251L227.829 428.681C227.758 428.729 227.655 428.736 227.574 428.698ZM-89.5356 277.769L227.664 428.342L507.757 238.074L363.665 -30.0905L-5.48198 -5.55727L-89.5356 277.769ZM70.0974 351.712C70.059 351.694 70.0281 351.666 70.0097 351.632L-45.8305 136.047C-45.867 135.979 -45.8436 135.9 -45.7726 135.852L179.402 -17.1103C179.474 -17.1585 179.576 -17.1655 179.657 -17.1273L434.663 103.922C434.743 103.96 434.783 104.035 434.762 104.107L367.189 331.882C367.167 331.954 367.09 332.007 366.996 332.013L70.2283 351.736C70.1813 351.739 70.1359 351.73 70.0974 351.712ZM-45.3689 136.029L70.3486 351.385L366.802 331.684L434.303 104.15L179.567 -16.771L-45.3689 136.029ZM217.663 340.536L14.0391 243.877C13.9585 243.839 13.9186 243.764 13.9399 243.692L67.8974 61.813C67.9185 61.7409 67.9969 61.6882 68.0903 61.682L305.062 45.933C305.155 45.9269 305.243 45.9686 305.28 46.0369L397.779 218.183C397.815 218.251 397.792 218.33 397.721 218.378L217.917 340.519C217.846 340.567 217.743 340.574 217.663 340.536ZM14.3986 243.649L217.752 340.18L397.317 218.201L304.941 46.2836L68.2845 62.0116L14.3986 243.649ZM116.658 291.158C116.619 291.139 116.588 291.112 116.57 291.078L42.2706 152.803C42.2342 152.735 42.2572 152.656 42.3286 152.607L186.755 54.498C186.826 54.4498 186.929 54.4428 187.009 54.481L350.569 132.122C350.649 132.16 350.689 132.234 350.668 132.306L307.327 278.4C307.305 278.472 307.227 278.525 307.134 278.531L116.788 291.182C116.741 291.185 116.696 291.176 116.658 291.158ZM42.7323 152.784L116.909 290.831L306.94 278.202L350.209 132.349L186.92 54.8372L42.7323 152.784ZM211.277 282.882L81.9632 221.498C81.8825 221.46 81.8427 221.385 81.864 221.313L116.13 105.809C116.151 105.737 116.23 105.684 116.323 105.678L266.814 95.676C266.908 95.6698 266.996 95.7117 267.033 95.7797L325.775 205.103C325.811 205.171 325.788 205.25 325.717 205.298L211.531 282.865C211.46 282.913 211.357 282.92 211.277 282.882ZM82.3228 221.27L211.366 282.526L325.313 205.121L266.694 96.0264L116.517 106.007L82.3228 221.27ZM147.132 251.524C147.094 251.506 147.063 251.478 147.044 251.444L99.8597 163.631C99.8232 163.563 99.8462 163.484 99.9175 163.436L191.637 101.13C191.708 101.082 191.811 101.075 191.891 101.113L295.762 150.42C295.842 150.458 295.882 150.533 295.861 150.604L268.337 243.383C268.315 243.455 268.237 243.508 268.144 243.514L147.263 251.548C147.216 251.551 147.171 251.542 147.132 251.524ZM100.321 163.612L147.383 251.197L267.95 243.184L295.402 150.648L191.802 101.469L100.321 163.612ZM207.239 246.971L124.298 207.6C124.217 207.562 124.178 207.487 124.199 207.415L146.177 133.331C146.198 133.259 146.277 133.206 146.37 133.2L242.894 126.785C242.988 126.779 243.076 126.821 243.113 126.889L280.79 197.008C280.826 197.076 280.803 197.155 280.732 197.203L207.494 246.955C207.422 247.003 207.32 247.01 207.239 246.971ZM124.658 207.372L207.329 246.615L280.328 197.026L242.774 127.135L146.564 133.529L124.658 207.372ZM166.097 226.858C166.059 226.84 166.028 226.813 166.009 226.779L135.745 170.456C135.709 170.388 135.732 170.309 135.803 170.26L194.632 130.298C194.703 130.25 194.806 130.243 194.886 130.281L261.508 161.906C261.589 161.944 261.629 162.019 261.607 162.091L243.953 221.599C243.932 221.671 243.854 221.724 243.761 221.73L166.228 226.882C166.181 226.885 166.136 226.877 166.097 226.858ZM136.207 170.437L166.348 226.532L243.566 221.4L261.148 162.134L194.797 130.637L136.207 170.437Z" fill="#ABABAB"/>
<path fill-rule="evenodd" clip-rule="evenodd" d="M227.574 428.698L-89.8952 277.997C-89.9758 277.959 -90.0156 277.884 -89.9943 277.812L-5.86919 -5.75565C-5.84785 -5.82774 -5.76962 -5.88048 -5.67606 -5.88691L363.785 -30.4409C363.879 -30.4467 363.967 -30.4052 364.004 -30.3372L508.219 238.056C508.255 238.124 508.232 238.202 508.161 238.251L227.829 428.681C227.758 428.729 227.655 428.736 227.574 428.698ZM-89.5356 277.769L227.664 428.342L507.757 238.074L363.665 -30.0905L-5.48198 -5.55727L-89.5356 277.769ZM70.0974 351.712C70.059 351.694 70.0281 351.666 70.0097 351.632L-45.8305 136.047C-45.867 135.979 -45.8436 135.9 -45.7726 135.852L179.402 -17.1103C179.474 -17.1585 179.576 -17.1655 179.657 -17.1273L434.663 103.922C434.743 103.96 434.783 104.035 434.762 104.107L367.189 331.882C367.167 331.954 367.09 332.007 366.996 332.013L70.2283 351.736C70.1813 351.739 70.1359 351.73 70.0974 351.712ZM-45.3689 136.029L70.3486 351.385L366.802 331.684L434.303 104.15L179.567 -16.771L-45.3689 136.029ZM217.663 340.536L14.0391 243.877C13.9585 243.839 13.9186 243.764 13.9399 243.692L67.8974 61.813C67.9185 61.7409 67.9969 61.6882 68.0903 61.682L305.062 45.933C305.155 45.9269 305.243 45.9686 305.28 46.0369L397.779 218.183C397.815 218.251 397.792 218.33 397.721 218.378L217.917 340.519C217.846 340.567 217.743 340.574 217.663 340.536ZM14.3986 243.649L217.752 340.18L397.317 218.201L304.941 46.2836L68.2845 62.0116L14.3986 243.649ZM116.658 291.158C116.619 291.139 116.588 291.112 116.57 291.078L42.2706 152.803C42.2342 152.735 42.2572 152.656 42.3286 152.607L186.755 54.498C186.826 54.4498 186.929 54.4428 187.009 54.481L350.569 132.122C350.649 132.16 350.689 132.234 350.668 132.306L307.327 278.4C307.305 278.472 307.227 278.525 307.134 278.531L116.788 291.182C116.741 291.185 116.696 291.176 116.658 291.158ZM42.7323 152.784L116.909 290.831L306.94 278.202L350.209 132.349L186.92 54.8372L42.7323 152.784ZM211.277 282.882L81.9632 221.498C81.8825 221.46 81.8427 221.385 81.864 221.313L116.13 105.809C116.151 105.737 116.23 105.684 116.323 105.678L266.814 95.676C266.908 95.6698 266.996 95.7117 267.033 95.7797L325.775 205.103C325.811 205.171 325.788 205.25 325.717 205.298L211.531 282.865C211.46 282.913 211.357 282.92 211.277 282.882ZM82.3228 221.27L211.366 282.526L325.313 205.121L266.694 96.0264L116.517 106.007L82.3228 221.27ZM147.132 251.524C147.094 251.506 147.063 251.478 147.044 251.444L99.8597 163.631C99.8232 163.563 99.8462 163.484 99.9175 163.436L191.637 101.13C191.708 101.082 191.811 101.075 191.891 101.113L295.762 150.42C295.842 150.458 295.882 150.533 295.861 150.604L268.337 243.383C268.315 243.455 268.237 243.508 268.144 243.514L147.263 251.548C147.216 251.551 147.171 251.542 147.132 251.524ZM100.321 163.612L147.383 251.197L267.95 243.184L295.402 150.648L191.802 101.469L100.321 163.612ZM207.239 246.971L124.298 207.6C124.217 207.562 124.178 207.487 124.199 207.415L146.177 133.331C146.198 133.259 146.277 133.206 146.37 133.2L242.894 126.785C242.988 126.779 243.076 126.821 243.113 126.889L280.79 197.008C280.826 197.076 280.803 197.155 280.732 197.203L207.494 246.955C207.422 247.003 207.32 247.01 207.239 246.971ZM124.658 207.372L207.329 246.615L280.328 197.026L242.774 127.135L146.564 133.529L124.658 207.372ZM166.097 226.858C166.059 226.84 166.028 226.813 166.009 226.779L135.745 170.456C135.709 170.388 135.732 170.309 135.803 170.26L194.632 130.298C194.703 130.25 194.806 130.243 194.886 130.281L261.508 161.906C261.589 161.944 261.629 162.019 261.607 162.091L243.953 221.599C243.932 221.671 243.854 221.724 243.761 221.73L166.228 226.882C166.181 226.885 166.136 226.877 166.097 226.858ZM136.207 170.437L166.348 226.532L243.566 221.4L261.148 162.134L194.797 130.637L136.207 170.437Z" fill="#ABABAB"/>
<path d="M227.574 428.698L-89.8952 277.997C-89.9758 277.959 -90.0156 277.884 -89.9943 277.812L-5.86919 -5.75565C-5.84785 -5.82774 -5.76962 -5.88048 -5.67606 -5.88691L363.785 -30.4409C363.879 -30.4467 363.967 -30.4052 364.004 -30.3372L508.219 238.056C508.255 238.124 508.232 238.202 508.161 238.251L227.829 428.681C227.758 428.729 227.655 428.736 227.574 428.698ZM-89.5356 277.769L227.664 428.342L507.757 238.074L363.665 -30.0905L-5.48198 -5.55727L-89.5356 277.769ZM70.0974 351.712C70.059 351.694 70.0281 351.666 70.0097 351.632L-45.8305 136.047C-45.867 135.979 -45.8436 135.9 -45.7726 135.852L179.402 -17.1103C179.474 -17.1585 179.576 -17.1655 179.657 -17.1273L434.663 103.922C434.743 103.96 434.783 104.035 434.762 104.107L367.189 331.882C367.167 331.954 367.09 332.007 366.996 332.013L70.2283 351.736C70.1813 351.739 70.1359 351.73 70.0974 351.712ZM-45.3689 136.029L70.3486 351.385L366.802 331.684L434.303 104.15L179.567 -16.771L-45.3689 136.029ZM217.663 340.536L14.0391 243.877C13.9585 243.839 13.9186 243.764 13.9399 243.692L67.8974 61.813C67.9185 61.7409 67.9969 61.6882 68.0903 61.682L305.062 45.933C305.155 45.9269 305.243 45.9686 305.28 46.0369L397.779 218.183C397.815 218.251 397.792 218.33 397.721 218.378L217.917 340.519C217.846 340.567 217.743 340.574 217.663 340.536ZM14.3986 243.649L217.752 340.18L397.317 218.201L304.941 46.2836L68.2845 62.0116L14.3986 243.649ZM116.658 291.158C116.619 291.139 116.588 291.112 116.57 291.078L42.2706 152.803C42.2342 152.735 42.2572 152.656 42.3286 152.607L186.755 54.498C186.826 54.4498 186.929 54.4428 187.009 54.481L350.569 132.122C350.649 132.16 350.689 132.234 350.668 132.306L307.327 278.4C307.305 278.472 307.227 278.525 307.134 278.531L116.788 291.182C116.741 291.185 116.696 291.176 116.658 291.158ZM42.7323 152.784L116.909 290.831L306.94 278.202L350.209 132.349L186.92 54.8372L42.7323 152.784ZM211.277 282.882L81.9632 221.498C81.8825 221.46 81.8427 221.385 81.864 221.313L116.13 105.809C116.151 105.737 116.23 105.684 116.323 105.678L266.814 95.676C266.908 95.6698 266.996 95.7117 267.033 95.7797L325.775 205.103C325.811 205.171 325.788 205.25 325.717 205.298L211.531 282.865C211.46 282.913 211.357 282.92 211.277 282.882ZM82.3228 221.27L211.366 282.526L325.313 205.121L266.694 96.0264L116.517 106.007L82.3228 221.27ZM147.132 251.524C147.094 251.506 147.063 251.478 147.044 251.444L99.8597 163.631C99.8232 163.563 99.8462 163.484 99.9175 163.436L191.637 101.13C191.708 101.082 191.811 101.075 191.891 101.113L295.762 150.42C295.842 150.458 295.882 150.533 295.861 150.604L268.337 243.383C268.315 243.455 268.237 243.508 268.144 243.514L147.263 251.548C147.216 251.551 147.171 251.542 147.132 251.524ZM100.321 163.612L147.383 251.197L267.95 243.184L295.402 150.648L191.802 101.469L100.321 163.612ZM207.239 246.971L124.298 207.6C124.217 207.562 124.178 207.487 124.199 207.415L146.177 133.331C146.198 133.259 146.277 133.206 146.37 133.2L242.894 126.785C242.988 126.779 243.076 126.821 243.113 126.889L280.79 197.008C280.826 197.076 280.803 197.155 280.732 197.203L207.494 246.955C207.422 247.003 207.32 247.01 207.239 246.971ZM124.658 207.372L207.329 246.615L280.328 197.026L242.774 127.135L146.564 133.529L124.658 207.372ZM166.097 226.858C166.059 226.84 166.028 226.813 166.009 226.779L135.745 170.456C135.709 170.388 135.732 170.309 135.803 170.26L194.632 130.298C194.703 130.25 194.806 130.243 194.886 130.281L261.508 161.906C261.589 161.944 261.629 162.019 261.607 162.091L243.953 221.599C243.932 221.671 243.854 221.724 243.761 221.73L166.228 226.882C166.181 226.885 166.136 226.877 166.097 226.858ZM136.207 170.437L166.348 226.532L243.566 221.4L261.148 162.134L194.797 130.637L136.207 170.437Z" fill="#ABABAB"/>
<path fill-rule="evenodd" clip-rule="evenodd" d="M227.574 428.698L-89.8952 277.997C-89.9758 277.959 -90.0156 277.884 -89.9943 277.812L-5.86919 -5.75565C-5.84785 -5.82774 -5.76962 -5.88048 -5.67606 -5.88691L363.785 -30.4409C363.879 -30.4467 363.967 -30.4052 364.004 -30.3372L508.219 238.056C508.255 238.124 508.232 238.202 508.161 238.251L227.829 428.681C227.758 428.729 227.655 428.736 227.574 428.698ZM-89.5356 277.769L227.664 428.342L507.757 238.074L363.665 -30.0905L-5.48198 -5.55727L-89.5356 277.769ZM70.0974 351.712C70.059 351.694 70.0281 351.666 70.0097 351.632L-45.8305 136.047C-45.867 135.979 -45.8436 135.9 -45.7726 135.852L179.402 -17.1103C179.474 -17.1585 179.576 -17.1655 179.657 -17.1273L434.663 103.922C434.743 103.96 434.783 104.035 434.762 104.107L367.189 331.882C367.167 331.954 367.09 332.007 366.996 332.013L70.2283 351.736C70.1813 351.739 70.1359 351.73 70.0974 351.712ZM-45.3689 136.029L70.3486 351.385L366.802 331.684L434.303 104.15L179.567 -16.771L-45.3689 136.029ZM217.663 340.536L14.0391 243.877C13.9585 243.839 13.9186 243.764 13.9399 243.692L67.8974 61.813C67.9185 61.7409 67.9969 61.6882 68.0903 61.682L305.062 45.933C305.155 45.9269 305.243 45.9686 305.28 46.0369L397.779 218.183C397.815 218.251 397.792 218.33 397.721 218.378L217.917 340.519C217.846 340.567 217.743 340.574 217.663 340.536ZM14.3986 243.649L217.752 340.18L397.317 218.201L304.941 46.2836L68.2845 62.0116L14.3986 243.649ZM116.658 291.158C116.619 291.139 116.588 291.112 116.57 291.078L42.2706 152.803C42.2342 152.735 42.2572 152.656 42.3286 152.607L186.755 54.498C186.826 54.4498 186.929 54.4428 187.009 54.481L350.569 132.122C350.649 132.16 350.689 132.234 350.668 132.306L307.327 278.4C307.305 278.472 307.227 278.525 307.134 278.531L116.788 291.182C116.741 291.185 116.696 291.176 116.658 291.158ZM42.7323 152.784L116.909 290.831L306.94 278.202L350.209 132.349L186.92 54.8372L42.7323 152.784ZM211.277 282.882L81.9632 221.498C81.8825 221.46 81.8427 221.385 81.864 221.313L116.13 105.809C116.151 105.737 116.23 105.684 116.323 105.678L266.814 95.676C266.908 95.6698 266.996 95.7117 267.033 95.7797L325.775 205.103C325.811 205.171 325.788 205.25 325.717 205.298L211.531 282.865C211.46 282.913 211.357 282.92 211.277 282.882ZM82.3228 221.27L211.366 282.526L325.313 205.121L266.694 96.0264L116.517 106.007L82.3228 221.27ZM147.132 251.524C147.094 251.506 147.063 251.478 147.044 251.444L99.8597 163.631C99.8232 163.563 99.8462 163.484 99.9175 163.436L191.637 101.13C191.708 101.082 191.811 101.075 191.891 101.113L295.762 150.42C295.842 150.458 295.882 150.533 295.861 150.604L268.337 243.383C268.315 243.455 268.237 243.508 268.144 243.514L147.263 251.548C147.216 251.551 147.171 251.542 147.132 251.524ZM100.321 163.612L147.383 251.197L267.95 243.184L295.402 150.648L191.802 101.469L100.321 163.612ZM207.239 246.971L124.298 207.6C124.217 207.562 124.178 207.487 124.199 207.415L146.177 133.331C146.198 133.259 146.277 133.206 146.37 133.2L242.894 126.785C242.988 126.779 243.076 126.821 243.113 126.889L280.79 197.008C280.826 197.076 280.803 197.155 280.732 197.203L207.494 246.955C207.422 247.003 207.32 247.01 207.239 246.971ZM124.658 207.372L207.329 246.615L280.328 197.026L242.774 127.135L146.564 133.529L124.658 207.372ZM166.097 226.858C166.059 226.84 166.028 226.813 166.009 226.779L135.745 170.456C135.709 170.388 135.732 170.309 135.803 170.26L194.632 130.298C194.703 130.25 194.806 130.243 194.886 130.281L261.508 161.906C261.589 161.944 261.629 162.019 261.607 162.091L243.953 221.599C243.932 221.671 243.854 221.724 243.761 221.73L166.228 226.882C166.181 226.885 166.136 226.877 166.097 226.858ZM136.207 170.437L166.348 226.532L243.566 221.4L261.148 162.134L194.797 130.637L136.207 170.437Z" fill="#ABABAB"/>
<path d="M227.574 428.698L-89.8952 277.997C-89.9758 277.959 -90.0156 277.884 -89.9943 277.812L-5.86919 -5.75565C-5.84785 -5.82774 -5.76962 -5.88048 -5.67606 -5.88691L363.785 -30.4409C363.879 -30.4467 363.967 -30.4052 364.004 -30.3372L508.219 238.056C508.255 238.124 508.232 238.202 508.161 238.251L227.829 428.681C227.758 428.729 227.655 428.736 227.574 428.698ZM-89.5356 277.769L227.664 428.342L507.757 238.074L363.665 -30.0905L-5.48198 -5.55727L-89.5356 277.769ZM70.0974 351.712C70.059 351.694 70.0281 351.666 70.0097 351.632L-45.8305 136.047C-45.867 135.979 -45.8436 135.9 -45.7726 135.852L179.402 -17.1103C179.474 -17.1585 179.576 -17.1655 179.657 -17.1273L434.663 103.922C434.743 103.96 434.783 104.035 434.762 104.107L367.189 331.882C367.167 331.954 367.09 332.007 366.996 332.013L70.2283 351.736C70.1813 351.739 70.1359 351.73 70.0974 351.712ZM-45.3689 136.029L70.3486 351.385L366.802 331.684L434.303 104.15L179.567 -16.771L-45.3689 136.029ZM217.663 340.536L14.0391 243.877C13.9585 243.839 13.9186 243.764 13.9399 243.692L67.8974 61.813C67.9185 61.7409 67.9969 61.6882 68.0903 61.682L305.062 45.933C305.155 45.9269 305.243 45.9686 305.28 46.0369L397.779 218.183C397.815 218.251 397.792 218.33 397.721 218.378L217.917 340.519C217.846 340.567 217.743 340.574 217.663 340.536ZM14.3986 243.649L217.752 340.18L397.317 218.201L304.941 46.2836L68.2845 62.0116L14.3986 243.649ZM116.658 291.158C116.619 291.139 116.588 291.112 116.57 291.078L42.2706 152.803C42.2342 152.735 42.2572 152.656 42.3286 152.607L186.755 54.498C186.826 54.4498 186.929 54.4428 187.009 54.481L350.569 132.122C350.649 132.16 350.689 132.234 350.668 132.306L307.327 278.4C307.305 278.472 307.227 278.525 307.134 278.531L116.788 291.182C116.741 291.185 116.696 291.176 116.658 291.158ZM42.7323 152.784L116.909 290.831L306.94 278.202L350.209 132.349L186.92 54.8372L42.7323 152.784ZM211.277 282.882L81.9632 221.498C81.8825 221.46 81.8427 221.385 81.864 221.313L116.13 105.809C116.151 105.737 116.23 105.684 116.323 105.678L266.814 95.676C266.908 95.6698 266.996 95.7117 267.033 95.7797L325.775 205.103C325.811 205.171 325.788 205.25 325.717 205.298L211.531 282.865C211.46 282.913 211.357 282.92 211.277 282.882ZM82.3228 221.27L211.366 282.526L325.313 205.121L266.694 96.0264L116.517 106.007L82.3228 221.27ZM147.132 251.524C147.094 251.506 147.063 251.478 147.044 251.444L99.8597 163.631C99.8232 163.563 99.8462 163.484 99.9175 163.436L191.637 101.13C191.708 101.082 191.811 101.075 191.891 101.113L295.762 150.42C295.842 150.458 295.882 150.533 295.861 150.604L268.337 243.383C268.315 243.455 268.237 243.508 268.144 243.514L147.263 251.548C147.216 251.551 147.171 251.542 147.132 251.524ZM100.321 163.612L147.383 251.197L267.95 243.184L295.402 150.648L191.802 101.469L100.321 163.612ZM207.239 246.971L124.298 207.6C124.217 207.562 124.178 207.487 124.199 207.415L146.177 133.331C146.198 133.259 146.277 133.206 146.37 133.2L242.894 126.785C242.988 126.779 243.076 126.821 243.113 126.889L280.79 197.008C280.826 197.076 280.803 197.155 280.732 197.203L207.494 246.955C207.422 247.003 207.32 247.01 207.239 246.971ZM124.658 207.372L207.329 246.615L280.328 197.026L242.774 127.135L146.564 133.529L124.658 207.372ZM166.097 226.858C166.059 226.84 166.028 226.813 166.009 226.779L135.745 170.456C135.709 170.388 135.732 170.309 135.803 170.26L194.632 130.298C194.703 130.25 194.806 130.243 194.886 130.281L261.508 161.906C261.589 161.944 261.629 162.019 261.607 162.091L243.953 221.599C243.932 221.671 243.854 221.724 243.761 221.73L166.228 226.882C166.181 226.885 166.136 226.877 166.097 226.858ZM136.207 170.437L166.348 226.532L243.566 221.4L261.148 162.134L194.797 130.637L136.207 170.437Z" fill="#ABABAB"/>
<path fill-rule="evenodd" clip-rule="evenodd" d="M227.574 428.698L-89.8952 277.997C-89.9758 277.959 -90.0156 277.884 -89.9943 277.812L-5.86919 -5.75565C-5.84785 -5.82774 -5.76962 -5.88048 -5.67606 -5.88691L363.785 -30.4409C363.879 -30.4467 363.967 -30.4052 364.004 -30.3372L508.219 238.056C508.255 238.124 508.232 238.202 508.161 238.251L227.829 428.681C227.758 428.729 227.655 428.736 227.574 428.698ZM-89.5356 277.769L227.664 428.342L507.757 238.074L363.665 -30.0905L-5.48198 -5.55727L-89.5356 277.769ZM70.0974 351.712C70.059 351.694 70.0281 351.666 70.0097 351.632L-45.8305 136.047C-45.867 135.979 -45.8436 135.9 -45.7726 135.852L179.402 -17.1103C179.474 -17.1585 179.576 -17.1655 179.657 -17.1273L434.663 103.922C434.743 103.96 434.783 104.035 434.762 104.107L367.189 331.882C367.167 331.954 367.09 332.007 366.996 332.013L70.2283 351.736C70.1813 351.739 70.1359 351.73 70.0974 351.712ZM-45.3689 136.029L70.3486 351.385L366.802 331.684L434.303 104.15L179.567 -16.771L-45.3689 136.029ZM217.663 340.536L14.0391 243.877C13.9585 243.839 13.9186 243.764 13.9399 243.692L67.8974 61.813C67.9185 61.7409 67.9969 61.6882 68.0903 61.682L305.062 45.933C305.155 45.9269 305.243 45.9686 305.28 46.0369L397.779 218.183C397.815 218.251 397.792 218.33 397.721 218.378L217.917 340.519C217.846 340.567 217.743 340.574 217.663 340.536ZM14.3986 243.649L217.752 340.18L397.317 218.201L304.941 46.2836L68.2845 62.0116L14.3986 243.649ZM116.658 291.158C116.619 291.139 116.588 291.112 116.57 291.078L42.2706 152.803C42.2342 152.735 42.2572 152.656 42.3286 152.607L186.755 54.498C186.826 54.4498 186.929 54.4428 187.009 54.481L350.569 132.122C350.649 132.16 350.689 132.234 350.668 132.306L307.327 278.4C307.305 278.472 307.227 278.525 307.134 278.531L116.788 291.182C116.741 291.185 116.696 291.176 116.658 291.158ZM42.7323 152.784L116.909 290.831L306.94 278.202L350.209 132.349L186.92 54.8372L42.7323 152.784ZM211.277 282.882L81.9632 221.498C81.8825 221.46 81.8427 221.385 81.864 221.313L116.13 105.809C116.151 105.737 116.23 105.684 116.323 105.678L266.814 95.676C266.908 95.6698 266.996 95.7117 267.033 95.7797L325.775 205.103C325.811 205.171 325.788 205.25 325.717 205.298L211.531 282.865C211.46 282.913 211.357 282.92 211.277 282.882ZM82.3228 221.27L211.366 282.526L325.313 205.121L266.694 96.0264L116.517 106.007L82.3228 221.27ZM147.132 251.524C147.094 251.506 147.063 251.478 147.044 251.444L99.8597 163.631C99.8232 163.563 99.8462 163.484 99.9175 163.436L191.637 101.13C191.708 101.082 191.811 101.075 191.891 101.113L295.762 150.42C295.842 150.458 295.882 150.533 295.861 150.604L268.337 243.383C268.315 243.455 268.237 243.508 268.144 243.514L147.263 251.548C147.216 251.551 147.171 251.542 147.132 251.524ZM100.321 163.612L147.383 251.197L267.95 243.184L295.402 150.648L191.802 101.469L100.321 163.612ZM207.239 246.971L124.298 207.6C124.217 207.562 124.178 207.487 124.199 207.415L146.177 133.331C146.198 133.259 146.277 133.206 146.37 133.2L242.894 126.785C242.988 126.779 243.076 126.821 243.113 126.889L280.79 197.008C280.826 197.076 280.803 197.155 280.732 197.203L207.494 246.955C207.422 247.003 207.32 247.01 207.239 246.971ZM124.658 207.372L207.329 246.615L280.328 197.026L242.774 127.135L146.564 133.529L124.658 207.372ZM166.097 226.858C166.059 226.84 166.028 226.813 166.009 226.779L135.745 170.456C135.709 170.388 135.732 170.309 135.803 170.26L194.632 130.298C194.703 130.25 194.806 130.243 194.886 130.281L261.508 161.906C261.589 161.944 261.629 162.019 261.607 162.091L243.953 221.599C243.932 221.671 243.854 221.724 243.761 221.73L166.228 226.882C166.181 226.885 166.136 226.877 166.097 226.858ZM136.207 170.437L166.348 226.532L243.566 221.4L261.148 162.134L194.797 130.637L136.207 170.437Z" fill="#ABABAB"/>
<path d="M227.574 428.698L-89.8952 277.997C-89.9758 277.959 -90.0156 277.884 -89.9943 277.812L-5.86919 -5.75565C-5.84785 -5.82774 -5.76962 -5.88048 -5.67606 -5.88691L363.785 -30.4409C363.879 -30.4467 363.967 -30.4052 364.004 -30.3372L508.219 238.056C508.255 238.124 508.232 238.202 508.161 238.251L227.829 428.681C227.758 428.729 227.655 428.736 227.574 428.698ZM-89.5356 277.769L227.664 428.342L507.757 238.074L363.665 -30.0905L-5.48198 -5.55727L-89.5356 277.769ZM70.0974 351.712C70.059 351.694 70.0281 351.666 70.0097 351.632L-45.8305 136.047C-45.867 135.979 -45.8436 135.9 -45.7726 135.852L179.402 -17.1103C179.474 -17.1585 179.576 -17.1655 179.657 -17.1273L434.663 103.922C434.743 103.96 434.783 104.035 434.762 104.107L367.189 331.882C367.167 331.954 367.09 332.007 366.996 332.013L70.2283 351.736C70.1813 351.739 70.1359 351.73 70.0974 351.712ZM-45.3689 136.029L70.3486 351.385L366.802 331.684L434.303 104.15L179.567 -16.771L-45.3689 136.029ZM217.663 340.536L14.0391 243.877C13.9585 243.839 13.9186 243.764 13.9399 243.692L67.8974 61.813C67.9185 61.7409 67.9969 61.6882 68.0903 61.682L305.062 45.933C305.155 45.9269 305.243 45.9686 305.28 46.0369L397.779 218.183C397.815 218.251 397.792 218.33 397.721 218.378L217.917 340.519C217.846 340.567 217.743 340.574 217.663 340.536ZM14.3986 243.649L217.752 340.18L397.317 218.201L304.941 46.2836L68.2845 62.0116L14.3986 243.649ZM116.658 291.158C116.619 291.139 116.588 291.112 116.57 291.078L42.2706 152.803C42.2342 152.735 42.2572 152.656 42.3286 152.607L186.755 54.498C186.826 54.4498 186.929 54.4428 187.009 54.481L350.569 132.122C350.649 132.16 350.689 132.234 350.668 132.306L307.327 278.4C307.305 278.472 307.227 278.525 307.134 278.531L116.788 291.182C116.741 291.185 116.696 291.176 116.658 291.158ZM42.7323 152.784L116.909 290.831L306.94 278.202L350.209 132.349L186.92 54.8372L42.7323 152.784ZM211.277 282.882L81.9632 221.498C81.8825 221.46 81.8427 221.385 81.864 221.313L116.13 105.809C116.151 105.737 116.23 105.684 116.323 105.678L266.814 95.676C266.908 95.6698 266.996 95.7117 267.033 95.7797L325.775 205.103C325.811 205.171 325.788 205.25 325.717 205.298L211.531 282.865C211.46 282.913 211.357 282.92 211.277 282.882ZM82.3228 221.27L211.366 282.526L325.313 205.121L266.694 96.0264L116.517 106.007L82.3228 221.27ZM147.132 251.524C147.094 251.506 147.063 251.478 147.044 251.444L99.8597 163.631C99.8232 163.563 99.8462 163.484 99.9175 163.436L191.637 101.13C191.708 101.082 191.811 101.075 191.891 101.113L295.762 150.42C295.842 150.458 295.882 150.533 295.861 150.604L268.337 243.383C268.315 243.455 268.237 243.508 268.144 243.514L147.263 251.548C147.216 251.551 147.171 251.542 147.132 251.524ZM100.321 163.612L147.383 251.197L267.95 243.184L295.402 150.648L191.802 101.469L100.321 163.612ZM207.239 246.971L124.298 207.6C124.217 207.562 124.178 207.487 124.199 207.415L146.177 133.331C146.198 133.259 146.277 133.206 146.37 133.2L242.894 126.785C242.988 126.779 243.076 126.821 243.113 126.889L280.79 197.008C280.826 197.076 280.803 197.155 280.732 197.203L207.494 246.955C207.422 247.003 207.32 247.01 207.239 246.971ZM124.658 207.372L207.329 246.615L280.328 197.026L242.774 127.135L146.564 133.529L124.658 207.372ZM166.097 226.858C166.059 226.84 166.028 226.813 166.009 226.779L135.745 170.456C135.709 170.388 135.732 170.309 135.803 170.26L194.632 130.298C194.703 130.25 194.806 130.243 194.886 130.281L261.508 161.906C261.589 161.944 261.629 162.019 261.607 162.091L243.953 221.599C243.932 221.671 243.854 221.724 243.761 221.73L166.228 226.882C166.181 226.885 166.136 226.877 166.097 226.858ZM136.207 170.437L166.348 226.532L243.566 221.4L261.148 162.134L194.797 130.637L136.207 170.437Z" fill="#ABABAB"/>
<path fill-rule="evenodd" clip-rule="evenodd" d="M227.574 428.698L-89.8952 277.997C-89.9758 277.959 -90.0156 277.884 -89.9943 277.812L-5.86919 -5.75565C-5.84785 -5.82774 -5.76962 -5.88048 -5.67606 -5.88691L363.785 -30.4409C363.879 -30.4467 363.967 -30.4052 364.004 -30.3372L508.219 238.056C508.255 238.124 508.232 238.202 508.161 238.251L227.829 428.681C227.758 428.729 227.655 428.736 227.574 428.698ZM-89.5356 277.769L227.664 428.342L507.757 238.074L363.665 -30.0905L-5.48198 -5.55727L-89.5356 277.769ZM70.0974 351.712C70.059 351.694 70.0281 351.666 70.0097 351.632L-45.8305 136.047C-45.867 135.979 -45.8436 135.9 -45.7726 135.852L179.402 -17.1103C179.474 -17.1585 179.576 -17.1655 179.657 -17.1273L434.663 103.922C434.743 103.96 434.783 104.035 434.762 104.107L367.189 331.882C367.167 331.954 367.09 332.007 366.996 332.013L70.2283 351.736C70.1813 351.739 70.1359 351.73 70.0974 351.712ZM-45.3689 136.029L70.3486 351.385L366.802 331.684L434.303 104.15L179.567 -16.771L-45.3689 136.029ZM217.663 340.536L14.0391 243.877C13.9585 243.839 13.9186 243.764 13.9399 243.692L67.8974 61.813C67.9185 61.7409 67.9969 61.6882 68.0903 61.682L305.062 45.933C305.155 45.9269 305.243 45.9686 305.28 46.0369L397.779 218.183C397.815 218.251 397.792 218.33 397.721 218.378L217.917 340.519C217.846 340.567 217.743 340.574 217.663 340.536ZM14.3986 243.649L217.752 340.18L397.317 218.201L304.941 46.2836L68.2845 62.0116L14.3986 243.649ZM116.658 291.158C116.619 291.139 116.588 291.112 116.57 291.078L42.2706 152.803C42.2342 152.735 42.2572 152.656 42.3286 152.607L186.755 54.498C186.826 54.4498 186.929 54.4428 187.009 54.481L350.569 132.122C350.649 132.16 350.689 132.234 350.668 132.306L307.327 278.4C307.305 278.472 307.227 278.525 307.134 278.531L116.788 291.182C116.741 291.185 116.696 291.176 116.658 291.158ZM42.7323 152.784L116.909 290.831L306.94 278.202L350.209 132.349L186.92 54.8372L42.7323 152.784ZM211.277 282.882L81.9632 221.498C81.8825 221.46 81.8427 221.385 81.864 221.313L116.13 105.809C116.151 105.737 116.23 105.684 116.323 105.678L266.814 95.676C266.908 95.6698 266.996 95.7117 267.033 95.7797L325.775 205.103C325.811 205.171 325.788 205.25 325.717 205.298L211.531 282.865C211.46 282.913 211.357 282.92 211.277 282.882ZM82.3228 221.27L211.366 282.526L325.313 205.121L266.694 96.0264L116.517 106.007L82.3228 221.27ZM147.132 251.524C147.094 251.506 147.063 251.478 147.044 251.444L99.8597 163.631C99.8232 163.563 99.8462 163.484 99.9175 163.436L191.637 101.13C191.708 101.082 191.811 101.075 191.891 101.113L295.762 150.42C295.842 150.458 295.882 150.533 295.861 150.604L268.337 243.383C268.315 243.455 268.237 243.508 268.144 243.514L147.263 251.548C147.216 251.551 147.171 251.542 147.132 251.524ZM100.321 163.612L147.383 251.197L267.95 243.184L295.402 150.648L191.802 101.469L100.321 163.612ZM207.239 246.971L124.298 207.6C124.217 207.562 124.178 207.487 124.199 207.415L146.177 133.331C146.198 133.259 146.277 133.206 146.37 133.2L242.894 126.785C242.988 126.779 243.076 126.821 243.113 126.889L280.79 197.008C280.826 197.076 280.803 197.155 280.732 197.203L207.494 246.955C207.422 247.003 207.32 247.01 207.239 246.971ZM124.658 207.372L207.329 246.615L280.328 197.026L242.774 127.135L146.564 133.529L124.658 207.372ZM166.097 226.858C166.059 226.84 166.028 226.813 166.009 226.779L135.745 170.456C135.709 170.388 135.732 170.309 135.803 170.26L194.632 130.298C194.703 130.25 194.806 130.243 194.886 130.281L261.508 161.906C261.589 161.944 261.629 162.019 261.607 162.091L243.953 221.599C243.932 221.671 243.854 221.724 243.761 221.73L166.228 226.882C166.181 226.885 166.136 226.877 166.097 226.858ZM136.207 170.437L166.348 226.532L243.566 221.4L261.148 162.134L194.797 130.637L136.207 170.437Z" fill="#ABABAB"/>
<path fill-rule="evenodd" clip-rule="evenodd" d="M225.096 143.056H200.062V151.4L206.92 148.271H225.096V143.056Z" fill="#6AC5F9"/>
<path fill-rule="evenodd" clip-rule="evenodd" d="M173.992 156.615H199.025V148.271L192.167 151.4H173.992V156.615Z" fill="#6AC5F9"/>
<path fill-rule="evenodd" clip-rule="evenodd" d="M235.526 350.101H200.062V341.757L206.92 344.886H235.526V350.101Z" fill="#6AC5F9"/>
<path fill-rule="evenodd" clip-rule="evenodd" d="M186.5 184.255H199.017V187.906H186.5V184.255Z" fill="#6AC5F9"/>
<path fill-rule="evenodd" clip-rule="evenodd" d="M200.062 193.645H212.579V198.86H200.062V193.645Z" fill="#6AC5F9"/>
<path fill-rule="evenodd" clip-rule="evenodd" d="M187.531 283.868H200.048V287.519H187.531V283.868Z" fill="#6AC5F9"/>
<path fill-rule="evenodd" clip-rule="evenodd" d="M200.062 294.819H212.579V300.035H200.062V294.819Z" fill="#6AC5F9"/>
<path fill-rule="evenodd" clip-rule="evenodd" d="M200.051 135.754V213.983H199.008V135.754H200.051Z" fill="#6AC5F9"/>
<path fill-rule="evenodd" clip-rule="evenodd" d="M200.051 254.141V381.392H199.008V254.141H200.051Z" fill="#6AC5F9"/>
<path fill-rule="evenodd" clip-rule="evenodd" d="M200.051 -1.92871V106.548H199.008V-1.92871H200.051Z" fill="#6AC5F9"/>
<path fill-rule="evenodd" clip-rule="evenodd" d="M163.555 60.1338H199.018V68.4781L192.16 65.3488H163.555V60.1338Z" fill="#6AC5F9"/>
<path d="M188.981 239.284V226.957H191.832V227.901H190.06V238.341H191.832V239.284H188.981ZM201.387 232.524V233.583H197.072V232.524H201.387ZM209.473 226.957V239.284H206.622V238.341H208.394V227.901H206.622V226.957H209.473Z" fill="#6AC5F9"/>
<rect y="136.922" width="390" height="216.079" fill="url(#paint0_linear_8085_4147)"/>
</g>
<defs>
<linearGradient id="paint0_linear_8085_4147" x1="195" y1="136.922" x2="195" y2="188.957" gradientUnits="userSpaceOnUse">
<stop stop-color="white" stop-opacity="0"/>
<stop offset="1" stop-color="white"/>
</linearGradient>
</defs>
</svg>
