<svg width="1148" height="1155" viewBox="0 0 1148 1155" fill="none" xmlns="http://www.w3.org/2000/svg">
<path d="M608.936 1120.45L0.200889 752.689C0.0463795 752.596 -0.0299249 752.413 0.0108774 752.237L161.317 60.2411C161.358 60.0652 161.508 59.9365 161.688 59.9208L870.115 0.00134017C870.294 -0.0129604 870.463 0.0882438 870.534 0.254351L1147.06 655.218C1147.13 655.384 1147.08 655.576 1146.95 655.695L609.423 1120.41C609.287 1120.52 609.09 1120.54 608.936 1120.45ZM0.890529 752.133L609.107 1119.58L1146.17 655.263L869.884 0.856376L162.06 60.7253L0.890529 752.133ZM306.98 932.576C306.906 932.532 306.847 932.465 306.812 932.382L84.6932 406.285C84.6231 406.12 84.6681 405.927 84.8041 405.809L516.568 32.5321C516.704 32.4146 516.901 32.3974 517.055 32.4908L1006.02 327.89C1006.17 327.983 1006.25 328.166 1006.21 328.341L876.641 884.185C876.599 884.361 876.45 884.49 876.271 884.505L307.231 932.635C307.141 932.642 307.054 932.621 306.98 932.576ZM85.5783 406.241L307.462 931.78L875.899 883.701L1005.33 328.446L516.884 33.3601L85.5783 406.241ZM589.93 905.304L199.491 669.425C199.336 669.332 199.26 669.15 199.3 668.974L302.762 225.13C302.802 224.954 302.952 224.826 303.132 224.81L757.514 186.378C757.694 186.363 757.863 186.465 757.933 186.631L935.295 606.722C935.365 606.888 935.321 607.081 935.184 607.199L590.418 905.262C590.281 905.38 590.085 905.397 589.93 905.304ZM200.18 668.869L590.102 904.434L934.41 606.767L757.283 187.233L303.504 225.615L200.18 668.869ZM396.257 784.805C396.184 784.76 396.124 784.693 396.089 784.609L253.623 447.174C253.554 447.008 253.598 446.815 253.735 446.698L530.666 207.279C530.802 207.162 530.999 207.145 531.153 207.238L844.772 396.706C844.926 396.799 845.003 396.981 844.962 397.157L761.857 753.672C761.817 753.848 761.667 753.977 761.487 753.992L396.508 784.863C396.418 784.87 396.331 784.849 396.257 784.805ZM254.509 447.129L396.739 784.008L761.115 753.188L844.082 397.262L530.982 208.107L254.509 447.129ZM577.685 764.609L329.732 614.813C329.577 614.719 329.501 614.537 329.542 614.361L395.246 332.494C395.287 332.318 395.437 332.189 395.616 332.174L684.177 307.767C684.356 307.752 684.525 307.854 684.596 308.02L797.231 574.803C797.301 574.969 797.257 575.162 797.12 575.28L578.173 764.568C578.036 764.686 577.84 764.703 577.685 764.609ZM330.422 614.257L577.857 763.741L796.346 574.848L683.946 308.622L395.988 332.978L330.422 614.257ZM454.691 688.085C454.617 688.041 454.558 687.974 454.523 687.891L364.048 473.598C363.978 473.432 364.022 473.24 364.159 473.122L540.027 321.076C540.164 320.959 540.36 320.942 540.515 321.035L739.682 441.359C739.836 441.452 739.912 441.634 739.872 441.81L687.096 668.219C687.055 668.395 686.905 668.524 686.726 668.539L454.942 688.144C454.852 688.151 454.765 688.13 454.691 688.085ZM364.933 473.553L455.172 687.288L686.353 667.735L738.992 441.915L540.343 321.904L364.933 473.553ZM569.944 676.976L410.907 580.897C410.753 580.803 410.677 580.622 410.717 580.446L452.86 399.657C452.9 399.481 453.051 399.352 453.23 399.337L638.311 383.683C638.491 383.668 638.66 383.77 638.73 383.936L710.974 555.05C711.044 555.215 711 555.408 710.863 555.526L570.432 676.935C570.295 677.052 570.098 677.069 569.944 676.976ZM411.597 580.341L570.115 676.107L710.089 555.094L638.081 384.538L453.602 400.141L411.597 580.341ZM491.056 627.894C490.982 627.85 490.923 627.782 490.887 627.699L432.857 490.253C432.787 490.087 432.831 489.894 432.968 489.777L545.769 392.256C545.906 392.138 546.103 392.121 546.257 392.214L674.002 469.39C674.157 469.483 674.233 469.665 674.192 469.841L640.342 615.058C640.301 615.234 640.151 615.363 639.972 615.378L491.307 627.952C491.217 627.96 491.13 627.939 491.056 627.894ZM433.742 490.208L491.537 627.097L639.6 614.574L673.312 469.946L546.086 393.083L433.742 490.208Z" fill="#ABABAB"/>
<path fill-rule="evenodd" clip-rule="evenodd" d="M608.936 1120.45L0.200889 752.689C0.0463795 752.596 -0.0299249 752.413 0.0108774 752.237L161.317 60.2411C161.358 60.0652 161.508 59.9365 161.688 59.9208L870.115 0.00134017C870.294 -0.0129604 870.463 0.0882438 870.534 0.254351L1147.06 655.218C1147.13 655.384 1147.08 655.576 1146.95 655.695L609.423 1120.41C609.287 1120.52 609.09 1120.54 608.936 1120.45ZM0.890529 752.133L609.107 1119.58L1146.17 655.263L869.884 0.856376L162.06 60.7253L0.890529 752.133ZM306.98 932.576C306.906 932.532 306.847 932.465 306.812 932.382L84.6932 406.285C84.6231 406.12 84.6681 405.927 84.8041 405.809L516.568 32.5321C516.704 32.4146 516.901 32.3974 517.055 32.4908L1006.02 327.89C1006.17 327.983 1006.25 328.166 1006.21 328.341L876.641 884.185C876.599 884.361 876.45 884.49 876.271 884.505L307.231 932.635C307.141 932.642 307.054 932.621 306.98 932.576ZM85.5783 406.241L307.462 931.78L875.899 883.701L1005.33 328.446L516.884 33.3601L85.5783 406.241ZM589.93 905.304L199.491 669.425C199.336 669.332 199.26 669.15 199.3 668.974L302.762 225.13C302.802 224.954 302.952 224.826 303.132 224.81L757.514 186.378C757.694 186.363 757.863 186.465 757.933 186.631L935.295 606.722C935.365 606.888 935.321 607.081 935.184 607.199L590.418 905.262C590.281 905.38 590.085 905.397 589.93 905.304ZM200.18 668.869L590.102 904.434L934.41 606.767L757.283 187.233L303.504 225.615L200.18 668.869ZM396.257 784.805C396.184 784.76 396.124 784.693 396.089 784.609L253.623 447.174C253.554 447.008 253.598 446.815 253.735 446.698L530.666 207.279C530.802 207.162 530.999 207.145 531.153 207.238L844.772 396.706C844.926 396.799 845.003 396.981 844.962 397.157L761.857 753.672C761.817 753.848 761.667 753.977 761.487 753.992L396.508 784.863C396.418 784.87 396.331 784.849 396.257 784.805ZM254.509 447.129L396.739 784.008L761.115 753.188L844.082 397.262L530.982 208.107L254.509 447.129ZM577.685 764.609L329.732 614.813C329.577 614.719 329.501 614.537 329.542 614.361L395.246 332.494C395.287 332.318 395.437 332.189 395.616 332.174L684.177 307.767C684.356 307.752 684.525 307.854 684.596 308.02L797.231 574.803C797.301 574.969 797.257 575.162 797.12 575.28L578.173 764.568C578.036 764.686 577.84 764.703 577.685 764.609ZM330.422 614.257L577.857 763.741L796.346 574.848L683.946 308.622L395.988 332.978L330.422 614.257ZM454.691 688.085C454.617 688.041 454.558 687.974 454.523 687.891L364.048 473.598C363.978 473.432 364.022 473.24 364.159 473.122L540.027 321.076C540.164 320.959 540.36 320.942 540.515 321.035L739.682 441.359C739.836 441.452 739.912 441.634 739.872 441.81L687.096 668.219C687.055 668.395 686.905 668.524 686.726 668.539L454.942 688.144C454.852 688.151 454.765 688.13 454.691 688.085ZM364.933 473.553L455.172 687.288L686.353 667.735L738.992 441.915L540.343 321.904L364.933 473.553ZM569.944 676.976L410.907 580.897C410.753 580.803 410.677 580.622 410.717 580.446L452.86 399.657C452.9 399.481 453.051 399.352 453.23 399.337L638.311 383.683C638.491 383.668 638.66 383.77 638.73 383.936L710.974 555.05C711.044 555.215 711 555.408 710.863 555.526L570.432 676.935C570.295 677.052 570.098 677.069 569.944 676.976ZM411.597 580.341L570.115 676.107L710.089 555.094L638.081 384.538L453.602 400.141L411.597 580.341ZM491.056 627.894C490.982 627.85 490.923 627.782 490.887 627.699L432.857 490.253C432.787 490.087 432.831 489.894 432.968 489.777L545.769 392.256C545.906 392.138 546.103 392.121 546.257 392.214L674.002 469.39C674.157 469.483 674.233 469.665 674.192 469.841L640.342 615.058C640.301 615.234 640.151 615.363 639.972 615.378L491.307 627.952C491.217 627.96 491.13 627.939 491.056 627.894ZM433.742 490.208L491.537 627.097L639.6 614.574L673.312 469.946L546.086 393.083L433.742 490.208Z" fill="#ABABAB"/>
<path d="M608.936 1120.45L0.200889 752.689C0.0463795 752.596 -0.0299249 752.413 0.0108774 752.237L161.317 60.2411C161.358 60.0652 161.508 59.9365 161.688 59.9208L870.115 0.00134017C870.294 -0.0129604 870.463 0.0882438 870.534 0.254351L1147.06 655.218C1147.13 655.384 1147.08 655.576 1146.95 655.695L609.423 1120.41C609.287 1120.52 609.09 1120.54 608.936 1120.45ZM0.890529 752.133L609.107 1119.58L1146.17 655.263L869.884 0.856376L162.06 60.7253L0.890529 752.133ZM306.98 932.576C306.906 932.532 306.847 932.465 306.812 932.382L84.6932 406.285C84.6231 406.12 84.6681 405.927 84.8041 405.809L516.568 32.5321C516.704 32.4146 516.901 32.3974 517.055 32.4908L1006.02 327.89C1006.17 327.983 1006.25 328.166 1006.21 328.341L876.641 884.185C876.599 884.361 876.45 884.49 876.271 884.505L307.231 932.635C307.141 932.642 307.054 932.621 306.98 932.576ZM85.5783 406.241L307.462 931.78L875.899 883.701L1005.33 328.446L516.884 33.3601L85.5783 406.241ZM589.93 905.304L199.491 669.425C199.336 669.332 199.26 669.15 199.3 668.974L302.762 225.13C302.802 224.954 302.952 224.826 303.132 224.81L757.514 186.378C757.694 186.363 757.863 186.465 757.933 186.631L935.295 606.722C935.365 606.888 935.321 607.081 935.184 607.199L590.418 905.262C590.281 905.38 590.085 905.397 589.93 905.304ZM200.18 668.869L590.102 904.434L934.41 606.767L757.283 187.233L303.504 225.615L200.18 668.869ZM396.257 784.805C396.184 784.76 396.124 784.693 396.089 784.609L253.623 447.174C253.554 447.008 253.598 446.815 253.735 446.698L530.666 207.279C530.802 207.162 530.999 207.145 531.153 207.238L844.772 396.706C844.926 396.799 845.003 396.981 844.962 397.157L761.857 753.672C761.817 753.848 761.667 753.977 761.487 753.992L396.508 784.863C396.418 784.87 396.331 784.849 396.257 784.805ZM254.509 447.129L396.739 784.008L761.115 753.188L844.082 397.262L530.982 208.107L254.509 447.129ZM577.685 764.609L329.732 614.813C329.577 614.719 329.501 614.537 329.542 614.361L395.246 332.494C395.287 332.318 395.437 332.189 395.616 332.174L684.177 307.767C684.356 307.752 684.525 307.854 684.596 308.02L797.231 574.803C797.301 574.969 797.257 575.162 797.12 575.28L578.173 764.568C578.036 764.686 577.84 764.703 577.685 764.609ZM330.422 614.257L577.857 763.741L796.346 574.848L683.946 308.622L395.988 332.978L330.422 614.257ZM454.691 688.085C454.617 688.041 454.558 687.974 454.523 687.891L364.048 473.598C363.978 473.432 364.022 473.24 364.159 473.122L540.027 321.076C540.164 320.959 540.36 320.942 540.515 321.035L739.682 441.359C739.836 441.452 739.912 441.634 739.872 441.81L687.096 668.219C687.055 668.395 686.905 668.524 686.726 668.539L454.942 688.144C454.852 688.151 454.765 688.13 454.691 688.085ZM364.933 473.553L455.172 687.288L686.353 667.735L738.992 441.915L540.343 321.904L364.933 473.553ZM569.944 676.976L410.907 580.897C410.753 580.803 410.677 580.622 410.717 580.446L452.86 399.657C452.9 399.481 453.051 399.352 453.23 399.337L638.311 383.683C638.491 383.668 638.66 383.77 638.73 383.936L710.974 555.05C711.044 555.215 711 555.408 710.863 555.526L570.432 676.935C570.295 677.052 570.098 677.069 569.944 676.976ZM411.597 580.341L570.115 676.107L710.089 555.094L638.081 384.538L453.602 400.141L411.597 580.341ZM491.056 627.894C490.982 627.85 490.923 627.782 490.887 627.699L432.857 490.253C432.787 490.087 432.831 489.894 432.968 489.777L545.769 392.256C545.906 392.138 546.103 392.121 546.257 392.214L674.002 469.39C674.157 469.483 674.233 469.665 674.192 469.841L640.342 615.058C640.301 615.234 640.151 615.363 639.972 615.378L491.307 627.952C491.217 627.96 491.13 627.939 491.056 627.894ZM433.742 490.208L491.537 627.097L639.6 614.574L673.312 469.946L546.086 393.083L433.742 490.208Z" fill="#ABABAB"/>
<path fill-rule="evenodd" clip-rule="evenodd" d="M608.936 1120.45L0.200889 752.689C0.0463795 752.596 -0.0299249 752.413 0.0108774 752.237L161.317 60.2411C161.358 60.0652 161.508 59.9365 161.688 59.9208L870.115 0.00134017C870.294 -0.0129604 870.463 0.0882438 870.534 0.254351L1147.06 655.218C1147.13 655.384 1147.08 655.576 1146.95 655.695L609.423 1120.41C609.287 1120.52 609.09 1120.54 608.936 1120.45ZM0.890529 752.133L609.107 1119.58L1146.17 655.263L869.884 0.856376L162.06 60.7253L0.890529 752.133ZM306.98 932.576C306.906 932.532 306.847 932.465 306.812 932.382L84.6932 406.285C84.6231 406.12 84.6681 405.927 84.8041 405.809L516.568 32.5321C516.704 32.4146 516.901 32.3974 517.055 32.4908L1006.02 327.89C1006.17 327.983 1006.25 328.166 1006.21 328.341L876.641 884.185C876.599 884.361 876.45 884.49 876.271 884.505L307.231 932.635C307.141 932.642 307.054 932.621 306.98 932.576ZM85.5783 406.241L307.462 931.78L875.899 883.701L1005.33 328.446L516.884 33.3601L85.5783 406.241ZM589.93 905.304L199.491 669.425C199.336 669.332 199.26 669.15 199.3 668.974L302.762 225.13C302.802 224.954 302.952 224.826 303.132 224.81L757.514 186.378C757.694 186.363 757.863 186.465 757.933 186.631L935.295 606.722C935.365 606.888 935.321 607.081 935.184 607.199L590.418 905.262C590.281 905.38 590.085 905.397 589.93 905.304ZM200.18 668.869L590.102 904.434L934.41 606.767L757.283 187.233L303.504 225.615L200.18 668.869ZM396.257 784.805C396.184 784.76 396.124 784.693 396.089 784.609L253.623 447.174C253.554 447.008 253.598 446.815 253.735 446.698L530.666 207.279C530.802 207.162 530.999 207.145 531.153 207.238L844.772 396.706C844.926 396.799 845.003 396.981 844.962 397.157L761.857 753.672C761.817 753.848 761.667 753.977 761.487 753.992L396.508 784.863C396.418 784.87 396.331 784.849 396.257 784.805ZM254.509 447.129L396.739 784.008L761.115 753.188L844.082 397.262L530.982 208.107L254.509 447.129ZM577.685 764.609L329.732 614.813C329.577 614.719 329.501 614.537 329.542 614.361L395.246 332.494C395.287 332.318 395.437 332.189 395.616 332.174L684.177 307.767C684.356 307.752 684.525 307.854 684.596 308.02L797.231 574.803C797.301 574.969 797.257 575.162 797.12 575.28L578.173 764.568C578.036 764.686 577.84 764.703 577.685 764.609ZM330.422 614.257L577.857 763.741L796.346 574.848L683.946 308.622L395.988 332.978L330.422 614.257ZM454.691 688.085C454.617 688.041 454.558 687.974 454.523 687.891L364.048 473.598C363.978 473.432 364.022 473.24 364.159 473.122L540.027 321.076C540.164 320.959 540.36 320.942 540.515 321.035L739.682 441.359C739.836 441.452 739.912 441.634 739.872 441.81L687.096 668.219C687.055 668.395 686.905 668.524 686.726 668.539L454.942 688.144C454.852 688.151 454.765 688.13 454.691 688.085ZM364.933 473.553L455.172 687.288L686.353 667.735L738.992 441.915L540.343 321.904L364.933 473.553ZM569.944 676.976L410.907 580.897C410.753 580.803 410.677 580.622 410.717 580.446L452.86 399.657C452.9 399.481 453.051 399.352 453.23 399.337L638.311 383.683C638.491 383.668 638.66 383.77 638.73 383.936L710.974 555.05C711.044 555.215 711 555.408 710.863 555.526L570.432 676.935C570.295 677.052 570.098 677.069 569.944 676.976ZM411.597 580.341L570.115 676.107L710.089 555.094L638.081 384.538L453.602 400.141L411.597 580.341ZM491.056 627.894C490.982 627.85 490.923 627.782 490.887 627.699L432.857 490.253C432.787 490.087 432.831 489.894 432.968 489.777L545.769 392.256C545.906 392.138 546.103 392.121 546.257 392.214L674.002 469.39C674.157 469.483 674.233 469.665 674.192 469.841L640.342 615.058C640.301 615.234 640.151 615.363 639.972 615.378L491.307 627.952C491.217 627.96 491.13 627.939 491.056 627.894ZM433.742 490.208L491.537 627.097L639.6 614.574L673.312 469.946L546.086 393.083L433.742 490.208Z" fill="#ABABAB"/>
<path d="M608.936 1120.45L0.200889 752.689C0.0463795 752.596 -0.0299249 752.413 0.0108774 752.237L161.317 60.2411C161.358 60.0652 161.508 59.9365 161.688 59.9208L870.115 0.00134017C870.294 -0.0129604 870.463 0.0882438 870.534 0.254351L1147.06 655.218C1147.13 655.384 1147.08 655.576 1146.95 655.695L609.423 1120.41C609.287 1120.52 609.09 1120.54 608.936 1120.45ZM0.890529 752.133L609.107 1119.58L1146.17 655.263L869.884 0.856376L162.06 60.7253L0.890529 752.133ZM306.98 932.576C306.906 932.532 306.847 932.465 306.812 932.382L84.6932 406.285C84.6231 406.12 84.6681 405.927 84.8041 405.809L516.568 32.5321C516.704 32.4146 516.901 32.3974 517.055 32.4908L1006.02 327.89C1006.17 327.983 1006.25 328.166 1006.21 328.341L876.641 884.185C876.599 884.361 876.45 884.49 876.271 884.505L307.231 932.635C307.141 932.642 307.054 932.621 306.98 932.576ZM85.5783 406.241L307.462 931.78L875.899 883.701L1005.33 328.446L516.884 33.3601L85.5783 406.241ZM589.93 905.304L199.491 669.425C199.336 669.332 199.26 669.15 199.3 668.974L302.762 225.13C302.802 224.954 302.952 224.826 303.132 224.81L757.514 186.378C757.694 186.363 757.863 186.465 757.933 186.631L935.295 606.722C935.365 606.888 935.321 607.081 935.184 607.199L590.418 905.262C590.281 905.38 590.085 905.397 589.93 905.304ZM200.18 668.869L590.102 904.434L934.41 606.767L757.283 187.233L303.504 225.615L200.18 668.869ZM396.257 784.805C396.184 784.76 396.124 784.693 396.089 784.609L253.623 447.174C253.554 447.008 253.598 446.815 253.735 446.698L530.666 207.279C530.802 207.162 530.999 207.145 531.153 207.238L844.772 396.706C844.926 396.799 845.003 396.981 844.962 397.157L761.857 753.672C761.817 753.848 761.667 753.977 761.487 753.992L396.508 784.863C396.418 784.87 396.331 784.849 396.257 784.805ZM254.509 447.129L396.739 784.008L761.115 753.188L844.082 397.262L530.982 208.107L254.509 447.129ZM577.685 764.609L329.732 614.813C329.577 614.719 329.501 614.537 329.542 614.361L395.246 332.494C395.287 332.318 395.437 332.189 395.616 332.174L684.177 307.767C684.356 307.752 684.525 307.854 684.596 308.02L797.231 574.803C797.301 574.969 797.257 575.162 797.12 575.28L578.173 764.568C578.036 764.686 577.84 764.703 577.685 764.609ZM330.422 614.257L577.857 763.741L796.346 574.848L683.946 308.622L395.988 332.978L330.422 614.257ZM454.691 688.085C454.617 688.041 454.558 687.974 454.523 687.891L364.048 473.598C363.978 473.432 364.022 473.24 364.159 473.122L540.027 321.076C540.164 320.959 540.36 320.942 540.515 321.035L739.682 441.359C739.836 441.452 739.912 441.634 739.872 441.81L687.096 668.219C687.055 668.395 686.905 668.524 686.726 668.539L454.942 688.144C454.852 688.151 454.765 688.13 454.691 688.085ZM364.933 473.553L455.172 687.288L686.353 667.735L738.992 441.915L540.343 321.904L364.933 473.553ZM569.944 676.976L410.907 580.897C410.753 580.803 410.677 580.622 410.717 580.446L452.86 399.657C452.9 399.481 453.051 399.352 453.23 399.337L638.311 383.683C638.491 383.668 638.66 383.77 638.73 383.936L710.974 555.05C711.044 555.215 711 555.408 710.863 555.526L570.432 676.935C570.295 677.052 570.098 677.069 569.944 676.976ZM411.597 580.341L570.115 676.107L710.089 555.094L638.081 384.538L453.602 400.141L411.597 580.341ZM491.056 627.894C490.982 627.85 490.923 627.782 490.887 627.699L432.857 490.253C432.787 490.087 432.831 489.894 432.968 489.777L545.769 392.256C545.906 392.138 546.103 392.121 546.257 392.214L674.002 469.39C674.157 469.483 674.233 469.665 674.192 469.841L640.342 615.058C640.301 615.234 640.151 615.363 639.972 615.378L491.307 627.952C491.217 627.96 491.13 627.939 491.056 627.894ZM433.742 490.208L491.537 627.097L639.6 614.574L673.312 469.946L546.086 393.083L433.742 490.208Z" fill="#ABABAB"/>
<path fill-rule="evenodd" clip-rule="evenodd" d="M608.936 1120.45L0.200889 752.689C0.0463795 752.596 -0.0299249 752.413 0.0108774 752.237L161.317 60.2411C161.358 60.0652 161.508 59.9365 161.688 59.9208L870.115 0.00134017C870.294 -0.0129604 870.463 0.0882438 870.534 0.254351L1147.06 655.218C1147.13 655.384 1147.08 655.576 1146.95 655.695L609.423 1120.41C609.287 1120.52 609.09 1120.54 608.936 1120.45ZM0.890529 752.133L609.107 1119.58L1146.17 655.263L869.884 0.856376L162.06 60.7253L0.890529 752.133ZM306.98 932.576C306.906 932.532 306.847 932.465 306.812 932.382L84.6932 406.285C84.6231 406.12 84.6681 405.927 84.8041 405.809L516.568 32.5321C516.704 32.4146 516.901 32.3974 517.055 32.4908L1006.02 327.89C1006.17 327.983 1006.25 328.166 1006.21 328.341L876.641 884.185C876.599 884.361 876.45 884.49 876.271 884.505L307.231 932.635C307.141 932.642 307.054 932.621 306.98 932.576ZM85.5783 406.241L307.462 931.78L875.899 883.701L1005.33 328.446L516.884 33.3601L85.5783 406.241ZM589.93 905.304L199.491 669.425C199.336 669.332 199.26 669.15 199.3 668.974L302.762 225.13C302.802 224.954 302.952 224.826 303.132 224.81L757.514 186.378C757.694 186.363 757.863 186.465 757.933 186.631L935.295 606.722C935.365 606.888 935.321 607.081 935.184 607.199L590.418 905.262C590.281 905.38 590.085 905.397 589.93 905.304ZM200.18 668.869L590.102 904.434L934.41 606.767L757.283 187.233L303.504 225.615L200.18 668.869ZM396.257 784.805C396.184 784.76 396.124 784.693 396.089 784.609L253.623 447.174C253.554 447.008 253.598 446.815 253.735 446.698L530.666 207.279C530.802 207.162 530.999 207.145 531.153 207.238L844.772 396.706C844.926 396.799 845.003 396.981 844.962 397.157L761.857 753.672C761.817 753.848 761.667 753.977 761.487 753.992L396.508 784.863C396.418 784.87 396.331 784.849 396.257 784.805ZM254.509 447.129L396.739 784.008L761.115 753.188L844.082 397.262L530.982 208.107L254.509 447.129ZM577.685 764.609L329.732 614.813C329.577 614.719 329.501 614.537 329.542 614.361L395.246 332.494C395.287 332.318 395.437 332.189 395.616 332.174L684.177 307.767C684.356 307.752 684.525 307.854 684.596 308.02L797.231 574.803C797.301 574.969 797.257 575.162 797.12 575.28L578.173 764.568C578.036 764.686 577.84 764.703 577.685 764.609ZM330.422 614.257L577.857 763.741L796.346 574.848L683.946 308.622L395.988 332.978L330.422 614.257ZM454.691 688.085C454.617 688.041 454.558 687.974 454.523 687.891L364.048 473.598C363.978 473.432 364.022 473.24 364.159 473.122L540.027 321.076C540.164 320.959 540.36 320.942 540.515 321.035L739.682 441.359C739.836 441.452 739.912 441.634 739.872 441.81L687.096 668.219C687.055 668.395 686.905 668.524 686.726 668.539L454.942 688.144C454.852 688.151 454.765 688.13 454.691 688.085ZM364.933 473.553L455.172 687.288L686.353 667.735L738.992 441.915L540.343 321.904L364.933 473.553ZM569.944 676.976L410.907 580.897C410.753 580.803 410.677 580.622 410.717 580.446L452.86 399.657C452.9 399.481 453.051 399.352 453.23 399.337L638.311 383.683C638.491 383.668 638.66 383.77 638.73 383.936L710.974 555.05C711.044 555.215 711 555.408 710.863 555.526L570.432 676.935C570.295 677.052 570.098 677.069 569.944 676.976ZM411.597 580.341L570.115 676.107L710.089 555.094L638.081 384.538L453.602 400.141L411.597 580.341ZM491.056 627.894C490.982 627.85 490.923 627.782 490.887 627.699L432.857 490.253C432.787 490.087 432.831 489.894 432.968 489.777L545.769 392.256C545.906 392.138 546.103 392.121 546.257 392.214L674.002 469.39C674.157 469.483 674.233 469.665 674.192 469.841L640.342 615.058C640.301 615.234 640.151 615.363 639.972 615.378L491.307 627.952C491.217 627.96 491.13 627.939 491.056 627.894ZM433.742 490.208L491.537 627.097L639.6 614.574L673.312 469.946L546.086 393.083L433.742 490.208Z" fill="#ABABAB"/>
<path d="M608.936 1120.45L0.200889 752.689C0.0463795 752.596 -0.0299249 752.413 0.0108774 752.237L161.317 60.2411C161.358 60.0652 161.508 59.9365 161.688 59.9208L870.115 0.00134017C870.294 -0.0129604 870.463 0.0882438 870.534 0.254351L1147.06 655.218C1147.13 655.384 1147.08 655.576 1146.95 655.695L609.423 1120.41C609.287 1120.52 609.09 1120.54 608.936 1120.45ZM0.890529 752.133L609.107 1119.58L1146.17 655.263L869.884 0.856376L162.06 60.7253L0.890529 752.133ZM306.98 932.576C306.906 932.532 306.847 932.465 306.812 932.382L84.6932 406.285C84.6231 406.12 84.6681 405.927 84.8041 405.809L516.568 32.5321C516.704 32.4146 516.901 32.3974 517.055 32.4908L1006.02 327.89C1006.17 327.983 1006.25 328.166 1006.21 328.341L876.641 884.185C876.599 884.361 876.45 884.49 876.271 884.505L307.231 932.635C307.141 932.642 307.054 932.621 306.98 932.576ZM85.5783 406.241L307.462 931.78L875.899 883.701L1005.33 328.446L516.884 33.3601L85.5783 406.241ZM589.93 905.304L199.491 669.425C199.336 669.332 199.26 669.15 199.3 668.974L302.762 225.13C302.802 224.954 302.952 224.826 303.132 224.81L757.514 186.378C757.694 186.363 757.863 186.465 757.933 186.631L935.295 606.722C935.365 606.888 935.321 607.081 935.184 607.199L590.418 905.262C590.281 905.38 590.085 905.397 589.93 905.304ZM200.18 668.869L590.102 904.434L934.41 606.767L757.283 187.233L303.504 225.615L200.18 668.869ZM396.257 784.805C396.184 784.76 396.124 784.693 396.089 784.609L253.623 447.174C253.554 447.008 253.598 446.815 253.735 446.698L530.666 207.279C530.802 207.162 530.999 207.145 531.153 207.238L844.772 396.706C844.926 396.799 845.003 396.981 844.962 397.157L761.857 753.672C761.817 753.848 761.667 753.977 761.487 753.992L396.508 784.863C396.418 784.87 396.331 784.849 396.257 784.805ZM254.509 447.129L396.739 784.008L761.115 753.188L844.082 397.262L530.982 208.107L254.509 447.129ZM577.685 764.609L329.732 614.813C329.577 614.719 329.501 614.537 329.542 614.361L395.246 332.494C395.287 332.318 395.437 332.189 395.616 332.174L684.177 307.767C684.356 307.752 684.525 307.854 684.596 308.02L797.231 574.803C797.301 574.969 797.257 575.162 797.12 575.28L578.173 764.568C578.036 764.686 577.84 764.703 577.685 764.609ZM330.422 614.257L577.857 763.741L796.346 574.848L683.946 308.622L395.988 332.978L330.422 614.257ZM454.691 688.085C454.617 688.041 454.558 687.974 454.523 687.891L364.048 473.598C363.978 473.432 364.022 473.24 364.159 473.122L540.027 321.076C540.164 320.959 540.36 320.942 540.515 321.035L739.682 441.359C739.836 441.452 739.912 441.634 739.872 441.81L687.096 668.219C687.055 668.395 686.905 668.524 686.726 668.539L454.942 688.144C454.852 688.151 454.765 688.13 454.691 688.085ZM364.933 473.553L455.172 687.288L686.353 667.735L738.992 441.915L540.343 321.904L364.933 473.553ZM569.944 676.976L410.907 580.897C410.753 580.803 410.677 580.622 410.717 580.446L452.86 399.657C452.9 399.481 453.051 399.352 453.23 399.337L638.311 383.683C638.491 383.668 638.66 383.77 638.73 383.936L710.974 555.05C711.044 555.215 711 555.408 710.863 555.526L570.432 676.935C570.295 677.052 570.098 677.069 569.944 676.976ZM411.597 580.341L570.115 676.107L710.089 555.094L638.081 384.538L453.602 400.141L411.597 580.341ZM491.056 627.894C490.982 627.85 490.923 627.782 490.887 627.699L432.857 490.253C432.787 490.087 432.831 489.894 432.968 489.777L545.769 392.256C545.906 392.138 546.103 392.121 546.257 392.214L674.002 469.39C674.157 469.483 674.233 469.665 674.192 469.841L640.342 615.058C640.301 615.234 640.151 615.363 639.972 615.378L491.307 627.952C491.217 627.96 491.13 627.939 491.056 627.894ZM433.742 490.208L491.537 627.097L639.6 614.574L673.312 469.946L546.086 393.083L433.742 490.208Z" fill="#ABABAB"/>
<path fill-rule="evenodd" clip-rule="evenodd" d="M608.936 1120.45L0.200889 752.689C0.0463795 752.596 -0.0299249 752.413 0.0108774 752.237L161.317 60.2411C161.358 60.0652 161.508 59.9365 161.688 59.9208L870.115 0.00134017C870.294 -0.0129604 870.463 0.0882438 870.534 0.254351L1147.06 655.218C1147.13 655.384 1147.08 655.576 1146.95 655.695L609.423 1120.41C609.287 1120.52 609.09 1120.54 608.936 1120.45ZM0.890529 752.133L609.107 1119.58L1146.17 655.263L869.884 0.856376L162.06 60.7253L0.890529 752.133ZM306.98 932.576C306.906 932.532 306.847 932.465 306.812 932.382L84.6932 406.285C84.6231 406.12 84.6681 405.927 84.8041 405.809L516.568 32.5321C516.704 32.4146 516.901 32.3974 517.055 32.4908L1006.02 327.89C1006.17 327.983 1006.25 328.166 1006.21 328.341L876.641 884.185C876.599 884.361 876.45 884.49 876.271 884.505L307.231 932.635C307.141 932.642 307.054 932.621 306.98 932.576ZM85.5783 406.241L307.462 931.78L875.899 883.701L1005.33 328.446L516.884 33.3601L85.5783 406.241ZM589.93 905.304L199.491 669.425C199.336 669.332 199.26 669.15 199.3 668.974L302.762 225.13C302.802 224.954 302.952 224.826 303.132 224.81L757.514 186.378C757.694 186.363 757.863 186.465 757.933 186.631L935.295 606.722C935.365 606.888 935.321 607.081 935.184 607.199L590.418 905.262C590.281 905.38 590.085 905.397 589.93 905.304ZM200.18 668.869L590.102 904.434L934.41 606.767L757.283 187.233L303.504 225.615L200.18 668.869ZM396.257 784.805C396.184 784.76 396.124 784.693 396.089 784.609L253.623 447.174C253.554 447.008 253.598 446.815 253.735 446.698L530.666 207.279C530.802 207.162 530.999 207.145 531.153 207.238L844.772 396.706C844.926 396.799 845.003 396.981 844.962 397.157L761.857 753.672C761.817 753.848 761.667 753.977 761.487 753.992L396.508 784.863C396.418 784.87 396.331 784.849 396.257 784.805ZM254.509 447.129L396.739 784.008L761.115 753.188L844.082 397.262L530.982 208.107L254.509 447.129ZM577.685 764.609L329.732 614.813C329.577 614.719 329.501 614.537 329.542 614.361L395.246 332.494C395.287 332.318 395.437 332.189 395.616 332.174L684.177 307.767C684.356 307.752 684.525 307.854 684.596 308.02L797.231 574.803C797.301 574.969 797.257 575.162 797.12 575.28L578.173 764.568C578.036 764.686 577.84 764.703 577.685 764.609ZM330.422 614.257L577.857 763.741L796.346 574.848L683.946 308.622L395.988 332.978L330.422 614.257ZM454.691 688.085C454.617 688.041 454.558 687.974 454.523 687.891L364.048 473.598C363.978 473.432 364.022 473.24 364.159 473.122L540.027 321.076C540.164 320.959 540.36 320.942 540.515 321.035L739.682 441.359C739.836 441.452 739.912 441.634 739.872 441.81L687.096 668.219C687.055 668.395 686.905 668.524 686.726 668.539L454.942 688.144C454.852 688.151 454.765 688.13 454.691 688.085ZM364.933 473.553L455.172 687.288L686.353 667.735L738.992 441.915L540.343 321.904L364.933 473.553ZM569.944 676.976L410.907 580.897C410.753 580.803 410.677 580.622 410.717 580.446L452.86 399.657C452.9 399.481 453.051 399.352 453.23 399.337L638.311 383.683C638.491 383.668 638.66 383.77 638.73 383.936L710.974 555.05C711.044 555.215 711 555.408 710.863 555.526L570.432 676.935C570.295 677.052 570.098 677.069 569.944 676.976ZM411.597 580.341L570.115 676.107L710.089 555.094L638.081 384.538L453.602 400.141L411.597 580.341ZM491.056 627.894C490.982 627.85 490.923 627.782 490.887 627.699L432.857 490.253C432.787 490.087 432.831 489.894 432.968 489.777L545.769 392.256C545.906 392.138 546.103 392.121 546.257 392.214L674.002 469.39C674.157 469.483 674.233 469.665 674.192 469.841L640.342 615.058C640.301 615.234 640.151 615.363 639.972 615.378L491.307 627.952C491.217 627.96 491.13 627.939 491.056 627.894ZM433.742 490.208L491.537 627.097L639.6 614.574L673.312 469.946L546.086 393.083L433.742 490.208Z" fill="#ABABAB"/>
<path d="M608.936 1120.45L0.200889 752.689C0.0463795 752.596 -0.0299249 752.413 0.0108774 752.237L161.317 60.2411C161.358 60.0652 161.508 59.9365 161.688 59.9208L870.115 0.00134017C870.294 -0.0129604 870.463 0.0882438 870.534 0.254351L1147.06 655.218C1147.13 655.384 1147.08 655.576 1146.95 655.695L609.423 1120.41C609.287 1120.52 609.09 1120.54 608.936 1120.45ZM0.890529 752.133L609.107 1119.58L1146.17 655.263L869.884 0.856376L162.06 60.7253L0.890529 752.133ZM306.98 932.576C306.906 932.532 306.847 932.465 306.812 932.382L84.6932 406.285C84.6231 406.12 84.6681 405.927 84.8041 405.809L516.568 32.5321C516.704 32.4146 516.901 32.3974 517.055 32.4908L1006.02 327.89C1006.17 327.983 1006.25 328.166 1006.21 328.341L876.641 884.185C876.599 884.361 876.45 884.49 876.271 884.505L307.231 932.635C307.141 932.642 307.054 932.621 306.98 932.576ZM85.5783 406.241L307.462 931.78L875.899 883.701L1005.33 328.446L516.884 33.3601L85.5783 406.241ZM589.93 905.304L199.491 669.425C199.336 669.332 199.26 669.15 199.3 668.974L302.762 225.13C302.802 224.954 302.952 224.826 303.132 224.81L757.514 186.378C757.694 186.363 757.863 186.465 757.933 186.631L935.295 606.722C935.365 606.888 935.321 607.081 935.184 607.199L590.418 905.262C590.281 905.38 590.085 905.397 589.93 905.304ZM200.18 668.869L590.102 904.434L934.41 606.767L757.283 187.233L303.504 225.615L200.18 668.869ZM396.257 784.805C396.184 784.76 396.124 784.693 396.089 784.609L253.623 447.174C253.554 447.008 253.598 446.815 253.735 446.698L530.666 207.279C530.802 207.162 530.999 207.145 531.153 207.238L844.772 396.706C844.926 396.799 845.003 396.981 844.962 397.157L761.857 753.672C761.817 753.848 761.667 753.977 761.487 753.992L396.508 784.863C396.418 784.87 396.331 784.849 396.257 784.805ZM254.509 447.129L396.739 784.008L761.115 753.188L844.082 397.262L530.982 208.107L254.509 447.129ZM577.685 764.609L329.732 614.813C329.577 614.719 329.501 614.537 329.542 614.361L395.246 332.494C395.287 332.318 395.437 332.189 395.616 332.174L684.177 307.767C684.356 307.752 684.525 307.854 684.596 308.02L797.231 574.803C797.301 574.969 797.257 575.162 797.12 575.28L578.173 764.568C578.036 764.686 577.84 764.703 577.685 764.609ZM330.422 614.257L577.857 763.741L796.346 574.848L683.946 308.622L395.988 332.978L330.422 614.257ZM454.691 688.085C454.617 688.041 454.558 687.974 454.523 687.891L364.048 473.598C363.978 473.432 364.022 473.24 364.159 473.122L540.027 321.076C540.164 320.959 540.36 320.942 540.515 321.035L739.682 441.359C739.836 441.452 739.912 441.634 739.872 441.81L687.096 668.219C687.055 668.395 686.905 668.524 686.726 668.539L454.942 688.144C454.852 688.151 454.765 688.13 454.691 688.085ZM364.933 473.553L455.172 687.288L686.353 667.735L738.992 441.915L540.343 321.904L364.933 473.553ZM569.944 676.976L410.907 580.897C410.753 580.803 410.677 580.622 410.717 580.446L452.86 399.657C452.9 399.481 453.051 399.352 453.23 399.337L638.311 383.683C638.491 383.668 638.66 383.77 638.73 383.936L710.974 555.05C711.044 555.215 711 555.408 710.863 555.526L570.432 676.935C570.295 677.052 570.098 677.069 569.944 676.976ZM411.597 580.341L570.115 676.107L710.089 555.094L638.081 384.538L453.602 400.141L411.597 580.341ZM491.056 627.894C490.982 627.85 490.923 627.782 490.887 627.699L432.857 490.253C432.787 490.087 432.831 489.894 432.968 489.777L545.769 392.256C545.906 392.138 546.103 392.121 546.257 392.214L674.002 469.39C674.157 469.483 674.233 469.665 674.192 469.841L640.342 615.058C640.301 615.234 640.151 615.363 639.972 615.378L491.307 627.952C491.217 627.96 491.13 627.939 491.056 627.894ZM433.742 490.208L491.537 627.097L639.6 614.574L673.312 469.946L546.086 393.083L433.742 490.208Z" fill="#ABABAB"/>
<path fill-rule="evenodd" clip-rule="evenodd" d="M608.936 1120.45L0.200889 752.689C0.0463795 752.596 -0.0299249 752.413 0.0108774 752.237L161.317 60.2411C161.358 60.0652 161.508 59.9365 161.688 59.9208L870.115 0.00134017C870.294 -0.0129604 870.463 0.0882438 870.534 0.254351L1147.06 655.218C1147.13 655.384 1147.08 655.576 1146.95 655.695L609.423 1120.41C609.287 1120.52 609.09 1120.54 608.936 1120.45ZM0.890529 752.133L609.107 1119.58L1146.17 655.263L869.884 0.856376L162.06 60.7253L0.890529 752.133ZM306.98 932.576C306.906 932.532 306.847 932.465 306.812 932.382L84.6932 406.285C84.6231 406.12 84.6681 405.927 84.8041 405.809L516.568 32.5321C516.704 32.4146 516.901 32.3974 517.055 32.4908L1006.02 327.89C1006.17 327.983 1006.25 328.166 1006.21 328.341L876.641 884.185C876.599 884.361 876.45 884.49 876.271 884.505L307.231 932.635C307.141 932.642 307.054 932.621 306.98 932.576ZM85.5783 406.241L307.462 931.78L875.899 883.701L1005.33 328.446L516.884 33.3601L85.5783 406.241ZM589.93 905.304L199.491 669.425C199.336 669.332 199.26 669.15 199.3 668.974L302.762 225.13C302.802 224.954 302.952 224.826 303.132 224.81L757.514 186.378C757.694 186.363 757.863 186.465 757.933 186.631L935.295 606.722C935.365 606.888 935.321 607.081 935.184 607.199L590.418 905.262C590.281 905.38 590.085 905.397 589.93 905.304ZM200.18 668.869L590.102 904.434L934.41 606.767L757.283 187.233L303.504 225.615L200.18 668.869ZM396.257 784.805C396.184 784.76 396.124 784.693 396.089 784.609L253.623 447.174C253.554 447.008 253.598 446.815 253.735 446.698L530.666 207.279C530.802 207.162 530.999 207.145 531.153 207.238L844.772 396.706C844.926 396.799 845.003 396.981 844.962 397.157L761.857 753.672C761.817 753.848 761.667 753.977 761.487 753.992L396.508 784.863C396.418 784.87 396.331 784.849 396.257 784.805ZM254.509 447.129L396.739 784.008L761.115 753.188L844.082 397.262L530.982 208.107L254.509 447.129ZM577.685 764.609L329.732 614.813C329.577 614.719 329.501 614.537 329.542 614.361L395.246 332.494C395.287 332.318 395.437 332.189 395.616 332.174L684.177 307.767C684.356 307.752 684.525 307.854 684.596 308.02L797.231 574.803C797.301 574.969 797.257 575.162 797.12 575.28L578.173 764.568C578.036 764.686 577.84 764.703 577.685 764.609ZM330.422 614.257L577.857 763.741L796.346 574.848L683.946 308.622L395.988 332.978L330.422 614.257ZM454.691 688.085C454.617 688.041 454.558 687.974 454.523 687.891L364.048 473.598C363.978 473.432 364.022 473.24 364.159 473.122L540.027 321.076C540.164 320.959 540.36 320.942 540.515 321.035L739.682 441.359C739.836 441.452 739.912 441.634 739.872 441.81L687.096 668.219C687.055 668.395 686.905 668.524 686.726 668.539L454.942 688.144C454.852 688.151 454.765 688.13 454.691 688.085ZM364.933 473.553L455.172 687.288L686.353 667.735L738.992 441.915L540.343 321.904L364.933 473.553ZM569.944 676.976L410.907 580.897C410.753 580.803 410.677 580.622 410.717 580.446L452.86 399.657C452.9 399.481 453.051 399.352 453.23 399.337L638.311 383.683C638.491 383.668 638.66 383.77 638.73 383.936L710.974 555.05C711.044 555.215 711 555.408 710.863 555.526L570.432 676.935C570.295 677.052 570.098 677.069 569.944 676.976ZM411.597 580.341L570.115 676.107L710.089 555.094L638.081 384.538L453.602 400.141L411.597 580.341ZM491.056 627.894C490.982 627.85 490.923 627.782 490.887 627.699L432.857 490.253C432.787 490.087 432.831 489.894 432.968 489.777L545.769 392.256C545.906 392.138 546.103 392.121 546.257 392.214L674.002 469.39C674.157 469.483 674.233 469.665 674.192 469.841L640.342 615.058C640.301 615.234 640.151 615.363 639.972 615.378L491.307 627.952C491.217 627.96 491.13 627.939 491.056 627.894ZM433.742 490.208L491.537 627.097L639.6 614.574L673.312 469.946L546.086 393.083L433.742 490.208Z" fill="#ABABAB"/>
<path d="M608.936 1120.45L0.200889 752.689C0.0463795 752.596 -0.0299249 752.413 0.0108774 752.237L161.317 60.2411C161.358 60.0652 161.508 59.9365 161.688 59.9208L870.115 0.00134017C870.294 -0.0129604 870.463 0.0882438 870.534 0.254351L1147.06 655.218C1147.13 655.384 1147.08 655.576 1146.95 655.695L609.423 1120.41C609.287 1120.52 609.09 1120.54 608.936 1120.45ZM0.890529 752.133L609.107 1119.58L1146.17 655.263L869.884 0.856376L162.06 60.7253L0.890529 752.133ZM306.98 932.576C306.906 932.532 306.847 932.465 306.812 932.382L84.6932 406.285C84.6231 406.12 84.6681 405.927 84.8041 405.809L516.568 32.5321C516.704 32.4146 516.901 32.3974 517.055 32.4908L1006.02 327.89C1006.17 327.983 1006.25 328.166 1006.21 328.341L876.641 884.185C876.599 884.361 876.45 884.49 876.271 884.505L307.231 932.635C307.141 932.642 307.054 932.621 306.98 932.576ZM85.5783 406.241L307.462 931.78L875.899 883.701L1005.33 328.446L516.884 33.3601L85.5783 406.241ZM589.93 905.304L199.491 669.425C199.336 669.332 199.26 669.15 199.3 668.974L302.762 225.13C302.802 224.954 302.952 224.826 303.132 224.81L757.514 186.378C757.694 186.363 757.863 186.465 757.933 186.631L935.295 606.722C935.365 606.888 935.321 607.081 935.184 607.199L590.418 905.262C590.281 905.38 590.085 905.397 589.93 905.304ZM200.18 668.869L590.102 904.434L934.41 606.767L757.283 187.233L303.504 225.615L200.18 668.869ZM396.257 784.805C396.184 784.76 396.124 784.693 396.089 784.609L253.623 447.174C253.554 447.008 253.598 446.815 253.735 446.698L530.666 207.279C530.802 207.162 530.999 207.145 531.153 207.238L844.772 396.706C844.926 396.799 845.003 396.981 844.962 397.157L761.857 753.672C761.817 753.848 761.667 753.977 761.487 753.992L396.508 784.863C396.418 784.87 396.331 784.849 396.257 784.805ZM254.509 447.129L396.739 784.008L761.115 753.188L844.082 397.262L530.982 208.107L254.509 447.129ZM577.685 764.609L329.732 614.813C329.577 614.719 329.501 614.537 329.542 614.361L395.246 332.494C395.287 332.318 395.437 332.189 395.616 332.174L684.177 307.767C684.356 307.752 684.525 307.854 684.596 308.02L797.231 574.803C797.301 574.969 797.257 575.162 797.12 575.28L578.173 764.568C578.036 764.686 577.84 764.703 577.685 764.609ZM330.422 614.257L577.857 763.741L796.346 574.848L683.946 308.622L395.988 332.978L330.422 614.257ZM454.691 688.085C454.617 688.041 454.558 687.974 454.523 687.891L364.048 473.598C363.978 473.432 364.022 473.24 364.159 473.122L540.027 321.076C540.164 320.959 540.36 320.942 540.515 321.035L739.682 441.359C739.836 441.452 739.912 441.634 739.872 441.81L687.096 668.219C687.055 668.395 686.905 668.524 686.726 668.539L454.942 688.144C454.852 688.151 454.765 688.13 454.691 688.085ZM364.933 473.553L455.172 687.288L686.353 667.735L738.992 441.915L540.343 321.904L364.933 473.553ZM569.944 676.976L410.907 580.897C410.753 580.803 410.677 580.622 410.717 580.446L452.86 399.657C452.9 399.481 453.051 399.352 453.23 399.337L638.311 383.683C638.491 383.668 638.66 383.77 638.73 383.936L710.974 555.05C711.044 555.215 711 555.408 710.863 555.526L570.432 676.935C570.295 677.052 570.098 677.069 569.944 676.976ZM411.597 580.341L570.115 676.107L710.089 555.094L638.081 384.538L453.602 400.141L411.597 580.341ZM491.056 627.894C490.982 627.85 490.923 627.782 490.887 627.699L432.857 490.253C432.787 490.087 432.831 489.894 432.968 489.777L545.769 392.256C545.906 392.138 546.103 392.121 546.257 392.214L674.002 469.39C674.157 469.483 674.233 469.665 674.192 469.841L640.342 615.058C640.301 615.234 640.151 615.363 639.972 615.378L491.307 627.952C491.217 627.96 491.13 627.939 491.056 627.894ZM433.742 490.208L491.537 627.097L639.6 614.574L673.312 469.946L546.086 393.083L433.742 490.208Z" fill="#ABABAB"/>
<path fill-rule="evenodd" clip-rule="evenodd" d="M608.936 1120.45L0.200889 752.689C0.0463795 752.596 -0.0299249 752.413 0.0108774 752.237L161.317 60.2411C161.358 60.0652 161.508 59.9365 161.688 59.9208L870.115 0.00134017C870.294 -0.0129604 870.463 0.0882438 870.534 0.254351L1147.06 655.218C1147.13 655.384 1147.08 655.576 1146.95 655.695L609.423 1120.41C609.287 1120.52 609.09 1120.54 608.936 1120.45ZM0.890529 752.133L609.107 1119.58L1146.17 655.263L869.884 0.856376L162.06 60.7253L0.890529 752.133ZM306.98 932.576C306.906 932.532 306.847 932.465 306.812 932.382L84.6932 406.285C84.6231 406.12 84.6681 405.927 84.8041 405.809L516.568 32.5321C516.704 32.4146 516.901 32.3974 517.055 32.4908L1006.02 327.89C1006.17 327.983 1006.25 328.166 1006.21 328.341L876.641 884.185C876.599 884.361 876.45 884.49 876.271 884.505L307.231 932.635C307.141 932.642 307.054 932.621 306.98 932.576ZM85.5783 406.241L307.462 931.78L875.899 883.701L1005.33 328.446L516.884 33.3601L85.5783 406.241ZM589.93 905.304L199.491 669.425C199.336 669.332 199.26 669.15 199.3 668.974L302.762 225.13C302.802 224.954 302.952 224.826 303.132 224.81L757.514 186.378C757.694 186.363 757.863 186.465 757.933 186.631L935.295 606.722C935.365 606.888 935.321 607.081 935.184 607.199L590.418 905.262C590.281 905.38 590.085 905.397 589.93 905.304ZM200.18 668.869L590.102 904.434L934.41 606.767L757.283 187.233L303.504 225.615L200.18 668.869ZM396.257 784.805C396.184 784.76 396.124 784.693 396.089 784.609L253.623 447.174C253.554 447.008 253.598 446.815 253.735 446.698L530.666 207.279C530.802 207.162 530.999 207.145 531.153 207.238L844.772 396.706C844.926 396.799 845.003 396.981 844.962 397.157L761.857 753.672C761.817 753.848 761.667 753.977 761.487 753.992L396.508 784.863C396.418 784.87 396.331 784.849 396.257 784.805ZM254.509 447.129L396.739 784.008L761.115 753.188L844.082 397.262L530.982 208.107L254.509 447.129ZM577.685 764.609L329.732 614.813C329.577 614.719 329.501 614.537 329.542 614.361L395.246 332.494C395.287 332.318 395.437 332.189 395.616 332.174L684.177 307.767C684.356 307.752 684.525 307.854 684.596 308.02L797.231 574.803C797.301 574.969 797.257 575.162 797.12 575.28L578.173 764.568C578.036 764.686 577.84 764.703 577.685 764.609ZM330.422 614.257L577.857 763.741L796.346 574.848L683.946 308.622L395.988 332.978L330.422 614.257ZM454.691 688.085C454.617 688.041 454.558 687.974 454.523 687.891L364.048 473.598C363.978 473.432 364.022 473.24 364.159 473.122L540.027 321.076C540.164 320.959 540.36 320.942 540.515 321.035L739.682 441.359C739.836 441.452 739.912 441.634 739.872 441.81L687.096 668.219C687.055 668.395 686.905 668.524 686.726 668.539L454.942 688.144C454.852 688.151 454.765 688.13 454.691 688.085ZM364.933 473.553L455.172 687.288L686.353 667.735L738.992 441.915L540.343 321.904L364.933 473.553ZM569.944 676.976L410.907 580.897C410.753 580.803 410.677 580.622 410.717 580.446L452.86 399.657C452.9 399.481 453.051 399.352 453.23 399.337L638.311 383.683C638.491 383.668 638.66 383.77 638.73 383.936L710.974 555.05C711.044 555.215 711 555.408 710.863 555.526L570.432 676.935C570.295 677.052 570.098 677.069 569.944 676.976ZM411.597 580.341L570.115 676.107L710.089 555.094L638.081 384.538L453.602 400.141L411.597 580.341ZM491.056 627.894C490.982 627.85 490.923 627.782 490.887 627.699L432.857 490.253C432.787 490.087 432.831 489.894 432.968 489.777L545.769 392.256C545.906 392.138 546.103 392.121 546.257 392.214L674.002 469.39C674.157 469.483 674.233 469.665 674.192 469.841L640.342 615.058C640.301 615.234 640.151 615.363 639.972 615.378L491.307 627.952C491.217 627.96 491.13 627.939 491.056 627.894ZM433.742 490.208L491.537 627.097L639.6 614.574L673.312 469.946L546.086 393.083L433.742 490.208Z" fill="#ABABAB"/>
<path d="M608.936 1120.45L0.200889 752.689C0.0463795 752.596 -0.0299249 752.413 0.0108774 752.237L161.317 60.2411C161.358 60.0652 161.508 59.9365 161.688 59.9208L870.115 0.00134017C870.294 -0.0129604 870.463 0.0882438 870.534 0.254351L1147.06 655.218C1147.13 655.384 1147.08 655.576 1146.95 655.695L609.423 1120.41C609.287 1120.52 609.09 1120.54 608.936 1120.45ZM0.890529 752.133L609.107 1119.58L1146.17 655.263L869.884 0.856376L162.06 60.7253L0.890529 752.133ZM306.98 932.576C306.906 932.532 306.847 932.465 306.812 932.382L84.6932 406.285C84.6231 406.12 84.6681 405.927 84.8041 405.809L516.568 32.5321C516.704 32.4146 516.901 32.3974 517.055 32.4908L1006.02 327.89C1006.17 327.983 1006.25 328.166 1006.21 328.341L876.641 884.185C876.599 884.361 876.45 884.49 876.271 884.505L307.231 932.635C307.141 932.642 307.054 932.621 306.98 932.576ZM85.5783 406.241L307.462 931.78L875.899 883.701L1005.33 328.446L516.884 33.3601L85.5783 406.241ZM589.93 905.304L199.491 669.425C199.336 669.332 199.26 669.15 199.3 668.974L302.762 225.13C302.802 224.954 302.952 224.826 303.132 224.81L757.514 186.378C757.694 186.363 757.863 186.465 757.933 186.631L935.295 606.722C935.365 606.888 935.321 607.081 935.184 607.199L590.418 905.262C590.281 905.38 590.085 905.397 589.93 905.304ZM200.18 668.869L590.102 904.434L934.41 606.767L757.283 187.233L303.504 225.615L200.18 668.869ZM396.257 784.805C396.184 784.76 396.124 784.693 396.089 784.609L253.623 447.174C253.554 447.008 253.598 446.815 253.735 446.698L530.666 207.279C530.802 207.162 530.999 207.145 531.153 207.238L844.772 396.706C844.926 396.799 845.003 396.981 844.962 397.157L761.857 753.672C761.817 753.848 761.667 753.977 761.487 753.992L396.508 784.863C396.418 784.87 396.331 784.849 396.257 784.805ZM254.509 447.129L396.739 784.008L761.115 753.188L844.082 397.262L530.982 208.107L254.509 447.129ZM577.685 764.609L329.732 614.813C329.577 614.719 329.501 614.537 329.542 614.361L395.246 332.494C395.287 332.318 395.437 332.189 395.616 332.174L684.177 307.767C684.356 307.752 684.525 307.854 684.596 308.02L797.231 574.803C797.301 574.969 797.257 575.162 797.12 575.28L578.173 764.568C578.036 764.686 577.84 764.703 577.685 764.609ZM330.422 614.257L577.857 763.741L796.346 574.848L683.946 308.622L395.988 332.978L330.422 614.257ZM454.691 688.085C454.617 688.041 454.558 687.974 454.523 687.891L364.048 473.598C363.978 473.432 364.022 473.24 364.159 473.122L540.027 321.076C540.164 320.959 540.36 320.942 540.515 321.035L739.682 441.359C739.836 441.452 739.912 441.634 739.872 441.81L687.096 668.219C687.055 668.395 686.905 668.524 686.726 668.539L454.942 688.144C454.852 688.151 454.765 688.13 454.691 688.085ZM364.933 473.553L455.172 687.288L686.353 667.735L738.992 441.915L540.343 321.904L364.933 473.553ZM569.944 676.976L410.907 580.897C410.753 580.803 410.677 580.622 410.717 580.446L452.86 399.657C452.9 399.481 453.051 399.352 453.23 399.337L638.311 383.683C638.491 383.668 638.66 383.77 638.73 383.936L710.974 555.05C711.044 555.215 711 555.408 710.863 555.526L570.432 676.935C570.295 677.052 570.098 677.069 569.944 676.976ZM411.597 580.341L570.115 676.107L710.089 555.094L638.081 384.538L453.602 400.141L411.597 580.341ZM491.056 627.894C490.982 627.85 490.923 627.782 490.887 627.699L432.857 490.253C432.787 490.087 432.831 489.894 432.968 489.777L545.769 392.256C545.906 392.138 546.103 392.121 546.257 392.214L674.002 469.39C674.157 469.483 674.233 469.665 674.192 469.841L640.342 615.058C640.301 615.234 640.151 615.363 639.972 615.378L491.307 627.952C491.217 627.96 491.13 627.939 491.056 627.894ZM433.742 490.208L491.537 627.097L639.6 614.574L673.312 469.946L546.086 393.083L433.742 490.208Z" fill="#ABABAB"/>
<path fill-rule="evenodd" clip-rule="evenodd" d="M608.936 1120.45L0.200889 752.689C0.0463795 752.596 -0.0299249 752.413 0.0108774 752.237L161.317 60.2411C161.358 60.0652 161.508 59.9365 161.688 59.9208L870.115 0.00134017C870.294 -0.0129604 870.463 0.0882438 870.534 0.254351L1147.06 655.218C1147.13 655.384 1147.08 655.576 1146.95 655.695L609.423 1120.41C609.287 1120.52 609.09 1120.54 608.936 1120.45ZM0.890529 752.133L609.107 1119.58L1146.17 655.263L869.884 0.856376L162.06 60.7253L0.890529 752.133ZM306.98 932.576C306.906 932.532 306.847 932.465 306.812 932.382L84.6932 406.285C84.6231 406.12 84.6681 405.927 84.8041 405.809L516.568 32.5321C516.704 32.4146 516.901 32.3974 517.055 32.4908L1006.02 327.89C1006.17 327.983 1006.25 328.166 1006.21 328.341L876.641 884.185C876.599 884.361 876.45 884.49 876.271 884.505L307.231 932.635C307.141 932.642 307.054 932.621 306.98 932.576ZM85.5783 406.241L307.462 931.78L875.899 883.701L1005.33 328.446L516.884 33.3601L85.5783 406.241ZM589.93 905.304L199.491 669.425C199.336 669.332 199.26 669.15 199.3 668.974L302.762 225.13C302.802 224.954 302.952 224.826 303.132 224.81L757.514 186.378C757.694 186.363 757.863 186.465 757.933 186.631L935.295 606.722C935.365 606.888 935.321 607.081 935.184 607.199L590.418 905.262C590.281 905.38 590.085 905.397 589.93 905.304ZM200.18 668.869L590.102 904.434L934.41 606.767L757.283 187.233L303.504 225.615L200.18 668.869ZM396.257 784.805C396.184 784.76 396.124 784.693 396.089 784.609L253.623 447.174C253.554 447.008 253.598 446.815 253.735 446.698L530.666 207.279C530.802 207.162 530.999 207.145 531.153 207.238L844.772 396.706C844.926 396.799 845.003 396.981 844.962 397.157L761.857 753.672C761.817 753.848 761.667 753.977 761.487 753.992L396.508 784.863C396.418 784.87 396.331 784.849 396.257 784.805ZM254.509 447.129L396.739 784.008L761.115 753.188L844.082 397.262L530.982 208.107L254.509 447.129ZM577.685 764.609L329.732 614.813C329.577 614.719 329.501 614.537 329.542 614.361L395.246 332.494C395.287 332.318 395.437 332.189 395.616 332.174L684.177 307.767C684.356 307.752 684.525 307.854 684.596 308.02L797.231 574.803C797.301 574.969 797.257 575.162 797.12 575.28L578.173 764.568C578.036 764.686 577.84 764.703 577.685 764.609ZM330.422 614.257L577.857 763.741L796.346 574.848L683.946 308.622L395.988 332.978L330.422 614.257ZM454.691 688.085C454.617 688.041 454.558 687.974 454.523 687.891L364.048 473.598C363.978 473.432 364.022 473.24 364.159 473.122L540.027 321.076C540.164 320.959 540.36 320.942 540.515 321.035L739.682 441.359C739.836 441.452 739.912 441.634 739.872 441.81L687.096 668.219C687.055 668.395 686.905 668.524 686.726 668.539L454.942 688.144C454.852 688.151 454.765 688.13 454.691 688.085ZM364.933 473.553L455.172 687.288L686.353 667.735L738.992 441.915L540.343 321.904L364.933 473.553ZM569.944 676.976L410.907 580.897C410.753 580.803 410.677 580.622 410.717 580.446L452.86 399.657C452.9 399.481 453.051 399.352 453.23 399.337L638.311 383.683C638.491 383.668 638.66 383.77 638.73 383.936L710.974 555.05C711.044 555.215 711 555.408 710.863 555.526L570.432 676.935C570.295 677.052 570.098 677.069 569.944 676.976ZM411.597 580.341L570.115 676.107L710.089 555.094L638.081 384.538L453.602 400.141L411.597 580.341ZM491.056 627.894C490.982 627.85 490.923 627.782 490.887 627.699L432.857 490.253C432.787 490.087 432.831 489.894 432.968 489.777L545.769 392.256C545.906 392.138 546.103 392.121 546.257 392.214L674.002 469.39C674.157 469.483 674.233 469.665 674.192 469.841L640.342 615.058C640.301 615.234 640.151 615.363 639.972 615.378L491.307 627.952C491.217 627.96 491.13 627.939 491.056 627.894ZM433.742 490.208L491.537 627.097L639.6 614.574L673.312 469.946L546.086 393.083L433.742 490.208Z" fill="#ABABAB"/>
<path d="M608.936 1120.45L0.200889 752.689C0.0463795 752.596 -0.0299249 752.413 0.0108774 752.237L161.317 60.2411C161.358 60.0652 161.508 59.9365 161.688 59.9208L870.115 0.00134017C870.294 -0.0129604 870.463 0.0882438 870.534 0.254351L1147.06 655.218C1147.13 655.384 1147.08 655.576 1146.95 655.695L609.423 1120.41C609.287 1120.52 609.09 1120.54 608.936 1120.45ZM0.890529 752.133L609.107 1119.58L1146.17 655.263L869.884 0.856376L162.06 60.7253L0.890529 752.133ZM306.98 932.576C306.906 932.532 306.847 932.465 306.812 932.382L84.6932 406.285C84.6231 406.12 84.6681 405.927 84.8041 405.809L516.568 32.5321C516.704 32.4146 516.901 32.3974 517.055 32.4908L1006.02 327.89C1006.17 327.983 1006.25 328.166 1006.21 328.341L876.641 884.185C876.599 884.361 876.45 884.49 876.271 884.505L307.231 932.635C307.141 932.642 307.054 932.621 306.98 932.576ZM85.5783 406.241L307.462 931.78L875.899 883.701L1005.33 328.446L516.884 33.3601L85.5783 406.241ZM589.93 905.304L199.491 669.425C199.336 669.332 199.26 669.15 199.3 668.974L302.762 225.13C302.802 224.954 302.952 224.826 303.132 224.81L757.514 186.378C757.694 186.363 757.863 186.465 757.933 186.631L935.295 606.722C935.365 606.888 935.321 607.081 935.184 607.199L590.418 905.262C590.281 905.38 590.085 905.397 589.93 905.304ZM200.18 668.869L590.102 904.434L934.41 606.767L757.283 187.233L303.504 225.615L200.18 668.869ZM396.257 784.805C396.184 784.76 396.124 784.693 396.089 784.609L253.623 447.174C253.554 447.008 253.598 446.815 253.735 446.698L530.666 207.279C530.802 207.162 530.999 207.145 531.153 207.238L844.772 396.706C844.926 396.799 845.003 396.981 844.962 397.157L761.857 753.672C761.817 753.848 761.667 753.977 761.487 753.992L396.508 784.863C396.418 784.87 396.331 784.849 396.257 784.805ZM254.509 447.129L396.739 784.008L761.115 753.188L844.082 397.262L530.982 208.107L254.509 447.129ZM577.685 764.609L329.732 614.813C329.577 614.719 329.501 614.537 329.542 614.361L395.246 332.494C395.287 332.318 395.437 332.189 395.616 332.174L684.177 307.767C684.356 307.752 684.525 307.854 684.596 308.02L797.231 574.803C797.301 574.969 797.257 575.162 797.12 575.28L578.173 764.568C578.036 764.686 577.84 764.703 577.685 764.609ZM330.422 614.257L577.857 763.741L796.346 574.848L683.946 308.622L395.988 332.978L330.422 614.257ZM454.691 688.085C454.617 688.041 454.558 687.974 454.523 687.891L364.048 473.598C363.978 473.432 364.022 473.24 364.159 473.122L540.027 321.076C540.164 320.959 540.36 320.942 540.515 321.035L739.682 441.359C739.836 441.452 739.912 441.634 739.872 441.81L687.096 668.219C687.055 668.395 686.905 668.524 686.726 668.539L454.942 688.144C454.852 688.151 454.765 688.13 454.691 688.085ZM364.933 473.553L455.172 687.288L686.353 667.735L738.992 441.915L540.343 321.904L364.933 473.553ZM569.944 676.976L410.907 580.897C410.753 580.803 410.677 580.622 410.717 580.446L452.86 399.657C452.9 399.481 453.051 399.352 453.23 399.337L638.311 383.683C638.491 383.668 638.66 383.77 638.73 383.936L710.974 555.05C711.044 555.215 711 555.408 710.863 555.526L570.432 676.935C570.295 677.052 570.098 677.069 569.944 676.976ZM411.597 580.341L570.115 676.107L710.089 555.094L638.081 384.538L453.602 400.141L411.597 580.341ZM491.056 627.894C490.982 627.85 490.923 627.782 490.887 627.699L432.857 490.253C432.787 490.087 432.831 489.894 432.968 489.777L545.769 392.256C545.906 392.138 546.103 392.121 546.257 392.214L674.002 469.39C674.157 469.483 674.233 469.665 674.192 469.841L640.342 615.058C640.301 615.234 640.151 615.363 639.972 615.378L491.307 627.952C491.217 627.96 491.13 627.939 491.056 627.894ZM433.742 490.208L491.537 627.097L639.6 614.574L673.312 469.946L546.086 393.083L433.742 490.208Z" fill="#ABABAB"/>
<path fill-rule="evenodd" clip-rule="evenodd" d="M608.936 1120.45L0.200889 752.689C0.0463795 752.596 -0.0299249 752.413 0.0108774 752.237L161.317 60.2411C161.358 60.0652 161.508 59.9365 161.688 59.9208L870.115 0.00134017C870.294 -0.0129604 870.463 0.0882438 870.534 0.254351L1147.06 655.218C1147.13 655.384 1147.08 655.576 1146.95 655.695L609.423 1120.41C609.287 1120.52 609.09 1120.54 608.936 1120.45ZM0.890529 752.133L609.107 1119.58L1146.17 655.263L869.884 0.856376L162.06 60.7253L0.890529 752.133ZM306.98 932.576C306.906 932.532 306.847 932.465 306.812 932.382L84.6932 406.285C84.6231 406.12 84.6681 405.927 84.8041 405.809L516.568 32.5321C516.704 32.4146 516.901 32.3974 517.055 32.4908L1006.02 327.89C1006.17 327.983 1006.25 328.166 1006.21 328.341L876.641 884.185C876.599 884.361 876.45 884.49 876.271 884.505L307.231 932.635C307.141 932.642 307.054 932.621 306.98 932.576ZM85.5783 406.241L307.462 931.78L875.899 883.701L1005.33 328.446L516.884 33.3601L85.5783 406.241ZM589.93 905.304L199.491 669.425C199.336 669.332 199.26 669.15 199.3 668.974L302.762 225.13C302.802 224.954 302.952 224.826 303.132 224.81L757.514 186.378C757.694 186.363 757.863 186.465 757.933 186.631L935.295 606.722C935.365 606.888 935.321 607.081 935.184 607.199L590.418 905.262C590.281 905.38 590.085 905.397 589.93 905.304ZM200.18 668.869L590.102 904.434L934.41 606.767L757.283 187.233L303.504 225.615L200.18 668.869ZM396.257 784.805C396.184 784.76 396.124 784.693 396.089 784.609L253.623 447.174C253.554 447.008 253.598 446.815 253.735 446.698L530.666 207.279C530.802 207.162 530.999 207.145 531.153 207.238L844.772 396.706C844.926 396.799 845.003 396.981 844.962 397.157L761.857 753.672C761.817 753.848 761.667 753.977 761.487 753.992L396.508 784.863C396.418 784.87 396.331 784.849 396.257 784.805ZM254.509 447.129L396.739 784.008L761.115 753.188L844.082 397.262L530.982 208.107L254.509 447.129ZM577.685 764.609L329.732 614.813C329.577 614.719 329.501 614.537 329.542 614.361L395.246 332.494C395.287 332.318 395.437 332.189 395.616 332.174L684.177 307.767C684.356 307.752 684.525 307.854 684.596 308.02L797.231 574.803C797.301 574.969 797.257 575.162 797.12 575.28L578.173 764.568C578.036 764.686 577.84 764.703 577.685 764.609ZM330.422 614.257L577.857 763.741L796.346 574.848L683.946 308.622L395.988 332.978L330.422 614.257ZM454.691 688.085C454.617 688.041 454.558 687.974 454.523 687.891L364.048 473.598C363.978 473.432 364.022 473.24 364.159 473.122L540.027 321.076C540.164 320.959 540.36 320.942 540.515 321.035L739.682 441.359C739.836 441.452 739.912 441.634 739.872 441.81L687.096 668.219C687.055 668.395 686.905 668.524 686.726 668.539L454.942 688.144C454.852 688.151 454.765 688.13 454.691 688.085ZM364.933 473.553L455.172 687.288L686.353 667.735L738.992 441.915L540.343 321.904L364.933 473.553ZM569.944 676.976L410.907 580.897C410.753 580.803 410.677 580.622 410.717 580.446L452.86 399.657C452.9 399.481 453.051 399.352 453.23 399.337L638.311 383.683C638.491 383.668 638.66 383.77 638.73 383.936L710.974 555.05C711.044 555.215 711 555.408 710.863 555.526L570.432 676.935C570.295 677.052 570.098 677.069 569.944 676.976ZM411.597 580.341L570.115 676.107L710.089 555.094L638.081 384.538L453.602 400.141L411.597 580.341ZM491.056 627.894C490.982 627.85 490.923 627.782 490.887 627.699L432.857 490.253C432.787 490.087 432.831 489.894 432.968 489.777L545.769 392.256C545.906 392.138 546.103 392.121 546.257 392.214L674.002 469.39C674.157 469.483 674.233 469.665 674.192 469.841L640.342 615.058C640.301 615.234 640.151 615.363 639.972 615.378L491.307 627.952C491.217 627.96 491.13 627.939 491.056 627.894ZM433.742 490.208L491.537 627.097L639.6 614.574L673.312 469.946L546.086 393.083L433.742 490.208Z" fill="#ABABAB"/>
<path fill-rule="evenodd" clip-rule="evenodd" d="M604.18 347.309H556.18V363.308L569.329 357.308H604.18V347.309Z" fill="#3242F5"/>
<path fill-rule="evenodd" clip-rule="evenodd" d="M506.18 373.309H554.18V357.309L541.03 363.309H506.18V373.309Z" fill="#3242F5"/>
<path fill-rule="evenodd" clip-rule="evenodd" d="M624.18 744.308H556.18V728.309L569.329 734.308H624.18V744.308Z" fill="#3242F5"/>
<path fill-rule="evenodd" clip-rule="evenodd" d="M530.18 426.309H554.18V433.309H530.18V426.309Z" fill="#3242F5"/>
<path fill-rule="evenodd" clip-rule="evenodd" d="M556.18 444.309H580.18V454.308H556.18V444.309Z" fill="#3242F5"/>
<path fill-rule="evenodd" clip-rule="evenodd" d="M532.18 617.309H556.18V624.308H532.18V617.309Z" fill="#3242F5"/>
<path fill-rule="evenodd" clip-rule="evenodd" d="M532.18 1113.31H556.18V1120.31H532.18V1113.31Z" fill="#3242F5"/>
<path fill-rule="evenodd" clip-rule="evenodd" d="M556.18 638.309H580.18V648.309H556.18V638.309Z" fill="#3242F5"/>
<path fill-rule="evenodd" clip-rule="evenodd" d="M556.18 333.309V483.309H554.18V333.309H556.18Z" fill="#3242F5"/>
<path fill-rule="evenodd" clip-rule="evenodd" d="M556.18 560.309V804.308H554.18V560.309H556.18Z" fill="#3242F5"/>
<path fill-rule="evenodd" clip-rule="evenodd" d="M556.18 909.309V1153.31H554.18V909.309H556.18Z" fill="#3242F5"/>
<path fill-rule="evenodd" clip-rule="evenodd" d="M556.18 69.3086V277.309H554.18V69.3086H556.18Z" fill="#3242F5"/>
<path fill-rule="evenodd" clip-rule="evenodd" d="M486.18 188.309H554.18V204.308L541.03 198.308H486.18V188.309Z" fill="#3242F5"/>
<path d="M534.948 531.65V508.013H540.414V509.823H537.016V529.84H540.414V531.65H534.948ZM558.735 518.686V520.718H550.462V518.686H558.735ZM574.239 508.013V531.65H568.773V529.84H572.171V509.823H568.773V508.013H574.239Z" fill="#3241F4"/>
</svg>
