<svg width="974" height="1155" viewBox="0 0 974 1155" fill="none" xmlns="http://www.w3.org/2000/svg">
<path d="M608.936 1121.14L0.200889 753.38C0.0463795 753.287 -0.0299249 753.105 0.0108774 752.929L161.317 60.9325C161.358 60.7566 161.508 60.6279 161.688 60.6122L870.115 0.692746C870.294 0.678446 870.463 0.77965 870.534 0.945757L1147.06 655.91C1147.13 656.076 1147.08 656.268 1146.95 656.387L609.423 1121.1C609.287 1121.21 609.09 1121.23 608.936 1121.14ZM0.890529 752.824L609.107 1120.27L1146.17 655.954L869.884 1.54778L162.06 61.4167L0.890529 752.824ZM306.98 933.268C306.906 933.223 306.847 933.156 306.812 933.073L84.6932 406.977C84.6231 406.811 84.6681 406.618 84.8041 406.5L516.568 33.2235C516.704 33.106 516.901 33.0888 517.055 33.1822L1006.02 328.581C1006.17 328.675 1006.25 328.857 1006.21 329.033L876.641 884.876C876.599 885.052 876.45 885.181 876.271 885.196L307.231 933.326C307.141 933.333 307.054 933.312 306.98 933.268ZM85.5783 406.932L307.462 932.471L875.899 884.392L1005.33 329.138L516.884 34.0515L85.5783 406.932ZM589.93 905.995L199.491 670.117C199.336 670.023 199.26 669.841 199.3 669.665L302.762 225.822C302.802 225.646 302.952 225.517 303.132 225.502L757.514 187.069C757.694 187.055 757.863 187.156 757.933 187.323L935.295 607.414C935.365 607.58 935.321 607.772 935.184 607.891L590.418 905.953C590.281 906.071 590.085 906.088 589.93 905.995ZM200.18 669.56L590.102 905.126L934.41 607.458L757.283 187.925L303.504 226.306L200.18 669.56ZM396.257 785.496C396.184 785.451 396.124 785.384 396.089 785.301L253.623 447.865C253.554 447.7 253.598 447.506 253.735 447.389L530.666 207.971C530.802 207.853 530.999 207.836 531.153 207.929L844.772 397.397C844.926 397.491 845.003 397.672 844.962 397.848L761.857 754.364C761.817 754.54 761.667 754.668 761.487 754.684L396.508 785.555C396.418 785.562 396.331 785.541 396.257 785.496ZM254.509 447.82L396.739 784.699L761.115 753.879L844.082 397.953L530.982 208.799L254.509 447.82ZM577.685 765.301L329.732 615.504C329.577 615.411 329.501 615.228 329.542 615.053L395.246 333.185C395.287 333.009 395.437 332.88 395.616 332.865L684.177 308.458C684.356 308.443 684.525 308.545 684.596 308.711L797.231 575.494C797.301 575.66 797.257 575.853 797.12 575.971L578.173 765.26C578.036 765.377 577.84 765.394 577.685 765.301ZM330.422 614.948L577.857 764.432L796.346 575.54L683.946 309.313L395.988 333.669L330.422 614.948ZM454.691 688.776C454.617 688.732 454.558 688.665 454.523 688.582L364.048 474.29C363.978 474.124 364.022 473.931 364.159 473.813L540.027 321.768C540.164 321.65 540.36 321.633 540.515 321.727L739.682 442.05C739.836 442.144 739.912 442.326 739.872 442.501L687.096 668.911C687.055 669.087 686.905 669.215 686.726 669.23L454.942 688.835C454.852 688.842 454.765 688.821 454.691 688.776ZM364.933 474.245L455.172 687.979L686.353 668.426L738.992 442.607L540.343 322.595L364.933 474.245ZM569.944 677.667L410.907 581.588C410.753 581.495 410.677 581.313 410.717 581.137L452.86 400.348C452.9 400.172 453.051 400.044 453.23 400.028L638.311 384.374C638.491 384.359 638.66 384.461 638.73 384.627L710.974 555.741C711.044 555.907 711 556.099 710.863 556.217L570.432 677.626C570.295 677.744 570.098 677.761 569.944 677.667ZM411.597 581.032L570.115 676.799L710.089 555.786L638.081 385.229L453.602 400.833L411.597 581.032ZM491.056 628.585C490.982 628.541 490.923 628.474 490.887 628.391L432.857 490.944C432.787 490.779 432.831 490.586 432.968 490.468L545.769 392.947C545.906 392.829 546.103 392.812 546.257 392.905L674.002 470.081C674.157 470.174 674.233 470.356 674.192 470.532L640.342 615.75C640.301 615.926 640.151 616.055 639.972 616.07L491.307 628.644C491.217 628.651 491.13 628.63 491.056 628.585ZM433.742 490.9L491.537 627.789L639.6 615.265L673.312 470.637L546.086 393.775L433.742 490.9Z" fill="#ABABAB"/>
<path fill-rule="evenodd" clip-rule="evenodd" d="M608.936 1121.14L0.200889 753.38C0.0463795 753.287 -0.0299249 753.105 0.0108774 752.929L161.317 60.9325C161.358 60.7566 161.508 60.6279 161.688 60.6122L870.115 0.692746C870.294 0.678446 870.463 0.77965 870.534 0.945757L1147.06 655.91C1147.13 656.076 1147.08 656.268 1146.95 656.387L609.423 1121.1C609.287 1121.21 609.09 1121.23 608.936 1121.14ZM0.890529 752.824L609.107 1120.27L1146.17 655.954L869.884 1.54778L162.06 61.4167L0.890529 752.824ZM306.98 933.268C306.906 933.223 306.847 933.156 306.812 933.073L84.6932 406.977C84.6231 406.811 84.6681 406.618 84.8041 406.5L516.568 33.2235C516.704 33.106 516.901 33.0888 517.055 33.1822L1006.02 328.581C1006.17 328.675 1006.25 328.857 1006.21 329.033L876.641 884.876C876.599 885.052 876.45 885.181 876.271 885.196L307.231 933.326C307.141 933.333 307.054 933.312 306.98 933.268ZM85.5783 406.932L307.462 932.471L875.899 884.392L1005.33 329.138L516.884 34.0515L85.5783 406.932ZM589.93 905.995L199.491 670.117C199.336 670.023 199.26 669.841 199.3 669.665L302.762 225.822C302.802 225.646 302.952 225.517 303.132 225.502L757.514 187.069C757.694 187.055 757.863 187.156 757.933 187.323L935.295 607.414C935.365 607.58 935.321 607.772 935.184 607.891L590.418 905.953C590.281 906.071 590.085 906.088 589.93 905.995ZM200.18 669.56L590.102 905.126L934.41 607.458L757.283 187.925L303.504 226.306L200.18 669.56ZM396.257 785.496C396.184 785.451 396.124 785.384 396.089 785.301L253.623 447.865C253.554 447.7 253.598 447.506 253.735 447.389L530.666 207.971C530.802 207.853 530.999 207.836 531.153 207.929L844.772 397.397C844.926 397.491 845.003 397.672 844.962 397.848L761.857 754.364C761.817 754.54 761.667 754.668 761.487 754.684L396.508 785.555C396.418 785.562 396.331 785.541 396.257 785.496ZM254.509 447.82L396.739 784.699L761.115 753.879L844.082 397.953L530.982 208.799L254.509 447.82ZM577.685 765.301L329.732 615.504C329.577 615.411 329.501 615.228 329.542 615.053L395.246 333.185C395.287 333.009 395.437 332.88 395.616 332.865L684.177 308.458C684.356 308.443 684.525 308.545 684.596 308.711L797.231 575.494C797.301 575.66 797.257 575.853 797.12 575.971L578.173 765.26C578.036 765.377 577.84 765.394 577.685 765.301ZM330.422 614.948L577.857 764.432L796.346 575.54L683.946 309.313L395.988 333.669L330.422 614.948ZM454.691 688.776C454.617 688.732 454.558 688.665 454.523 688.582L364.048 474.29C363.978 474.124 364.022 473.931 364.159 473.813L540.027 321.768C540.164 321.65 540.36 321.633 540.515 321.727L739.682 442.05C739.836 442.144 739.912 442.326 739.872 442.501L687.096 668.911C687.055 669.087 686.905 669.215 686.726 669.23L454.942 688.835C454.852 688.842 454.765 688.821 454.691 688.776ZM364.933 474.245L455.172 687.979L686.353 668.426L738.992 442.607L540.343 322.595L364.933 474.245ZM569.944 677.667L410.907 581.588C410.753 581.495 410.677 581.313 410.717 581.137L452.86 400.348C452.9 400.172 453.051 400.044 453.23 400.028L638.311 384.374C638.491 384.359 638.66 384.461 638.73 384.627L710.974 555.741C711.044 555.907 711 556.099 710.863 556.217L570.432 677.626C570.295 677.744 570.098 677.761 569.944 677.667ZM411.597 581.032L570.115 676.799L710.089 555.786L638.081 385.229L453.602 400.833L411.597 581.032ZM491.056 628.585C490.982 628.541 490.923 628.474 490.887 628.391L432.857 490.944C432.787 490.779 432.831 490.586 432.968 490.468L545.769 392.947C545.906 392.829 546.103 392.812 546.257 392.905L674.002 470.081C674.157 470.174 674.233 470.356 674.192 470.532L640.342 615.75C640.301 615.926 640.151 616.055 639.972 616.07L491.307 628.644C491.217 628.651 491.13 628.63 491.056 628.585ZM433.742 490.9L491.537 627.789L639.6 615.265L673.312 470.637L546.086 393.775L433.742 490.9Z" fill="#ABABAB"/>
<path d="M608.936 1121.14L0.200889 753.38C0.0463795 753.287 -0.0299249 753.105 0.0108774 752.929L161.317 60.9325C161.358 60.7566 161.508 60.6279 161.688 60.6122L870.115 0.692746C870.294 0.678446 870.463 0.77965 870.534 0.945757L1147.06 655.91C1147.13 656.076 1147.08 656.268 1146.95 656.387L609.423 1121.1C609.287 1121.21 609.09 1121.23 608.936 1121.14ZM0.890529 752.824L609.107 1120.27L1146.17 655.954L869.884 1.54778L162.06 61.4167L0.890529 752.824ZM306.98 933.268C306.906 933.223 306.847 933.156 306.812 933.073L84.6932 406.977C84.6231 406.811 84.6681 406.618 84.8041 406.5L516.568 33.2235C516.704 33.106 516.901 33.0888 517.055 33.1822L1006.02 328.581C1006.17 328.675 1006.25 328.857 1006.21 329.033L876.641 884.876C876.599 885.052 876.45 885.181 876.271 885.196L307.231 933.326C307.141 933.333 307.054 933.312 306.98 933.268ZM85.5783 406.932L307.462 932.471L875.899 884.392L1005.33 329.138L516.884 34.0515L85.5783 406.932ZM589.93 905.995L199.491 670.117C199.336 670.023 199.26 669.841 199.3 669.665L302.762 225.822C302.802 225.646 302.952 225.517 303.132 225.502L757.514 187.069C757.694 187.055 757.863 187.156 757.933 187.323L935.295 607.414C935.365 607.58 935.321 607.772 935.184 607.891L590.418 905.953C590.281 906.071 590.085 906.088 589.93 905.995ZM200.18 669.56L590.102 905.126L934.41 607.458L757.283 187.925L303.504 226.306L200.18 669.56ZM396.257 785.496C396.184 785.451 396.124 785.384 396.089 785.301L253.623 447.865C253.554 447.7 253.598 447.506 253.735 447.389L530.666 207.971C530.802 207.853 530.999 207.836 531.153 207.929L844.772 397.397C844.926 397.491 845.003 397.672 844.962 397.848L761.857 754.364C761.817 754.54 761.667 754.668 761.487 754.684L396.508 785.555C396.418 785.562 396.331 785.541 396.257 785.496ZM254.509 447.82L396.739 784.699L761.115 753.879L844.082 397.953L530.982 208.799L254.509 447.82ZM577.685 765.301L329.732 615.504C329.577 615.411 329.501 615.228 329.542 615.053L395.246 333.185C395.287 333.009 395.437 332.88 395.616 332.865L684.177 308.458C684.356 308.443 684.525 308.545 684.596 308.711L797.231 575.494C797.301 575.66 797.257 575.853 797.12 575.971L578.173 765.26C578.036 765.377 577.84 765.394 577.685 765.301ZM330.422 614.948L577.857 764.432L796.346 575.54L683.946 309.313L395.988 333.669L330.422 614.948ZM454.691 688.776C454.617 688.732 454.558 688.665 454.523 688.582L364.048 474.29C363.978 474.124 364.022 473.931 364.159 473.813L540.027 321.768C540.164 321.65 540.36 321.633 540.515 321.727L739.682 442.05C739.836 442.144 739.912 442.326 739.872 442.501L687.096 668.911C687.055 669.087 686.905 669.215 686.726 669.23L454.942 688.835C454.852 688.842 454.765 688.821 454.691 688.776ZM364.933 474.245L455.172 687.979L686.353 668.426L738.992 442.607L540.343 322.595L364.933 474.245ZM569.944 677.667L410.907 581.588C410.753 581.495 410.677 581.313 410.717 581.137L452.86 400.348C452.9 400.172 453.051 400.044 453.23 400.028L638.311 384.374C638.491 384.359 638.66 384.461 638.73 384.627L710.974 555.741C711.044 555.907 711 556.099 710.863 556.217L570.432 677.626C570.295 677.744 570.098 677.761 569.944 677.667ZM411.597 581.032L570.115 676.799L710.089 555.786L638.081 385.229L453.602 400.833L411.597 581.032ZM491.056 628.585C490.982 628.541 490.923 628.474 490.887 628.391L432.857 490.944C432.787 490.779 432.831 490.586 432.968 490.468L545.769 392.947C545.906 392.829 546.103 392.812 546.257 392.905L674.002 470.081C674.157 470.174 674.233 470.356 674.192 470.532L640.342 615.75C640.301 615.926 640.151 616.055 639.972 616.07L491.307 628.644C491.217 628.651 491.13 628.63 491.056 628.585ZM433.742 490.9L491.537 627.789L639.6 615.265L673.312 470.637L546.086 393.775L433.742 490.9Z" fill="#ABABAB"/>
<path fill-rule="evenodd" clip-rule="evenodd" d="M608.936 1121.14L0.200889 753.38C0.0463795 753.287 -0.0299249 753.105 0.0108774 752.929L161.317 60.9325C161.358 60.7566 161.508 60.6279 161.688 60.6122L870.115 0.692746C870.294 0.678446 870.463 0.77965 870.534 0.945757L1147.06 655.91C1147.13 656.076 1147.08 656.268 1146.95 656.387L609.423 1121.1C609.287 1121.21 609.09 1121.23 608.936 1121.14ZM0.890529 752.824L609.107 1120.27L1146.17 655.954L869.884 1.54778L162.06 61.4167L0.890529 752.824ZM306.98 933.268C306.906 933.223 306.847 933.156 306.812 933.073L84.6932 406.977C84.6231 406.811 84.6681 406.618 84.8041 406.5L516.568 33.2235C516.704 33.106 516.901 33.0888 517.055 33.1822L1006.02 328.581C1006.17 328.675 1006.25 328.857 1006.21 329.033L876.641 884.876C876.599 885.052 876.45 885.181 876.271 885.196L307.231 933.326C307.141 933.333 307.054 933.312 306.98 933.268ZM85.5783 406.932L307.462 932.471L875.899 884.392L1005.33 329.138L516.884 34.0515L85.5783 406.932ZM589.93 905.995L199.491 670.117C199.336 670.023 199.26 669.841 199.3 669.665L302.762 225.822C302.802 225.646 302.952 225.517 303.132 225.502L757.514 187.069C757.694 187.055 757.863 187.156 757.933 187.323L935.295 607.414C935.365 607.58 935.321 607.772 935.184 607.891L590.418 905.953C590.281 906.071 590.085 906.088 589.93 905.995ZM200.18 669.56L590.102 905.126L934.41 607.458L757.283 187.925L303.504 226.306L200.18 669.56ZM396.257 785.496C396.184 785.451 396.124 785.384 396.089 785.301L253.623 447.865C253.554 447.7 253.598 447.506 253.735 447.389L530.666 207.971C530.802 207.853 530.999 207.836 531.153 207.929L844.772 397.397C844.926 397.491 845.003 397.672 844.962 397.848L761.857 754.364C761.817 754.54 761.667 754.668 761.487 754.684L396.508 785.555C396.418 785.562 396.331 785.541 396.257 785.496ZM254.509 447.82L396.739 784.699L761.115 753.879L844.082 397.953L530.982 208.799L254.509 447.82ZM577.685 765.301L329.732 615.504C329.577 615.411 329.501 615.228 329.542 615.053L395.246 333.185C395.287 333.009 395.437 332.88 395.616 332.865L684.177 308.458C684.356 308.443 684.525 308.545 684.596 308.711L797.231 575.494C797.301 575.66 797.257 575.853 797.12 575.971L578.173 765.26C578.036 765.377 577.84 765.394 577.685 765.301ZM330.422 614.948L577.857 764.432L796.346 575.54L683.946 309.313L395.988 333.669L330.422 614.948ZM454.691 688.776C454.617 688.732 454.558 688.665 454.523 688.582L364.048 474.29C363.978 474.124 364.022 473.931 364.159 473.813L540.027 321.768C540.164 321.65 540.36 321.633 540.515 321.727L739.682 442.05C739.836 442.144 739.912 442.326 739.872 442.501L687.096 668.911C687.055 669.087 686.905 669.215 686.726 669.23L454.942 688.835C454.852 688.842 454.765 688.821 454.691 688.776ZM364.933 474.245L455.172 687.979L686.353 668.426L738.992 442.607L540.343 322.595L364.933 474.245ZM569.944 677.667L410.907 581.588C410.753 581.495 410.677 581.313 410.717 581.137L452.86 400.348C452.9 400.172 453.051 400.044 453.23 400.028L638.311 384.374C638.491 384.359 638.66 384.461 638.73 384.627L710.974 555.741C711.044 555.907 711 556.099 710.863 556.217L570.432 677.626C570.295 677.744 570.098 677.761 569.944 677.667ZM411.597 581.032L570.115 676.799L710.089 555.786L638.081 385.229L453.602 400.833L411.597 581.032ZM491.056 628.585C490.982 628.541 490.923 628.474 490.887 628.391L432.857 490.944C432.787 490.779 432.831 490.586 432.968 490.468L545.769 392.947C545.906 392.829 546.103 392.812 546.257 392.905L674.002 470.081C674.157 470.174 674.233 470.356 674.192 470.532L640.342 615.75C640.301 615.926 640.151 616.055 639.972 616.07L491.307 628.644C491.217 628.651 491.13 628.63 491.056 628.585ZM433.742 490.9L491.537 627.789L639.6 615.265L673.312 470.637L546.086 393.775L433.742 490.9Z" fill="#ABABAB"/>
<path d="M608.936 1121.14L0.200889 753.38C0.0463795 753.287 -0.0299249 753.105 0.0108774 752.929L161.317 60.9325C161.358 60.7566 161.508 60.6279 161.688 60.6122L870.115 0.692746C870.294 0.678446 870.463 0.77965 870.534 0.945757L1147.06 655.91C1147.13 656.076 1147.08 656.268 1146.95 656.387L609.423 1121.1C609.287 1121.21 609.09 1121.23 608.936 1121.14ZM0.890529 752.824L609.107 1120.27L1146.17 655.954L869.884 1.54778L162.06 61.4167L0.890529 752.824ZM306.98 933.268C306.906 933.223 306.847 933.156 306.812 933.073L84.6932 406.977C84.6231 406.811 84.6681 406.618 84.8041 406.5L516.568 33.2235C516.704 33.106 516.901 33.0888 517.055 33.1822L1006.02 328.581C1006.17 328.675 1006.25 328.857 1006.21 329.033L876.641 884.876C876.599 885.052 876.45 885.181 876.271 885.196L307.231 933.326C307.141 933.333 307.054 933.312 306.98 933.268ZM85.5783 406.932L307.462 932.471L875.899 884.392L1005.33 329.138L516.884 34.0515L85.5783 406.932ZM589.93 905.995L199.491 670.117C199.336 670.023 199.26 669.841 199.3 669.665L302.762 225.822C302.802 225.646 302.952 225.517 303.132 225.502L757.514 187.069C757.694 187.055 757.863 187.156 757.933 187.323L935.295 607.414C935.365 607.58 935.321 607.772 935.184 607.891L590.418 905.953C590.281 906.071 590.085 906.088 589.93 905.995ZM200.18 669.56L590.102 905.126L934.41 607.458L757.283 187.925L303.504 226.306L200.18 669.56ZM396.257 785.496C396.184 785.451 396.124 785.384 396.089 785.301L253.623 447.865C253.554 447.7 253.598 447.506 253.735 447.389L530.666 207.971C530.802 207.853 530.999 207.836 531.153 207.929L844.772 397.397C844.926 397.491 845.003 397.672 844.962 397.848L761.857 754.364C761.817 754.54 761.667 754.668 761.487 754.684L396.508 785.555C396.418 785.562 396.331 785.541 396.257 785.496ZM254.509 447.82L396.739 784.699L761.115 753.879L844.082 397.953L530.982 208.799L254.509 447.82ZM577.685 765.301L329.732 615.504C329.577 615.411 329.501 615.228 329.542 615.053L395.246 333.185C395.287 333.009 395.437 332.88 395.616 332.865L684.177 308.458C684.356 308.443 684.525 308.545 684.596 308.711L797.231 575.494C797.301 575.66 797.257 575.853 797.12 575.971L578.173 765.26C578.036 765.377 577.84 765.394 577.685 765.301ZM330.422 614.948L577.857 764.432L796.346 575.54L683.946 309.313L395.988 333.669L330.422 614.948ZM454.691 688.776C454.617 688.732 454.558 688.665 454.523 688.582L364.048 474.29C363.978 474.124 364.022 473.931 364.159 473.813L540.027 321.768C540.164 321.65 540.36 321.633 540.515 321.727L739.682 442.05C739.836 442.144 739.912 442.326 739.872 442.501L687.096 668.911C687.055 669.087 686.905 669.215 686.726 669.23L454.942 688.835C454.852 688.842 454.765 688.821 454.691 688.776ZM364.933 474.245L455.172 687.979L686.353 668.426L738.992 442.607L540.343 322.595L364.933 474.245ZM569.944 677.667L410.907 581.588C410.753 581.495 410.677 581.313 410.717 581.137L452.86 400.348C452.9 400.172 453.051 400.044 453.23 400.028L638.311 384.374C638.491 384.359 638.66 384.461 638.73 384.627L710.974 555.741C711.044 555.907 711 556.099 710.863 556.217L570.432 677.626C570.295 677.744 570.098 677.761 569.944 677.667ZM411.597 581.032L570.115 676.799L710.089 555.786L638.081 385.229L453.602 400.833L411.597 581.032ZM491.056 628.585C490.982 628.541 490.923 628.474 490.887 628.391L432.857 490.944C432.787 490.779 432.831 490.586 432.968 490.468L545.769 392.947C545.906 392.829 546.103 392.812 546.257 392.905L674.002 470.081C674.157 470.174 674.233 470.356 674.192 470.532L640.342 615.75C640.301 615.926 640.151 616.055 639.972 616.07L491.307 628.644C491.217 628.651 491.13 628.63 491.056 628.585ZM433.742 490.9L491.537 627.789L639.6 615.265L673.312 470.637L546.086 393.775L433.742 490.9Z" fill="#ABABAB"/>
<path fill-rule="evenodd" clip-rule="evenodd" d="M608.936 1121.14L0.200889 753.38C0.0463795 753.287 -0.0299249 753.105 0.0108774 752.929L161.317 60.9325C161.358 60.7566 161.508 60.6279 161.688 60.6122L870.115 0.692746C870.294 0.678446 870.463 0.77965 870.534 0.945757L1147.06 655.91C1147.13 656.076 1147.08 656.268 1146.95 656.387L609.423 1121.1C609.287 1121.21 609.09 1121.23 608.936 1121.14ZM0.890529 752.824L609.107 1120.27L1146.17 655.954L869.884 1.54778L162.06 61.4167L0.890529 752.824ZM306.98 933.268C306.906 933.223 306.847 933.156 306.812 933.073L84.6932 406.977C84.6231 406.811 84.6681 406.618 84.8041 406.5L516.568 33.2235C516.704 33.106 516.901 33.0888 517.055 33.1822L1006.02 328.581C1006.17 328.675 1006.25 328.857 1006.21 329.033L876.641 884.876C876.599 885.052 876.45 885.181 876.271 885.196L307.231 933.326C307.141 933.333 307.054 933.312 306.98 933.268ZM85.5783 406.932L307.462 932.471L875.899 884.392L1005.33 329.138L516.884 34.0515L85.5783 406.932ZM589.93 905.995L199.491 670.117C199.336 670.023 199.26 669.841 199.3 669.665L302.762 225.822C302.802 225.646 302.952 225.517 303.132 225.502L757.514 187.069C757.694 187.055 757.863 187.156 757.933 187.323L935.295 607.414C935.365 607.58 935.321 607.772 935.184 607.891L590.418 905.953C590.281 906.071 590.085 906.088 589.93 905.995ZM200.18 669.56L590.102 905.126L934.41 607.458L757.283 187.925L303.504 226.306L200.18 669.56ZM396.257 785.496C396.184 785.451 396.124 785.384 396.089 785.301L253.623 447.865C253.554 447.7 253.598 447.506 253.735 447.389L530.666 207.971C530.802 207.853 530.999 207.836 531.153 207.929L844.772 397.397C844.926 397.491 845.003 397.672 844.962 397.848L761.857 754.364C761.817 754.54 761.667 754.668 761.487 754.684L396.508 785.555C396.418 785.562 396.331 785.541 396.257 785.496ZM254.509 447.82L396.739 784.699L761.115 753.879L844.082 397.953L530.982 208.799L254.509 447.82ZM577.685 765.301L329.732 615.504C329.577 615.411 329.501 615.228 329.542 615.053L395.246 333.185C395.287 333.009 395.437 332.88 395.616 332.865L684.177 308.458C684.356 308.443 684.525 308.545 684.596 308.711L797.231 575.494C797.301 575.66 797.257 575.853 797.12 575.971L578.173 765.26C578.036 765.377 577.84 765.394 577.685 765.301ZM330.422 614.948L577.857 764.432L796.346 575.54L683.946 309.313L395.988 333.669L330.422 614.948ZM454.691 688.776C454.617 688.732 454.558 688.665 454.523 688.582L364.048 474.29C363.978 474.124 364.022 473.931 364.159 473.813L540.027 321.768C540.164 321.65 540.36 321.633 540.515 321.727L739.682 442.05C739.836 442.144 739.912 442.326 739.872 442.501L687.096 668.911C687.055 669.087 686.905 669.215 686.726 669.23L454.942 688.835C454.852 688.842 454.765 688.821 454.691 688.776ZM364.933 474.245L455.172 687.979L686.353 668.426L738.992 442.607L540.343 322.595L364.933 474.245ZM569.944 677.667L410.907 581.588C410.753 581.495 410.677 581.313 410.717 581.137L452.86 400.348C452.9 400.172 453.051 400.044 453.23 400.028L638.311 384.374C638.491 384.359 638.66 384.461 638.73 384.627L710.974 555.741C711.044 555.907 711 556.099 710.863 556.217L570.432 677.626C570.295 677.744 570.098 677.761 569.944 677.667ZM411.597 581.032L570.115 676.799L710.089 555.786L638.081 385.229L453.602 400.833L411.597 581.032ZM491.056 628.585C490.982 628.541 490.923 628.474 490.887 628.391L432.857 490.944C432.787 490.779 432.831 490.586 432.968 490.468L545.769 392.947C545.906 392.829 546.103 392.812 546.257 392.905L674.002 470.081C674.157 470.174 674.233 470.356 674.192 470.532L640.342 615.75C640.301 615.926 640.151 616.055 639.972 616.07L491.307 628.644C491.217 628.651 491.13 628.63 491.056 628.585ZM433.742 490.9L491.537 627.789L639.6 615.265L673.312 470.637L546.086 393.775L433.742 490.9Z" fill="#ABABAB"/>
<path d="M608.936 1121.14L0.200889 753.38C0.0463795 753.287 -0.0299249 753.105 0.0108774 752.929L161.317 60.9325C161.358 60.7566 161.508 60.6279 161.688 60.6122L870.115 0.692746C870.294 0.678446 870.463 0.77965 870.534 0.945757L1147.06 655.91C1147.13 656.076 1147.08 656.268 1146.95 656.387L609.423 1121.1C609.287 1121.21 609.09 1121.23 608.936 1121.14ZM0.890529 752.824L609.107 1120.27L1146.17 655.954L869.884 1.54778L162.06 61.4167L0.890529 752.824ZM306.98 933.268C306.906 933.223 306.847 933.156 306.812 933.073L84.6932 406.977C84.6231 406.811 84.6681 406.618 84.8041 406.5L516.568 33.2235C516.704 33.106 516.901 33.0888 517.055 33.1822L1006.02 328.581C1006.17 328.675 1006.25 328.857 1006.21 329.033L876.641 884.876C876.599 885.052 876.45 885.181 876.271 885.196L307.231 933.326C307.141 933.333 307.054 933.312 306.98 933.268ZM85.5783 406.932L307.462 932.471L875.899 884.392L1005.33 329.138L516.884 34.0515L85.5783 406.932ZM589.93 905.995L199.491 670.117C199.336 670.023 199.26 669.841 199.3 669.665L302.762 225.822C302.802 225.646 302.952 225.517 303.132 225.502L757.514 187.069C757.694 187.055 757.863 187.156 757.933 187.323L935.295 607.414C935.365 607.58 935.321 607.772 935.184 607.891L590.418 905.953C590.281 906.071 590.085 906.088 589.93 905.995ZM200.18 669.56L590.102 905.126L934.41 607.458L757.283 187.925L303.504 226.306L200.18 669.56ZM396.257 785.496C396.184 785.451 396.124 785.384 396.089 785.301L253.623 447.865C253.554 447.7 253.598 447.506 253.735 447.389L530.666 207.971C530.802 207.853 530.999 207.836 531.153 207.929L844.772 397.397C844.926 397.491 845.003 397.672 844.962 397.848L761.857 754.364C761.817 754.54 761.667 754.668 761.487 754.684L396.508 785.555C396.418 785.562 396.331 785.541 396.257 785.496ZM254.509 447.82L396.739 784.699L761.115 753.879L844.082 397.953L530.982 208.799L254.509 447.82ZM577.685 765.301L329.732 615.504C329.577 615.411 329.501 615.228 329.542 615.053L395.246 333.185C395.287 333.009 395.437 332.88 395.616 332.865L684.177 308.458C684.356 308.443 684.525 308.545 684.596 308.711L797.231 575.494C797.301 575.66 797.257 575.853 797.12 575.971L578.173 765.26C578.036 765.377 577.84 765.394 577.685 765.301ZM330.422 614.948L577.857 764.432L796.346 575.54L683.946 309.313L395.988 333.669L330.422 614.948ZM454.691 688.776C454.617 688.732 454.558 688.665 454.523 688.582L364.048 474.29C363.978 474.124 364.022 473.931 364.159 473.813L540.027 321.768C540.164 321.65 540.36 321.633 540.515 321.727L739.682 442.05C739.836 442.144 739.912 442.326 739.872 442.501L687.096 668.911C687.055 669.087 686.905 669.215 686.726 669.23L454.942 688.835C454.852 688.842 454.765 688.821 454.691 688.776ZM364.933 474.245L455.172 687.979L686.353 668.426L738.992 442.607L540.343 322.595L364.933 474.245ZM569.944 677.667L410.907 581.588C410.753 581.495 410.677 581.313 410.717 581.137L452.86 400.348C452.9 400.172 453.051 400.044 453.23 400.028L638.311 384.374C638.491 384.359 638.66 384.461 638.73 384.627L710.974 555.741C711.044 555.907 711 556.099 710.863 556.217L570.432 677.626C570.295 677.744 570.098 677.761 569.944 677.667ZM411.597 581.032L570.115 676.799L710.089 555.786L638.081 385.229L453.602 400.833L411.597 581.032ZM491.056 628.585C490.982 628.541 490.923 628.474 490.887 628.391L432.857 490.944C432.787 490.779 432.831 490.586 432.968 490.468L545.769 392.947C545.906 392.829 546.103 392.812 546.257 392.905L674.002 470.081C674.157 470.174 674.233 470.356 674.192 470.532L640.342 615.75C640.301 615.926 640.151 616.055 639.972 616.07L491.307 628.644C491.217 628.651 491.13 628.63 491.056 628.585ZM433.742 490.9L491.537 627.789L639.6 615.265L673.312 470.637L546.086 393.775L433.742 490.9Z" fill="#ABABAB"/>
<path fill-rule="evenodd" clip-rule="evenodd" d="M608.936 1121.14L0.200889 753.38C0.0463795 753.287 -0.0299249 753.105 0.0108774 752.929L161.317 60.9325C161.358 60.7566 161.508 60.6279 161.688 60.6122L870.115 0.692746C870.294 0.678446 870.463 0.77965 870.534 0.945757L1147.06 655.91C1147.13 656.076 1147.08 656.268 1146.95 656.387L609.423 1121.1C609.287 1121.21 609.09 1121.23 608.936 1121.14ZM0.890529 752.824L609.107 1120.27L1146.17 655.954L869.884 1.54778L162.06 61.4167L0.890529 752.824ZM306.98 933.268C306.906 933.223 306.847 933.156 306.812 933.073L84.6932 406.977C84.6231 406.811 84.6681 406.618 84.8041 406.5L516.568 33.2235C516.704 33.106 516.901 33.0888 517.055 33.1822L1006.02 328.581C1006.17 328.675 1006.25 328.857 1006.21 329.033L876.641 884.876C876.599 885.052 876.45 885.181 876.271 885.196L307.231 933.326C307.141 933.333 307.054 933.312 306.98 933.268ZM85.5783 406.932L307.462 932.471L875.899 884.392L1005.33 329.138L516.884 34.0515L85.5783 406.932ZM589.93 905.995L199.491 670.117C199.336 670.023 199.26 669.841 199.3 669.665L302.762 225.822C302.802 225.646 302.952 225.517 303.132 225.502L757.514 187.069C757.694 187.055 757.863 187.156 757.933 187.323L935.295 607.414C935.365 607.58 935.321 607.772 935.184 607.891L590.418 905.953C590.281 906.071 590.085 906.088 589.93 905.995ZM200.18 669.56L590.102 905.126L934.41 607.458L757.283 187.925L303.504 226.306L200.18 669.56ZM396.257 785.496C396.184 785.451 396.124 785.384 396.089 785.301L253.623 447.865C253.554 447.7 253.598 447.506 253.735 447.389L530.666 207.971C530.802 207.853 530.999 207.836 531.153 207.929L844.772 397.397C844.926 397.491 845.003 397.672 844.962 397.848L761.857 754.364C761.817 754.54 761.667 754.668 761.487 754.684L396.508 785.555C396.418 785.562 396.331 785.541 396.257 785.496ZM254.509 447.82L396.739 784.699L761.115 753.879L844.082 397.953L530.982 208.799L254.509 447.82ZM577.685 765.301L329.732 615.504C329.577 615.411 329.501 615.228 329.542 615.053L395.246 333.185C395.287 333.009 395.437 332.88 395.616 332.865L684.177 308.458C684.356 308.443 684.525 308.545 684.596 308.711L797.231 575.494C797.301 575.66 797.257 575.853 797.12 575.971L578.173 765.26C578.036 765.377 577.84 765.394 577.685 765.301ZM330.422 614.948L577.857 764.432L796.346 575.54L683.946 309.313L395.988 333.669L330.422 614.948ZM454.691 688.776C454.617 688.732 454.558 688.665 454.523 688.582L364.048 474.29C363.978 474.124 364.022 473.931 364.159 473.813L540.027 321.768C540.164 321.65 540.36 321.633 540.515 321.727L739.682 442.05C739.836 442.144 739.912 442.326 739.872 442.501L687.096 668.911C687.055 669.087 686.905 669.215 686.726 669.23L454.942 688.835C454.852 688.842 454.765 688.821 454.691 688.776ZM364.933 474.245L455.172 687.979L686.353 668.426L738.992 442.607L540.343 322.595L364.933 474.245ZM569.944 677.667L410.907 581.588C410.753 581.495 410.677 581.313 410.717 581.137L452.86 400.348C452.9 400.172 453.051 400.044 453.23 400.028L638.311 384.374C638.491 384.359 638.66 384.461 638.73 384.627L710.974 555.741C711.044 555.907 711 556.099 710.863 556.217L570.432 677.626C570.295 677.744 570.098 677.761 569.944 677.667ZM411.597 581.032L570.115 676.799L710.089 555.786L638.081 385.229L453.602 400.833L411.597 581.032ZM491.056 628.585C490.982 628.541 490.923 628.474 490.887 628.391L432.857 490.944C432.787 490.779 432.831 490.586 432.968 490.468L545.769 392.947C545.906 392.829 546.103 392.812 546.257 392.905L674.002 470.081C674.157 470.174 674.233 470.356 674.192 470.532L640.342 615.75C640.301 615.926 640.151 616.055 639.972 616.07L491.307 628.644C491.217 628.651 491.13 628.63 491.056 628.585ZM433.742 490.9L491.537 627.789L639.6 615.265L673.312 470.637L546.086 393.775L433.742 490.9Z" fill="#ABABAB"/>
<path d="M608.936 1121.14L0.200889 753.38C0.0463795 753.287 -0.0299249 753.105 0.0108774 752.929L161.317 60.9325C161.358 60.7566 161.508 60.6279 161.688 60.6122L870.115 0.692746C870.294 0.678446 870.463 0.77965 870.534 0.945757L1147.06 655.91C1147.13 656.076 1147.08 656.268 1146.95 656.387L609.423 1121.1C609.287 1121.21 609.09 1121.23 608.936 1121.14ZM0.890529 752.824L609.107 1120.27L1146.17 655.954L869.884 1.54778L162.06 61.4167L0.890529 752.824ZM306.98 933.268C306.906 933.223 306.847 933.156 306.812 933.073L84.6932 406.977C84.6231 406.811 84.6681 406.618 84.8041 406.5L516.568 33.2235C516.704 33.106 516.901 33.0888 517.055 33.1822L1006.02 328.581C1006.17 328.675 1006.25 328.857 1006.21 329.033L876.641 884.876C876.599 885.052 876.45 885.181 876.271 885.196L307.231 933.326C307.141 933.333 307.054 933.312 306.98 933.268ZM85.5783 406.932L307.462 932.471L875.899 884.392L1005.33 329.138L516.884 34.0515L85.5783 406.932ZM589.93 905.995L199.491 670.117C199.336 670.023 199.26 669.841 199.3 669.665L302.762 225.822C302.802 225.646 302.952 225.517 303.132 225.502L757.514 187.069C757.694 187.055 757.863 187.156 757.933 187.323L935.295 607.414C935.365 607.58 935.321 607.772 935.184 607.891L590.418 905.953C590.281 906.071 590.085 906.088 589.93 905.995ZM200.18 669.56L590.102 905.126L934.41 607.458L757.283 187.925L303.504 226.306L200.18 669.56ZM396.257 785.496C396.184 785.451 396.124 785.384 396.089 785.301L253.623 447.865C253.554 447.7 253.598 447.506 253.735 447.389L530.666 207.971C530.802 207.853 530.999 207.836 531.153 207.929L844.772 397.397C844.926 397.491 845.003 397.672 844.962 397.848L761.857 754.364C761.817 754.54 761.667 754.668 761.487 754.684L396.508 785.555C396.418 785.562 396.331 785.541 396.257 785.496ZM254.509 447.82L396.739 784.699L761.115 753.879L844.082 397.953L530.982 208.799L254.509 447.82ZM577.685 765.301L329.732 615.504C329.577 615.411 329.501 615.228 329.542 615.053L395.246 333.185C395.287 333.009 395.437 332.88 395.616 332.865L684.177 308.458C684.356 308.443 684.525 308.545 684.596 308.711L797.231 575.494C797.301 575.66 797.257 575.853 797.12 575.971L578.173 765.26C578.036 765.377 577.84 765.394 577.685 765.301ZM330.422 614.948L577.857 764.432L796.346 575.54L683.946 309.313L395.988 333.669L330.422 614.948ZM454.691 688.776C454.617 688.732 454.558 688.665 454.523 688.582L364.048 474.29C363.978 474.124 364.022 473.931 364.159 473.813L540.027 321.768C540.164 321.65 540.36 321.633 540.515 321.727L739.682 442.05C739.836 442.144 739.912 442.326 739.872 442.501L687.096 668.911C687.055 669.087 686.905 669.215 686.726 669.23L454.942 688.835C454.852 688.842 454.765 688.821 454.691 688.776ZM364.933 474.245L455.172 687.979L686.353 668.426L738.992 442.607L540.343 322.595L364.933 474.245ZM569.944 677.667L410.907 581.588C410.753 581.495 410.677 581.313 410.717 581.137L452.86 400.348C452.9 400.172 453.051 400.044 453.23 400.028L638.311 384.374C638.491 384.359 638.66 384.461 638.73 384.627L710.974 555.741C711.044 555.907 711 556.099 710.863 556.217L570.432 677.626C570.295 677.744 570.098 677.761 569.944 677.667ZM411.597 581.032L570.115 676.799L710.089 555.786L638.081 385.229L453.602 400.833L411.597 581.032ZM491.056 628.585C490.982 628.541 490.923 628.474 490.887 628.391L432.857 490.944C432.787 490.779 432.831 490.586 432.968 490.468L545.769 392.947C545.906 392.829 546.103 392.812 546.257 392.905L674.002 470.081C674.157 470.174 674.233 470.356 674.192 470.532L640.342 615.75C640.301 615.926 640.151 616.055 639.972 616.07L491.307 628.644C491.217 628.651 491.13 628.63 491.056 628.585ZM433.742 490.9L491.537 627.789L639.6 615.265L673.312 470.637L546.086 393.775L433.742 490.9Z" fill="#ABABAB"/>
<path fill-rule="evenodd" clip-rule="evenodd" d="M608.936 1121.14L0.200889 753.38C0.0463795 753.287 -0.0299249 753.105 0.0108774 752.929L161.317 60.9325C161.358 60.7566 161.508 60.6279 161.688 60.6122L870.115 0.692746C870.294 0.678446 870.463 0.77965 870.534 0.945757L1147.06 655.91C1147.13 656.076 1147.08 656.268 1146.95 656.387L609.423 1121.1C609.287 1121.21 609.09 1121.23 608.936 1121.14ZM0.890529 752.824L609.107 1120.27L1146.17 655.954L869.884 1.54778L162.06 61.4167L0.890529 752.824ZM306.98 933.268C306.906 933.223 306.847 933.156 306.812 933.073L84.6932 406.977C84.6231 406.811 84.6681 406.618 84.8041 406.5L516.568 33.2235C516.704 33.106 516.901 33.0888 517.055 33.1822L1006.02 328.581C1006.17 328.675 1006.25 328.857 1006.21 329.033L876.641 884.876C876.599 885.052 876.45 885.181 876.271 885.196L307.231 933.326C307.141 933.333 307.054 933.312 306.98 933.268ZM85.5783 406.932L307.462 932.471L875.899 884.392L1005.33 329.138L516.884 34.0515L85.5783 406.932ZM589.93 905.995L199.491 670.117C199.336 670.023 199.26 669.841 199.3 669.665L302.762 225.822C302.802 225.646 302.952 225.517 303.132 225.502L757.514 187.069C757.694 187.055 757.863 187.156 757.933 187.323L935.295 607.414C935.365 607.58 935.321 607.772 935.184 607.891L590.418 905.953C590.281 906.071 590.085 906.088 589.93 905.995ZM200.18 669.56L590.102 905.126L934.41 607.458L757.283 187.925L303.504 226.306L200.18 669.56ZM396.257 785.496C396.184 785.451 396.124 785.384 396.089 785.301L253.623 447.865C253.554 447.7 253.598 447.506 253.735 447.389L530.666 207.971C530.802 207.853 530.999 207.836 531.153 207.929L844.772 397.397C844.926 397.491 845.003 397.672 844.962 397.848L761.857 754.364C761.817 754.54 761.667 754.668 761.487 754.684L396.508 785.555C396.418 785.562 396.331 785.541 396.257 785.496ZM254.509 447.82L396.739 784.699L761.115 753.879L844.082 397.953L530.982 208.799L254.509 447.82ZM577.685 765.301L329.732 615.504C329.577 615.411 329.501 615.228 329.542 615.053L395.246 333.185C395.287 333.009 395.437 332.88 395.616 332.865L684.177 308.458C684.356 308.443 684.525 308.545 684.596 308.711L797.231 575.494C797.301 575.66 797.257 575.853 797.12 575.971L578.173 765.26C578.036 765.377 577.84 765.394 577.685 765.301ZM330.422 614.948L577.857 764.432L796.346 575.54L683.946 309.313L395.988 333.669L330.422 614.948ZM454.691 688.776C454.617 688.732 454.558 688.665 454.523 688.582L364.048 474.29C363.978 474.124 364.022 473.931 364.159 473.813L540.027 321.768C540.164 321.65 540.36 321.633 540.515 321.727L739.682 442.05C739.836 442.144 739.912 442.326 739.872 442.501L687.096 668.911C687.055 669.087 686.905 669.215 686.726 669.23L454.942 688.835C454.852 688.842 454.765 688.821 454.691 688.776ZM364.933 474.245L455.172 687.979L686.353 668.426L738.992 442.607L540.343 322.595L364.933 474.245ZM569.944 677.667L410.907 581.588C410.753 581.495 410.677 581.313 410.717 581.137L452.86 400.348C452.9 400.172 453.051 400.044 453.23 400.028L638.311 384.374C638.491 384.359 638.66 384.461 638.73 384.627L710.974 555.741C711.044 555.907 711 556.099 710.863 556.217L570.432 677.626C570.295 677.744 570.098 677.761 569.944 677.667ZM411.597 581.032L570.115 676.799L710.089 555.786L638.081 385.229L453.602 400.833L411.597 581.032ZM491.056 628.585C490.982 628.541 490.923 628.474 490.887 628.391L432.857 490.944C432.787 490.779 432.831 490.586 432.968 490.468L545.769 392.947C545.906 392.829 546.103 392.812 546.257 392.905L674.002 470.081C674.157 470.174 674.233 470.356 674.192 470.532L640.342 615.75C640.301 615.926 640.151 616.055 639.972 616.07L491.307 628.644C491.217 628.651 491.13 628.63 491.056 628.585ZM433.742 490.9L491.537 627.789L639.6 615.265L673.312 470.637L546.086 393.775L433.742 490.9Z" fill="#ABABAB"/>
<path d="M608.936 1121.14L0.200889 753.38C0.0463795 753.287 -0.0299249 753.105 0.0108774 752.929L161.317 60.9325C161.358 60.7566 161.508 60.6279 161.688 60.6122L870.115 0.692746C870.294 0.678446 870.463 0.77965 870.534 0.945757L1147.06 655.91C1147.13 656.076 1147.08 656.268 1146.95 656.387L609.423 1121.1C609.287 1121.21 609.09 1121.23 608.936 1121.14ZM0.890529 752.824L609.107 1120.27L1146.17 655.954L869.884 1.54778L162.06 61.4167L0.890529 752.824ZM306.98 933.268C306.906 933.223 306.847 933.156 306.812 933.073L84.6932 406.977C84.6231 406.811 84.6681 406.618 84.8041 406.5L516.568 33.2235C516.704 33.106 516.901 33.0888 517.055 33.1822L1006.02 328.581C1006.17 328.675 1006.25 328.857 1006.21 329.033L876.641 884.876C876.599 885.052 876.45 885.181 876.271 885.196L307.231 933.326C307.141 933.333 307.054 933.312 306.98 933.268ZM85.5783 406.932L307.462 932.471L875.899 884.392L1005.33 329.138L516.884 34.0515L85.5783 406.932ZM589.93 905.995L199.491 670.117C199.336 670.023 199.26 669.841 199.3 669.665L302.762 225.822C302.802 225.646 302.952 225.517 303.132 225.502L757.514 187.069C757.694 187.055 757.863 187.156 757.933 187.323L935.295 607.414C935.365 607.58 935.321 607.772 935.184 607.891L590.418 905.953C590.281 906.071 590.085 906.088 589.93 905.995ZM200.18 669.56L590.102 905.126L934.41 607.458L757.283 187.925L303.504 226.306L200.18 669.56ZM396.257 785.496C396.184 785.451 396.124 785.384 396.089 785.301L253.623 447.865C253.554 447.7 253.598 447.506 253.735 447.389L530.666 207.971C530.802 207.853 530.999 207.836 531.153 207.929L844.772 397.397C844.926 397.491 845.003 397.672 844.962 397.848L761.857 754.364C761.817 754.54 761.667 754.668 761.487 754.684L396.508 785.555C396.418 785.562 396.331 785.541 396.257 785.496ZM254.509 447.82L396.739 784.699L761.115 753.879L844.082 397.953L530.982 208.799L254.509 447.82ZM577.685 765.301L329.732 615.504C329.577 615.411 329.501 615.228 329.542 615.053L395.246 333.185C395.287 333.009 395.437 332.88 395.616 332.865L684.177 308.458C684.356 308.443 684.525 308.545 684.596 308.711L797.231 575.494C797.301 575.66 797.257 575.853 797.12 575.971L578.173 765.26C578.036 765.377 577.84 765.394 577.685 765.301ZM330.422 614.948L577.857 764.432L796.346 575.54L683.946 309.313L395.988 333.669L330.422 614.948ZM454.691 688.776C454.617 688.732 454.558 688.665 454.523 688.582L364.048 474.29C363.978 474.124 364.022 473.931 364.159 473.813L540.027 321.768C540.164 321.65 540.36 321.633 540.515 321.727L739.682 442.05C739.836 442.144 739.912 442.326 739.872 442.501L687.096 668.911C687.055 669.087 686.905 669.215 686.726 669.23L454.942 688.835C454.852 688.842 454.765 688.821 454.691 688.776ZM364.933 474.245L455.172 687.979L686.353 668.426L738.992 442.607L540.343 322.595L364.933 474.245ZM569.944 677.667L410.907 581.588C410.753 581.495 410.677 581.313 410.717 581.137L452.86 400.348C452.9 400.172 453.051 400.044 453.23 400.028L638.311 384.374C638.491 384.359 638.66 384.461 638.73 384.627L710.974 555.741C711.044 555.907 711 556.099 710.863 556.217L570.432 677.626C570.295 677.744 570.098 677.761 569.944 677.667ZM411.597 581.032L570.115 676.799L710.089 555.786L638.081 385.229L453.602 400.833L411.597 581.032ZM491.056 628.585C490.982 628.541 490.923 628.474 490.887 628.391L432.857 490.944C432.787 490.779 432.831 490.586 432.968 490.468L545.769 392.947C545.906 392.829 546.103 392.812 546.257 392.905L674.002 470.081C674.157 470.174 674.233 470.356 674.192 470.532L640.342 615.75C640.301 615.926 640.151 616.055 639.972 616.07L491.307 628.644C491.217 628.651 491.13 628.63 491.056 628.585ZM433.742 490.9L491.537 627.789L639.6 615.265L673.312 470.637L546.086 393.775L433.742 490.9Z" fill="#ABABAB"/>
<path fill-rule="evenodd" clip-rule="evenodd" d="M608.936 1121.14L0.200889 753.38C0.0463795 753.287 -0.0299249 753.105 0.0108774 752.929L161.317 60.9325C161.358 60.7566 161.508 60.6279 161.688 60.6122L870.115 0.692746C870.294 0.678446 870.463 0.77965 870.534 0.945757L1147.06 655.91C1147.13 656.076 1147.08 656.268 1146.95 656.387L609.423 1121.1C609.287 1121.21 609.09 1121.23 608.936 1121.14ZM0.890529 752.824L609.107 1120.27L1146.17 655.954L869.884 1.54778L162.06 61.4167L0.890529 752.824ZM306.98 933.268C306.906 933.223 306.847 933.156 306.812 933.073L84.6932 406.977C84.6231 406.811 84.6681 406.618 84.8041 406.5L516.568 33.2235C516.704 33.106 516.901 33.0888 517.055 33.1822L1006.02 328.581C1006.17 328.675 1006.25 328.857 1006.21 329.033L876.641 884.876C876.599 885.052 876.45 885.181 876.271 885.196L307.231 933.326C307.141 933.333 307.054 933.312 306.98 933.268ZM85.5783 406.932L307.462 932.471L875.899 884.392L1005.33 329.138L516.884 34.0515L85.5783 406.932ZM589.93 905.995L199.491 670.117C199.336 670.023 199.26 669.841 199.3 669.665L302.762 225.822C302.802 225.646 302.952 225.517 303.132 225.502L757.514 187.069C757.694 187.055 757.863 187.156 757.933 187.323L935.295 607.414C935.365 607.58 935.321 607.772 935.184 607.891L590.418 905.953C590.281 906.071 590.085 906.088 589.93 905.995ZM200.18 669.56L590.102 905.126L934.41 607.458L757.283 187.925L303.504 226.306L200.18 669.56ZM396.257 785.496C396.184 785.451 396.124 785.384 396.089 785.301L253.623 447.865C253.554 447.7 253.598 447.506 253.735 447.389L530.666 207.971C530.802 207.853 530.999 207.836 531.153 207.929L844.772 397.397C844.926 397.491 845.003 397.672 844.962 397.848L761.857 754.364C761.817 754.54 761.667 754.668 761.487 754.684L396.508 785.555C396.418 785.562 396.331 785.541 396.257 785.496ZM254.509 447.82L396.739 784.699L761.115 753.879L844.082 397.953L530.982 208.799L254.509 447.82ZM577.685 765.301L329.732 615.504C329.577 615.411 329.501 615.228 329.542 615.053L395.246 333.185C395.287 333.009 395.437 332.88 395.616 332.865L684.177 308.458C684.356 308.443 684.525 308.545 684.596 308.711L797.231 575.494C797.301 575.66 797.257 575.853 797.12 575.971L578.173 765.26C578.036 765.377 577.84 765.394 577.685 765.301ZM330.422 614.948L577.857 764.432L796.346 575.54L683.946 309.313L395.988 333.669L330.422 614.948ZM454.691 688.776C454.617 688.732 454.558 688.665 454.523 688.582L364.048 474.29C363.978 474.124 364.022 473.931 364.159 473.813L540.027 321.768C540.164 321.65 540.36 321.633 540.515 321.727L739.682 442.05C739.836 442.144 739.912 442.326 739.872 442.501L687.096 668.911C687.055 669.087 686.905 669.215 686.726 669.23L454.942 688.835C454.852 688.842 454.765 688.821 454.691 688.776ZM364.933 474.245L455.172 687.979L686.353 668.426L738.992 442.607L540.343 322.595L364.933 474.245ZM569.944 677.667L410.907 581.588C410.753 581.495 410.677 581.313 410.717 581.137L452.86 400.348C452.9 400.172 453.051 400.044 453.23 400.028L638.311 384.374C638.491 384.359 638.66 384.461 638.73 384.627L710.974 555.741C711.044 555.907 711 556.099 710.863 556.217L570.432 677.626C570.295 677.744 570.098 677.761 569.944 677.667ZM411.597 581.032L570.115 676.799L710.089 555.786L638.081 385.229L453.602 400.833L411.597 581.032ZM491.056 628.585C490.982 628.541 490.923 628.474 490.887 628.391L432.857 490.944C432.787 490.779 432.831 490.586 432.968 490.468L545.769 392.947C545.906 392.829 546.103 392.812 546.257 392.905L674.002 470.081C674.157 470.174 674.233 470.356 674.192 470.532L640.342 615.75C640.301 615.926 640.151 616.055 639.972 616.07L491.307 628.644C491.217 628.651 491.13 628.63 491.056 628.585ZM433.742 490.9L491.537 627.789L639.6 615.265L673.312 470.637L546.086 393.775L433.742 490.9Z" fill="#ABABAB"/>
<path d="M608.936 1121.14L0.200889 753.38C0.0463795 753.287 -0.0299249 753.105 0.0108774 752.929L161.317 60.9325C161.358 60.7566 161.508 60.6279 161.688 60.6122L870.115 0.692746C870.294 0.678446 870.463 0.77965 870.534 0.945757L1147.06 655.91C1147.13 656.076 1147.08 656.268 1146.95 656.387L609.423 1121.1C609.287 1121.21 609.09 1121.23 608.936 1121.14ZM0.890529 752.824L609.107 1120.27L1146.17 655.954L869.884 1.54778L162.06 61.4167L0.890529 752.824ZM306.98 933.268C306.906 933.223 306.847 933.156 306.812 933.073L84.6932 406.977C84.6231 406.811 84.6681 406.618 84.8041 406.5L516.568 33.2235C516.704 33.106 516.901 33.0888 517.055 33.1822L1006.02 328.581C1006.17 328.675 1006.25 328.857 1006.21 329.033L876.641 884.876C876.599 885.052 876.45 885.181 876.271 885.196L307.231 933.326C307.141 933.333 307.054 933.312 306.98 933.268ZM85.5783 406.932L307.462 932.471L875.899 884.392L1005.33 329.138L516.884 34.0515L85.5783 406.932ZM589.93 905.995L199.491 670.117C199.336 670.023 199.26 669.841 199.3 669.665L302.762 225.822C302.802 225.646 302.952 225.517 303.132 225.502L757.514 187.069C757.694 187.055 757.863 187.156 757.933 187.323L935.295 607.414C935.365 607.58 935.321 607.772 935.184 607.891L590.418 905.953C590.281 906.071 590.085 906.088 589.93 905.995ZM200.18 669.56L590.102 905.126L934.41 607.458L757.283 187.925L303.504 226.306L200.18 669.56ZM396.257 785.496C396.184 785.451 396.124 785.384 396.089 785.301L253.623 447.865C253.554 447.7 253.598 447.506 253.735 447.389L530.666 207.971C530.802 207.853 530.999 207.836 531.153 207.929L844.772 397.397C844.926 397.491 845.003 397.672 844.962 397.848L761.857 754.364C761.817 754.54 761.667 754.668 761.487 754.684L396.508 785.555C396.418 785.562 396.331 785.541 396.257 785.496ZM254.509 447.82L396.739 784.699L761.115 753.879L844.082 397.953L530.982 208.799L254.509 447.82ZM577.685 765.301L329.732 615.504C329.577 615.411 329.501 615.228 329.542 615.053L395.246 333.185C395.287 333.009 395.437 332.88 395.616 332.865L684.177 308.458C684.356 308.443 684.525 308.545 684.596 308.711L797.231 575.494C797.301 575.66 797.257 575.853 797.12 575.971L578.173 765.26C578.036 765.377 577.84 765.394 577.685 765.301ZM330.422 614.948L577.857 764.432L796.346 575.54L683.946 309.313L395.988 333.669L330.422 614.948ZM454.691 688.776C454.617 688.732 454.558 688.665 454.523 688.582L364.048 474.29C363.978 474.124 364.022 473.931 364.159 473.813L540.027 321.768C540.164 321.65 540.36 321.633 540.515 321.727L739.682 442.05C739.836 442.144 739.912 442.326 739.872 442.501L687.096 668.911C687.055 669.087 686.905 669.215 686.726 669.23L454.942 688.835C454.852 688.842 454.765 688.821 454.691 688.776ZM364.933 474.245L455.172 687.979L686.353 668.426L738.992 442.607L540.343 322.595L364.933 474.245ZM569.944 677.667L410.907 581.588C410.753 581.495 410.677 581.313 410.717 581.137L452.86 400.348C452.9 400.172 453.051 400.044 453.23 400.028L638.311 384.374C638.491 384.359 638.66 384.461 638.73 384.627L710.974 555.741C711.044 555.907 711 556.099 710.863 556.217L570.432 677.626C570.295 677.744 570.098 677.761 569.944 677.667ZM411.597 581.032L570.115 676.799L710.089 555.786L638.081 385.229L453.602 400.833L411.597 581.032ZM491.056 628.585C490.982 628.541 490.923 628.474 490.887 628.391L432.857 490.944C432.787 490.779 432.831 490.586 432.968 490.468L545.769 392.947C545.906 392.829 546.103 392.812 546.257 392.905L674.002 470.081C674.157 470.174 674.233 470.356 674.192 470.532L640.342 615.75C640.301 615.926 640.151 616.055 639.972 616.07L491.307 628.644C491.217 628.651 491.13 628.63 491.056 628.585ZM433.742 490.9L491.537 627.789L639.6 615.265L673.312 470.637L546.086 393.775L433.742 490.9Z" fill="#ABABAB"/>
<path fill-rule="evenodd" clip-rule="evenodd" d="M608.936 1121.14L0.200889 753.38C0.0463795 753.287 -0.0299249 753.105 0.0108774 752.929L161.317 60.9325C161.358 60.7566 161.508 60.6279 161.688 60.6122L870.115 0.692746C870.294 0.678446 870.463 0.77965 870.534 0.945757L1147.06 655.91C1147.13 656.076 1147.08 656.268 1146.95 656.387L609.423 1121.1C609.287 1121.21 609.09 1121.23 608.936 1121.14ZM0.890529 752.824L609.107 1120.27L1146.17 655.954L869.884 1.54778L162.06 61.4167L0.890529 752.824ZM306.98 933.268C306.906 933.223 306.847 933.156 306.812 933.073L84.6932 406.977C84.6231 406.811 84.6681 406.618 84.8041 406.5L516.568 33.2235C516.704 33.106 516.901 33.0888 517.055 33.1822L1006.02 328.581C1006.17 328.675 1006.25 328.857 1006.21 329.033L876.641 884.876C876.599 885.052 876.45 885.181 876.271 885.196L307.231 933.326C307.141 933.333 307.054 933.312 306.98 933.268ZM85.5783 406.932L307.462 932.471L875.899 884.392L1005.33 329.138L516.884 34.0515L85.5783 406.932ZM589.93 905.995L199.491 670.117C199.336 670.023 199.26 669.841 199.3 669.665L302.762 225.822C302.802 225.646 302.952 225.517 303.132 225.502L757.514 187.069C757.694 187.055 757.863 187.156 757.933 187.323L935.295 607.414C935.365 607.58 935.321 607.772 935.184 607.891L590.418 905.953C590.281 906.071 590.085 906.088 589.93 905.995ZM200.18 669.56L590.102 905.126L934.41 607.458L757.283 187.925L303.504 226.306L200.18 669.56ZM396.257 785.496C396.184 785.451 396.124 785.384 396.089 785.301L253.623 447.865C253.554 447.7 253.598 447.506 253.735 447.389L530.666 207.971C530.802 207.853 530.999 207.836 531.153 207.929L844.772 397.397C844.926 397.491 845.003 397.672 844.962 397.848L761.857 754.364C761.817 754.54 761.667 754.668 761.487 754.684L396.508 785.555C396.418 785.562 396.331 785.541 396.257 785.496ZM254.509 447.82L396.739 784.699L761.115 753.879L844.082 397.953L530.982 208.799L254.509 447.82ZM577.685 765.301L329.732 615.504C329.577 615.411 329.501 615.228 329.542 615.053L395.246 333.185C395.287 333.009 395.437 332.88 395.616 332.865L684.177 308.458C684.356 308.443 684.525 308.545 684.596 308.711L797.231 575.494C797.301 575.66 797.257 575.853 797.12 575.971L578.173 765.26C578.036 765.377 577.84 765.394 577.685 765.301ZM330.422 614.948L577.857 764.432L796.346 575.54L683.946 309.313L395.988 333.669L330.422 614.948ZM454.691 688.776C454.617 688.732 454.558 688.665 454.523 688.582L364.048 474.29C363.978 474.124 364.022 473.931 364.159 473.813L540.027 321.768C540.164 321.65 540.36 321.633 540.515 321.727L739.682 442.05C739.836 442.144 739.912 442.326 739.872 442.501L687.096 668.911C687.055 669.087 686.905 669.215 686.726 669.23L454.942 688.835C454.852 688.842 454.765 688.821 454.691 688.776ZM364.933 474.245L455.172 687.979L686.353 668.426L738.992 442.607L540.343 322.595L364.933 474.245ZM569.944 677.667L410.907 581.588C410.753 581.495 410.677 581.313 410.717 581.137L452.86 400.348C452.9 400.172 453.051 400.044 453.23 400.028L638.311 384.374C638.491 384.359 638.66 384.461 638.73 384.627L710.974 555.741C711.044 555.907 711 556.099 710.863 556.217L570.432 677.626C570.295 677.744 570.098 677.761 569.944 677.667ZM411.597 581.032L570.115 676.799L710.089 555.786L638.081 385.229L453.602 400.833L411.597 581.032ZM491.056 628.585C490.982 628.541 490.923 628.474 490.887 628.391L432.857 490.944C432.787 490.779 432.831 490.586 432.968 490.468L545.769 392.947C545.906 392.829 546.103 392.812 546.257 392.905L674.002 470.081C674.157 470.174 674.233 470.356 674.192 470.532L640.342 615.75C640.301 615.926 640.151 616.055 639.972 616.07L491.307 628.644C491.217 628.651 491.13 628.63 491.056 628.585ZM433.742 490.9L491.537 627.789L639.6 615.265L673.312 470.637L546.086 393.775L433.742 490.9Z" fill="#ABABAB"/>
<path d="M608.936 1121.14L0.200889 753.38C0.0463795 753.287 -0.0299249 753.105 0.0108774 752.929L161.317 60.9325C161.358 60.7566 161.508 60.6279 161.688 60.6122L870.115 0.692746C870.294 0.678446 870.463 0.77965 870.534 0.945757L1147.06 655.91C1147.13 656.076 1147.08 656.268 1146.95 656.387L609.423 1121.1C609.287 1121.21 609.09 1121.23 608.936 1121.14ZM0.890529 752.824L609.107 1120.27L1146.17 655.954L869.884 1.54778L162.06 61.4167L0.890529 752.824ZM306.98 933.268C306.906 933.223 306.847 933.156 306.812 933.073L84.6932 406.977C84.6231 406.811 84.6681 406.618 84.8041 406.5L516.568 33.2235C516.704 33.106 516.901 33.0888 517.055 33.1822L1006.02 328.581C1006.17 328.675 1006.25 328.857 1006.21 329.033L876.641 884.876C876.599 885.052 876.45 885.181 876.271 885.196L307.231 933.326C307.141 933.333 307.054 933.312 306.98 933.268ZM85.5783 406.932L307.462 932.471L875.899 884.392L1005.33 329.138L516.884 34.0515L85.5783 406.932ZM589.93 905.995L199.491 670.117C199.336 670.023 199.26 669.841 199.3 669.665L302.762 225.822C302.802 225.646 302.952 225.517 303.132 225.502L757.514 187.069C757.694 187.055 757.863 187.156 757.933 187.323L935.295 607.414C935.365 607.58 935.321 607.772 935.184 607.891L590.418 905.953C590.281 906.071 590.085 906.088 589.93 905.995ZM200.18 669.56L590.102 905.126L934.41 607.458L757.283 187.925L303.504 226.306L200.18 669.56ZM396.257 785.496C396.184 785.451 396.124 785.384 396.089 785.301L253.623 447.865C253.554 447.7 253.598 447.506 253.735 447.389L530.666 207.971C530.802 207.853 530.999 207.836 531.153 207.929L844.772 397.397C844.926 397.491 845.003 397.672 844.962 397.848L761.857 754.364C761.817 754.54 761.667 754.668 761.487 754.684L396.508 785.555C396.418 785.562 396.331 785.541 396.257 785.496ZM254.509 447.82L396.739 784.699L761.115 753.879L844.082 397.953L530.982 208.799L254.509 447.82ZM577.685 765.301L329.732 615.504C329.577 615.411 329.501 615.228 329.542 615.053L395.246 333.185C395.287 333.009 395.437 332.88 395.616 332.865L684.177 308.458C684.356 308.443 684.525 308.545 684.596 308.711L797.231 575.494C797.301 575.66 797.257 575.853 797.12 575.971L578.173 765.26C578.036 765.377 577.84 765.394 577.685 765.301ZM330.422 614.948L577.857 764.432L796.346 575.54L683.946 309.313L395.988 333.669L330.422 614.948ZM454.691 688.776C454.617 688.732 454.558 688.665 454.523 688.582L364.048 474.29C363.978 474.124 364.022 473.931 364.159 473.813L540.027 321.768C540.164 321.65 540.36 321.633 540.515 321.727L739.682 442.05C739.836 442.144 739.912 442.326 739.872 442.501L687.096 668.911C687.055 669.087 686.905 669.215 686.726 669.23L454.942 688.835C454.852 688.842 454.765 688.821 454.691 688.776ZM364.933 474.245L455.172 687.979L686.353 668.426L738.992 442.607L540.343 322.595L364.933 474.245ZM569.944 677.667L410.907 581.588C410.753 581.495 410.677 581.313 410.717 581.137L452.86 400.348C452.9 400.172 453.051 400.044 453.23 400.028L638.311 384.374C638.491 384.359 638.66 384.461 638.73 384.627L710.974 555.741C711.044 555.907 711 556.099 710.863 556.217L570.432 677.626C570.295 677.744 570.098 677.761 569.944 677.667ZM411.597 581.032L570.115 676.799L710.089 555.786L638.081 385.229L453.602 400.833L411.597 581.032ZM491.056 628.585C490.982 628.541 490.923 628.474 490.887 628.391L432.857 490.944C432.787 490.779 432.831 490.586 432.968 490.468L545.769 392.947C545.906 392.829 546.103 392.812 546.257 392.905L674.002 470.081C674.157 470.174 674.233 470.356 674.192 470.532L640.342 615.75C640.301 615.926 640.151 616.055 639.972 616.07L491.307 628.644C491.217 628.651 491.13 628.63 491.056 628.585ZM433.742 490.9L491.537 627.789L639.6 615.265L673.312 470.637L546.086 393.775L433.742 490.9Z" fill="#ABABAB"/>
<path fill-rule="evenodd" clip-rule="evenodd" d="M608.936 1121.14L0.200889 753.38C0.0463795 753.287 -0.0299249 753.105 0.0108774 752.929L161.317 60.9325C161.358 60.7566 161.508 60.6279 161.688 60.6122L870.115 0.692746C870.294 0.678446 870.463 0.77965 870.534 0.945757L1147.06 655.91C1147.13 656.076 1147.08 656.268 1146.95 656.387L609.423 1121.1C609.287 1121.21 609.09 1121.23 608.936 1121.14ZM0.890529 752.824L609.107 1120.27L1146.17 655.954L869.884 1.54778L162.06 61.4167L0.890529 752.824ZM306.98 933.268C306.906 933.223 306.847 933.156 306.812 933.073L84.6932 406.977C84.6231 406.811 84.6681 406.618 84.8041 406.5L516.568 33.2235C516.704 33.106 516.901 33.0888 517.055 33.1822L1006.02 328.581C1006.17 328.675 1006.25 328.857 1006.21 329.033L876.641 884.876C876.599 885.052 876.45 885.181 876.271 885.196L307.231 933.326C307.141 933.333 307.054 933.312 306.98 933.268ZM85.5783 406.932L307.462 932.471L875.899 884.392L1005.33 329.138L516.884 34.0515L85.5783 406.932ZM589.93 905.995L199.491 670.117C199.336 670.023 199.26 669.841 199.3 669.665L302.762 225.822C302.802 225.646 302.952 225.517 303.132 225.502L757.514 187.069C757.694 187.055 757.863 187.156 757.933 187.323L935.295 607.414C935.365 607.58 935.321 607.772 935.184 607.891L590.418 905.953C590.281 906.071 590.085 906.088 589.93 905.995ZM200.18 669.56L590.102 905.126L934.41 607.458L757.283 187.925L303.504 226.306L200.18 669.56ZM396.257 785.496C396.184 785.451 396.124 785.384 396.089 785.301L253.623 447.865C253.554 447.7 253.598 447.506 253.735 447.389L530.666 207.971C530.802 207.853 530.999 207.836 531.153 207.929L844.772 397.397C844.926 397.491 845.003 397.672 844.962 397.848L761.857 754.364C761.817 754.54 761.667 754.668 761.487 754.684L396.508 785.555C396.418 785.562 396.331 785.541 396.257 785.496ZM254.509 447.82L396.739 784.699L761.115 753.879L844.082 397.953L530.982 208.799L254.509 447.82ZM577.685 765.301L329.732 615.504C329.577 615.411 329.501 615.228 329.542 615.053L395.246 333.185C395.287 333.009 395.437 332.88 395.616 332.865L684.177 308.458C684.356 308.443 684.525 308.545 684.596 308.711L797.231 575.494C797.301 575.66 797.257 575.853 797.12 575.971L578.173 765.26C578.036 765.377 577.84 765.394 577.685 765.301ZM330.422 614.948L577.857 764.432L796.346 575.54L683.946 309.313L395.988 333.669L330.422 614.948ZM454.691 688.776C454.617 688.732 454.558 688.665 454.523 688.582L364.048 474.29C363.978 474.124 364.022 473.931 364.159 473.813L540.027 321.768C540.164 321.65 540.36 321.633 540.515 321.727L739.682 442.05C739.836 442.144 739.912 442.326 739.872 442.501L687.096 668.911C687.055 669.087 686.905 669.215 686.726 669.23L454.942 688.835C454.852 688.842 454.765 688.821 454.691 688.776ZM364.933 474.245L455.172 687.979L686.353 668.426L738.992 442.607L540.343 322.595L364.933 474.245ZM569.944 677.667L410.907 581.588C410.753 581.495 410.677 581.313 410.717 581.137L452.86 400.348C452.9 400.172 453.051 400.044 453.23 400.028L638.311 384.374C638.491 384.359 638.66 384.461 638.73 384.627L710.974 555.741C711.044 555.907 711 556.099 710.863 556.217L570.432 677.626C570.295 677.744 570.098 677.761 569.944 677.667ZM411.597 581.032L570.115 676.799L710.089 555.786L638.081 385.229L453.602 400.833L411.597 581.032ZM491.056 628.585C490.982 628.541 490.923 628.474 490.887 628.391L432.857 490.944C432.787 490.779 432.831 490.586 432.968 490.468L545.769 392.947C545.906 392.829 546.103 392.812 546.257 392.905L674.002 470.081C674.157 470.174 674.233 470.356 674.192 470.532L640.342 615.75C640.301 615.926 640.151 616.055 639.972 616.07L491.307 628.644C491.217 628.651 491.13 628.63 491.056 628.585ZM433.742 490.9L491.537 627.789L639.6 615.265L673.312 470.637L546.086 393.775L433.742 490.9Z" fill="#ABABAB"/>
<path fill-rule="evenodd" clip-rule="evenodd" d="M604.18 348H556.18V364L569.329 358H604.18V348Z" fill="#6AC5F9"/>
<path fill-rule="evenodd" clip-rule="evenodd" d="M506.18 374H554.18V358L541.03 364H506.18V374Z" fill="#6AC5F9"/>
<path fill-rule="evenodd" clip-rule="evenodd" d="M624.18 745H556.18V729L569.329 735H624.18V745Z" fill="#6AC5F9"/>
<path fill-rule="evenodd" clip-rule="evenodd" d="M530.18 427H554.18V434H530.18V427Z" fill="#6AC5F9"/>
<path fill-rule="evenodd" clip-rule="evenodd" d="M556.18 445H580.18V455H556.18V445Z" fill="#6AC5F9"/>
<path fill-rule="evenodd" clip-rule="evenodd" d="M532.18 618H556.18V625H532.18V618Z" fill="#6AC5F9"/>
<path fill-rule="evenodd" clip-rule="evenodd" d="M532.18 1114H556.18V1121H532.18V1114Z" fill="#6AC5F9"/>
<path fill-rule="evenodd" clip-rule="evenodd" d="M556.18 639H580.18V649H556.18V639Z" fill="#6AC5F9"/>
<path fill-rule="evenodd" clip-rule="evenodd" d="M556.18 334V484H554.18V334H556.18Z" fill="#6AC5F9"/>
<path fill-rule="evenodd" clip-rule="evenodd" d="M556.18 561V805H554.18V561H556.18Z" fill="#6AC5F9"/>
<path fill-rule="evenodd" clip-rule="evenodd" d="M556.18 910V1154H554.18V910H556.18Z" fill="#6AC5F9"/>
<path fill-rule="evenodd" clip-rule="evenodd" d="M556.18 70V278H554.18V70H556.18Z" fill="#6AC5F9"/>
<path fill-rule="evenodd" clip-rule="evenodd" d="M486.18 189H554.18V205L541.03 199H486.18V189Z" fill="#6AC5F9"/>
<path d="M534.948 532.341V508.705H540.414V510.514H537.016V530.531H540.414V532.341H534.948ZM558.735 519.378V521.409H550.462V519.378H558.735ZM574.239 508.705V532.341H568.773V530.531H572.171V510.514H568.773V508.705H574.239Z" fill="#6AC5F9"/>
</svg>
