<svg xmlns="http://www.w3.org/2000/svg" width="390" height="429" fill="none"><mask id="a" width="390" height="429" x="0" y="0" maskUnits="userSpaceOnUse" style="mask-type:alpha"><path fill="#fff" d="M0 0h390v429H0z"/></mask><g mask="url(#a)"><path fill="#ABABAB" d="m227.574 521.254-317.47-183.66a.205.205 0 0 1-.098-.226L-5.87-8.219a.215.215 0 0 1 .193-.16l369.461-29.924a.22.22 0 0 1 .219.126l144.215 327.093a.2.2 0 0 1-.058.238L227.829 521.233a.23.23 0 0 1-.255.021m-317.11-183.938 317.2 183.504 280.093-231.882L363.665-37.876-5.482-7.977zM70.097 427.43a.2.2 0 0 1-.087-.097L-45.83 164.597a.2.2 0 0 1 .057-.238L179.402-22.057a.23.23 0 0 1 .255-.02l255.006 147.523c.08.047.12.138.099.226l-67.573 277.591a.215.215 0 0 1-.193.16L70.228 427.459a.2.2 0 0 1-.13-.029M-45.369 164.575 70.35 427.032l296.453-24.011 67.501-277.297L179.567-21.643zM217.663 413.81 14.039 296.011a.204.204 0 0 1-.1-.225L67.898 74.128a.21.21 0 0 1 .193-.16l236.972-19.193a.22.22 0 0 1 .218.126l92.499 209.796a.2.2 0 0 1-.058.238L217.917 413.789a.22.22 0 0 1-.254.021M14.399 295.733l203.353 117.643 179.565-148.657-92.376-209.517L68.285 74.37zm102.259 57.899a.2.2 0 0 1-.088-.097l-74.3-168.518a.2.2 0 0 1 .059-.237L186.755 65.213a.22.22 0 0 1 .254-.02l163.56 94.62c.08.047.12.138.099.226l-43.341 178.046a.215.215 0 0 1-.193.159l-190.346 15.417a.22.22 0 0 1-.13-.029M42.732 184.995l74.177 168.239 190.031-15.391 43.269-177.752L186.92 65.626zm168.545 158.552-129.314-74.81a.2.2 0 0 1-.099-.225l34.266-140.767a.21.21 0 0 1 .193-.159l150.491-12.189a.22.22 0 0 1 .219.126l58.742 133.233a.2.2 0 0 1-.058.238l-114.186 94.532a.225.225 0 0 1-.254.021M82.323 268.46l129.043 74.653 113.947-94.334-58.619-132.955-150.177 12.163zm64.809 36.87a.2.2 0 0 1-.088-.097L99.86 198.214a.2.2 0 0 1 .058-.238l91.719-75.932a.22.22 0 0 1 .254-.021l103.871 60.09c.08.047.12.138.099.226l-27.524 113.07a.21.21 0 0 1-.193.159l-120.881 9.791a.23.23 0 0 1-.131-.029m-46.811-107.139 47.062 106.741 120.567-9.765 27.452-112.776-103.6-59.934zm106.918 101.591-82.941-47.983a.2.2 0 0 1-.099-.225l21.978-90.287a.215.215 0 0 1 .193-.16l96.524-7.817a.22.22 0 0 1 .219.126l37.677 85.455a.2.2 0 0 1-.058.238l-73.238 60.632a.225.225 0 0 1-.255.021m-82.581-48.26 82.671 47.826 72.999-60.434-37.554-85.177-96.21 7.792zm41.439 23.748a.2.2 0 0 1-.088-.097l-30.264-68.642a.2.2 0 0 1 .058-.237l58.829-48.703a.225.225 0 0 1 .254-.021l66.622 38.542a.2.2 0 0 1 .099.225l-17.654 72.523a.21.21 0 0 1-.192.16l-77.533 6.279a.23.23 0 0 1-.131-.029m-29.89-68.761 30.141 68.363 77.218-6.254 17.582-72.228-66.351-38.386z"/><path fill="#ABABAB" fill-rule="evenodd" d="m227.574 521.254-317.47-183.66a.205.205 0 0 1-.098-.226L-5.87-8.219a.215.215 0 0 1 .193-.16l369.461-29.924a.22.22 0 0 1 .219.126l144.215 327.093a.2.2 0 0 1-.058.238L227.829 521.233a.23.23 0 0 1-.255.021m-317.11-183.938 317.2 183.504 280.093-231.882L363.665-37.876-5.482-7.977zM70.097 427.43a.2.2 0 0 1-.087-.097L-45.83 164.597a.2.2 0 0 1 .057-.238L179.402-22.057a.23.23 0 0 1 .255-.02l255.006 147.523c.08.047.12.138.099.226l-67.573 277.591a.215.215 0 0 1-.193.16L70.228 427.459a.2.2 0 0 1-.13-.029M-45.369 164.575 70.35 427.032l296.453-24.011 67.501-277.297L179.567-21.643zM217.663 413.81 14.039 296.011a.204.204 0 0 1-.1-.225L67.898 74.128a.21.21 0 0 1 .193-.16l236.972-19.193a.22.22 0 0 1 .218.126l92.499 209.796a.2.2 0 0 1-.058.238L217.917 413.789a.22.22 0 0 1-.254.021M14.399 295.733l203.353 117.643 179.565-148.657-92.376-209.517L68.285 74.37zm102.259 57.899a.2.2 0 0 1-.088-.097l-74.3-168.518a.2.2 0 0 1 .059-.237L186.755 65.213a.22.22 0 0 1 .254-.02l163.56 94.62c.08.047.12.138.099.226l-43.341 178.046a.215.215 0 0 1-.193.159l-190.346 15.417a.22.22 0 0 1-.13-.029M42.732 184.995l74.177 168.239 190.031-15.391 43.269-177.752L186.92 65.626zm168.545 158.552-129.314-74.81a.2.2 0 0 1-.099-.225l34.266-140.767a.21.21 0 0 1 .193-.159l150.491-12.189a.22.22 0 0 1 .219.126l58.742 133.233a.2.2 0 0 1-.058.238l-114.186 94.532a.225.225 0 0 1-.254.021M82.323 268.46l129.043 74.653 113.947-94.334-58.619-132.955-150.177 12.163zm64.809 36.87a.2.2 0 0 1-.088-.097L99.86 198.214a.2.2 0 0 1 .058-.238l91.719-75.932a.22.22 0 0 1 .254-.021l103.871 60.09c.08.047.12.138.099.226l-27.524 113.07a.21.21 0 0 1-.193.159l-120.881 9.791a.23.23 0 0 1-.131-.029m-46.811-107.139 47.062 106.741 120.567-9.765 27.452-112.776-103.6-59.934zm106.918 101.591-82.941-47.983a.2.2 0 0 1-.099-.225l21.978-90.287a.215.215 0 0 1 .193-.16l96.524-7.817a.22.22 0 0 1 .219.126l37.677 85.455a.2.2 0 0 1-.058.238l-73.238 60.632a.225.225 0 0 1-.255.021m-82.581-48.26 82.671 47.826 72.999-60.434-37.554-85.177-96.21 7.792zm41.439 23.748a.2.2 0 0 1-.088-.097l-30.264-68.642a.2.2 0 0 1 .058-.237l58.829-48.703a.225.225 0 0 1 .254-.021l66.622 38.542a.2.2 0 0 1 .099.225l-17.654 72.523a.21.21 0 0 1-.192.16l-77.533 6.279a.23.23 0 0 1-.131-.029m-29.89-68.761 30.141 68.363 77.218-6.254 17.582-72.228-66.351-38.386z" clip-rule="evenodd"/><path fill="#ABABAB" d="m227.574 521.254-317.47-183.66a.205.205 0 0 1-.098-.226L-5.87-8.219a.215.215 0 0 1 .193-.16l369.461-29.924a.22.22 0 0 1 .219.126l144.215 327.093a.2.2 0 0 1-.058.238L227.829 521.233a.23.23 0 0 1-.255.021m-317.11-183.938 317.2 183.504 280.093-231.882L363.665-37.876-5.482-7.977zM70.097 427.43a.2.2 0 0 1-.087-.097L-45.83 164.597a.2.2 0 0 1 .057-.238L179.402-22.057a.23.23 0 0 1 .255-.02l255.006 147.523c.08.047.12.138.099.226l-67.573 277.591a.215.215 0 0 1-.193.16L70.228 427.459a.2.2 0 0 1-.13-.029M-45.369 164.575 70.35 427.032l296.453-24.011 67.501-277.297L179.567-21.643zM217.663 413.81 14.039 296.011a.204.204 0 0 1-.1-.225L67.898 74.128a.21.21 0 0 1 .193-.16l236.972-19.193a.22.22 0 0 1 .218.126l92.499 209.796a.2.2 0 0 1-.058.238L217.917 413.789a.22.22 0 0 1-.254.021M14.399 295.733l203.353 117.643 179.565-148.657-92.376-209.517L68.285 74.37zm102.259 57.899a.2.2 0 0 1-.088-.097l-74.3-168.518a.2.2 0 0 1 .059-.237L186.755 65.213a.22.22 0 0 1 .254-.02l163.56 94.62c.08.047.12.138.099.226l-43.341 178.046a.215.215 0 0 1-.193.159l-190.346 15.417a.22.22 0 0 1-.13-.029M42.732 184.995l74.177 168.239 190.031-15.391 43.269-177.752L186.92 65.626zm168.545 158.552-129.314-74.81a.2.2 0 0 1-.099-.225l34.266-140.767a.21.21 0 0 1 .193-.159l150.491-12.189a.22.22 0 0 1 .219.126l58.742 133.233a.2.2 0 0 1-.058.238l-114.186 94.532a.225.225 0 0 1-.254.021M82.323 268.46l129.043 74.653 113.947-94.334-58.619-132.955-150.177 12.163zm64.809 36.87a.2.2 0 0 1-.088-.097L99.86 198.214a.2.2 0 0 1 .058-.238l91.719-75.932a.22.22 0 0 1 .254-.021l103.871 60.09c.08.047.12.138.099.226l-27.524 113.07a.21.21 0 0 1-.193.159l-120.881 9.791a.23.23 0 0 1-.131-.029m-46.811-107.139 47.062 106.741 120.567-9.765 27.452-112.776-103.6-59.934zm106.918 101.591-82.941-47.983a.2.2 0 0 1-.099-.225l21.978-90.287a.215.215 0 0 1 .193-.16l96.524-7.817a.22.22 0 0 1 .219.126l37.677 85.455a.2.2 0 0 1-.058.238l-73.238 60.632a.225.225 0 0 1-.255.021m-82.581-48.26 82.671 47.826 72.999-60.434-37.554-85.177-96.21 7.792zm41.439 23.748a.2.2 0 0 1-.088-.097l-30.264-68.642a.2.2 0 0 1 .058-.237l58.829-48.703a.225.225 0 0 1 .254-.021l66.622 38.542a.2.2 0 0 1 .099.225l-17.654 72.523a.21.21 0 0 1-.192.16l-77.533 6.279a.23.23 0 0 1-.131-.029m-29.89-68.761 30.141 68.363 77.218-6.254 17.582-72.228-66.351-38.386z"/><path fill="#ABABAB" fill-rule="evenodd" d="m227.574 521.254-317.47-183.66a.205.205 0 0 1-.098-.226L-5.87-8.219a.215.215 0 0 1 .193-.16l369.461-29.924a.22.22 0 0 1 .219.126l144.215 327.093a.2.2 0 0 1-.058.238L227.829 521.233a.23.23 0 0 1-.255.021m-317.11-183.938 317.2 183.504 280.093-231.882L363.665-37.876-5.482-7.977zM70.097 427.43a.2.2 0 0 1-.087-.097L-45.83 164.597a.2.2 0 0 1 .057-.238L179.402-22.057a.23.23 0 0 1 .255-.02l255.006 147.523c.08.047.12.138.099.226l-67.573 277.591a.215.215 0 0 1-.193.16L70.228 427.459a.2.2 0 0 1-.13-.029M-45.369 164.575 70.35 427.032l296.453-24.011 67.501-277.297L179.567-21.643zM217.663 413.81 14.039 296.011a.204.204 0 0 1-.1-.225L67.898 74.128a.21.21 0 0 1 .193-.16l236.972-19.193a.22.22 0 0 1 .218.126l92.499 209.796a.2.2 0 0 1-.058.238L217.917 413.789a.22.22 0 0 1-.254.021M14.399 295.733l203.353 117.643 179.565-148.657-92.376-209.517L68.285 74.37zm102.259 57.899a.2.2 0 0 1-.088-.097l-74.3-168.518a.2.2 0 0 1 .059-.237L186.755 65.213a.22.22 0 0 1 .254-.02l163.56 94.62c.08.047.12.138.099.226l-43.341 178.046a.215.215 0 0 1-.193.159l-190.346 15.417a.22.22 0 0 1-.13-.029M42.732 184.995l74.177 168.239 190.031-15.391 43.269-177.752L186.92 65.626zm168.545 158.552-129.314-74.81a.2.2 0 0 1-.099-.225l34.266-140.767a.21.21 0 0 1 .193-.159l150.491-12.189a.22.22 0 0 1 .219.126l58.742 133.233a.2.2 0 0 1-.058.238l-114.186 94.532a.225.225 0 0 1-.254.021M82.323 268.46l129.043 74.653 113.947-94.334-58.619-132.955-150.177 12.163zm64.809 36.87a.2.2 0 0 1-.088-.097L99.86 198.214a.2.2 0 0 1 .058-.238l91.719-75.932a.22.22 0 0 1 .254-.021l103.871 60.09c.08.047.12.138.099.226l-27.524 113.07a.21.21 0 0 1-.193.159l-120.881 9.791a.23.23 0 0 1-.131-.029m-46.811-107.139 47.062 106.741 120.567-9.765 27.452-112.776-103.6-59.934zm106.918 101.591-82.941-47.983a.2.2 0 0 1-.099-.225l21.978-90.287a.215.215 0 0 1 .193-.16l96.524-7.817a.22.22 0 0 1 .219.126l37.677 85.455a.2.2 0 0 1-.058.238l-73.238 60.632a.225.225 0 0 1-.255.021m-82.581-48.26 82.671 47.826 72.999-60.434-37.554-85.177-96.21 7.792zm41.439 23.748a.2.2 0 0 1-.088-.097l-30.264-68.642a.2.2 0 0 1 .058-.237l58.829-48.703a.225.225 0 0 1 .254-.021l66.622 38.542a.2.2 0 0 1 .099.225l-17.654 72.523a.21.21 0 0 1-.192.16l-77.533 6.279a.23.23 0 0 1-.131-.029m-29.89-68.761 30.141 68.363 77.218-6.254 17.582-72.228-66.351-38.386z" clip-rule="evenodd"/><path fill="#ABABAB" d="m227.574 521.254-317.47-183.66a.205.205 0 0 1-.098-.226L-5.87-8.219a.215.215 0 0 1 .193-.16l369.461-29.924a.22.22 0 0 1 .219.126l144.215 327.093a.2.2 0 0 1-.058.238L227.829 521.233a.23.23 0 0 1-.255.021m-317.11-183.938 317.2 183.504 280.093-231.882L363.665-37.876-5.482-7.977zM70.097 427.43a.2.2 0 0 1-.087-.097L-45.83 164.597a.2.2 0 0 1 .057-.238L179.402-22.057a.23.23 0 0 1 .255-.02l255.006 147.523c.08.047.12.138.099.226l-67.573 277.591a.215.215 0 0 1-.193.16L70.228 427.459a.2.2 0 0 1-.13-.029M-45.369 164.575 70.35 427.032l296.453-24.011 67.501-277.297L179.567-21.643zM217.663 413.81 14.039 296.011a.204.204 0 0 1-.1-.225L67.898 74.128a.21.21 0 0 1 .193-.16l236.972-19.193a.22.22 0 0 1 .218.126l92.499 209.796a.2.2 0 0 1-.058.238L217.917 413.789a.22.22 0 0 1-.254.021M14.399 295.733l203.353 117.643 179.565-148.657-92.376-209.517L68.285 74.37zm102.259 57.899a.2.2 0 0 1-.088-.097l-74.3-168.518a.2.2 0 0 1 .059-.237L186.755 65.213a.22.22 0 0 1 .254-.02l163.56 94.62c.08.047.12.138.099.226l-43.341 178.046a.215.215 0 0 1-.193.159l-190.346 15.417a.22.22 0 0 1-.13-.029M42.732 184.995l74.177 168.239 190.031-15.391 43.269-177.752L186.92 65.626zm168.545 158.552-129.314-74.81a.2.2 0 0 1-.099-.225l34.266-140.767a.21.21 0 0 1 .193-.159l150.491-12.189a.22.22 0 0 1 .219.126l58.742 133.233a.2.2 0 0 1-.058.238l-114.186 94.532a.225.225 0 0 1-.254.021M82.323 268.46l129.043 74.653 113.947-94.334-58.619-132.955-150.177 12.163zm64.809 36.87a.2.2 0 0 1-.088-.097L99.86 198.214a.2.2 0 0 1 .058-.238l91.719-75.932a.22.22 0 0 1 .254-.021l103.871 60.09c.08.047.12.138.099.226l-27.524 113.07a.21.21 0 0 1-.193.159l-120.881 9.791a.23.23 0 0 1-.131-.029m-46.811-107.139 47.062 106.741 120.567-9.765 27.452-112.776-103.6-59.934zm106.918 101.591-82.941-47.983a.2.2 0 0 1-.099-.225l21.978-90.287a.215.215 0 0 1 .193-.16l96.524-7.817a.22.22 0 0 1 .219.126l37.677 85.455a.2.2 0 0 1-.058.238l-73.238 60.632a.225.225 0 0 1-.255.021m-82.581-48.26 82.671 47.826 72.999-60.434-37.554-85.177-96.21 7.792zm41.439 23.748a.2.2 0 0 1-.088-.097l-30.264-68.642a.2.2 0 0 1 .058-.237l58.829-48.703a.225.225 0 0 1 .254-.021l66.622 38.542a.2.2 0 0 1 .099.225l-17.654 72.523a.21.21 0 0 1-.192.16l-77.533 6.279a.23.23 0 0 1-.131-.029m-29.89-68.761 30.141 68.363 77.218-6.254 17.582-72.228-66.351-38.386z"/><path fill="#ABABAB" fill-rule="evenodd" d="m227.574 521.254-317.47-183.66a.205.205 0 0 1-.098-.226L-5.87-8.219a.215.215 0 0 1 .193-.16l369.461-29.924a.22.22 0 0 1 .219.126l144.215 327.093a.2.2 0 0 1-.058.238L227.829 521.233a.23.23 0 0 1-.255.021m-317.11-183.938 317.2 183.504 280.093-231.882L363.665-37.876-5.482-7.977zM70.097 427.43a.2.2 0 0 1-.087-.097L-45.83 164.597a.2.2 0 0 1 .057-.238L179.402-22.057a.23.23 0 0 1 .255-.02l255.006 147.523c.08.047.12.138.099.226l-67.573 277.591a.215.215 0 0 1-.193.16L70.228 427.459a.2.2 0 0 1-.13-.029M-45.369 164.575 70.35 427.032l296.453-24.011 67.501-277.297L179.567-21.643zM217.663 413.81 14.039 296.011a.204.204 0 0 1-.1-.225L67.898 74.128a.21.21 0 0 1 .193-.16l236.972-19.193a.22.22 0 0 1 .218.126l92.499 209.796a.2.2 0 0 1-.058.238L217.917 413.789a.22.22 0 0 1-.254.021M14.399 295.733l203.353 117.643 179.565-148.657-92.376-209.517L68.285 74.37zm102.259 57.899a.2.2 0 0 1-.088-.097l-74.3-168.518a.2.2 0 0 1 .059-.237L186.755 65.213a.22.22 0 0 1 .254-.02l163.56 94.62c.08.047.12.138.099.226l-43.341 178.046a.215.215 0 0 1-.193.159l-190.346 15.417a.22.22 0 0 1-.13-.029M42.732 184.995l74.177 168.239 190.031-15.391 43.269-177.752L186.92 65.626zm168.545 158.552-129.314-74.81a.2.2 0 0 1-.099-.225l34.266-140.767a.21.21 0 0 1 .193-.159l150.491-12.189a.22.22 0 0 1 .219.126l58.742 133.233a.2.2 0 0 1-.058.238l-114.186 94.532a.225.225 0 0 1-.254.021M82.323 268.46l129.043 74.653 113.947-94.334-58.619-132.955-150.177 12.163zm64.809 36.87a.2.2 0 0 1-.088-.097L99.86 198.214a.2.2 0 0 1 .058-.238l91.719-75.932a.22.22 0 0 1 .254-.021l103.871 60.09c.08.047.12.138.099.226l-27.524 113.07a.21.21 0 0 1-.193.159l-120.881 9.791a.23.23 0 0 1-.131-.029m-46.811-107.139 47.062 106.741 120.567-9.765 27.452-112.776-103.6-59.934zm106.918 101.591-82.941-47.983a.2.2 0 0 1-.099-.225l21.978-90.287a.215.215 0 0 1 .193-.16l96.524-7.817a.22.22 0 0 1 .219.126l37.677 85.455a.2.2 0 0 1-.058.238l-73.238 60.632a.225.225 0 0 1-.255.021m-82.581-48.26 82.671 47.826 72.999-60.434-37.554-85.177-96.21 7.792zm41.439 23.748a.2.2 0 0 1-.088-.097l-30.264-68.642a.2.2 0 0 1 .058-.237l58.829-48.703a.225.225 0 0 1 .254-.021l66.622 38.542a.2.2 0 0 1 .099.225l-17.654 72.523a.21.21 0 0 1-.192.16l-77.533 6.279a.23.23 0 0 1-.131-.029m-29.89-68.761 30.141 68.363 77.218-6.254 17.582-72.228-66.351-38.386z" clip-rule="evenodd"/><path fill="#ABABAB" d="m227.574 521.254-317.47-183.66a.205.205 0 0 1-.098-.226L-5.87-8.219a.215.215 0 0 1 .193-.16l369.461-29.924a.22.22 0 0 1 .219.126l144.215 327.093a.2.2 0 0 1-.058.238L227.829 521.233a.23.23 0 0 1-.255.021m-317.11-183.938 317.2 183.504 280.093-231.882L363.665-37.876-5.482-7.977zM70.097 427.43a.2.2 0 0 1-.087-.097L-45.83 164.597a.2.2 0 0 1 .057-.238L179.402-22.057a.23.23 0 0 1 .255-.02l255.006 147.523c.08.047.12.138.099.226l-67.573 277.591a.215.215 0 0 1-.193.16L70.228 427.459a.2.2 0 0 1-.13-.029M-45.369 164.575 70.35 427.032l296.453-24.011 67.501-277.297L179.567-21.643zM217.663 413.81 14.039 296.011a.204.204 0 0 1-.1-.225L67.898 74.128a.21.21 0 0 1 .193-.16l236.972-19.193a.22.22 0 0 1 .218.126l92.499 209.796a.2.2 0 0 1-.058.238L217.917 413.789a.22.22 0 0 1-.254.021M14.399 295.733l203.353 117.643 179.565-148.657-92.376-209.517L68.285 74.37zm102.259 57.899a.2.2 0 0 1-.088-.097l-74.3-168.518a.2.2 0 0 1 .059-.237L186.755 65.213a.22.22 0 0 1 .254-.02l163.56 94.62c.08.047.12.138.099.226l-43.341 178.046a.215.215 0 0 1-.193.159l-190.346 15.417a.22.22 0 0 1-.13-.029M42.732 184.995l74.177 168.239 190.031-15.391 43.269-177.752L186.92 65.626zm168.545 158.552-129.314-74.81a.2.2 0 0 1-.099-.225l34.266-140.767a.21.21 0 0 1 .193-.159l150.491-12.189a.22.22 0 0 1 .219.126l58.742 133.233a.2.2 0 0 1-.058.238l-114.186 94.532a.225.225 0 0 1-.254.021M82.323 268.46l129.043 74.653 113.947-94.334-58.619-132.955-150.177 12.163zm64.809 36.87a.2.2 0 0 1-.088-.097L99.86 198.214a.2.2 0 0 1 .058-.238l91.719-75.932a.22.22 0 0 1 .254-.021l103.871 60.09c.08.047.12.138.099.226l-27.524 113.07a.21.21 0 0 1-.193.159l-120.881 9.791a.23.23 0 0 1-.131-.029m-46.811-107.139 47.062 106.741 120.567-9.765 27.452-112.776-103.6-59.934zm106.918 101.591-82.941-47.983a.2.2 0 0 1-.099-.225l21.978-90.287a.215.215 0 0 1 .193-.16l96.524-7.817a.22.22 0 0 1 .219.126l37.677 85.455a.2.2 0 0 1-.058.238l-73.238 60.632a.225.225 0 0 1-.255.021m-82.581-48.26 82.671 47.826 72.999-60.434-37.554-85.177-96.21 7.792zm41.439 23.748a.2.2 0 0 1-.088-.097l-30.264-68.642a.2.2 0 0 1 .058-.237l58.829-48.703a.225.225 0 0 1 .254-.021l66.622 38.542a.2.2 0 0 1 .099.225l-17.654 72.523a.21.21 0 0 1-.192.16l-77.533 6.279a.23.23 0 0 1-.131-.029m-29.89-68.761 30.141 68.363 77.218-6.254 17.582-72.228-66.351-38.386z"/><path fill="#ABABAB" fill-rule="evenodd" d="m227.574 521.254-317.47-183.66a.205.205 0 0 1-.098-.226L-5.87-8.219a.215.215 0 0 1 .193-.16l369.461-29.924a.22.22 0 0 1 .219.126l144.215 327.093a.2.2 0 0 1-.058.238L227.829 521.233a.23.23 0 0 1-.255.021m-317.11-183.938 317.2 183.504 280.093-231.882L363.665-37.876-5.482-7.977zM70.097 427.43a.2.2 0 0 1-.087-.097L-45.83 164.597a.2.2 0 0 1 .057-.238L179.402-22.057a.23.23 0 0 1 .255-.02l255.006 147.523c.08.047.12.138.099.226l-67.573 277.591a.215.215 0 0 1-.193.16L70.228 427.459a.2.2 0 0 1-.13-.029M-45.369 164.575 70.35 427.032l296.453-24.011 67.501-277.297L179.567-21.643zM217.663 413.81 14.039 296.011a.204.204 0 0 1-.1-.225L67.898 74.128a.21.21 0 0 1 .193-.16l236.972-19.193a.22.22 0 0 1 .218.126l92.499 209.796a.2.2 0 0 1-.058.238L217.917 413.789a.22.22 0 0 1-.254.021M14.399 295.733l203.353 117.643 179.565-148.657-92.376-209.517L68.285 74.37zm102.259 57.899a.2.2 0 0 1-.088-.097l-74.3-168.518a.2.2 0 0 1 .059-.237L186.755 65.213a.22.22 0 0 1 .254-.02l163.56 94.62c.08.047.12.138.099.226l-43.341 178.046a.215.215 0 0 1-.193.159l-190.346 15.417a.22.22 0 0 1-.13-.029M42.732 184.995l74.177 168.239 190.031-15.391 43.269-177.752L186.92 65.626zm168.545 158.552-129.314-74.81a.2.2 0 0 1-.099-.225l34.266-140.767a.21.21 0 0 1 .193-.159l150.491-12.189a.22.22 0 0 1 .219.126l58.742 133.233a.2.2 0 0 1-.058.238l-114.186 94.532a.225.225 0 0 1-.254.021M82.323 268.46l129.043 74.653 113.947-94.334-58.619-132.955-150.177 12.163zm64.809 36.87a.2.2 0 0 1-.088-.097L99.86 198.214a.2.2 0 0 1 .058-.238l91.719-75.932a.22.22 0 0 1 .254-.021l103.871 60.09c.08.047.12.138.099.226l-27.524 113.07a.21.21 0 0 1-.193.159l-120.881 9.791a.23.23 0 0 1-.131-.029m-46.811-107.139 47.062 106.741 120.567-9.765 27.452-112.776-103.6-59.934zm106.918 101.591-82.941-47.983a.2.2 0 0 1-.099-.225l21.978-90.287a.215.215 0 0 1 .193-.16l96.524-7.817a.22.22 0 0 1 .219.126l37.677 85.455a.2.2 0 0 1-.058.238l-73.238 60.632a.225.225 0 0 1-.255.021m-82.581-48.26 82.671 47.826 72.999-60.434-37.554-85.177-96.21 7.792zm41.439 23.748a.2.2 0 0 1-.088-.097l-30.264-68.642a.2.2 0 0 1 .058-.237l58.829-48.703a.225.225 0 0 1 .254-.021l66.622 38.542a.2.2 0 0 1 .099.225l-17.654 72.523a.21.21 0 0 1-.192.16l-77.533 6.279a.23.23 0 0 1-.131-.029m-29.89-68.761 30.141 68.363 77.218-6.254 17.582-72.228-66.351-38.386z" clip-rule="evenodd"/><path fill="#ABABAB" d="m227.574 521.254-317.47-183.66a.205.205 0 0 1-.098-.226L-5.87-8.219a.215.215 0 0 1 .193-.16l369.461-29.924a.22.22 0 0 1 .219.126l144.215 327.093a.2.2 0 0 1-.058.238L227.829 521.233a.23.23 0 0 1-.255.021m-317.11-183.938 317.2 183.504 280.093-231.882L363.665-37.876-5.482-7.977zM70.097 427.43a.2.2 0 0 1-.087-.097L-45.83 164.597a.2.2 0 0 1 .057-.238L179.402-22.057a.23.23 0 0 1 .255-.02l255.006 147.523c.08.047.12.138.099.226l-67.573 277.591a.215.215 0 0 1-.193.16L70.228 427.459a.2.2 0 0 1-.13-.029M-45.369 164.575 70.35 427.032l296.453-24.011 67.501-277.297L179.567-21.643zM217.663 413.81 14.039 296.011a.204.204 0 0 1-.1-.225L67.898 74.128a.21.21 0 0 1 .193-.16l236.972-19.193a.22.22 0 0 1 .218.126l92.499 209.796a.2.2 0 0 1-.058.238L217.917 413.789a.22.22 0 0 1-.254.021M14.399 295.733l203.353 117.643 179.565-148.657-92.376-209.517L68.285 74.37zm102.259 57.899a.2.2 0 0 1-.088-.097l-74.3-168.518a.2.2 0 0 1 .059-.237L186.755 65.213a.22.22 0 0 1 .254-.02l163.56 94.62c.08.047.12.138.099.226l-43.341 178.046a.215.215 0 0 1-.193.159l-190.346 15.417a.22.22 0 0 1-.13-.029M42.732 184.995l74.177 168.239 190.031-15.391 43.269-177.752L186.92 65.626zm168.545 158.552-129.314-74.81a.2.2 0 0 1-.099-.225l34.266-140.767a.21.21 0 0 1 .193-.159l150.491-12.189a.22.22 0 0 1 .219.126l58.742 133.233a.2.2 0 0 1-.058.238l-114.186 94.532a.225.225 0 0 1-.254.021M82.323 268.46l129.043 74.653 113.947-94.334-58.619-132.955-150.177 12.163zm64.809 36.87a.2.2 0 0 1-.088-.097L99.86 198.214a.2.2 0 0 1 .058-.238l91.719-75.932a.22.22 0 0 1 .254-.021l103.871 60.09c.08.047.12.138.099.226l-27.524 113.07a.21.21 0 0 1-.193.159l-120.881 9.791a.23.23 0 0 1-.131-.029m-46.811-107.139 47.062 106.741 120.567-9.765 27.452-112.776-103.6-59.934zm106.918 101.591-82.941-47.983a.2.2 0 0 1-.099-.225l21.978-90.287a.215.215 0 0 1 .193-.16l96.524-7.817a.22.22 0 0 1 .219.126l37.677 85.455a.2.2 0 0 1-.058.238l-73.238 60.632a.225.225 0 0 1-.255.021m-82.581-48.26 82.671 47.826 72.999-60.434-37.554-85.177-96.21 7.792zm41.439 23.748a.2.2 0 0 1-.088-.097l-30.264-68.642a.2.2 0 0 1 .058-.237l58.829-48.703a.225.225 0 0 1 .254-.021l66.622 38.542a.2.2 0 0 1 .099.225l-17.654 72.523a.21.21 0 0 1-.192.16l-77.533 6.279a.23.23 0 0 1-.131-.029m-29.89-68.761 30.141 68.363 77.218-6.254 17.582-72.228-66.351-38.386z"/><path fill="#ABABAB" fill-rule="evenodd" d="m227.574 521.254-317.47-183.66a.205.205 0 0 1-.098-.226L-5.87-8.219a.215.215 0 0 1 .193-.16l369.461-29.924a.22.22 0 0 1 .219.126l144.215 327.093a.2.2 0 0 1-.058.238L227.829 521.233a.23.23 0 0 1-.255.021m-317.11-183.938 317.2 183.504 280.093-231.882L363.665-37.876-5.482-7.977zM70.097 427.43a.2.2 0 0 1-.087-.097L-45.83 164.597a.2.2 0 0 1 .057-.238L179.402-22.057a.23.23 0 0 1 .255-.02l255.006 147.523c.08.047.12.138.099.226l-67.573 277.591a.215.215 0 0 1-.193.16L70.228 427.459a.2.2 0 0 1-.13-.029M-45.369 164.575 70.35 427.032l296.453-24.011 67.501-277.297L179.567-21.643zM217.663 413.81 14.039 296.011a.204.204 0 0 1-.1-.225L67.898 74.128a.21.21 0 0 1 .193-.16l236.972-19.193a.22.22 0 0 1 .218.126l92.499 209.796a.2.2 0 0 1-.058.238L217.917 413.789a.22.22 0 0 1-.254.021M14.399 295.733l203.353 117.643 179.565-148.657-92.376-209.517L68.285 74.37zm102.259 57.899a.2.2 0 0 1-.088-.097l-74.3-168.518a.2.2 0 0 1 .059-.237L186.755 65.213a.22.22 0 0 1 .254-.02l163.56 94.62c.08.047.12.138.099.226l-43.341 178.046a.215.215 0 0 1-.193.159l-190.346 15.417a.22.22 0 0 1-.13-.029M42.732 184.995l74.177 168.239 190.031-15.391 43.269-177.752L186.92 65.626zm168.545 158.552-129.314-74.81a.2.2 0 0 1-.099-.225l34.266-140.767a.21.21 0 0 1 .193-.159l150.491-12.189a.22.22 0 0 1 .219.126l58.742 133.233a.2.2 0 0 1-.058.238l-114.186 94.532a.225.225 0 0 1-.254.021M82.323 268.46l129.043 74.653 113.947-94.334-58.619-132.955-150.177 12.163zm64.809 36.87a.2.2 0 0 1-.088-.097L99.86 198.214a.2.2 0 0 1 .058-.238l91.719-75.932a.22.22 0 0 1 .254-.021l103.871 60.09c.08.047.12.138.099.226l-27.524 113.07a.21.21 0 0 1-.193.159l-120.881 9.791a.23.23 0 0 1-.131-.029m-46.811-107.139 47.062 106.741 120.567-9.765 27.452-112.776-103.6-59.934zm106.918 101.591-82.941-47.983a.2.2 0 0 1-.099-.225l21.978-90.287a.215.215 0 0 1 .193-.16l96.524-7.817a.22.22 0 0 1 .219.126l37.677 85.455a.2.2 0 0 1-.058.238l-73.238 60.632a.225.225 0 0 1-.255.021m-82.581-48.26 82.671 47.826 72.999-60.434-37.554-85.177-96.21 7.792zm41.439 23.748a.2.2 0 0 1-.088-.097l-30.264-68.642a.2.2 0 0 1 .058-.237l58.829-48.703a.225.225 0 0 1 .254-.021l66.622 38.542a.2.2 0 0 1 .099.225l-17.654 72.523a.21.21 0 0 1-.192.16l-77.533 6.279a.23.23 0 0 1-.131-.029m-29.89-68.761 30.141 68.363 77.218-6.254 17.582-72.228-66.351-38.386z" clip-rule="evenodd"/><path fill="#ABABAB" d="m227.574 521.254-317.47-183.66a.205.205 0 0 1-.098-.226L-5.87-8.219a.215.215 0 0 1 .193-.16l369.461-29.924a.22.22 0 0 1 .219.126l144.215 327.093a.2.2 0 0 1-.058.238L227.829 521.233a.23.23 0 0 1-.255.021m-317.11-183.938 317.2 183.504 280.093-231.882L363.665-37.876-5.482-7.977zM70.097 427.43a.2.2 0 0 1-.087-.097L-45.83 164.597a.2.2 0 0 1 .057-.238L179.402-22.057a.23.23 0 0 1 .255-.02l255.006 147.523c.08.047.12.138.099.226l-67.573 277.591a.215.215 0 0 1-.193.16L70.228 427.459a.2.2 0 0 1-.13-.029M-45.369 164.575 70.35 427.032l296.453-24.011 67.501-277.297L179.567-21.643zM217.663 413.81 14.039 296.011a.204.204 0 0 1-.1-.225L67.898 74.128a.21.21 0 0 1 .193-.16l236.972-19.193a.22.22 0 0 1 .218.126l92.499 209.796a.2.2 0 0 1-.058.238L217.917 413.789a.22.22 0 0 1-.254.021M14.399 295.733l203.353 117.643 179.565-148.657-92.376-209.517L68.285 74.37zm102.259 57.899a.2.2 0 0 1-.088-.097l-74.3-168.518a.2.2 0 0 1 .059-.237L186.755 65.213a.22.22 0 0 1 .254-.02l163.56 94.62c.08.047.12.138.099.226l-43.341 178.046a.215.215 0 0 1-.193.159l-190.346 15.417a.22.22 0 0 1-.13-.029M42.732 184.995l74.177 168.239 190.031-15.391 43.269-177.752L186.92 65.626zm168.545 158.552-129.314-74.81a.2.2 0 0 1-.099-.225l34.266-140.767a.21.21 0 0 1 .193-.159l150.491-12.189a.22.22 0 0 1 .219.126l58.742 133.233a.2.2 0 0 1-.058.238l-114.186 94.532a.225.225 0 0 1-.254.021M82.323 268.46l129.043 74.653 113.947-94.334-58.619-132.955-150.177 12.163zm64.809 36.87a.2.2 0 0 1-.088-.097L99.86 198.214a.2.2 0 0 1 .058-.238l91.719-75.932a.22.22 0 0 1 .254-.021l103.871 60.09c.08.047.12.138.099.226l-27.524 113.07a.21.21 0 0 1-.193.159l-120.881 9.791a.23.23 0 0 1-.131-.029m-46.811-107.139 47.062 106.741 120.567-9.765 27.452-112.776-103.6-59.934zm106.918 101.591-82.941-47.983a.2.2 0 0 1-.099-.225l21.978-90.287a.215.215 0 0 1 .193-.16l96.524-7.817a.22.22 0 0 1 .219.126l37.677 85.455a.2.2 0 0 1-.058.238l-73.238 60.632a.225.225 0 0 1-.255.021m-82.581-48.26 82.671 47.826 72.999-60.434-37.554-85.177-96.21 7.792zm41.439 23.748a.2.2 0 0 1-.088-.097l-30.264-68.642a.2.2 0 0 1 .058-.237l58.829-48.703a.225.225 0 0 1 .254-.021l66.622 38.542a.2.2 0 0 1 .099.225l-17.654 72.523a.21.21 0 0 1-.192.16l-77.533 6.279a.23.23 0 0 1-.131-.029m-29.89-68.761 30.141 68.363 77.218-6.254 17.582-72.228-66.351-38.386z"/><path fill="#ABABAB" fill-rule="evenodd" d="m227.574 521.254-317.47-183.66a.205.205 0 0 1-.098-.226L-5.87-8.219a.215.215 0 0 1 .193-.16l369.461-29.924a.22.22 0 0 1 .219.126l144.215 327.093a.2.2 0 0 1-.058.238L227.829 521.233a.23.23 0 0 1-.255.021m-317.11-183.938 317.2 183.504 280.093-231.882L363.665-37.876-5.482-7.977zM70.097 427.43a.2.2 0 0 1-.087-.097L-45.83 164.597a.2.2 0 0 1 .057-.238L179.402-22.057a.23.23 0 0 1 .255-.02l255.006 147.523c.08.047.12.138.099.226l-67.573 277.591a.215.215 0 0 1-.193.16L70.228 427.459a.2.2 0 0 1-.13-.029M-45.369 164.575 70.35 427.032l296.453-24.011 67.501-277.297L179.567-21.643zM217.663 413.81 14.039 296.011a.204.204 0 0 1-.1-.225L67.898 74.128a.21.21 0 0 1 .193-.16l236.972-19.193a.22.22 0 0 1 .218.126l92.499 209.796a.2.2 0 0 1-.058.238L217.917 413.789a.22.22 0 0 1-.254.021M14.399 295.733l203.353 117.643 179.565-148.657-92.376-209.517L68.285 74.37zm102.259 57.899a.2.2 0 0 1-.088-.097l-74.3-168.518a.2.2 0 0 1 .059-.237L186.755 65.213a.22.22 0 0 1 .254-.02l163.56 94.62c.08.047.12.138.099.226l-43.341 178.046a.215.215 0 0 1-.193.159l-190.346 15.417a.22.22 0 0 1-.13-.029M42.732 184.995l74.177 168.239 190.031-15.391 43.269-177.752L186.92 65.626zm168.545 158.552-129.314-74.81a.2.2 0 0 1-.099-.225l34.266-140.767a.21.21 0 0 1 .193-.159l150.491-12.189a.22.22 0 0 1 .219.126l58.742 133.233a.2.2 0 0 1-.058.238l-114.186 94.532a.225.225 0 0 1-.254.021M82.323 268.46l129.043 74.653 113.947-94.334-58.619-132.955-150.177 12.163zm64.809 36.87a.2.2 0 0 1-.088-.097L99.86 198.214a.2.2 0 0 1 .058-.238l91.719-75.932a.22.22 0 0 1 .254-.021l103.871 60.09c.08.047.12.138.099.226l-27.524 113.07a.21.21 0 0 1-.193.159l-120.881 9.791a.23.23 0 0 1-.131-.029m-46.811-107.139 47.062 106.741 120.567-9.765 27.452-112.776-103.6-59.934zm106.918 101.591-82.941-47.983a.2.2 0 0 1-.099-.225l21.978-90.287a.215.215 0 0 1 .193-.16l96.524-7.817a.22.22 0 0 1 .219.126l37.677 85.455a.2.2 0 0 1-.058.238l-73.238 60.632a.225.225 0 0 1-.255.021m-82.581-48.26 82.671 47.826 72.999-60.434-37.554-85.177-96.21 7.792zm41.439 23.748a.2.2 0 0 1-.088-.097l-30.264-68.642a.2.2 0 0 1 .058-.237l58.829-48.703a.225.225 0 0 1 .254-.021l66.622 38.542a.2.2 0 0 1 .099.225l-17.654 72.523a.21.21 0 0 1-.192.16l-77.533 6.279a.23.23 0 0 1-.131-.029m-29.89-68.761 30.141 68.363 77.218-6.254 17.582-72.228-66.351-38.386z" clip-rule="evenodd"/><path fill="#ABABAB" d="m227.574 521.254-317.47-183.66a.205.205 0 0 1-.098-.226L-5.87-8.219a.215.215 0 0 1 .193-.16l369.461-29.924a.22.22 0 0 1 .219.126l144.215 327.093a.2.2 0 0 1-.058.238L227.829 521.233a.23.23 0 0 1-.255.021m-317.11-183.938 317.2 183.504 280.093-231.882L363.665-37.876-5.482-7.977zM70.097 427.43a.2.2 0 0 1-.087-.097L-45.83 164.597a.2.2 0 0 1 .057-.238L179.402-22.057a.23.23 0 0 1 .255-.02l255.006 147.523c.08.047.12.138.099.226l-67.573 277.591a.215.215 0 0 1-.193.16L70.228 427.459a.2.2 0 0 1-.13-.029M-45.369 164.575 70.35 427.032l296.453-24.011 67.501-277.297L179.567-21.643zM217.663 413.81 14.039 296.011a.204.204 0 0 1-.1-.225L67.898 74.128a.21.21 0 0 1 .193-.16l236.972-19.193a.22.22 0 0 1 .218.126l92.499 209.796a.2.2 0 0 1-.058.238L217.917 413.789a.22.22 0 0 1-.254.021M14.399 295.733l203.353 117.643 179.565-148.657-92.376-209.517L68.285 74.37zm102.259 57.899a.2.2 0 0 1-.088-.097l-74.3-168.518a.2.2 0 0 1 .059-.237L186.755 65.213a.22.22 0 0 1 .254-.02l163.56 94.62c.08.047.12.138.099.226l-43.341 178.046a.215.215 0 0 1-.193.159l-190.346 15.417a.22.22 0 0 1-.13-.029M42.732 184.995l74.177 168.239 190.031-15.391 43.269-177.752L186.92 65.626zm168.545 158.552-129.314-74.81a.2.2 0 0 1-.099-.225l34.266-140.767a.21.21 0 0 1 .193-.159l150.491-12.189a.22.22 0 0 1 .219.126l58.742 133.233a.2.2 0 0 1-.058.238l-114.186 94.532a.225.225 0 0 1-.254.021M82.323 268.46l129.043 74.653 113.947-94.334-58.619-132.955-150.177 12.163zm64.809 36.87a.2.2 0 0 1-.088-.097L99.86 198.214a.2.2 0 0 1 .058-.238l91.719-75.932a.22.22 0 0 1 .254-.021l103.871 60.09c.08.047.12.138.099.226l-27.524 113.07a.21.21 0 0 1-.193.159l-120.881 9.791a.23.23 0 0 1-.131-.029m-46.811-107.139 47.062 106.741 120.567-9.765 27.452-112.776-103.6-59.934zm106.918 101.591-82.941-47.983a.2.2 0 0 1-.099-.225l21.978-90.287a.215.215 0 0 1 .193-.16l96.524-7.817a.22.22 0 0 1 .219.126l37.677 85.455a.2.2 0 0 1-.058.238l-73.238 60.632a.225.225 0 0 1-.255.021m-82.581-48.26 82.671 47.826 72.999-60.434-37.554-85.177-96.21 7.792zm41.439 23.748a.2.2 0 0 1-.088-.097l-30.264-68.642a.2.2 0 0 1 .058-.237l58.829-48.703a.225.225 0 0 1 .254-.021l66.622 38.542a.2.2 0 0 1 .099.225l-17.654 72.523a.21.21 0 0 1-.192.16l-77.533 6.279a.23.23 0 0 1-.131-.029m-29.89-68.761 30.141 68.363 77.218-6.254 17.582-72.228-66.351-38.386z"/><path fill="#ABABAB" fill-rule="evenodd" d="m227.574 521.254-317.47-183.66a.205.205 0 0 1-.098-.226L-5.87-8.219a.215.215 0 0 1 .193-.16l369.461-29.924a.22.22 0 0 1 .219.126l144.215 327.093a.2.2 0 0 1-.058.238L227.829 521.233a.23.23 0 0 1-.255.021m-317.11-183.938 317.2 183.504 280.093-231.882L363.665-37.876-5.482-7.977zM70.097 427.43a.2.2 0 0 1-.087-.097L-45.83 164.597a.2.2 0 0 1 .057-.238L179.402-22.057a.23.23 0 0 1 .255-.02l255.006 147.523c.08.047.12.138.099.226l-67.573 277.591a.215.215 0 0 1-.193.16L70.228 427.459a.2.2 0 0 1-.13-.029M-45.369 164.575 70.35 427.032l296.453-24.011 67.501-277.297L179.567-21.643zM217.663 413.81 14.039 296.011a.204.204 0 0 1-.1-.225L67.898 74.128a.21.21 0 0 1 .193-.16l236.972-19.193a.22.22 0 0 1 .218.126l92.499 209.796a.2.2 0 0 1-.058.238L217.917 413.789a.22.22 0 0 1-.254.021M14.399 295.733l203.353 117.643 179.565-148.657-92.376-209.517L68.285 74.37zm102.259 57.899a.2.2 0 0 1-.088-.097l-74.3-168.518a.2.2 0 0 1 .059-.237L186.755 65.213a.22.22 0 0 1 .254-.02l163.56 94.62c.08.047.12.138.099.226l-43.341 178.046a.215.215 0 0 1-.193.159l-190.346 15.417a.22.22 0 0 1-.13-.029M42.732 184.995l74.177 168.239 190.031-15.391 43.269-177.752L186.92 65.626zm168.545 158.552-129.314-74.81a.2.2 0 0 1-.099-.225l34.266-140.767a.21.21 0 0 1 .193-.159l150.491-12.189a.22.22 0 0 1 .219.126l58.742 133.233a.2.2 0 0 1-.058.238l-114.186 94.532a.225.225 0 0 1-.254.021M82.323 268.46l129.043 74.653 113.947-94.334-58.619-132.955-150.177 12.163zm64.809 36.87a.2.2 0 0 1-.088-.097L99.86 198.214a.2.2 0 0 1 .058-.238l91.719-75.932a.22.22 0 0 1 .254-.021l103.871 60.09c.08.047.12.138.099.226l-27.524 113.07a.21.21 0 0 1-.193.159l-120.881 9.791a.23.23 0 0 1-.131-.029m-46.811-107.139 47.062 106.741 120.567-9.765 27.452-112.776-103.6-59.934zm106.918 101.591-82.941-47.983a.2.2 0 0 1-.099-.225l21.978-90.287a.215.215 0 0 1 .193-.16l96.524-7.817a.22.22 0 0 1 .219.126l37.677 85.455a.2.2 0 0 1-.058.238l-73.238 60.632a.225.225 0 0 1-.255.021m-82.581-48.26 82.671 47.826 72.999-60.434-37.554-85.177-96.21 7.792zm41.439 23.748a.2.2 0 0 1-.088-.097l-30.264-68.642a.2.2 0 0 1 .058-.237l58.829-48.703a.225.225 0 0 1 .254-.021l66.622 38.542a.2.2 0 0 1 .099.225l-17.654 72.523a.21.21 0 0 1-.192.16l-77.533 6.279a.23.23 0 0 1-.131-.029m-29.89-68.761 30.141 68.363 77.218-6.254 17.582-72.228-66.351-38.386z" clip-rule="evenodd"/><path fill="#ABABAB" d="m227.574 521.254-317.47-183.66a.205.205 0 0 1-.098-.226L-5.87-8.219a.215.215 0 0 1 .193-.16l369.461-29.924a.22.22 0 0 1 .219.126l144.215 327.093a.2.2 0 0 1-.058.238L227.829 521.233a.23.23 0 0 1-.255.021m-317.11-183.938 317.2 183.504 280.093-231.882L363.665-37.876-5.482-7.977zM70.097 427.43a.2.2 0 0 1-.087-.097L-45.83 164.597a.2.2 0 0 1 .057-.238L179.402-22.057a.23.23 0 0 1 .255-.02l255.006 147.523c.08.047.12.138.099.226l-67.573 277.591a.215.215 0 0 1-.193.16L70.228 427.459a.2.2 0 0 1-.13-.029M-45.369 164.575 70.35 427.032l296.453-24.011 67.501-277.297L179.567-21.643zM217.663 413.81 14.039 296.011a.204.204 0 0 1-.1-.225L67.898 74.128a.21.21 0 0 1 .193-.16l236.972-19.193a.22.22 0 0 1 .218.126l92.499 209.796a.2.2 0 0 1-.058.238L217.917 413.789a.22.22 0 0 1-.254.021M14.399 295.733l203.353 117.643 179.565-148.657-92.376-209.517L68.285 74.37zm102.259 57.899a.2.2 0 0 1-.088-.097l-74.3-168.518a.2.2 0 0 1 .059-.237L186.755 65.213a.22.22 0 0 1 .254-.02l163.56 94.62c.08.047.12.138.099.226l-43.341 178.046a.215.215 0 0 1-.193.159l-190.346 15.417a.22.22 0 0 1-.13-.029M42.732 184.995l74.177 168.239 190.031-15.391 43.269-177.752L186.92 65.626zm168.545 158.552-129.314-74.81a.2.2 0 0 1-.099-.225l34.266-140.767a.21.21 0 0 1 .193-.159l150.491-12.189a.22.22 0 0 1 .219.126l58.742 133.233a.2.2 0 0 1-.058.238l-114.186 94.532a.225.225 0 0 1-.254.021M82.323 268.46l129.043 74.653 113.947-94.334-58.619-132.955-150.177 12.163zm64.809 36.87a.2.2 0 0 1-.088-.097L99.86 198.214a.2.2 0 0 1 .058-.238l91.719-75.932a.22.22 0 0 1 .254-.021l103.871 60.09c.08.047.12.138.099.226l-27.524 113.07a.21.21 0 0 1-.193.159l-120.881 9.791a.23.23 0 0 1-.131-.029m-46.811-107.139 47.062 106.741 120.567-9.765 27.452-112.776-103.6-59.934zm106.918 101.591-82.941-47.983a.2.2 0 0 1-.099-.225l21.978-90.287a.215.215 0 0 1 .193-.16l96.524-7.817a.22.22 0 0 1 .219.126l37.677 85.455a.2.2 0 0 1-.058.238l-73.238 60.632a.225.225 0 0 1-.255.021m-82.581-48.26 82.671 47.826 72.999-60.434-37.554-85.177-96.21 7.792zm41.439 23.748a.2.2 0 0 1-.088-.097l-30.264-68.642a.2.2 0 0 1 .058-.237l58.829-48.703a.225.225 0 0 1 .254-.021l66.622 38.542a.2.2 0 0 1 .099.225l-17.654 72.523a.21.21 0 0 1-.192.16l-77.533 6.279a.23.23 0 0 1-.131-.029m-29.89-68.761 30.141 68.363 77.218-6.254 17.582-72.228-66.351-38.386z"/><path fill="#ABABAB" fill-rule="evenodd" d="m227.574 521.254-317.47-183.66a.205.205 0 0 1-.098-.226L-5.87-8.219a.215.215 0 0 1 .193-.16l369.461-29.924a.22.22 0 0 1 .219.126l144.215 327.093a.2.2 0 0 1-.058.238L227.829 521.233a.23.23 0 0 1-.255.021m-317.11-183.938 317.2 183.504 280.093-231.882L363.665-37.876-5.482-7.977zM70.097 427.43a.2.2 0 0 1-.087-.097L-45.83 164.597a.2.2 0 0 1 .057-.238L179.402-22.057a.23.23 0 0 1 .255-.02l255.006 147.523c.08.047.12.138.099.226l-67.573 277.591a.215.215 0 0 1-.193.16L70.228 427.459a.2.2 0 0 1-.13-.029M-45.369 164.575 70.35 427.032l296.453-24.011 67.501-277.297L179.567-21.643zM217.663 413.81 14.039 296.011a.204.204 0 0 1-.1-.225L67.898 74.128a.21.21 0 0 1 .193-.16l236.972-19.193a.22.22 0 0 1 .218.126l92.499 209.796a.2.2 0 0 1-.058.238L217.917 413.789a.22.22 0 0 1-.254.021M14.399 295.733l203.353 117.643 179.565-148.657-92.376-209.517L68.285 74.37zm102.259 57.899a.2.2 0 0 1-.088-.097l-74.3-168.518a.2.2 0 0 1 .059-.237L186.755 65.213a.22.22 0 0 1 .254-.02l163.56 94.62c.08.047.12.138.099.226l-43.341 178.046a.215.215 0 0 1-.193.159l-190.346 15.417a.22.22 0 0 1-.13-.029M42.732 184.995l74.177 168.239 190.031-15.391 43.269-177.752L186.92 65.626zm168.545 158.552-129.314-74.81a.2.2 0 0 1-.099-.225l34.266-140.767a.21.21 0 0 1 .193-.159l150.491-12.189a.22.22 0 0 1 .219.126l58.742 133.233a.2.2 0 0 1-.058.238l-114.186 94.532a.225.225 0 0 1-.254.021M82.323 268.46l129.043 74.653 113.947-94.334-58.619-132.955-150.177 12.163zm64.809 36.87a.2.2 0 0 1-.088-.097L99.86 198.214a.2.2 0 0 1 .058-.238l91.719-75.932a.22.22 0 0 1 .254-.021l103.871 60.09c.08.047.12.138.099.226l-27.524 113.07a.21.21 0 0 1-.193.159l-120.881 9.791a.23.23 0 0 1-.131-.029m-46.811-107.139 47.062 106.741 120.567-9.765 27.452-112.776-103.6-59.934zm106.918 101.591-82.941-47.983a.2.2 0 0 1-.099-.225l21.978-90.287a.215.215 0 0 1 .193-.16l96.524-7.817a.22.22 0 0 1 .219.126l37.677 85.455a.2.2 0 0 1-.058.238l-73.238 60.632a.225.225 0 0 1-.255.021m-82.581-48.26 82.671 47.826 72.999-60.434-37.554-85.177-96.21 7.792zm41.439 23.748a.2.2 0 0 1-.088-.097l-30.264-68.642a.2.2 0 0 1 .058-.237l58.829-48.703a.225.225 0 0 1 .254-.021l66.622 38.542a.2.2 0 0 1 .099.225l-17.654 72.523a.21.21 0 0 1-.192.16l-77.533 6.279a.23.23 0 0 1-.131-.029m-29.89-68.761 30.141 68.363 77.218-6.254 17.582-72.228-66.351-38.386z" clip-rule="evenodd"/><path fill="#3242F5" fill-rule="evenodd" d="M225.096 141.315h-25.034v8.345l6.858-3.13h18.176zM173.992 154.875h25.033v-8.345l-6.858 3.13h-18.175zM235.526 348.361h-35.464v-8.344l6.858 3.129h28.606zM186.5 182.515h12.517v3.65H186.5zM200.062 191.904h12.517v5.215h-12.517zM187.531 282.128h12.517v3.65h-12.517zM200.062 293.079h12.517v5.215h-12.517z" clip-rule="evenodd"/><path fill="#3242F5" fill-rule="evenodd" d="M200.051 134.014v78.228h-1.043v-78.228zM200.051 252.4v127.252h-1.043V252.4zM200.051-3.669v108.477h-1.043V-3.669z" clip-rule="evenodd"/><path fill="#3242F5" fill-rule="evenodd" d="M163.555 58.394h35.463v8.344l-6.858-3.13h-28.605z" clip-rule="evenodd"/><path fill="#3241F4" d="M188.981 237.544v-12.327h2.851v.944h-1.772V236.6h1.772v.944zm12.406-6.76v1.059h-4.315v-1.059zm8.086-5.567v12.327h-2.851v-.944h1.772v-10.439h-1.772v-.944z"/><path fill="url(#b)" d="M0 165.663h390V429H0z"/></g><defs><linearGradient id="b" x1="195" x2="195" y1="165.663" y2="229.079" gradientUnits="userSpaceOnUse"><stop stop-color="#fff" stop-opacity="0"/><stop offset="1" stop-color="#fff"/></linearGradient></defs></svg>