<svg xmlns="http://www.w3.org/2000/svg" width="1148" height="1155" fill="none"><path fill="#ABABAB" d="M608.936 1120.45.201 752.689a.42.42 0 0 1-.19-.452L161.317 60.241a.42.42 0 0 1 .371-.32L870.115 0a.42.42 0 0 1 .419.253l276.526 654.964c.07.166.02.358-.11.477L609.423 1120.41a.43.43 0 0 1-.487.04M.891 752.133l608.216 367.447 537.063-464.317L869.884.856 162.06 60.726zM306.98 932.576a.4.4 0 0 1-.168-.194L84.693 406.285a.42.42 0 0 1 .111-.476L516.568 32.532a.42.42 0 0 1 .487-.041L1006.02 327.89c.15.093.23.276.19.451L876.641 884.185a.42.42 0 0 1-.37.32l-569.04 48.13a.4.4 0 0 1-.251-.059M85.578 406.241 307.462 931.78l568.437-48.079 129.431-555.255L516.884 33.36zM589.93 905.304 199.491 669.425a.42.42 0 0 1-.191-.451L302.762 225.13a.415.415 0 0 1 .37-.32l454.382-38.432a.42.42 0 0 1 .419.253l177.362 420.091a.42.42 0 0 1-.111.477L590.418 905.262a.42.42 0 0 1-.488.042M200.18 668.869l389.922 235.565L934.41 606.767 757.283 187.233l-453.779 38.382zm196.077 115.936a.42.42 0 0 1-.168-.196L253.623 447.174a.42.42 0 0 1 .112-.476l276.931-239.419a.42.42 0 0 1 .487-.041l313.619 189.468a.42.42 0 0 1 .19.451l-83.105 356.515a.41.41 0 0 1-.37.32l-364.979 30.871a.43.43 0 0 1-.251-.058M254.509 447.129l142.23 336.879 364.376-30.82 82.967-355.926-313.1-189.155zm323.176 317.48L329.732 614.813a.42.42 0 0 1-.19-.452l65.704-281.867a.42.42 0 0 1 .37-.32l288.561-24.407a.42.42 0 0 1 .419.253l112.635 266.783a.42.42 0 0 1-.111.477L578.173 764.568a.42.42 0 0 1-.488.041M330.422 614.257l247.435 149.484 218.489-188.893-112.4-266.226-287.958 24.356zm124.269 73.828a.4.4 0 0 1-.168-.194l-90.475-214.293a.415.415 0 0 1 .111-.476l175.868-152.046a.42.42 0 0 1 .488-.041l199.167 120.324c.154.093.23.275.19.451l-52.776 226.409a.42.42 0 0 1-.37.32l-231.784 19.605a.4.4 0 0 1-.251-.059m-89.758-214.532 90.239 213.735 231.181-19.553 52.639-225.82-198.649-120.011zm205.011 203.423-159.037-96.079a.42.42 0 0 1-.19-.451l42.143-180.789a.415.415 0 0 1 .37-.32l185.081-15.654a.42.42 0 0 1 .419.253l72.244 171.114a.415.415 0 0 1-.111.476L570.432 676.935a.42.42 0 0 1-.488.041m-158.347-96.635 158.518 95.766 139.974-121.013-72.008-170.556-184.479 15.603zm79.459 47.553a.42.42 0 0 1-.169-.195l-58.03-137.446a.41.41 0 0 1 .111-.476l112.801-97.521a.42.42 0 0 1 .488-.042l127.745 77.176a.415.415 0 0 1 .19.451l-33.85 145.217a.42.42 0 0 1-.37.32l-148.665 12.574a.4.4 0 0 1-.251-.058m-57.314-137.686 57.795 136.889L639.6 614.574l33.712-144.628-127.226-76.863z"/><path fill="#ABABAB" fill-rule="evenodd" d="M608.936 1120.45.201 752.689a.42.42 0 0 1-.19-.452L161.317 60.241a.42.42 0 0 1 .371-.32L870.115 0a.42.42 0 0 1 .419.253l276.526 654.964c.07.166.02.358-.11.477L609.423 1120.41a.43.43 0 0 1-.487.04M.891 752.133l608.216 367.447 537.063-464.317L869.884.856 162.06 60.726zM306.98 932.576a.4.4 0 0 1-.168-.194L84.693 406.285a.42.42 0 0 1 .111-.476L516.568 32.532a.42.42 0 0 1 .487-.041L1006.02 327.89c.15.093.23.276.19.451L876.641 884.185a.42.42 0 0 1-.37.32l-569.04 48.13a.4.4 0 0 1-.251-.059M85.578 406.241 307.462 931.78l568.437-48.079 129.431-555.255L516.884 33.36zM589.93 905.304 199.491 669.425a.42.42 0 0 1-.191-.451L302.762 225.13a.415.415 0 0 1 .37-.32l454.382-38.432a.42.42 0 0 1 .419.253l177.362 420.091a.42.42 0 0 1-.111.477L590.418 905.262a.42.42 0 0 1-.488.042M200.18 668.869l389.922 235.565L934.41 606.767 757.283 187.233l-453.779 38.382zm196.077 115.936a.42.42 0 0 1-.168-.196L253.623 447.174a.42.42 0 0 1 .112-.476l276.931-239.419a.42.42 0 0 1 .487-.041l313.619 189.468a.42.42 0 0 1 .19.451l-83.105 356.515a.41.41 0 0 1-.37.32l-364.979 30.871a.43.43 0 0 1-.251-.058M254.509 447.129l142.23 336.879 364.376-30.82 82.967-355.926-313.1-189.155zm323.176 317.48L329.732 614.813a.42.42 0 0 1-.19-.452l65.704-281.867a.42.42 0 0 1 .37-.32l288.561-24.407a.42.42 0 0 1 .419.253l112.635 266.783a.42.42 0 0 1-.111.477L578.173 764.568a.42.42 0 0 1-.488.041M330.422 614.257l247.435 149.484 218.489-188.893-112.4-266.226-287.958 24.356zm124.269 73.828a.4.4 0 0 1-.168-.194l-90.475-214.293a.415.415 0 0 1 .111-.476l175.868-152.046a.42.42 0 0 1 .488-.041l199.167 120.324c.154.093.23.275.19.451l-52.776 226.409a.42.42 0 0 1-.37.32l-231.784 19.605a.4.4 0 0 1-.251-.059m-89.758-214.532 90.239 213.735 231.181-19.553 52.639-225.82-198.649-120.011zm205.011 203.423-159.037-96.079a.42.42 0 0 1-.19-.451l42.143-180.789a.415.415 0 0 1 .37-.32l185.081-15.654a.42.42 0 0 1 .419.253l72.244 171.114a.415.415 0 0 1-.111.476L570.432 676.935a.42.42 0 0 1-.488.041m-158.347-96.635 158.518 95.766 139.974-121.013-72.008-170.556-184.479 15.603zm79.459 47.553a.42.42 0 0 1-.169-.195l-58.03-137.446a.41.41 0 0 1 .111-.476l112.801-97.521a.42.42 0 0 1 .488-.042l127.745 77.176a.415.415 0 0 1 .19.451l-33.85 145.217a.42.42 0 0 1-.37.32l-148.665 12.574a.4.4 0 0 1-.251-.058m-57.314-137.686 57.795 136.889L639.6 614.574l33.712-144.628-127.226-76.863z" clip-rule="evenodd"/><path fill="#ABABAB" d="M608.936 1120.45.201 752.689a.42.42 0 0 1-.19-.452L161.317 60.241a.42.42 0 0 1 .371-.32L870.115 0a.42.42 0 0 1 .419.253l276.526 654.964c.07.166.02.358-.11.477L609.423 1120.41a.43.43 0 0 1-.487.04M.891 752.133l608.216 367.447 537.063-464.317L869.884.856 162.06 60.726zM306.98 932.576a.4.4 0 0 1-.168-.194L84.693 406.285a.42.42 0 0 1 .111-.476L516.568 32.532a.42.42 0 0 1 .487-.041L1006.02 327.89c.15.093.23.276.19.451L876.641 884.185a.42.42 0 0 1-.37.32l-569.04 48.13a.4.4 0 0 1-.251-.059M85.578 406.241 307.462 931.78l568.437-48.079 129.431-555.255L516.884 33.36zM589.93 905.304 199.491 669.425a.42.42 0 0 1-.191-.451L302.762 225.13a.415.415 0 0 1 .37-.32l454.382-38.432a.42.42 0 0 1 .419.253l177.362 420.091a.42.42 0 0 1-.111.477L590.418 905.262a.42.42 0 0 1-.488.042M200.18 668.869l389.922 235.565L934.41 606.767 757.283 187.233l-453.779 38.382zm196.077 115.936a.42.42 0 0 1-.168-.196L253.623 447.174a.42.42 0 0 1 .112-.476l276.931-239.419a.42.42 0 0 1 .487-.041l313.619 189.468a.42.42 0 0 1 .19.451l-83.105 356.515a.41.41 0 0 1-.37.32l-364.979 30.871a.43.43 0 0 1-.251-.058M254.509 447.129l142.23 336.879 364.376-30.82 82.967-355.926-313.1-189.155zm323.176 317.48L329.732 614.813a.42.42 0 0 1-.19-.452l65.704-281.867a.42.42 0 0 1 .37-.32l288.561-24.407a.42.42 0 0 1 .419.253l112.635 266.783a.42.42 0 0 1-.111.477L578.173 764.568a.42.42 0 0 1-.488.041M330.422 614.257l247.435 149.484 218.489-188.893-112.4-266.226-287.958 24.356zm124.269 73.828a.4.4 0 0 1-.168-.194l-90.475-214.293a.415.415 0 0 1 .111-.476l175.868-152.046a.42.42 0 0 1 .488-.041l199.167 120.324c.154.093.23.275.19.451l-52.776 226.409a.42.42 0 0 1-.37.32l-231.784 19.605a.4.4 0 0 1-.251-.059m-89.758-214.532 90.239 213.735 231.181-19.553 52.639-225.82-198.649-120.011zm205.011 203.423-159.037-96.079a.42.42 0 0 1-.19-.451l42.143-180.789a.415.415 0 0 1 .37-.32l185.081-15.654a.42.42 0 0 1 .419.253l72.244 171.114a.415.415 0 0 1-.111.476L570.432 676.935a.42.42 0 0 1-.488.041m-158.347-96.635 158.518 95.766 139.974-121.013-72.008-170.556-184.479 15.603zm79.459 47.553a.42.42 0 0 1-.169-.195l-58.03-137.446a.41.41 0 0 1 .111-.476l112.801-97.521a.42.42 0 0 1 .488-.042l127.745 77.176a.415.415 0 0 1 .19.451l-33.85 145.217a.42.42 0 0 1-.37.32l-148.665 12.574a.4.4 0 0 1-.251-.058m-57.314-137.686 57.795 136.889L639.6 614.574l33.712-144.628-127.226-76.863z"/><path fill="#ABABAB" fill-rule="evenodd" d="M608.936 1120.45.201 752.689a.42.42 0 0 1-.19-.452L161.317 60.241a.42.42 0 0 1 .371-.32L870.115 0a.42.42 0 0 1 .419.253l276.526 654.964c.07.166.02.358-.11.477L609.423 1120.41a.43.43 0 0 1-.487.04M.891 752.133l608.216 367.447 537.063-464.317L869.884.856 162.06 60.726zM306.98 932.576a.4.4 0 0 1-.168-.194L84.693 406.285a.42.42 0 0 1 .111-.476L516.568 32.532a.42.42 0 0 1 .487-.041L1006.02 327.89c.15.093.23.276.19.451L876.641 884.185a.42.42 0 0 1-.37.32l-569.04 48.13a.4.4 0 0 1-.251-.059M85.578 406.241 307.462 931.78l568.437-48.079 129.431-555.255L516.884 33.36zM589.93 905.304 199.491 669.425a.42.42 0 0 1-.191-.451L302.762 225.13a.415.415 0 0 1 .37-.32l454.382-38.432a.42.42 0 0 1 .419.253l177.362 420.091a.42.42 0 0 1-.111.477L590.418 905.262a.42.42 0 0 1-.488.042M200.18 668.869l389.922 235.565L934.41 606.767 757.283 187.233l-453.779 38.382zm196.077 115.936a.42.42 0 0 1-.168-.196L253.623 447.174a.42.42 0 0 1 .112-.476l276.931-239.419a.42.42 0 0 1 .487-.041l313.619 189.468a.42.42 0 0 1 .19.451l-83.105 356.515a.41.41 0 0 1-.37.32l-364.979 30.871a.43.43 0 0 1-.251-.058M254.509 447.129l142.23 336.879 364.376-30.82 82.967-355.926-313.1-189.155zm323.176 317.48L329.732 614.813a.42.42 0 0 1-.19-.452l65.704-281.867a.42.42 0 0 1 .37-.32l288.561-24.407a.42.42 0 0 1 .419.253l112.635 266.783a.42.42 0 0 1-.111.477L578.173 764.568a.42.42 0 0 1-.488.041M330.422 614.257l247.435 149.484 218.489-188.893-112.4-266.226-287.958 24.356zm124.269 73.828a.4.4 0 0 1-.168-.194l-90.475-214.293a.415.415 0 0 1 .111-.476l175.868-152.046a.42.42 0 0 1 .488-.041l199.167 120.324c.154.093.23.275.19.451l-52.776 226.409a.42.42 0 0 1-.37.32l-231.784 19.605a.4.4 0 0 1-.251-.059m-89.758-214.532 90.239 213.735 231.181-19.553 52.639-225.82-198.649-120.011zm205.011 203.423-159.037-96.079a.42.42 0 0 1-.19-.451l42.143-180.789a.415.415 0 0 1 .37-.32l185.081-15.654a.42.42 0 0 1 .419.253l72.244 171.114a.415.415 0 0 1-.111.476L570.432 676.935a.42.42 0 0 1-.488.041m-158.347-96.635 158.518 95.766 139.974-121.013-72.008-170.556-184.479 15.603zm79.459 47.553a.42.42 0 0 1-.169-.195l-58.03-137.446a.41.41 0 0 1 .111-.476l112.801-97.521a.42.42 0 0 1 .488-.042l127.745 77.176a.415.415 0 0 1 .19.451l-33.85 145.217a.42.42 0 0 1-.37.32l-148.665 12.574a.4.4 0 0 1-.251-.058m-57.314-137.686 57.795 136.889L639.6 614.574l33.712-144.628-127.226-76.863z" clip-rule="evenodd"/><path fill="#ABABAB" d="M608.936 1120.45.201 752.689a.42.42 0 0 1-.19-.452L161.317 60.241a.42.42 0 0 1 .371-.32L870.115 0a.42.42 0 0 1 .419.253l276.526 654.964c.07.166.02.358-.11.477L609.423 1120.41a.43.43 0 0 1-.487.04M.891 752.133l608.216 367.447 537.063-464.317L869.884.856 162.06 60.726zM306.98 932.576a.4.4 0 0 1-.168-.194L84.693 406.285a.42.42 0 0 1 .111-.476L516.568 32.532a.42.42 0 0 1 .487-.041L1006.02 327.89c.15.093.23.276.19.451L876.641 884.185a.42.42 0 0 1-.37.32l-569.04 48.13a.4.4 0 0 1-.251-.059M85.578 406.241 307.462 931.78l568.437-48.079 129.431-555.255L516.884 33.36zM589.93 905.304 199.491 669.425a.42.42 0 0 1-.191-.451L302.762 225.13a.415.415 0 0 1 .37-.32l454.382-38.432a.42.42 0 0 1 .419.253l177.362 420.091a.42.42 0 0 1-.111.477L590.418 905.262a.42.42 0 0 1-.488.042M200.18 668.869l389.922 235.565L934.41 606.767 757.283 187.233l-453.779 38.382zm196.077 115.936a.42.42 0 0 1-.168-.196L253.623 447.174a.42.42 0 0 1 .112-.476l276.931-239.419a.42.42 0 0 1 .487-.041l313.619 189.468a.42.42 0 0 1 .19.451l-83.105 356.515a.41.41 0 0 1-.37.32l-364.979 30.871a.43.43 0 0 1-.251-.058M254.509 447.129l142.23 336.879 364.376-30.82 82.967-355.926-313.1-189.155zm323.176 317.48L329.732 614.813a.42.42 0 0 1-.19-.452l65.704-281.867a.42.42 0 0 1 .37-.32l288.561-24.407a.42.42 0 0 1 .419.253l112.635 266.783a.42.42 0 0 1-.111.477L578.173 764.568a.42.42 0 0 1-.488.041M330.422 614.257l247.435 149.484 218.489-188.893-112.4-266.226-287.958 24.356zm124.269 73.828a.4.4 0 0 1-.168-.194l-90.475-214.293a.415.415 0 0 1 .111-.476l175.868-152.046a.42.42 0 0 1 .488-.041l199.167 120.324c.154.093.23.275.19.451l-52.776 226.409a.42.42 0 0 1-.37.32l-231.784 19.605a.4.4 0 0 1-.251-.059m-89.758-214.532 90.239 213.735 231.181-19.553 52.639-225.82-198.649-120.011zm205.011 203.423-159.037-96.079a.42.42 0 0 1-.19-.451l42.143-180.789a.415.415 0 0 1 .37-.32l185.081-15.654a.42.42 0 0 1 .419.253l72.244 171.114a.415.415 0 0 1-.111.476L570.432 676.935a.42.42 0 0 1-.488.041m-158.347-96.635 158.518 95.766 139.974-121.013-72.008-170.556-184.479 15.603zm79.459 47.553a.42.42 0 0 1-.169-.195l-58.03-137.446a.41.41 0 0 1 .111-.476l112.801-97.521a.42.42 0 0 1 .488-.042l127.745 77.176a.415.415 0 0 1 .19.451l-33.85 145.217a.42.42 0 0 1-.37.32l-148.665 12.574a.4.4 0 0 1-.251-.058m-57.314-137.686 57.795 136.889L639.6 614.574l33.712-144.628-127.226-76.863z"/><path fill="#ABABAB" fill-rule="evenodd" d="M608.936 1120.45.201 752.689a.42.42 0 0 1-.19-.452L161.317 60.241a.42.42 0 0 1 .371-.32L870.115 0a.42.42 0 0 1 .419.253l276.526 654.964c.07.166.02.358-.11.477L609.423 1120.41a.43.43 0 0 1-.487.04M.891 752.133l608.216 367.447 537.063-464.317L869.884.856 162.06 60.726zM306.98 932.576a.4.4 0 0 1-.168-.194L84.693 406.285a.42.42 0 0 1 .111-.476L516.568 32.532a.42.42 0 0 1 .487-.041L1006.02 327.89c.15.093.23.276.19.451L876.641 884.185a.42.42 0 0 1-.37.32l-569.04 48.13a.4.4 0 0 1-.251-.059M85.578 406.241 307.462 931.78l568.437-48.079 129.431-555.255L516.884 33.36zM589.93 905.304 199.491 669.425a.42.42 0 0 1-.191-.451L302.762 225.13a.415.415 0 0 1 .37-.32l454.382-38.432a.42.42 0 0 1 .419.253l177.362 420.091a.42.42 0 0 1-.111.477L590.418 905.262a.42.42 0 0 1-.488.042M200.18 668.869l389.922 235.565L934.41 606.767 757.283 187.233l-453.779 38.382zm196.077 115.936a.42.42 0 0 1-.168-.196L253.623 447.174a.42.42 0 0 1 .112-.476l276.931-239.419a.42.42 0 0 1 .487-.041l313.619 189.468a.42.42 0 0 1 .19.451l-83.105 356.515a.41.41 0 0 1-.37.32l-364.979 30.871a.43.43 0 0 1-.251-.058M254.509 447.129l142.23 336.879 364.376-30.82 82.967-355.926-313.1-189.155zm323.176 317.48L329.732 614.813a.42.42 0 0 1-.19-.452l65.704-281.867a.42.42 0 0 1 .37-.32l288.561-24.407a.42.42 0 0 1 .419.253l112.635 266.783a.42.42 0 0 1-.111.477L578.173 764.568a.42.42 0 0 1-.488.041M330.422 614.257l247.435 149.484 218.489-188.893-112.4-266.226-287.958 24.356zm124.269 73.828a.4.4 0 0 1-.168-.194l-90.475-214.293a.415.415 0 0 1 .111-.476l175.868-152.046a.42.42 0 0 1 .488-.041l199.167 120.324c.154.093.23.275.19.451l-52.776 226.409a.42.42 0 0 1-.37.32l-231.784 19.605a.4.4 0 0 1-.251-.059m-89.758-214.532 90.239 213.735 231.181-19.553 52.639-225.82-198.649-120.011zm205.011 203.423-159.037-96.079a.42.42 0 0 1-.19-.451l42.143-180.789a.415.415 0 0 1 .37-.32l185.081-15.654a.42.42 0 0 1 .419.253l72.244 171.114a.415.415 0 0 1-.111.476L570.432 676.935a.42.42 0 0 1-.488.041m-158.347-96.635 158.518 95.766 139.974-121.013-72.008-170.556-184.479 15.603zm79.459 47.553a.42.42 0 0 1-.169-.195l-58.03-137.446a.41.41 0 0 1 .111-.476l112.801-97.521a.42.42 0 0 1 .488-.042l127.745 77.176a.415.415 0 0 1 .19.451l-33.85 145.217a.42.42 0 0 1-.37.32l-148.665 12.574a.4.4 0 0 1-.251-.058m-57.314-137.686 57.795 136.889L639.6 614.574l33.712-144.628-127.226-76.863z" clip-rule="evenodd"/><path fill="#ABABAB" d="M608.936 1120.45.201 752.689a.42.42 0 0 1-.19-.452L161.317 60.241a.42.42 0 0 1 .371-.32L870.115 0a.42.42 0 0 1 .419.253l276.526 654.964c.07.166.02.358-.11.477L609.423 1120.41a.43.43 0 0 1-.487.04M.891 752.133l608.216 367.447 537.063-464.317L869.884.856 162.06 60.726zM306.98 932.576a.4.4 0 0 1-.168-.194L84.693 406.285a.42.42 0 0 1 .111-.476L516.568 32.532a.42.42 0 0 1 .487-.041L1006.02 327.89c.15.093.23.276.19.451L876.641 884.185a.42.42 0 0 1-.37.32l-569.04 48.13a.4.4 0 0 1-.251-.059M85.578 406.241 307.462 931.78l568.437-48.079 129.431-555.255L516.884 33.36zM589.93 905.304 199.491 669.425a.42.42 0 0 1-.191-.451L302.762 225.13a.415.415 0 0 1 .37-.32l454.382-38.432a.42.42 0 0 1 .419.253l177.362 420.091a.42.42 0 0 1-.111.477L590.418 905.262a.42.42 0 0 1-.488.042M200.18 668.869l389.922 235.565L934.41 606.767 757.283 187.233l-453.779 38.382zm196.077 115.936a.42.42 0 0 1-.168-.196L253.623 447.174a.42.42 0 0 1 .112-.476l276.931-239.419a.42.42 0 0 1 .487-.041l313.619 189.468a.42.42 0 0 1 .19.451l-83.105 356.515a.41.41 0 0 1-.37.32l-364.979 30.871a.43.43 0 0 1-.251-.058M254.509 447.129l142.23 336.879 364.376-30.82 82.967-355.926-313.1-189.155zm323.176 317.48L329.732 614.813a.42.42 0 0 1-.19-.452l65.704-281.867a.42.42 0 0 1 .37-.32l288.561-24.407a.42.42 0 0 1 .419.253l112.635 266.783a.42.42 0 0 1-.111.477L578.173 764.568a.42.42 0 0 1-.488.041M330.422 614.257l247.435 149.484 218.489-188.893-112.4-266.226-287.958 24.356zm124.269 73.828a.4.4 0 0 1-.168-.194l-90.475-214.293a.415.415 0 0 1 .111-.476l175.868-152.046a.42.42 0 0 1 .488-.041l199.167 120.324c.154.093.23.275.19.451l-52.776 226.409a.42.42 0 0 1-.37.32l-231.784 19.605a.4.4 0 0 1-.251-.059m-89.758-214.532 90.239 213.735 231.181-19.553 52.639-225.82-198.649-120.011zm205.011 203.423-159.037-96.079a.42.42 0 0 1-.19-.451l42.143-180.789a.415.415 0 0 1 .37-.32l185.081-15.654a.42.42 0 0 1 .419.253l72.244 171.114a.415.415 0 0 1-.111.476L570.432 676.935a.42.42 0 0 1-.488.041m-158.347-96.635 158.518 95.766 139.974-121.013-72.008-170.556-184.479 15.603zm79.459 47.553a.42.42 0 0 1-.169-.195l-58.03-137.446a.41.41 0 0 1 .111-.476l112.801-97.521a.42.42 0 0 1 .488-.042l127.745 77.176a.415.415 0 0 1 .19.451l-33.85 145.217a.42.42 0 0 1-.37.32l-148.665 12.574a.4.4 0 0 1-.251-.058m-57.314-137.686 57.795 136.889L639.6 614.574l33.712-144.628-127.226-76.863z"/><path fill="#ABABAB" fill-rule="evenodd" d="M608.936 1120.45.201 752.689a.42.42 0 0 1-.19-.452L161.317 60.241a.42.42 0 0 1 .371-.32L870.115 0a.42.42 0 0 1 .419.253l276.526 654.964c.07.166.02.358-.11.477L609.423 1120.41a.43.43 0 0 1-.487.04M.891 752.133l608.216 367.447 537.063-464.317L869.884.856 162.06 60.726zM306.98 932.576a.4.4 0 0 1-.168-.194L84.693 406.285a.42.42 0 0 1 .111-.476L516.568 32.532a.42.42 0 0 1 .487-.041L1006.02 327.89c.15.093.23.276.19.451L876.641 884.185a.42.42 0 0 1-.37.32l-569.04 48.13a.4.4 0 0 1-.251-.059M85.578 406.241 307.462 931.78l568.437-48.079 129.431-555.255L516.884 33.36zM589.93 905.304 199.491 669.425a.42.42 0 0 1-.191-.451L302.762 225.13a.415.415 0 0 1 .37-.32l454.382-38.432a.42.42 0 0 1 .419.253l177.362 420.091a.42.42 0 0 1-.111.477L590.418 905.262a.42.42 0 0 1-.488.042M200.18 668.869l389.922 235.565L934.41 606.767 757.283 187.233l-453.779 38.382zm196.077 115.936a.42.42 0 0 1-.168-.196L253.623 447.174a.42.42 0 0 1 .112-.476l276.931-239.419a.42.42 0 0 1 .487-.041l313.619 189.468a.42.42 0 0 1 .19.451l-83.105 356.515a.41.41 0 0 1-.37.32l-364.979 30.871a.43.43 0 0 1-.251-.058M254.509 447.129l142.23 336.879 364.376-30.82 82.967-355.926-313.1-189.155zm323.176 317.48L329.732 614.813a.42.42 0 0 1-.19-.452l65.704-281.867a.42.42 0 0 1 .37-.32l288.561-24.407a.42.42 0 0 1 .419.253l112.635 266.783a.42.42 0 0 1-.111.477L578.173 764.568a.42.42 0 0 1-.488.041M330.422 614.257l247.435 149.484 218.489-188.893-112.4-266.226-287.958 24.356zm124.269 73.828a.4.4 0 0 1-.168-.194l-90.475-214.293a.415.415 0 0 1 .111-.476l175.868-152.046a.42.42 0 0 1 .488-.041l199.167 120.324c.154.093.23.275.19.451l-52.776 226.409a.42.42 0 0 1-.37.32l-231.784 19.605a.4.4 0 0 1-.251-.059m-89.758-214.532 90.239 213.735 231.181-19.553 52.639-225.82-198.649-120.011zm205.011 203.423-159.037-96.079a.42.42 0 0 1-.19-.451l42.143-180.789a.415.415 0 0 1 .37-.32l185.081-15.654a.42.42 0 0 1 .419.253l72.244 171.114a.415.415 0 0 1-.111.476L570.432 676.935a.42.42 0 0 1-.488.041m-158.347-96.635 158.518 95.766 139.974-121.013-72.008-170.556-184.479 15.603zm79.459 47.553a.42.42 0 0 1-.169-.195l-58.03-137.446a.41.41 0 0 1 .111-.476l112.801-97.521a.42.42 0 0 1 .488-.042l127.745 77.176a.415.415 0 0 1 .19.451l-33.85 145.217a.42.42 0 0 1-.37.32l-148.665 12.574a.4.4 0 0 1-.251-.058m-57.314-137.686 57.795 136.889L639.6 614.574l33.712-144.628-127.226-76.863z" clip-rule="evenodd"/><path fill="#ABABAB" d="M608.936 1120.45.201 752.689a.42.42 0 0 1-.19-.452L161.317 60.241a.42.42 0 0 1 .371-.32L870.115 0a.42.42 0 0 1 .419.253l276.526 654.964c.07.166.02.358-.11.477L609.423 1120.41a.43.43 0 0 1-.487.04M.891 752.133l608.216 367.447 537.063-464.317L869.884.856 162.06 60.726zM306.98 932.576a.4.4 0 0 1-.168-.194L84.693 406.285a.42.42 0 0 1 .111-.476L516.568 32.532a.42.42 0 0 1 .487-.041L1006.02 327.89c.15.093.23.276.19.451L876.641 884.185a.42.42 0 0 1-.37.32l-569.04 48.13a.4.4 0 0 1-.251-.059M85.578 406.241 307.462 931.78l568.437-48.079 129.431-555.255L516.884 33.36zM589.93 905.304 199.491 669.425a.42.42 0 0 1-.191-.451L302.762 225.13a.415.415 0 0 1 .37-.32l454.382-38.432a.42.42 0 0 1 .419.253l177.362 420.091a.42.42 0 0 1-.111.477L590.418 905.262a.42.42 0 0 1-.488.042M200.18 668.869l389.922 235.565L934.41 606.767 757.283 187.233l-453.779 38.382zm196.077 115.936a.42.42 0 0 1-.168-.196L253.623 447.174a.42.42 0 0 1 .112-.476l276.931-239.419a.42.42 0 0 1 .487-.041l313.619 189.468a.42.42 0 0 1 .19.451l-83.105 356.515a.41.41 0 0 1-.37.32l-364.979 30.871a.43.43 0 0 1-.251-.058M254.509 447.129l142.23 336.879 364.376-30.82 82.967-355.926-313.1-189.155zm323.176 317.48L329.732 614.813a.42.42 0 0 1-.19-.452l65.704-281.867a.42.42 0 0 1 .37-.32l288.561-24.407a.42.42 0 0 1 .419.253l112.635 266.783a.42.42 0 0 1-.111.477L578.173 764.568a.42.42 0 0 1-.488.041M330.422 614.257l247.435 149.484 218.489-188.893-112.4-266.226-287.958 24.356zm124.269 73.828a.4.4 0 0 1-.168-.194l-90.475-214.293a.415.415 0 0 1 .111-.476l175.868-152.046a.42.42 0 0 1 .488-.041l199.167 120.324c.154.093.23.275.19.451l-52.776 226.409a.42.42 0 0 1-.37.32l-231.784 19.605a.4.4 0 0 1-.251-.059m-89.758-214.532 90.239 213.735 231.181-19.553 52.639-225.82-198.649-120.011zm205.011 203.423-159.037-96.079a.42.42 0 0 1-.19-.451l42.143-180.789a.415.415 0 0 1 .37-.32l185.081-15.654a.42.42 0 0 1 .419.253l72.244 171.114a.415.415 0 0 1-.111.476L570.432 676.935a.42.42 0 0 1-.488.041m-158.347-96.635 158.518 95.766 139.974-121.013-72.008-170.556-184.479 15.603zm79.459 47.553a.42.42 0 0 1-.169-.195l-58.03-137.446a.41.41 0 0 1 .111-.476l112.801-97.521a.42.42 0 0 1 .488-.042l127.745 77.176a.415.415 0 0 1 .19.451l-33.85 145.217a.42.42 0 0 1-.37.32l-148.665 12.574a.4.4 0 0 1-.251-.058m-57.314-137.686 57.795 136.889L639.6 614.574l33.712-144.628-127.226-76.863z"/><path fill="#ABABAB" fill-rule="evenodd" d="M608.936 1120.45.201 752.689a.42.42 0 0 1-.19-.452L161.317 60.241a.42.42 0 0 1 .371-.32L870.115 0a.42.42 0 0 1 .419.253l276.526 654.964c.07.166.02.358-.11.477L609.423 1120.41a.43.43 0 0 1-.487.04M.891 752.133l608.216 367.447 537.063-464.317L869.884.856 162.06 60.726zM306.98 932.576a.4.4 0 0 1-.168-.194L84.693 406.285a.42.42 0 0 1 .111-.476L516.568 32.532a.42.42 0 0 1 .487-.041L1006.02 327.89c.15.093.23.276.19.451L876.641 884.185a.42.42 0 0 1-.37.32l-569.04 48.13a.4.4 0 0 1-.251-.059M85.578 406.241 307.462 931.78l568.437-48.079 129.431-555.255L516.884 33.36zM589.93 905.304 199.491 669.425a.42.42 0 0 1-.191-.451L302.762 225.13a.415.415 0 0 1 .37-.32l454.382-38.432a.42.42 0 0 1 .419.253l177.362 420.091a.42.42 0 0 1-.111.477L590.418 905.262a.42.42 0 0 1-.488.042M200.18 668.869l389.922 235.565L934.41 606.767 757.283 187.233l-453.779 38.382zm196.077 115.936a.42.42 0 0 1-.168-.196L253.623 447.174a.42.42 0 0 1 .112-.476l276.931-239.419a.42.42 0 0 1 .487-.041l313.619 189.468a.42.42 0 0 1 .19.451l-83.105 356.515a.41.41 0 0 1-.37.32l-364.979 30.871a.43.43 0 0 1-.251-.058M254.509 447.129l142.23 336.879 364.376-30.82 82.967-355.926-313.1-189.155zm323.176 317.48L329.732 614.813a.42.42 0 0 1-.19-.452l65.704-281.867a.42.42 0 0 1 .37-.32l288.561-24.407a.42.42 0 0 1 .419.253l112.635 266.783a.42.42 0 0 1-.111.477L578.173 764.568a.42.42 0 0 1-.488.041M330.422 614.257l247.435 149.484 218.489-188.893-112.4-266.226-287.958 24.356zm124.269 73.828a.4.4 0 0 1-.168-.194l-90.475-214.293a.415.415 0 0 1 .111-.476l175.868-152.046a.42.42 0 0 1 .488-.041l199.167 120.324c.154.093.23.275.19.451l-52.776 226.409a.42.42 0 0 1-.37.32l-231.784 19.605a.4.4 0 0 1-.251-.059m-89.758-214.532 90.239 213.735 231.181-19.553 52.639-225.82-198.649-120.011zm205.011 203.423-159.037-96.079a.42.42 0 0 1-.19-.451l42.143-180.789a.415.415 0 0 1 .37-.32l185.081-15.654a.42.42 0 0 1 .419.253l72.244 171.114a.415.415 0 0 1-.111.476L570.432 676.935a.42.42 0 0 1-.488.041m-158.347-96.635 158.518 95.766 139.974-121.013-72.008-170.556-184.479 15.603zm79.459 47.553a.42.42 0 0 1-.169-.195l-58.03-137.446a.41.41 0 0 1 .111-.476l112.801-97.521a.42.42 0 0 1 .488-.042l127.745 77.176a.415.415 0 0 1 .19.451l-33.85 145.217a.42.42 0 0 1-.37.32l-148.665 12.574a.4.4 0 0 1-.251-.058m-57.314-137.686 57.795 136.889L639.6 614.574l33.712-144.628-127.226-76.863z" clip-rule="evenodd"/><path fill="#ABABAB" d="M608.936 1120.45.201 752.689a.42.42 0 0 1-.19-.452L161.317 60.241a.42.42 0 0 1 .371-.32L870.115 0a.42.42 0 0 1 .419.253l276.526 654.964c.07.166.02.358-.11.477L609.423 1120.41a.43.43 0 0 1-.487.04M.891 752.133l608.216 367.447 537.063-464.317L869.884.856 162.06 60.726zM306.98 932.576a.4.4 0 0 1-.168-.194L84.693 406.285a.42.42 0 0 1 .111-.476L516.568 32.532a.42.42 0 0 1 .487-.041L1006.02 327.89c.15.093.23.276.19.451L876.641 884.185a.42.42 0 0 1-.37.32l-569.04 48.13a.4.4 0 0 1-.251-.059M85.578 406.241 307.462 931.78l568.437-48.079 129.431-555.255L516.884 33.36zM589.93 905.304 199.491 669.425a.42.42 0 0 1-.191-.451L302.762 225.13a.415.415 0 0 1 .37-.32l454.382-38.432a.42.42 0 0 1 .419.253l177.362 420.091a.42.42 0 0 1-.111.477L590.418 905.262a.42.42 0 0 1-.488.042M200.18 668.869l389.922 235.565L934.41 606.767 757.283 187.233l-453.779 38.382zm196.077 115.936a.42.42 0 0 1-.168-.196L253.623 447.174a.42.42 0 0 1 .112-.476l276.931-239.419a.42.42 0 0 1 .487-.041l313.619 189.468a.42.42 0 0 1 .19.451l-83.105 356.515a.41.41 0 0 1-.37.32l-364.979 30.871a.43.43 0 0 1-.251-.058M254.509 447.129l142.23 336.879 364.376-30.82 82.967-355.926-313.1-189.155zm323.176 317.48L329.732 614.813a.42.42 0 0 1-.19-.452l65.704-281.867a.42.42 0 0 1 .37-.32l288.561-24.407a.42.42 0 0 1 .419.253l112.635 266.783a.42.42 0 0 1-.111.477L578.173 764.568a.42.42 0 0 1-.488.041M330.422 614.257l247.435 149.484 218.489-188.893-112.4-266.226-287.958 24.356zm124.269 73.828a.4.4 0 0 1-.168-.194l-90.475-214.293a.415.415 0 0 1 .111-.476l175.868-152.046a.42.42 0 0 1 .488-.041l199.167 120.324c.154.093.23.275.19.451l-52.776 226.409a.42.42 0 0 1-.37.32l-231.784 19.605a.4.4 0 0 1-.251-.059m-89.758-214.532 90.239 213.735 231.181-19.553 52.639-225.82-198.649-120.011zm205.011 203.423-159.037-96.079a.42.42 0 0 1-.19-.451l42.143-180.789a.415.415 0 0 1 .37-.32l185.081-15.654a.42.42 0 0 1 .419.253l72.244 171.114a.415.415 0 0 1-.111.476L570.432 676.935a.42.42 0 0 1-.488.041m-158.347-96.635 158.518 95.766 139.974-121.013-72.008-170.556-184.479 15.603zm79.459 47.553a.42.42 0 0 1-.169-.195l-58.03-137.446a.41.41 0 0 1 .111-.476l112.801-97.521a.42.42 0 0 1 .488-.042l127.745 77.176a.415.415 0 0 1 .19.451l-33.85 145.217a.42.42 0 0 1-.37.32l-148.665 12.574a.4.4 0 0 1-.251-.058m-57.314-137.686 57.795 136.889L639.6 614.574l33.712-144.628-127.226-76.863z"/><path fill="#ABABAB" fill-rule="evenodd" d="M608.936 1120.45.201 752.689a.42.42 0 0 1-.19-.452L161.317 60.241a.42.42 0 0 1 .371-.32L870.115 0a.42.42 0 0 1 .419.253l276.526 654.964c.07.166.02.358-.11.477L609.423 1120.41a.43.43 0 0 1-.487.04M.891 752.133l608.216 367.447 537.063-464.317L869.884.856 162.06 60.726zM306.98 932.576a.4.4 0 0 1-.168-.194L84.693 406.285a.42.42 0 0 1 .111-.476L516.568 32.532a.42.42 0 0 1 .487-.041L1006.02 327.89c.15.093.23.276.19.451L876.641 884.185a.42.42 0 0 1-.37.32l-569.04 48.13a.4.4 0 0 1-.251-.059M85.578 406.241 307.462 931.78l568.437-48.079 129.431-555.255L516.884 33.36zM589.93 905.304 199.491 669.425a.42.42 0 0 1-.191-.451L302.762 225.13a.415.415 0 0 1 .37-.32l454.382-38.432a.42.42 0 0 1 .419.253l177.362 420.091a.42.42 0 0 1-.111.477L590.418 905.262a.42.42 0 0 1-.488.042M200.18 668.869l389.922 235.565L934.41 606.767 757.283 187.233l-453.779 38.382zm196.077 115.936a.42.42 0 0 1-.168-.196L253.623 447.174a.42.42 0 0 1 .112-.476l276.931-239.419a.42.42 0 0 1 .487-.041l313.619 189.468a.42.42 0 0 1 .19.451l-83.105 356.515a.41.41 0 0 1-.37.32l-364.979 30.871a.43.43 0 0 1-.251-.058M254.509 447.129l142.23 336.879 364.376-30.82 82.967-355.926-313.1-189.155zm323.176 317.48L329.732 614.813a.42.42 0 0 1-.19-.452l65.704-281.867a.42.42 0 0 1 .37-.32l288.561-24.407a.42.42 0 0 1 .419.253l112.635 266.783a.42.42 0 0 1-.111.477L578.173 764.568a.42.42 0 0 1-.488.041M330.422 614.257l247.435 149.484 218.489-188.893-112.4-266.226-287.958 24.356zm124.269 73.828a.4.4 0 0 1-.168-.194l-90.475-214.293a.415.415 0 0 1 .111-.476l175.868-152.046a.42.42 0 0 1 .488-.041l199.167 120.324c.154.093.23.275.19.451l-52.776 226.409a.42.42 0 0 1-.37.32l-231.784 19.605a.4.4 0 0 1-.251-.059m-89.758-214.532 90.239 213.735 231.181-19.553 52.639-225.82-198.649-120.011zm205.011 203.423-159.037-96.079a.42.42 0 0 1-.19-.451l42.143-180.789a.415.415 0 0 1 .37-.32l185.081-15.654a.42.42 0 0 1 .419.253l72.244 171.114a.415.415 0 0 1-.111.476L570.432 676.935a.42.42 0 0 1-.488.041m-158.347-96.635 158.518 95.766 139.974-121.013-72.008-170.556-184.479 15.603zm79.459 47.553a.42.42 0 0 1-.169-.195l-58.03-137.446a.41.41 0 0 1 .111-.476l112.801-97.521a.42.42 0 0 1 .488-.042l127.745 77.176a.415.415 0 0 1 .19.451l-33.85 145.217a.42.42 0 0 1-.37.32l-148.665 12.574a.4.4 0 0 1-.251-.058m-57.314-137.686 57.795 136.889L639.6 614.574l33.712-144.628-127.226-76.863z" clip-rule="evenodd"/><path fill="#ABABAB" d="M608.936 1120.45.201 752.689a.42.42 0 0 1-.19-.452L161.317 60.241a.42.42 0 0 1 .371-.32L870.115 0a.42.42 0 0 1 .419.253l276.526 654.964c.07.166.02.358-.11.477L609.423 1120.41a.43.43 0 0 1-.487.04M.891 752.133l608.216 367.447 537.063-464.317L869.884.856 162.06 60.726zM306.98 932.576a.4.4 0 0 1-.168-.194L84.693 406.285a.42.42 0 0 1 .111-.476L516.568 32.532a.42.42 0 0 1 .487-.041L1006.02 327.89c.15.093.23.276.19.451L876.641 884.185a.42.42 0 0 1-.37.32l-569.04 48.13a.4.4 0 0 1-.251-.059M85.578 406.241 307.462 931.78l568.437-48.079 129.431-555.255L516.884 33.36zM589.93 905.304 199.491 669.425a.42.42 0 0 1-.191-.451L302.762 225.13a.415.415 0 0 1 .37-.32l454.382-38.432a.42.42 0 0 1 .419.253l177.362 420.091a.42.42 0 0 1-.111.477L590.418 905.262a.42.42 0 0 1-.488.042M200.18 668.869l389.922 235.565L934.41 606.767 757.283 187.233l-453.779 38.382zm196.077 115.936a.42.42 0 0 1-.168-.196L253.623 447.174a.42.42 0 0 1 .112-.476l276.931-239.419a.42.42 0 0 1 .487-.041l313.619 189.468a.42.42 0 0 1 .19.451l-83.105 356.515a.41.41 0 0 1-.37.32l-364.979 30.871a.43.43 0 0 1-.251-.058M254.509 447.129l142.23 336.879 364.376-30.82 82.967-355.926-313.1-189.155zm323.176 317.48L329.732 614.813a.42.42 0 0 1-.19-.452l65.704-281.867a.42.42 0 0 1 .37-.32l288.561-24.407a.42.42 0 0 1 .419.253l112.635 266.783a.42.42 0 0 1-.111.477L578.173 764.568a.42.42 0 0 1-.488.041M330.422 614.257l247.435 149.484 218.489-188.893-112.4-266.226-287.958 24.356zm124.269 73.828a.4.4 0 0 1-.168-.194l-90.475-214.293a.415.415 0 0 1 .111-.476l175.868-152.046a.42.42 0 0 1 .488-.041l199.167 120.324c.154.093.23.275.19.451l-52.776 226.409a.42.42 0 0 1-.37.32l-231.784 19.605a.4.4 0 0 1-.251-.059m-89.758-214.532 90.239 213.735 231.181-19.553 52.639-225.82-198.649-120.011zm205.011 203.423-159.037-96.079a.42.42 0 0 1-.19-.451l42.143-180.789a.415.415 0 0 1 .37-.32l185.081-15.654a.42.42 0 0 1 .419.253l72.244 171.114a.415.415 0 0 1-.111.476L570.432 676.935a.42.42 0 0 1-.488.041m-158.347-96.635 158.518 95.766 139.974-121.013-72.008-170.556-184.479 15.603zm79.459 47.553a.42.42 0 0 1-.169-.195l-58.03-137.446a.41.41 0 0 1 .111-.476l112.801-97.521a.42.42 0 0 1 .488-.042l127.745 77.176a.415.415 0 0 1 .19.451l-33.85 145.217a.42.42 0 0 1-.37.32l-148.665 12.574a.4.4 0 0 1-.251-.058m-57.314-137.686 57.795 136.889L639.6 614.574l33.712-144.628-127.226-76.863z"/><path fill="#ABABAB" fill-rule="evenodd" d="M608.936 1120.45.201 752.689a.42.42 0 0 1-.19-.452L161.317 60.241a.42.42 0 0 1 .371-.32L870.115 0a.42.42 0 0 1 .419.253l276.526 654.964c.07.166.02.358-.11.477L609.423 1120.41a.43.43 0 0 1-.487.04M.891 752.133l608.216 367.447 537.063-464.317L869.884.856 162.06 60.726zM306.98 932.576a.4.4 0 0 1-.168-.194L84.693 406.285a.42.42 0 0 1 .111-.476L516.568 32.532a.42.42 0 0 1 .487-.041L1006.02 327.89c.15.093.23.276.19.451L876.641 884.185a.42.42 0 0 1-.37.32l-569.04 48.13a.4.4 0 0 1-.251-.059M85.578 406.241 307.462 931.78l568.437-48.079 129.431-555.255L516.884 33.36zM589.93 905.304 199.491 669.425a.42.42 0 0 1-.191-.451L302.762 225.13a.415.415 0 0 1 .37-.32l454.382-38.432a.42.42 0 0 1 .419.253l177.362 420.091a.42.42 0 0 1-.111.477L590.418 905.262a.42.42 0 0 1-.488.042M200.18 668.869l389.922 235.565L934.41 606.767 757.283 187.233l-453.779 38.382zm196.077 115.936a.42.42 0 0 1-.168-.196L253.623 447.174a.42.42 0 0 1 .112-.476l276.931-239.419a.42.42 0 0 1 .487-.041l313.619 189.468a.42.42 0 0 1 .19.451l-83.105 356.515a.41.41 0 0 1-.37.32l-364.979 30.871a.43.43 0 0 1-.251-.058M254.509 447.129l142.23 336.879 364.376-30.82 82.967-355.926-313.1-189.155zm323.176 317.48L329.732 614.813a.42.42 0 0 1-.19-.452l65.704-281.867a.42.42 0 0 1 .37-.32l288.561-24.407a.42.42 0 0 1 .419.253l112.635 266.783a.42.42 0 0 1-.111.477L578.173 764.568a.42.42 0 0 1-.488.041M330.422 614.257l247.435 149.484 218.489-188.893-112.4-266.226-287.958 24.356zm124.269 73.828a.4.4 0 0 1-.168-.194l-90.475-214.293a.415.415 0 0 1 .111-.476l175.868-152.046a.42.42 0 0 1 .488-.041l199.167 120.324c.154.093.23.275.19.451l-52.776 226.409a.42.42 0 0 1-.37.32l-231.784 19.605a.4.4 0 0 1-.251-.059m-89.758-214.532 90.239 213.735 231.181-19.553 52.639-225.82-198.649-120.011zm205.011 203.423-159.037-96.079a.42.42 0 0 1-.19-.451l42.143-180.789a.415.415 0 0 1 .37-.32l185.081-15.654a.42.42 0 0 1 .419.253l72.244 171.114a.415.415 0 0 1-.111.476L570.432 676.935a.42.42 0 0 1-.488.041m-158.347-96.635 158.518 95.766 139.974-121.013-72.008-170.556-184.479 15.603zm79.459 47.553a.42.42 0 0 1-.169-.195l-58.03-137.446a.41.41 0 0 1 .111-.476l112.801-97.521a.42.42 0 0 1 .488-.042l127.745 77.176a.415.415 0 0 1 .19.451l-33.85 145.217a.42.42 0 0 1-.37.32l-148.665 12.574a.4.4 0 0 1-.251-.058m-57.314-137.686 57.795 136.889L639.6 614.574l33.712-144.628-127.226-76.863z" clip-rule="evenodd"/><path fill="#ABABAB" d="M608.936 1120.45.201 752.689a.42.42 0 0 1-.19-.452L161.317 60.241a.42.42 0 0 1 .371-.32L870.115 0a.42.42 0 0 1 .419.253l276.526 654.964c.07.166.02.358-.11.477L609.423 1120.41a.43.43 0 0 1-.487.04M.891 752.133l608.216 367.447 537.063-464.317L869.884.856 162.06 60.726zM306.98 932.576a.4.4 0 0 1-.168-.194L84.693 406.285a.42.42 0 0 1 .111-.476L516.568 32.532a.42.42 0 0 1 .487-.041L1006.02 327.89c.15.093.23.276.19.451L876.641 884.185a.42.42 0 0 1-.37.32l-569.04 48.13a.4.4 0 0 1-.251-.059M85.578 406.241 307.462 931.78l568.437-48.079 129.431-555.255L516.884 33.36zM589.93 905.304 199.491 669.425a.42.42 0 0 1-.191-.451L302.762 225.13a.415.415 0 0 1 .37-.32l454.382-38.432a.42.42 0 0 1 .419.253l177.362 420.091a.42.42 0 0 1-.111.477L590.418 905.262a.42.42 0 0 1-.488.042M200.18 668.869l389.922 235.565L934.41 606.767 757.283 187.233l-453.779 38.382zm196.077 115.936a.42.42 0 0 1-.168-.196L253.623 447.174a.42.42 0 0 1 .112-.476l276.931-239.419a.42.42 0 0 1 .487-.041l313.619 189.468a.42.42 0 0 1 .19.451l-83.105 356.515a.41.41 0 0 1-.37.32l-364.979 30.871a.43.43 0 0 1-.251-.058M254.509 447.129l142.23 336.879 364.376-30.82 82.967-355.926-313.1-189.155zm323.176 317.48L329.732 614.813a.42.42 0 0 1-.19-.452l65.704-281.867a.42.42 0 0 1 .37-.32l288.561-24.407a.42.42 0 0 1 .419.253l112.635 266.783a.42.42 0 0 1-.111.477L578.173 764.568a.42.42 0 0 1-.488.041M330.422 614.257l247.435 149.484 218.489-188.893-112.4-266.226-287.958 24.356zm124.269 73.828a.4.4 0 0 1-.168-.194l-90.475-214.293a.415.415 0 0 1 .111-.476l175.868-152.046a.42.42 0 0 1 .488-.041l199.167 120.324c.154.093.23.275.19.451l-52.776 226.409a.42.42 0 0 1-.37.32l-231.784 19.605a.4.4 0 0 1-.251-.059m-89.758-214.532 90.239 213.735 231.181-19.553 52.639-225.82-198.649-120.011zm205.011 203.423-159.037-96.079a.42.42 0 0 1-.19-.451l42.143-180.789a.415.415 0 0 1 .37-.32l185.081-15.654a.42.42 0 0 1 .419.253l72.244 171.114a.415.415 0 0 1-.111.476L570.432 676.935a.42.42 0 0 1-.488.041m-158.347-96.635 158.518 95.766 139.974-121.013-72.008-170.556-184.479 15.603zm79.459 47.553a.42.42 0 0 1-.169-.195l-58.03-137.446a.41.41 0 0 1 .111-.476l112.801-97.521a.42.42 0 0 1 .488-.042l127.745 77.176a.415.415 0 0 1 .19.451l-33.85 145.217a.42.42 0 0 1-.37.32l-148.665 12.574a.4.4 0 0 1-.251-.058m-57.314-137.686 57.795 136.889L639.6 614.574l33.712-144.628-127.226-76.863z"/><path fill="#ABABAB" fill-rule="evenodd" d="M608.936 1120.45.201 752.689a.42.42 0 0 1-.19-.452L161.317 60.241a.42.42 0 0 1 .371-.32L870.115 0a.42.42 0 0 1 .419.253l276.526 654.964c.07.166.02.358-.11.477L609.423 1120.41a.43.43 0 0 1-.487.04M.891 752.133l608.216 367.447 537.063-464.317L869.884.856 162.06 60.726zM306.98 932.576a.4.4 0 0 1-.168-.194L84.693 406.285a.42.42 0 0 1 .111-.476L516.568 32.532a.42.42 0 0 1 .487-.041L1006.02 327.89c.15.093.23.276.19.451L876.641 884.185a.42.42 0 0 1-.37.32l-569.04 48.13a.4.4 0 0 1-.251-.059M85.578 406.241 307.462 931.78l568.437-48.079 129.431-555.255L516.884 33.36zM589.93 905.304 199.491 669.425a.42.42 0 0 1-.191-.451L302.762 225.13a.415.415 0 0 1 .37-.32l454.382-38.432a.42.42 0 0 1 .419.253l177.362 420.091a.42.42 0 0 1-.111.477L590.418 905.262a.42.42 0 0 1-.488.042M200.18 668.869l389.922 235.565L934.41 606.767 757.283 187.233l-453.779 38.382zm196.077 115.936a.42.42 0 0 1-.168-.196L253.623 447.174a.42.42 0 0 1 .112-.476l276.931-239.419a.42.42 0 0 1 .487-.041l313.619 189.468a.42.42 0 0 1 .19.451l-83.105 356.515a.41.41 0 0 1-.37.32l-364.979 30.871a.43.43 0 0 1-.251-.058M254.509 447.129l142.23 336.879 364.376-30.82 82.967-355.926-313.1-189.155zm323.176 317.48L329.732 614.813a.42.42 0 0 1-.19-.452l65.704-281.867a.42.42 0 0 1 .37-.32l288.561-24.407a.42.42 0 0 1 .419.253l112.635 266.783a.42.42 0 0 1-.111.477L578.173 764.568a.42.42 0 0 1-.488.041M330.422 614.257l247.435 149.484 218.489-188.893-112.4-266.226-287.958 24.356zm124.269 73.828a.4.4 0 0 1-.168-.194l-90.475-214.293a.415.415 0 0 1 .111-.476l175.868-152.046a.42.42 0 0 1 .488-.041l199.167 120.324c.154.093.23.275.19.451l-52.776 226.409a.42.42 0 0 1-.37.32l-231.784 19.605a.4.4 0 0 1-.251-.059m-89.758-214.532 90.239 213.735 231.181-19.553 52.639-225.82-198.649-120.011zm205.011 203.423-159.037-96.079a.42.42 0 0 1-.19-.451l42.143-180.789a.415.415 0 0 1 .37-.32l185.081-15.654a.42.42 0 0 1 .419.253l72.244 171.114a.415.415 0 0 1-.111.476L570.432 676.935a.42.42 0 0 1-.488.041m-158.347-96.635 158.518 95.766 139.974-121.013-72.008-170.556-184.479 15.603zm79.459 47.553a.42.42 0 0 1-.169-.195l-58.03-137.446a.41.41 0 0 1 .111-.476l112.801-97.521a.42.42 0 0 1 .488-.042l127.745 77.176a.415.415 0 0 1 .19.451l-33.85 145.217a.42.42 0 0 1-.37.32l-148.665 12.574a.4.4 0 0 1-.251-.058m-57.314-137.686 57.795 136.889L639.6 614.574l33.712-144.628-127.226-76.863z" clip-rule="evenodd"/><path fill="#3242F5" fill-rule="evenodd" d="M604.18 347.309h-48v15.999l13.149-6h34.851zM506.18 373.309h48v-16l-13.15 6h-34.85zM624.18 744.308h-68v-15.999l13.149 5.999h54.851zM530.18 426.309h24v7h-24zM556.18 444.309h24v9.999h-24zM532.18 617.309h24v6.999h-24zM532.18 1113.31h24v7h-24zM556.18 638.309h24v10h-24z" clip-rule="evenodd"/><path fill="#3242F5" fill-rule="evenodd" d="M556.18 333.309v150h-2v-150zM556.18 560.309v243.999h-2V560.309zM556.18 909.309v244.001h-2V909.309zM556.18 69.309v208h-2v-208z" clip-rule="evenodd"/><path fill="#3242F5" fill-rule="evenodd" d="M486.18 188.309h68v15.999l-13.15-6h-54.85z" clip-rule="evenodd"/><path fill="#3241F4" d="M534.948 531.65v-23.637h5.466v1.81h-3.398v20.017h3.398v1.81zm23.787-12.964v2.032h-8.273v-2.032zm15.504-10.673v23.637h-5.466v-1.81h3.398v-20.017h-3.398v-1.81z"/></svg>