<svg width="196" height="310" viewBox="0 0 196 310" fill="none" xmlns="http://www.w3.org/2000/svg">
<path d="M166.443 51.5876C169.922 51.5876 172.743 48.7671 172.743 45.2879C172.743 41.8087 169.922 38.9883 166.443 38.9883C162.964 38.9883 160.144 41.8087 160.144 45.2879C160.144 48.7671 162.964 51.5876 166.443 51.5876Z" fill="url(#paint0_linear_7789_8534)" fill-opacity="0.1"/>
<path d="M179.046 70.443C182.525 70.443 185.345 67.6226 185.345 64.1434C185.345 60.6642 182.525 57.8438 179.046 57.8438C175.567 57.8438 172.746 60.6642 172.746 64.1434C172.746 67.6226 175.567 70.443 179.046 70.443Z" fill="url(#paint1_linear_7789_8534)" fill-opacity="0.1"/>
<path d="M187.262 91.6891C190.741 91.6891 193.561 88.8687 193.561 85.3895C193.561 81.9103 190.741 79.0898 187.262 79.0898C183.782 79.0898 180.962 81.9103 180.962 85.3895C180.962 88.8687 183.782 91.6891 187.262 91.6891Z" fill="url(#paint2_linear_7789_8534)" fill-opacity="0.1"/>
<path d="M98.0014 205.006C84.7751 205.006 71.9378 202.413 59.8524 197.301C48.1821 192.366 37.702 185.3 28.7025 176.3C19.7031 167.301 12.6399 156.821 7.70181 145.151C2.59243 133.065 0 120.231 0 107.001C0 93.7722 2.59243 80.9378 7.70472 68.8524C12.6399 57.1821 19.706 46.702 28.7054 37.7025C37.7049 28.7031 48.185 21.6399 59.8553 16.7018C71.9407 11.5924 84.7751 9 98.0014 9C118.123 9 137.457 15.0529 153.914 26.5054C156.547 28.3373 157.195 31.9545 155.363 34.5876C153.531 37.2206 149.914 37.868 147.281 36.0362C132.777 25.9452 115.736 20.6122 97.9986 20.6122C50.3623 20.6122 11.6093 59.3681 11.6093 107.001C11.6093 154.635 50.3652 193.391 97.9986 193.391C145.632 193.391 184.388 154.635 184.388 107.001C184.388 103.794 186.986 101.195 190.194 101.195C193.402 101.195 196 103.794 196 107.001C196 120.228 193.408 133.065 188.295 145.151C183.36 156.821 176.294 167.301 167.295 176.3C158.295 185.3 147.815 192.363 136.145 197.301C124.059 202.413 111.225 205.006 97.9956 205.006H98.0014Z" fill="url(#paint3_linear_7789_8534)" fill-opacity="0.1"/>
<path fill-rule="evenodd" clip-rule="evenodd" d="M176.384 107C176.384 150.29 141.292 185.382 98.0017 185.382C54.7113 185.382 19.6191 150.29 19.6191 107C19.6191 63.7094 54.7142 28.6172 98.0017 28.6172C141.289 28.6172 176.384 63.7094 176.384 107ZM145.539 82.5357C145.539 75.6961 139.994 70.1483 133.152 70.1483C126.309 70.1483 120.765 75.6932 120.765 82.5357C120.765 89.3782 126.309 94.923 133.152 94.923C139.994 94.923 145.539 89.3782 145.539 82.5357ZM100.205 92.2493C100.681 89.4392 100.304 86.5535 99.1252 83.9611C97.9436 81.3687 96.016 79.1885 93.5833 77.705C91.1505 76.2186 88.3316 75.4958 85.4866 75.6322C82.6416 75.7658 79.9011 76.7499 77.6193 78.454C75.3375 80.161 73.6218 82.5096 72.687 85.2007C71.7552 87.8918 71.6507 90.8007 72.388 93.5528C73.1254 96.3049 74.6698 98.7725 76.8239 100.636C78.978 102.5 81.6401 103.676 84.4677 104.013L84.4822 104.033L91.2057 105.174C92.9591 105.473 94.5238 106.454 95.5515 107.903C96.5821 109.354 96.9914 111.151 96.6953 112.907L95.4325 120.345C94.9651 123.091 95.3164 125.913 96.437 128.462C97.5575 131.011 99.401 133.177 101.738 134.689C104.075 136.202 106.807 136.997 109.591 136.974C112.375 136.954 115.092 136.115 117.406 134.564C119.719 133.014 121.531 130.819 122.611 128.253C123.691 125.687 123.996 122.859 123.488 120.122C122.98 117.384 121.679 114.855 119.749 112.847C117.818 110.838 115.342 109.441 112.624 108.826L112.604 108.803L104.423 107.415C102.67 107.116 101.105 106.135 100.077 104.686C99.0468 103.234 98.6375 101.438 98.9336 99.6811L100.095 92.8445L100.083 92.8299C100.124 92.6354 100.162 92.438 100.196 92.2406L100.205 92.2493ZM139.08 108.634C134.444 108.634 130.687 112.391 130.687 117.027C130.687 121.663 134.444 125.42 139.08 125.42C143.716 125.42 147.473 121.663 147.473 117.027C147.473 112.391 143.716 108.634 139.08 108.634ZM62.7789 110.661C54.9087 110.661 48.5307 117.039 48.5307 124.909C48.5307 132.779 54.9087 139.157 62.7789 139.157C70.6491 139.157 77.0271 132.779 77.0271 124.909C77.0271 117.039 70.6491 110.661 62.7789 110.661Z" fill="url(#paint4_linear_7789_8534)" fill-opacity="0.1"/>
<path d="M166.443 88.5876C169.922 88.5876 172.743 85.7671 172.743 82.2879C172.743 78.8087 169.922 75.9883 166.443 75.9883C162.964 75.9883 160.144 78.8087 160.144 82.2879C160.144 85.7671 162.964 88.5876 166.443 88.5876Z" fill="url(#paint5_linear_7789_8534)" fill-opacity="0.3"/>
<path d="M179.046 107.443C182.525 107.443 185.345 104.623 185.345 101.143C185.345 97.6642 182.525 94.8438 179.046 94.8438C175.567 94.8438 172.746 97.6642 172.746 101.143C172.746 104.623 175.567 107.443 179.046 107.443Z" fill="url(#paint6_linear_7789_8534)" fill-opacity="0.3"/>
<path d="M187.262 128.689C190.741 128.689 193.561 125.869 193.561 122.389C193.561 118.91 190.741 116.09 187.262 116.09C183.782 116.09 180.962 118.91 180.962 122.389C180.962 125.869 183.782 128.689 187.262 128.689Z" fill="url(#paint7_linear_7789_8534)" fill-opacity="0.3"/>
<path d="M98.0014 242.006C84.7751 242.006 71.9378 239.413 59.8524 234.301C48.1821 229.366 37.702 222.3 28.7025 213.3C19.7031 204.301 12.6399 193.821 7.70181 182.151C2.59243 170.065 0 157.231 0 144.001C0 130.772 2.59243 117.938 7.70472 105.852C12.6399 94.1821 19.706 83.702 28.7054 74.7025C37.7049 65.7031 48.185 58.6399 59.8553 53.7018C71.9407 48.5924 84.7751 46 98.0014 46C118.123 46 137.457 52.0529 153.914 63.5054C156.547 65.3373 157.195 68.9545 155.363 71.5876C153.531 74.2206 149.914 74.868 147.281 73.0362C132.777 62.9452 115.736 57.6122 97.9986 57.6122C50.3623 57.6122 11.6093 96.3681 11.6093 144.001C11.6093 191.635 50.3652 230.391 97.9986 230.391C145.632 230.391 184.388 191.635 184.388 144.001C184.388 140.794 186.986 138.195 190.194 138.195C193.402 138.195 196 140.794 196 144.001C196 157.228 193.408 170.065 188.295 182.151C183.36 193.821 176.294 204.301 167.295 213.3C158.295 222.3 147.815 229.363 136.145 234.301C124.059 239.413 111.225 242.006 97.9956 242.006H98.0014Z" fill="url(#paint8_linear_7789_8534)" fill-opacity="0.3"/>
<path fill-rule="evenodd" clip-rule="evenodd" d="M176.384 144C176.384 187.29 141.292 222.382 98.0017 222.382C54.7113 222.382 19.6191 187.29 19.6191 144C19.6191 100.709 54.7142 65.6172 98.0017 65.6172C141.289 65.6172 176.384 100.709 176.384 144ZM145.539 119.536C145.539 112.696 139.994 107.148 133.152 107.148C126.309 107.148 120.765 112.693 120.765 119.536C120.765 126.378 126.309 131.923 133.152 131.923C139.994 131.923 145.539 126.378 145.539 119.536ZM100.205 129.249C100.681 126.439 100.304 123.554 99.1252 120.961C97.9436 118.369 96.016 116.188 93.5833 114.705C91.1505 113.219 88.3316 112.496 85.4866 112.632C82.6416 112.766 79.9011 113.75 77.6193 115.454C75.3375 117.161 73.6218 119.51 72.687 122.201C71.7552 124.892 71.6507 127.801 72.388 130.553C73.1254 133.305 74.6698 135.772 76.8239 137.636C78.978 139.5 81.6401 140.676 84.4677 141.013L84.4822 141.033L91.2057 142.174C92.9591 142.473 94.5238 143.454 95.5515 144.903C96.5821 146.354 96.9914 148.151 96.6953 149.907L95.4325 157.345C94.9651 160.091 95.3164 162.913 96.437 165.462C97.5575 168.011 99.401 170.177 101.738 171.689C104.075 173.202 106.807 173.997 109.591 173.974C112.375 173.954 115.092 173.115 117.406 171.564C119.719 170.014 121.531 167.819 122.611 165.253C123.691 162.687 123.996 159.859 123.488 157.122C122.98 154.384 121.679 151.855 119.749 149.847C117.818 147.838 115.342 146.441 112.624 145.826L112.604 145.803L104.423 144.415C102.67 144.116 101.105 143.135 100.077 141.686C99.0468 140.234 98.6375 138.438 98.9336 136.681L100.095 129.844L100.083 129.83C100.124 129.635 100.162 129.438 100.196 129.241L100.205 129.249ZM139.08 145.634C134.444 145.634 130.687 149.391 130.687 154.027C130.687 158.663 134.444 162.42 139.08 162.42C143.716 162.42 147.473 158.663 147.473 154.027C147.473 149.391 143.716 145.634 139.08 145.634ZM62.7789 147.661C54.9087 147.661 48.5307 154.039 48.5307 161.909C48.5307 169.779 54.9087 176.157 62.7789 176.157C70.6491 176.157 77.0271 169.779 77.0271 161.909C77.0271 154.039 70.6491 147.661 62.7789 147.661Z" fill="url(#paint9_linear_7789_8534)" fill-opacity="0.3"/>
<path d="M166.443 132.591C169.922 132.591 172.743 129.771 172.743 126.292C172.743 122.813 169.922 119.992 166.443 119.992C162.964 119.992 160.144 122.813 160.144 126.292C160.144 129.771 162.964 132.591 166.443 132.591Z" fill="#091DFF"/>
<path d="M179.046 151.447C182.525 151.447 185.345 148.626 185.345 145.147C185.345 141.668 182.525 138.848 179.046 138.848C175.567 138.848 172.746 141.668 172.746 145.147C172.746 148.626 175.567 151.447 179.046 151.447Z" fill="#091DFF"/>
<path d="M187.262 172.693C190.741 172.693 193.561 169.873 193.561 166.393C193.561 162.914 190.741 160.094 187.262 160.094C183.782 160.094 180.962 162.914 180.962 166.393C180.962 169.873 183.782 172.693 187.262 172.693Z" fill="#091DFF"/>
<path d="M98.0014 286.01C84.7751 286.01 71.9378 283.417 59.8524 278.305C48.1821 273.37 37.702 266.304 28.7025 257.304C19.7031 248.305 12.6399 237.825 7.70181 226.154C2.59243 214.069 0 201.235 0 188.005C0 174.776 2.59243 161.942 7.70472 149.856C12.6399 138.186 19.706 127.706 28.7054 118.706C37.7049 109.707 48.185 102.644 59.8553 97.7057C71.9407 92.5963 84.7751 90.0039 98.0014 90.0039C118.123 90.0039 137.457 96.0568 153.914 107.509C156.547 109.341 157.195 112.958 155.363 115.591C153.531 118.225 149.914 118.872 147.281 117.04C132.777 106.949 115.736 101.616 97.9986 101.616C50.3623 101.616 11.6093 140.372 11.6093 188.005C11.6093 235.639 50.3652 274.395 97.9986 274.395C145.632 274.395 184.388 235.639 184.388 188.005C184.388 184.797 186.986 182.199 190.194 182.199C193.402 182.199 196 184.797 196 188.005C196 201.232 193.408 214.069 188.295 226.154C183.36 237.825 176.294 248.305 167.295 257.304C158.295 266.304 147.815 273.367 136.145 278.305C124.059 283.417 111.225 286.01 97.9956 286.01H98.0014Z" fill="#091DFF"/>
<path fill-rule="evenodd" clip-rule="evenodd" d="M176.384 188.004C176.384 231.294 141.292 266.386 98.0017 266.386C54.7113 266.386 19.6191 231.294 19.6191 188.004C19.6191 144.713 54.7142 109.621 98.0017 109.621C141.289 109.621 176.384 144.713 176.384 188.004ZM145.539 163.54C145.539 156.7 139.994 151.152 133.152 151.152C126.309 151.152 120.765 156.697 120.765 163.54C120.765 170.382 126.309 175.927 133.152 175.927C139.994 175.927 145.539 170.382 145.539 163.54ZM100.205 173.253C100.681 170.443 100.304 167.557 99.1252 164.965C97.9436 162.373 96.016 160.192 93.5833 158.709C91.1505 157.223 88.3316 156.5 85.4866 156.636C82.6416 156.77 79.9011 157.754 77.6193 159.458C75.3375 161.165 73.6218 163.513 72.687 166.205C71.7552 168.896 71.6507 171.805 72.388 174.557C73.1254 177.309 74.6698 179.776 76.8239 181.64C78.978 183.504 81.6401 184.68 84.4677 185.016L84.4822 185.037L91.2057 186.178C92.9591 186.477 94.5238 187.458 95.5515 188.907C96.5821 190.358 96.9914 192.155 96.6953 193.911L95.4325 201.349C94.9651 204.095 95.3164 206.917 96.437 209.466C97.5575 212.015 99.401 214.181 101.738 215.693C104.075 217.206 106.807 218.001 109.591 217.978C112.375 217.957 115.092 217.118 117.406 215.568C119.719 214.018 121.531 211.823 122.611 209.257C123.691 206.691 123.996 203.863 123.488 201.125C122.98 198.388 121.679 195.859 119.749 193.85C117.818 191.842 115.342 190.445 112.624 189.83L112.604 189.806L104.423 188.419C102.67 188.12 101.105 187.139 100.077 185.69C99.0468 184.238 98.6375 182.441 98.9336 180.685L100.095 173.848L100.083 173.834C100.124 173.639 100.162 173.442 100.196 173.245L100.205 173.253ZM139.08 189.638C134.444 189.638 130.687 193.395 130.687 198.031C130.687 202.667 134.444 206.424 139.08 206.424C143.716 206.424 147.473 202.667 147.473 198.031C147.473 193.395 143.716 189.638 139.08 189.638ZM62.7789 191.664C54.9087 191.664 48.5307 198.042 48.5307 205.913C48.5307 213.783 54.9087 220.161 62.7789 220.161C70.6491 220.161 77.0271 213.783 77.0271 205.913C77.0271 198.042 70.6491 191.664 62.7789 191.664Z" fill="#091DFF"/>
<rect width="24" height="24" transform="translate(86 286)" fill="#FDFDFD"/>
<path fill-rule="evenodd" clip-rule="evenodd" d="M82.7556 39.7977C83.2396 39.3079 83.8959 39.0327 84.5802 39.0327C85.2645 39.0327 85.9208 39.3079 86.4048 39.7977L97.4839 51.0151L108.563 39.7977C108.801 39.5481 109.086 39.3491 109.401 39.2121C109.716 39.0752 110.054 39.0031 110.397 39.0001C110.74 38.9971 111.079 39.0632 111.396 39.1946C111.714 39.326 112.002 39.52 112.244 39.7653C112.486 40.0107 112.678 40.3024 112.808 40.6235C112.938 40.9446 113.003 41.2887 113 41.6357C112.997 41.9826 112.926 42.3255 112.79 42.6443C112.655 42.9631 112.459 43.2514 112.212 43.4924L99.3084 56.5572C98.8245 57.0471 98.1682 57.3223 97.4839 57.3223C96.7995 57.3223 96.1432 57.0471 95.6593 56.5572L82.7556 43.4924C82.2718 43.0024 82 42.3379 82 41.6451C82 40.9522 82.2718 40.2877 82.7556 39.7977ZM82.7556 55.4755C83.2396 54.9856 83.8959 54.7104 84.5802 54.7104C85.2645 54.7104 85.9208 54.9856 86.4048 55.4755L97.4839 66.6929L108.563 55.4755C109.05 54.9995 109.702 54.7361 110.378 54.7421C111.055 54.748 111.702 55.0228 112.181 55.5073C112.659 55.9917 112.931 56.6471 112.936 57.3322C112.942 58.0173 112.682 58.6774 112.212 59.1702L99.3084 72.235C98.8245 72.7248 98.1682 73 97.4839 73C96.7995 73 96.1432 72.7248 95.6593 72.235L82.7556 59.1702C82.2718 58.6802 82 58.0157 82 57.3228C82 56.6299 82.2718 55.9655 82.7556 55.4755Z" fill="#091DFF"/>
<defs>
<linearGradient id="paint0_linear_7789_8534" x1="166.443" y1="38.9883" x2="166.443" y2="51.5876" gradientUnits="userSpaceOnUse">
<stop stop-color="#091DFF"/>
<stop offset="1" stop-color="#091DFF" stop-opacity="0"/>
</linearGradient>
<linearGradient id="paint1_linear_7789_8534" x1="179.046" y1="57.8438" x2="179.046" y2="70.443" gradientUnits="userSpaceOnUse">
<stop stop-color="#091DFF"/>
<stop offset="1" stop-color="#091DFF" stop-opacity="0"/>
</linearGradient>
<linearGradient id="paint2_linear_7789_8534" x1="187.262" y1="79.0898" x2="187.262" y2="91.6891" gradientUnits="userSpaceOnUse">
<stop stop-color="#091DFF"/>
<stop offset="1" stop-color="#091DFF" stop-opacity="0"/>
</linearGradient>
<linearGradient id="paint3_linear_7789_8534" x1="98" y1="9" x2="98" y2="205.006" gradientUnits="userSpaceOnUse">
<stop stop-color="#091DFF"/>
<stop offset="1" stop-color="#091DFF" stop-opacity="0"/>
</linearGradient>
<linearGradient id="paint4_linear_7789_8534" x1="98.0017" y1="28.6172" x2="98.0017" y2="185.382" gradientUnits="userSpaceOnUse">
<stop stop-color="#091DFF"/>
<stop offset="1" stop-color="#091DFF" stop-opacity="0"/>
</linearGradient>
<linearGradient id="paint5_linear_7789_8534" x1="166.443" y1="75.9883" x2="166.443" y2="88.5876" gradientUnits="userSpaceOnUse">
<stop stop-color="#091DFF"/>
<stop offset="1" stop-color="#091DFF" stop-opacity="0"/>
</linearGradient>
<linearGradient id="paint6_linear_7789_8534" x1="179.046" y1="94.8438" x2="179.046" y2="107.443" gradientUnits="userSpaceOnUse">
<stop stop-color="#091DFF"/>
<stop offset="1" stop-color="#091DFF" stop-opacity="0"/>
</linearGradient>
<linearGradient id="paint7_linear_7789_8534" x1="187.262" y1="116.09" x2="187.262" y2="128.689" gradientUnits="userSpaceOnUse">
<stop stop-color="#091DFF"/>
<stop offset="1" stop-color="#091DFF" stop-opacity="0"/>
</linearGradient>
<linearGradient id="paint8_linear_7789_8534" x1="98" y1="46" x2="98" y2="242.006" gradientUnits="userSpaceOnUse">
<stop stop-color="#091DFF"/>
<stop offset="1" stop-color="#091DFF" stop-opacity="0"/>
</linearGradient>
<linearGradient id="paint9_linear_7789_8534" x1="98.0017" y1="65.6172" x2="98.0017" y2="222.382" gradientUnits="userSpaceOnUse">
<stop stop-color="#091DFF"/>
<stop offset="1" stop-color="#091DFF" stop-opacity="0"/>
</linearGradient>
</defs>
</svg>
