<svg width="50" height="25" viewBox="0 0 50 25" fill="none" xmlns="http://www.w3.org/2000/svg">
<g clip-path="url(#clip0_7993_6182)">
<path d="M49.9999 12.5237C49.9797 19.514 44.3642 25.0337 37.3061 25.0002C30.43 24.9666 24.8752 19.3461 24.8887 12.4296C24.9022 5.52661 30.5648 -0.0334238 37.5421 0.000151263C44.4586 0.0337263 50.0202 5.62062 49.9999 12.5237ZM29.8098 12.4296C29.7896 16.7138 33.2007 20.1452 37.4679 20.1452C41.661 20.1452 45.1327 16.6735 45.126 12.4834C45.126 8.28648 41.6812 4.8954 37.4275 4.8954C33.2142 4.8954 29.8233 8.23948 29.8031 12.4296H29.8098Z" fill="white"/>
<path d="M25.2391 24.9963C23.1021 24.9963 21.2213 25.0232 19.3473 24.9695C19.0776 24.9627 18.7068 24.6136 18.572 24.3382C16.4013 19.8258 14.2576 15.2998 12.1071 10.7739C11.5341 9.57193 10.9274 8.38337 10.4151 7.15452C10.2533 6.77177 10.2263 6.22114 10.3814 5.83838C11.1499 3.97161 11.9925 2.13169 12.8891 0.117188C17.035 8.46395 21.0865 16.6361 25.2391 24.9963Z" fill="white"/>
<path d="M0 24.9908C2.09653 20.8006 4.11217 16.7649 6.19523 12.6016C7.47607 15.207 8.69624 17.6647 9.87596 20.1425C9.97708 20.3574 9.90293 20.6999 9.81529 20.955C9.41081 22.1167 8.9996 23.2851 8.52771 24.42C8.42659 24.6617 8.0693 24.9572 7.81987 24.9639C5.27842 25.0042 2.73696 24.9908 0 24.9908Z" fill="white"/>
</g>
<defs>
<clipPath id="clip0_7993_6182">
<rect width="50" height="25" fill="white"/>
</clipPath>
</defs>
</svg>
