<svg width="46" height="32" viewBox="0 0 46 32" fill="none" xmlns="http://www.w3.org/2000/svg">
<path fill-rule="evenodd" clip-rule="evenodd" d="M45.1005 5.74359C45.1005 8.91549 42.522 11.4872 39.3418 11.4872C36.1615 11.4872 33.5831 8.91549 33.5831 5.74359C33.5831 2.57168 36.1615 0 39.3418 0C42.522 0 45.1005 2.57168 45.1005 5.74359ZM24.0239 10.2468C24.0079 10.3386 23.9911 10.4296 23.9719 10.5198L23.9767 10.5262L23.4373 13.6957C23.2989 14.509 23.4902 15.3431 23.9687 16.016C24.4473 16.688 25.1739 17.1438 25.9894 17.2819L29.793 17.926L29.8018 17.9371C31.0647 18.2221 32.2162 18.8702 33.1133 19.8017C34.0112 20.7323 34.6154 21.9056 34.8515 23.1747C35.0876 24.4446 34.9459 25.7552 34.4434 26.9452C33.9408 28.1353 33.0997 29.1529 32.0234 29.8713C30.947 30.5896 29.6842 30.9783 28.3894 30.9879C27.0946 30.9983 25.8253 30.6295 24.7386 29.928C23.6518 29.2264 22.7947 28.2223 22.2738 27.0402C21.7528 25.8581 21.5903 24.5491 21.8072 23.2761L22.3938 19.8272C22.5322 19.0139 22.341 18.1798 21.8624 17.5069C21.3839 16.8349 20.6572 16.3791 19.8418 16.241L16.7159 15.7119L16.7095 15.7031C15.3947 15.5466 14.1567 15.0015 13.1555 14.1371C12.1544 13.2727 11.4358 12.1281 11.0933 10.8526C10.7508 9.57717 10.7988 8.22828 11.2325 6.97995C11.6663 5.73162 12.4641 4.64212 13.5253 3.85114C14.5856 3.06016 15.8596 2.60441 17.1825 2.54215C18.5053 2.47989 19.8161 2.81512 20.9469 3.50394C22.0769 4.19275 22.974 5.20323 23.523 6.40527C24.0712 7.6073 24.2464 8.94583 24.0247 10.2484L24.0239 10.2468ZM46 21.7372C46 23.8867 44.253 25.629 42.0979 25.629C39.9428 25.629 38.1958 23.8867 38.1958 21.7372C38.1958 19.5877 39.9428 17.8454 42.0979 17.8454C44.253 17.8454 46 19.5877 46 21.7372ZM13.2492 25.3928C13.2492 29.042 10.2834 32 6.62459 32C2.96578 32 0 29.042 0 25.3928C0 21.7436 2.96578 18.7856 6.62459 18.7856C10.2834 18.7856 13.2492 21.7436 13.2492 25.3928Z" fill="white"/>
</svg>
