<svg width="136" height="137" viewBox="0 0 136 137" fill="none" xmlns="http://www.w3.org/2000/svg">
<path fill-rule="evenodd" clip-rule="evenodd" d="M84.9309 60.2826C84.9309 62.8354 82.8586 64.9051 80.3027 64.9051C77.7468 64.9051 75.6746 62.8354 75.6746 60.2826C75.6746 57.7299 77.7468 55.6602 80.3027 55.6602C82.8586 55.6602 84.9309 57.7299 84.9309 60.2826ZM67.9921 63.9069C67.9792 63.9808 67.9657 64.054 67.9503 64.1266L67.9542 64.1317L67.5207 66.6826C67.4094 67.3371 67.5631 68.0084 67.9477 68.5499C68.3323 69.0908 68.9163 69.4576 69.5717 69.5687L72.6286 70.0871L72.6357 70.0961C73.6506 70.3254 74.5761 70.847 75.2971 71.5967C76.0187 72.3457 76.5043 73.29 76.694 74.3113C76.8837 75.3333 76.7699 76.3881 76.366 77.3459C75.9621 78.3036 75.2861 79.1227 74.4211 79.7008C73.556 80.2789 72.5411 80.5918 71.5005 80.5995C70.4599 80.6078 69.4398 80.3111 68.5664 79.7464C67.693 79.1818 67.0042 78.3737 66.5855 77.4223C66.1668 76.471 66.0363 75.4175 66.2106 74.3929L66.682 71.6172C66.7933 70.9627 66.6395 70.2914 66.2549 69.7499C65.8703 69.209 65.2863 68.8422 64.631 68.7311L62.1188 68.3052L62.1137 68.2981C61.057 68.1722 60.062 67.7335 59.2574 67.0378C58.4528 66.3421 57.8753 65.4209 57.6 64.3944C57.3247 63.3679 57.3633 62.2823 57.7119 61.2777C58.0605 60.273 58.7017 59.3962 59.5545 58.7596C60.4067 58.123 61.4306 57.7562 62.4938 57.7061C63.5569 57.656 64.6104 57.9258 65.5192 58.4802C66.4273 59.0345 67.1483 59.8478 67.5895 60.8152C68.03 61.7826 68.1709 62.8598 67.9927 63.9082L67.9921 63.9069ZM85.6538 73.1544C85.6538 74.8843 84.2498 76.2866 82.5178 76.2866C80.7858 76.2866 79.3817 74.8843 79.3817 73.1544C79.3817 71.4245 80.7858 70.0222 82.5178 70.0222C84.2498 70.0222 85.6538 71.4245 85.6538 73.1544ZM59.3327 76.0965C59.3327 79.0334 56.9491 81.414 54.0086 81.414C51.0681 81.414 48.6846 79.0334 48.6846 76.0965C48.6846 73.1596 51.0681 70.7789 54.0086 70.7789C56.9491 70.7789 59.3327 73.1596 59.3327 76.0965Z" fill="#212121"/>
<path d="M67.0599 4.76172C68.3543 4.76172 69.6474 4.8003 70.9391 4.87747C72.2308 4.95596 73.5186 5.07171 74.8023 5.22737C76.0874 5.38303 77.3658 5.57594 78.6388 5.80877C79.9119 6.04159 81.177 6.31167 82.4328 6.62033C83.6899 6.92766 84.935 7.27357 86.1708 7.65673C87.4066 8.04122 88.6304 8.46031 89.8409 8.91797C91.0514 9.37431 92.2459 9.8679 93.4271 10.3961C94.6083 10.9256 95.7709 11.4897 96.9174 12.0884C98.0653 12.6871 99.1919 13.3204 100.301 13.9869C101.409 14.6534 102.497 15.3533 103.562 16.085C104.629 16.8167 105.673 17.5804 106.693 18.376C107.713 19.1702 108.709 19.9951 109.679 20.8506C110.65 21.7047 111.594 22.5881 112.511 23.5008C113.429 24.4121 114.317 25.3501 115.179 26.316C116.039 27.2805 116.87 28.2704 117.672 29.2855C118.472 30.3006 119.242 31.3397 119.981 32.4014C120.718 33.463 121.424 34.5447 122.098 35.6489C122.771 36.7532 123.41 37.8761 124.016 39.0189C124.622 40.1617 125.192 41.3205 125.727 42.498C126.262 43.6741 126.763 44.8661 127.226 46.0728C127.69 47.2795 128.116 48.4995 128.506 49.7315C128.896 50.9648 129.249 52.2074 129.565 53.462C129.88 54.7153 130.157 55.9779 130.396 57.2484C130.635 58.5176 130.837 59.7949 130.998 61.0774C131.16 62.3599 131.284 63.6465 131.368 64.9356C131.453 66.2262 131.498 67.5167 131.505 68.8098C131.512 70.103 131.48 71.3935 131.409 72.6854C131.339 73.9759 131.228 75.2624 131.079 76.5476C130.931 77.8315 130.743 79.11 130.517 80.3832C130.292 81.6551 130.028 82.9204 129.726 84.1776C129.424 85.4349 129.084 86.6815 128.707 87.9174C128.329 89.1547 127.916 90.3787 127.465 91.5894C127.013 92.8014 126.526 93.9988 126.003 95.1802C125.481 96.363 124.921 97.5285 124.329 98.6766C123.735 99.8261 123.108 100.956 122.446 102.067C121.784 103.177 121.09 104.268 120.363 105.337C119.636 106.406 118.877 107.452 118.086 108.477C117.296 109.5 116.476 110.499 115.625 111.473C114.774 112.447 113.895 113.394 112.987 114.316C112.08 115.236 111.145 116.129 110.184 116.995C109.222 117.86 108.235 118.696 107.223 119.5C106.211 120.307 105.176 121.081 104.118 121.823C103.059 122.567 101.979 123.278 100.877 123.956C99.7752 124.635 98.6553 125.28 97.514 125.891C96.3741 126.501 95.2169 127.077 94.041 127.619C92.8665 128.159 91.676 128.664 90.4708 129.134C89.2656 129.604 88.0458 130.037 86.8153 130.433C85.5835 130.829 84.3411 131.188 83.088 131.51C81.8349 131.831 80.5724 132.114 79.302 132.36C78.0316 132.605 76.7545 132.813 75.4721 132.982C74.1897 133.151 72.9033 133.28 71.6116 133.372C70.3212 133.463 69.0295 133.515 67.7351 133.528C66.442 133.542 65.149 133.517 63.8559 133.453C62.5642 133.389 61.2751 133.285 59.9887 133.144C58.7023 133.002 57.4213 132.821 56.1468 132.603C54.8711 132.383 53.6033 132.126 52.3436 131.831C51.0838 131.536 49.8347 131.203 48.5949 130.833C47.3551 130.463 46.1286 130.055 44.9128 129.61C43.6983 129.167 42.4972 128.686 41.3106 128.17C40.1254 127.653 38.9549 127.101 37.803 126.514C36.6498 125.928 35.5152 125.306 34.4006 124.652C33.2846 123.997 32.19 123.308 31.1153 122.587C30.042 121.867 28.9913 121.114 27.9619 120.329C26.9339 119.546 25.9298 118.731 24.9497 117.887C23.9709 117.042 23.0174 116.168 22.0906 115.266C21.1637 114.364 20.2648 113.435 19.3939 112.478C18.523 111.523 17.6827 110.541 16.8704 109.534C16.0594 108.528 15.2777 107.497 14.5293 106.444C13.7796 105.39 13.0618 104.315 12.3773 103.219C11.6928 102.121 11.0416 101.005 10.4237 99.8687C9.80717 98.7325 9.2239 97.579 8.67658 96.4082C8.12793 95.2375 7.61657 94.0507 7.13983 92.8493C6.66309 91.6466 6.22363 90.432 5.82147 89.2026C5.41797 87.9747 5.05176 86.736 4.72417 85.4854C4.39524 84.2348 4.10494 82.9762 3.85325 81.7083C3.60023 80.4404 3.38583 79.1659 3.21005 77.8847C3.0356 76.6048 2.89844 75.3196 2.79989 74.0304C2.70135 72.7412 2.64276 71.4507 2.62278 70.1576C2.60147 68.8657 2.62012 67.5739 2.67871 66.282C2.73597 64.9902 2.83185 63.7023 2.96768 62.4171C3.10218 61.1306 3.27663 59.8507 3.48837 58.5749C3.70144 57.3003 3.95179 56.0324 4.24077 54.7725C4.52974 53.5126 4.856 52.262 5.22088 51.022C5.58443 49.7821 5.98659 48.5527 6.42472 47.3367C6.86284 46.1207 7.33691 44.918 7.84828 43.7313C8.35831 42.5432 8.9043 41.3724 9.48624 40.2176C10.0682 39.0628 10.6834 37.9253 11.3333 36.8077C11.9831 35.6902 12.6663 34.5926 13.3814 33.5163C14.0978 32.4399 14.8462 31.3849 15.6253 30.3538C16.4056 29.3214 17.2153 28.3143 18.0556 27.3311C18.8959 26.3492 19.7641 25.3913 20.663 24.4614C21.5605 23.5301 22.4861 22.628 23.4382 21.7526C24.3904 20.8772 25.3691 20.0324 26.3719 19.2155C27.376 18.3999 28.4027 17.615 29.4534 16.8606C30.5041 16.1063 31.5774 15.3839 32.6707 14.6947C33.7654 14.0042 34.88 13.3483 36.0132 12.7257L51.5366 40.936C50.9693 41.2474 50.4126 41.576 49.8653 41.9206C49.318 42.2651 48.7827 42.627 48.2567 43.0035C47.732 43.3814 47.2179 43.7738 46.7159 44.181C46.2152 44.5894 45.7251 45.0125 45.2497 45.4502C44.773 45.8879 44.3109 46.3389 43.8621 46.8046C43.412 47.2689 42.9779 47.7478 42.5584 48.2388C42.1376 48.731 41.7328 49.2339 41.3426 49.7501C40.9537 50.2663 40.5795 50.7932 40.2213 51.332C39.8631 51.8695 39.5222 52.419 39.1973 52.9777C38.8723 53.5365 38.5634 54.1046 38.2731 54.682C37.9828 55.2594 37.7098 55.8448 37.4541 56.4395C37.1984 57.0329 36.9614 57.6342 36.743 58.2423C36.5233 58.8503 36.3222 59.4636 36.1411 60.0849C35.9586 60.7049 35.7948 61.3302 35.651 61.9595C35.5059 62.5901 35.3807 63.2234 35.2741 63.8606C35.1689 64.4993 35.0811 65.1392 35.0145 65.7818C34.9466 66.4244 34.8986 67.0683 34.8693 67.7149C34.84 68.3602 34.8307 69.0067 34.8414 69.652C34.852 70.2986 34.8813 70.9438 34.9306 71.5891C34.9798 72.233 35.0478 72.8756 35.1357 73.5156C35.2235 74.1568 35.3301 74.7928 35.4566 75.4274C35.5831 76.0607 35.7283 76.6913 35.892 77.3166C36.0558 77.9406 36.2396 78.5605 36.4407 79.1752C36.6418 79.7899 36.8615 80.3965 37.0999 80.9979C37.3382 81.5992 37.5939 82.1926 37.8683 82.778C38.1426 83.3634 38.4342 83.9395 38.7418 84.5076C39.0508 85.0756 39.377 85.6344 39.7193 86.1826C40.0615 86.7307 40.4197 87.2682 40.7939 87.795C41.1695 88.3219 41.5597 88.8381 41.9658 89.341C42.3707 89.8439 42.7915 90.3348 43.2269 90.8125C43.6624 91.2914 44.1125 91.7557 44.5759 92.2067C45.0393 92.6578 45.5161 93.0941 46.0048 93.5172C46.4949 93.939 46.9969 94.3461 47.5109 94.7385C48.0249 95.131 48.551 95.5062 49.0876 95.8667C49.6256 96.2273 50.1729 96.5719 50.7296 96.8992C51.2876 97.2264 51.8548 97.5378 52.4315 97.8305C53.0081 98.1245 53.5927 98.3999 54.1853 98.658C54.7792 98.9161 55.3785 99.1569 55.987 99.3791C56.5943 99.6013 57.2082 99.8048 57.8274 99.9897C58.448 100.175 59.0725 100.341 59.7024 100.489C60.3323 100.636 60.9662 100.765 61.604 100.874C62.2406 100.984 62.8811 101.074 63.5243 101.145C64.1675 101.216 64.8121 101.268 65.4579 101.3C66.1038 101.332 66.751 101.344 67.3982 101.337C68.0454 101.331 68.6912 101.306 69.3358 101.259C69.9816 101.214 70.6248 101.149 71.2667 101.065C71.9072 100.98 72.5464 100.876 73.1816 100.753C73.8168 100.631 74.4467 100.489 75.074 100.328C75.7012 100.168 76.3217 99.9884 76.937 99.7902C77.5535 99.5919 78.1621 99.3751 78.7654 99.1409C79.3686 98.9054 79.9639 98.6527 80.5511 98.3826C81.1384 98.1125 81.7177 97.8238 82.2876 97.5178C82.8576 97.2131 83.4182 96.8912 83.9682 96.5519C84.5195 96.2127 85.0602 95.8574 85.5889 95.4849C86.1175 95.1137 86.6356 94.7266 87.1416 94.3234C87.6476 93.9203 88.1417 93.5026 88.6224 93.0702C89.1032 92.6378 89.5706 92.1921 90.0233 91.7304C90.4774 91.2701 90.9169 90.7965 91.343 90.3095C91.7678 89.8226 92.178 89.3237 92.5735 88.8115C92.969 88.2993 93.3472 87.7764 93.7121 87.2416C94.0756 86.7067 94.4219 86.1626 94.7535 85.6065C95.0837 85.0517 95.398 84.4863 95.695 83.9115C95.9906 83.3381 96.2702 82.7554 96.5312 82.1633C96.7936 81.5726 97.0373 80.9739 97.2623 80.3686C97.4874 79.7619 97.6951 79.1499 97.8842 78.5326C98.072 77.914 98.2424 77.29 98.3929 76.662C98.5447 76.0341 98.6766 75.4008 98.7884 74.7648C98.9016 74.1289 98.9962 73.489 99.0694 72.8464C99.144 72.2051 99.1986 71.5612 99.2346 70.9159C99.2705 70.2707 99.2865 69.6241 99.2825 68.9788C99.2798 68.3322 99.2572 67.6856 99.2146 67.0417C99.172 66.3964 99.1107 65.7538 99.0295 65.1126C98.9482 64.4713 98.8484 63.8327 98.7285 63.1968C98.6087 62.5622 98.4702 61.9315 98.313 61.3036C98.1546 60.6769 97.9788 60.0556 97.783 59.4396C97.5886 58.8236 97.3755 58.213 97.1438 57.6103C96.9108 57.0063 96.6618 56.4103 96.3941 55.8222C96.1264 55.2342 95.8401 54.6541 95.5378 54.0833C95.2355 53.5113 94.9159 52.9498 94.579 52.3977C94.2421 51.8456 93.8892 51.3041 93.5203 50.7746C93.1515 50.2437 92.7666 49.7235 92.3658 49.2166C91.9649 48.7084 91.5494 48.2135 91.1193 47.7305C90.6892 47.2489 90.2444 46.7793 89.7863 46.3229C89.3269 45.8679 88.8555 45.4262 88.3694 44.9992C87.8847 44.5708 87.3866 44.1583 86.8766 43.7619C86.3666 43.3641 85.8445 42.9822 85.3119 42.6164C84.7792 42.2492 84.2346 41.9006 83.6806 41.5667C83.1266 41.2327 82.562 40.9174 81.9893 40.6181C81.4154 40.3174 80.8335 40.0367 80.2435 39.7719C79.6536 39.5072 79.0557 39.261 78.4511 39.0322C77.8452 38.8034 77.2339 38.5932 76.616 38.4016C75.9981 38.21 75.3749 38.037 74.7464 37.8827C74.1178 37.7297 73.4866 37.594 72.8501 37.4783C72.2135 37.3612 71.5743 37.2654 70.9311 37.1869C70.2892 37.1097 69.6447 37.0512 69.0002 37.0126C68.3543 36.974 67.7071 36.9541 67.0599 36.9541V4.76172Z" fill="#212121"/>
<path d="M36.0137 12.7243C40.1698 10.4413 44.5257 8.63853 49.0814 7.31608C53.6357 5.99363 58.2806 5.18473 63.0147 4.88672L65.0376 37.0166C62.6712 37.1656 60.3487 37.57 58.0716 38.2312C55.7931 38.8925 53.6158 39.7932 51.537 40.9347L36.0137 12.7243Z" fill="#091DFF"/>
<path d="M63.0137 4.88811C64.3587 4.80429 65.705 4.76172 67.054 4.76172L67.0566 36.9541C66.3828 36.9541 65.709 36.9754 65.0365 37.0179L63.0137 4.88811Z" fill="#3CDCE5"/>
</svg>
