<svg width="54" height="46" viewBox="0 0 54 46" fill="none" xmlns="http://www.w3.org/2000/svg">
<path fill-rule="evenodd" clip-rule="evenodd" d="M43.1137 15.0297C43.1137 17.4944 41.2354 19.4911 38.9168 19.4911C36.5983 19.4911 34.7199 17.4944 34.7199 15.0297C34.7199 12.5651 36.5983 10.5684 38.9168 10.5684C41.2354 10.5684 43.1137 12.5651 43.1137 15.0297ZM27.7489 18.5281C27.7386 18.5988 27.7233 18.6696 27.7131 18.7403L27.3189 21.2104C27.2166 21.8415 27.3548 22.4889 27.7079 23.0112C28.056 23.5335 28.5883 23.8872 29.182 23.996L31.956 24.4965H31.9612C32.8824 24.7251 33.7218 25.231 34.377 25.9546C35.0321 26.6783 35.4723 27.5869 35.6463 28.5771C35.8203 29.5618 35.7179 30.5847 35.3494 31.5042C34.9809 32.4291 34.3718 33.218 33.5836 33.7784C32.8005 34.3388 31.8793 34.638 30.9324 34.6434C29.9907 34.6489 29.0643 34.366 28.2709 33.8165C27.4776 33.2724 26.8532 32.4944 26.4744 31.5749C26.0957 30.6554 25.978 29.638 26.1366 28.6478L26.5666 25.971C26.6689 25.3399 26.5256 24.6924 26.1776 24.1701C25.8296 23.6478 25.2973 23.2941 24.7035 23.1853L22.4259 22.7718C21.4688 22.6467 20.5629 22.2223 19.8361 21.5477C19.1042 20.873 18.5822 19.9862 18.3314 18.996C18.0806 18.0058 18.1164 16.9557 18.4337 15.9873C18.7511 15.0188 19.3294 14.1701 20.1023 13.5553C20.8751 12.9405 21.8066 12.5869 22.7689 12.5379C23.7311 12.4889 24.6882 12.7501 25.5122 13.2833C26.3363 13.8165 26.9914 14.6054 27.3906 15.5357C27.7898 16.4715 27.9178 17.5107 27.7591 18.5227M43.7689 27.4563C43.7689 29.1266 42.4944 30.4813 40.9231 30.4813C39.3519 30.4813 38.0774 29.1266 38.0774 27.4563C38.0774 25.786 39.3519 24.4313 40.9231 24.4313C42.4944 24.4313 43.7689 25.786 43.7689 27.4563ZM19.8924 30.2963C19.8924 33.1309 17.7325 35.4323 15.0608 35.4323C12.3891 35.4323 10.2344 33.1309 10.2344 30.2963C10.2344 27.4617 12.3994 25.1603 15.066 25.1603C17.7325 25.1603 19.8975 27.4563 19.8975 30.2963" fill="black"/>
</svg>
