<svg width="30" height="30" viewBox="0 0 30 30" fill="none" xmlns="http://www.w3.org/2000/svg">
<path d="M23.75 15C23.75 14.6685 23.8817 14.3505 24.1161 14.1161C24.3505 13.8817 24.6685 13.75 25 13.75H25.0125C25.344 13.75 25.662 13.8817 25.8964 14.1161C26.1308 14.3505 26.2625 14.6685 26.2625 15C26.2625 15.3315 26.1308 15.6495 25.8964 15.8839C25.662 16.1183 25.344 16.25 25.0125 16.25H25C24.6685 16.25 24.3505 16.1183 24.1161 15.8839C23.8817 15.6495 23.75 15.3315 23.75 15Z" fill="#061EFA"/>
<path fill-rule="evenodd" clip-rule="evenodd" d="M23.25 5H4.25C3.45435 5 2.69129 5.31607 2.12868 5.87868C1.56607 6.44129 1.25 7.20435 1.25 8V22C1.25 22.7957 1.56607 23.5587 2.12868 24.1213C2.69129 24.6839 3.45435 25 4.25 25H23.25C24.0457 25 24.8087 24.6839 25.3713 24.1213C25.9339 23.5587 26.25 22.7957 26.25 22V20H26.75C27.612 20 28.4386 19.6576 29.0481 19.0481C29.6576 18.4386 30 17.612 30 16.75V13.25C30 12.8232 29.9159 12.4006 29.7526 12.0063C29.5893 11.612 29.3499 11.2537 29.0481 10.9519C28.7463 10.6501 28.388 10.4107 27.9937 10.2474C27.5994 10.0841 27.1768 10 26.75 10H26.25V8C26.25 7.20435 25.9339 6.44129 25.3713 5.87868C24.8087 5.31607 24.0457 5 23.25 5ZM20.75 12.5C20.5511 12.5 20.3603 12.579 20.2197 12.7197C20.079 12.8603 20 13.0511 20 13.25V16.75C20 16.9489 20.079 17.1397 20.2197 17.2803C20.3603 17.421 20.5511 17.5 20.75 17.5H26.75C26.9489 17.5 27.1397 17.421 27.2803 17.2803C27.421 17.1397 27.5 16.9489 27.5 16.75V13.25C27.5 13.0511 27.421 12.8603 27.2803 12.7197C27.1397 12.579 26.9489 12.5 26.75 12.5H20.75Z" fill="#061EFA"/>
</svg>
