<svg width="280" height="63" viewBox="0 0 280 63" fill="none" xmlns="http://www.w3.org/2000/svg">
<g clip-path="url(#clip0_7329_2808)">
<path fill-rule="evenodd" clip-rule="evenodd" d="M87.6783 11.4457C87.6783 17.5799 82.6693 22.5495 76.4865 22.5495C70.3037 22.5495 65.2947 17.5799 65.2947 11.4457C65.2947 5.31145 70.3037 0.341797 76.4865 0.341797C82.6693 0.341797 87.6783 5.31145 87.6783 11.4457ZM46.7053 20.1527C46.678 20.3287 46.6371 20.5048 46.6098 20.6808L45.5589 26.8286C45.2859 28.3994 45.6544 30.0108 46.5962 31.3107C47.5243 32.6107 48.9437 33.4909 50.5269 33.7617L57.9244 35.0075H57.9381C60.3948 35.5762 62.6332 36.8356 64.3802 38.6366C66.1272 40.4376 67.301 42.699 67.7651 45.1635C68.2291 47.6144 67.9561 50.1602 66.9734 52.4487C65.9907 54.7507 64.3666 56.7142 62.2647 58.1089C60.1765 59.5037 57.7197 60.2485 55.1947 60.262C52.6834 60.2756 50.213 59.5714 48.0975 58.2037C45.982 56.8496 44.3168 54.9132 43.3069 52.6247C42.2969 50.3362 41.9829 47.804 42.406 45.3395L43.5525 38.6772C43.8255 37.1064 43.4433 35.495 42.5152 34.195C41.5871 32.8951 40.1677 32.0149 38.5845 31.7441L32.5108 30.7149C29.9586 30.4035 27.5428 29.3472 25.6047 27.6681C23.6529 25.989 22.2608 23.7818 21.592 21.3173C20.9232 18.8527 21.0188 16.2393 21.865 13.8289C22.7112 11.4186 24.2535 9.30613 26.3144 7.77597C28.3753 6.2458 30.8594 5.36562 33.4253 5.24374C35.9912 5.12187 38.5435 5.77185 40.7409 7.0989C42.9383 8.42595 44.6854 10.3894 45.7499 12.705C46.8145 15.0341 47.1558 17.6205 46.7326 20.1392M89.4253 42.374C89.4253 46.5311 86.0268 49.9029 81.8367 49.9029C77.6466 49.9029 74.2481 46.5311 74.2481 42.374C74.2481 38.2168 77.6466 34.845 81.8367 34.845C86.0268 34.845 89.4253 38.2168 89.4253 42.374ZM25.7548 49.4425C25.7548 56.4975 19.9951 62.2255 12.8706 62.2255C5.74604 62.2255 0 56.4975 0 49.4425C0 42.3875 5.77334 36.6595 12.8842 36.6595C19.9951 36.6595 25.7685 42.374 25.7685 49.4425" fill="#212121"/>
<path d="M258.832 43.873H263.391V50.3322L272.576 43.873H280.001L266.803 53.1624L280.001 62.2215H272.426L263.391 56.006V62.2215H258.832V43.873Z" fill="#212121"/>
<path d="M235.492 43.873H249.523C250.342 43.873 251.092 44.022 251.802 44.3199C252.526 44.6043 253.153 45.0105 253.686 45.5657C254.218 46.0938 254.627 46.7438 254.941 47.5157C255.269 48.274 255.433 49.1 255.433 50.0343C255.433 50.8604 255.31 51.6187 255.064 52.3228C254.819 52.9999 254.477 53.6092 254.041 54.1238C253.617 54.6519 253.126 55.0852 252.539 55.4238C251.966 55.7623 251.338 55.9925 250.656 56.1279L254.982 62.2215H249.441L245.169 56.2092H240.078V62.2215H235.519V43.873H235.492ZM240.051 51.9707H248.103C249.059 51.9707 249.741 51.8082 250.178 51.4562C250.628 51.1041 250.86 50.6166 250.86 50.0208C250.86 49.425 250.628 48.9781 250.178 48.6396C249.741 48.2875 249.045 48.0979 248.103 48.0979H240.051V51.9572V51.9707Z" fill="#212121"/>
<path d="M210.176 51.7812C210.176 50.5895 210.367 49.5198 210.749 48.5583C211.131 47.5834 211.663 46.7438 212.373 46.0532C213.069 45.3626 213.902 44.8209 214.871 44.4418C215.854 44.0626 216.945 43.873 218.147 43.873H224.125C225.326 43.873 226.404 44.0626 227.373 44.4418C228.356 44.8209 229.202 45.349 229.898 46.0532C230.594 46.7573 231.14 47.5834 231.522 48.5583C231.904 49.5198 232.095 50.5895 232.095 51.7812V54.3269C232.095 55.5186 231.904 56.5883 231.522 57.5768C231.14 58.5383 230.608 59.3643 229.898 60.0549C229.202 60.7455 228.356 61.2871 227.373 61.6663C226.404 62.0455 225.326 62.235 224.125 62.235H218.147C216.945 62.235 215.867 62.0455 214.871 61.6663C213.902 61.2871 213.069 60.759 212.373 60.0549C211.677 59.3643 211.131 58.5247 210.749 57.5768C210.367 56.6019 210.176 55.5186 210.176 54.3269V51.7812ZM214.734 54.3134C214.734 55.4238 215.048 56.3175 215.676 56.9946C216.304 57.6581 217.123 57.9831 218.147 57.9831H224.125C225.148 57.9831 225.967 57.6581 226.595 56.9946C227.223 56.3175 227.537 55.4238 227.537 54.3134V51.7676C227.537 50.6572 227.223 49.777 226.595 49.1135C225.967 48.4365 225.148 48.0979 224.125 48.0979H218.147C217.123 48.0979 216.29 48.4365 215.676 49.1135C215.048 49.777 214.734 50.6572 214.734 51.7676V54.3134Z" fill="#212121"/>
<path d="M178.031 43.873L183.504 58.0779L188.731 43.873H193.59L199.063 58.0779L204.291 43.873H209.163L202.393 62.2215H195.788L191.202 50.3322L186.82 62.2215H180.228L173.172 43.873H178.031Z" fill="#212121"/>
<path d="M172.028 48.1115H164.918V62.2215H160.373V48.1115H153.262V43.873H172.028V48.1115Z" fill="#212121"/>
<path d="M150.694 62.2215H131.805V43.873H150.694V48.1115H136.35V50.9281H149.548V55.1665H136.35V57.9831H150.694V62.2215Z" fill="#212121"/>
<path d="M107.918 43.873H116.271L123.273 59.8247V43.873H127.818V62.2215H119.656L112.463 45.823V62.2215H107.918V43.873Z" fill="#212121"/>
<path d="M244.621 26.744H267.81C269.353 26.744 270.417 26.5138 270.99 26.0534C271.605 25.593 271.905 24.9295 271.905 24.0764C271.905 23.2233 271.605 22.5192 270.99 22.0994C270.417 21.639 269.353 21.4088 267.81 21.4088H255.677C253.657 21.4088 251.896 21.1244 250.395 20.5557C248.88 19.9869 247.624 19.2015 246.614 18.1995C245.645 17.1974 244.908 16.0464 244.403 14.7194C243.939 13.3653 243.707 11.9163 243.707 10.3862C243.707 7.28521 244.69 4.78008 246.669 2.89784C248.689 0.961432 251.76 0 255.895 0H278.538V8.02999H255.895C254.353 8.02999 253.275 8.26019 252.66 8.72059C252.087 9.15391 251.801 9.80389 251.801 10.6976C251.801 11.5913 252.087 12.2142 252.66 12.6746C253.275 13.1351 254.353 13.3653 255.895 13.3653H268.029C270.049 13.3653 271.809 13.6496 273.311 14.2184C274.826 14.7871 276.054 15.5725 277.023 16.5745C278.033 17.5766 278.77 18.7547 279.234 20.1088C279.739 21.4359 279.985 22.8577 279.985 24.3879C279.985 25.918 279.739 27.3263 279.234 28.6127C278.77 29.8992 278.033 30.996 277.023 31.9304C276.013 32.8241 274.744 33.5147 273.202 34.0157C271.687 34.5168 269.899 34.7605 267.81 34.7605H244.621V26.7305V26.744Z" fill="#212121"/>
<path d="M238.303 19.7974C238.303 22.0452 237.948 24.09 237.225 25.9451C236.501 27.7596 235.478 29.3304 234.154 30.6575C232.83 31.971 231.219 32.9866 229.363 33.7043C227.534 34.422 225.473 34.774 223.221 34.774H212.439C210.173 34.774 208.112 34.422 206.243 33.7043C204.414 32.9866 202.83 31.971 201.493 30.6575C200.169 29.344 199.145 27.7732 198.422 25.9451C197.699 24.09 197.344 22.0452 197.344 19.7974V0H205.97V19.7974C205.97 21.8963 206.557 23.6025 207.744 24.8754C208.931 26.1212 210.487 26.744 212.439 26.744H223.221C225.16 26.744 226.729 26.1212 227.917 24.8754C229.104 23.5889 229.691 21.8963 229.691 19.7974V0H238.317V19.7974H238.303Z" fill="#212121"/>
<path d="M154.176 0H180.763C182.305 0 183.752 0.284367 185.076 0.853101C186.441 1.38121 187.628 2.16661 188.638 3.20929C189.648 4.21134 190.44 5.4436 191.013 6.90606C191.627 8.32789 191.928 9.92577 191.928 11.6726C191.928 13.4194 191.627 15.0308 191.013 16.4933C190.44 17.9151 189.648 19.1474 188.638 20.1901C187.628 21.2192 186.441 22.0317 185.076 22.6004C183.752 23.1421 182.305 23.3994 180.763 23.3994H162.815V34.7876H154.189V0H154.176ZM162.802 15.3558H178.061C179.862 15.3558 181.173 15.0308 181.992 14.3944C182.851 13.7173 183.288 12.8101 183.288 11.6726C183.288 10.5351 182.851 9.69557 181.992 9.04558C181.173 8.36852 179.849 8.02999 178.061 8.02999H162.802V15.3558Z" fill="#212121"/>
<path d="M123.436 0H134.874L150.406 34.774H141.016L129.155 8.17894L117.295 34.774H107.918L123.436 0Z" fill="#212121"/>
</g>
<defs>
<clipPath id="clip0_7329_2808">
<rect width="280" height="62.2222" fill="white"/>
</clipPath>
</defs>
</svg>
