<svg width="36" height="35" viewBox="0 0 36 35" fill="none" xmlns="http://www.w3.org/2000/svg">
<path fill-rule="evenodd" clip-rule="evenodd" d="M17.5737 9.68089C17.8471 9.95436 18.0007 10.3252 18.0007 10.7119C18.0007 11.0986 17.8471 11.4695 17.5737 11.743L11.3131 18.0036L17.5737 24.2642C17.8393 24.5393 17.9863 24.9076 17.983 25.29C17.9797 25.6724 17.8263 26.0382 17.5559 26.3085C17.2855 26.5789 16.9198 26.7323 16.5374 26.7356C16.155 26.7389 15.7867 26.592 15.5116 26.3263L8.21995 19.0346C7.94655 18.7612 7.79297 18.3903 7.79297 18.0036C7.79297 17.6169 7.94655 17.246 8.21995 16.9726L15.5116 9.68089C15.7851 9.40749 16.156 9.25391 16.5427 9.25391C16.9294 9.25391 17.3002 9.40749 17.5737 9.68089ZM26.3237 9.68089C26.5971 9.95436 26.7507 10.3252 26.7507 10.7119C26.7507 11.0986 26.5971 11.4695 26.3237 11.743L20.0631 18.0036L26.3237 24.2642C26.5893 24.5393 26.7363 24.9076 26.733 25.29C26.7297 25.6724 26.5763 26.0382 26.3059 26.3085C26.0355 26.5789 25.6698 26.7323 25.2874 26.7356C24.905 26.7389 24.5367 26.592 24.2616 26.3263L16.9699 19.0346C16.6966 18.7612 16.543 18.3903 16.543 18.0036C16.543 17.6169 16.6966 17.246 16.9699 16.9726L24.2616 9.68089C24.5351 9.40749 24.906 9.25391 25.2927 9.25391C25.6794 9.25391 26.0502 9.40749 26.3237 9.68089Z" fill="white"/>
</svg>
