<svg width="19" height="18" viewBox="0 0 19 18" fill="none" xmlns="http://www.w3.org/2000/svg">
<g clip-path="url(#clip0_8547_2688)">
<path d="M16.0347 6.09681L15.8502 6.52131C15.8214 6.59044 15.7728 6.64948 15.7104 6.69102C15.6481 6.73255 15.5749 6.75471 15.5 6.75471C15.4251 6.75471 15.3519 6.73255 15.2896 6.69102C15.2272 6.64948 15.1786 6.59044 15.1498 6.52131L14.9653 6.09681C14.6409 5.34585 14.0468 4.74375 13.3002 4.40931L12.731 4.15506C12.6619 4.12329 12.6034 4.07239 12.5624 4.00838C12.5214 3.94438 12.4996 3.86995 12.4996 3.79394C12.4996 3.71792 12.5214 3.6435 12.5624 3.57949C12.6034 3.51548 12.6619 3.46458 12.731 3.43281L13.2687 3.19356C14.0341 2.8496 14.6383 2.22522 14.957 1.44906L15.1467 0.990811C15.1746 0.919826 15.2232 0.858884 15.2862 0.81593C15.3492 0.772975 15.4237 0.75 15.5 0.75C15.5763 0.75 15.6508 0.772975 15.7138 0.81593C15.7768 0.858884 15.8254 0.919826 15.8533 0.990811L16.043 1.44831C16.3614 2.22462 16.9653 2.84926 17.7305 3.19356L18.269 3.43356C18.3379 3.46542 18.3961 3.51632 18.437 3.58024C18.4779 3.64417 18.4996 3.71845 18.4996 3.79431C18.4996 3.87018 18.4779 3.94446 18.437 4.00838C18.3961 4.0723 18.3379 4.1232 18.269 4.15506L17.699 4.40856C16.9526 4.74334 16.3588 5.34571 16.0347 6.09681ZM15.5 8.25081C16.009 8.25121 16.5145 8.16525 16.9948 7.99656C16.9983 8.08156 17 8.16631 17 8.25081C17 9.84211 16.3679 11.3682 15.2426 12.4935C14.1174 13.6187 12.5913 14.2508 11 14.2508V16.8758C7.25 15.3758 2 13.1258 2 8.25081C2 6.65951 2.63214 5.13339 3.75736 4.00817C4.88258 2.88295 6.4087 2.25081 8 2.25081H11C11.085 2.25081 11.1698 2.25256 11.2542 2.25606C11.0152 2.93475 10.9425 3.66087 11.042 4.37349C11.1416 5.08612 11.4106 5.76448 11.8265 6.35167C12.2424 6.93887 12.793 7.41777 13.4322 7.74822C14.0713 8.07866 14.7805 8.25101 15.5 8.25081Z" fill="white"/>
</g>
<defs>
<clipPath id="clip0_8547_2688">
<rect width="18" height="18" fill="white" transform="translate(0.5)"/>
</clipPath>
</defs>
</svg>
