<svg width="17" height="18" viewBox="0 0 17 18" fill="none" xmlns="http://www.w3.org/2000/svg">
<path d="M1.82143 0.5C0.815848 0.5 0 1.31585 0 2.32143V15.6786C0 16.6842 0.815848 17.5 1.82143 17.5H15.1786C16.1842 17.5 17 16.6842 17 15.6786V2.32143C17 1.31585 16.1842 0.5 15.1786 0.5H1.82143ZM8.5 2.92857C8.99406 3.27199 13.4685 7.49057 13.7041 7.90506V10.1888C13.3776 10.1968 9.03778 5.64941 8.5 5.43341C7.96222 5.64941 3.62244 10.1968 3.29591 10.1888V7.90506C3.53152 7.49057 8.00594 3.27195 8.5 2.92857ZM8.5 7.81121C8.99406 8.15463 13.4685 12.3732 13.7041 12.7877V15.0714C13.3776 15.0794 9.03778 10.532 8.5 10.316C7.96222 10.532 3.62244 15.0794 3.29591 15.0714V12.7877C3.53152 12.3732 8.00594 8.15459 8.5 7.81121Z" fill="white"/>
</svg>
