<svg width="25" height="24" viewBox="0 0 25 24" fill="none" xmlns="http://www.w3.org/2000/svg">
<path d="M7.5 21C6.95 21 6.47934 20.8043 6.088 20.413C5.69667 20.0217 5.50067 19.5507 5.5 19V6C5.21667 6 4.97934 5.904 4.788 5.712C4.59667 5.52 4.50067 5.28267 4.5 5C4.49934 4.71733 4.59534 4.48 4.788 4.288C4.98067 4.096 5.218 4 5.5 4H9.5C9.5 3.71667 9.596 3.47933 9.788 3.288C9.98 3.09667 10.2173 3.00067 10.5 3H14.5C14.7833 3 15.021 3.096 15.213 3.288C15.405 3.48 15.5007 3.71733 15.5 4H19.5C19.7833 4 20.021 4.096 20.213 4.288C20.405 4.48 20.5007 4.71733 20.5 5C20.4993 5.28267 20.4033 5.52033 20.212 5.713C20.0207 5.90567 19.7833 6.00133 19.5 6V19C19.5 19.55 19.3043 20.021 18.913 20.413C18.5217 20.805 18.0507 21.0007 17.5 21H7.5ZM10.5 17C10.7833 17 11.021 16.904 11.213 16.712C11.405 16.52 11.5007 16.2827 11.5 16V9C11.5 8.71667 11.404 8.47933 11.212 8.288C11.02 8.09667 10.7827 8.00067 10.5 8C10.2173 7.99933 9.98 8.09533 9.788 8.288C9.596 8.48067 9.5 8.718 9.5 9V16C9.5 16.2833 9.596 16.521 9.788 16.713C9.98 16.905 10.2173 17.0007 10.5 17ZM14.5 17C14.7833 17 15.021 16.904 15.213 16.712C15.405 16.52 15.5007 16.2827 15.5 16V9C15.5 8.71667 15.404 8.47933 15.212 8.288C15.02 8.09667 14.7827 8.00067 14.5 8C14.2173 7.99933 13.98 8.09533 13.788 8.288C13.596 8.48067 13.5 8.718 13.5 9V16C13.5 16.2833 13.596 16.521 13.788 16.713C13.98 16.905 14.2173 17.0007 14.5 17Z" fill="black"/>
</svg>
