<svg width="15" height="15" viewBox="0 0 15 15" fill="none" xmlns="http://www.w3.org/2000/svg">
<path d="M7.5 15C9.48912 15 11.3968 14.2098 12.8033 12.8033C14.2098 11.3968 15 9.48912 15 7.5C15 5.51088 14.2098 3.60322 12.8033 2.1967C11.3968 0.790176 9.48912 0 7.5 0C5.51088 0 3.60322 0.790176 2.1967 2.1967C0.790176 3.60322 0 5.51088 0 7.5C0 9.48912 0.790176 11.3968 2.1967 12.8033C3.60322 14.2098 5.51088 15 7.5 15ZM6.79688 10.0781V8.20312H4.92188C4.53223 8.20312 4.21875 7.88965 4.21875 7.5C4.21875 7.11035 4.53223 6.79688 4.92188 6.79688H6.79688V4.92188C6.79688 4.53223 7.11035 4.21875 7.5 4.21875C7.88965 4.21875 8.20312 4.53223 8.20312 4.92188V6.79688H10.0781C10.4678 6.79688 10.7812 7.11035 10.7812 7.5C10.7812 7.88965 10.4678 8.20312 10.0781 8.20312H8.20312V10.0781C8.20312 10.4678 7.88965 10.7812 7.5 10.7812C7.11035 10.7812 6.79688 10.4678 6.79688 10.0781Z" fill="white" fill-opacity="0.98"/>
</svg>
