<svg width="31" height="30" viewBox="0 0 31 30" fill="none" xmlns="http://www.w3.org/2000/svg">
<path d="M15.5 21.25C15.8542 21.25 16.1513 21.13 16.3913 20.89C16.6313 20.65 16.7508 20.3533 16.75 20V15C16.75 14.6458 16.63 14.3492 16.39 14.11C16.15 13.8708 15.8533 13.7508 15.5 13.75C15.1467 13.7492 14.85 13.8692 14.61 14.11C14.37 14.3508 14.25 14.6475 14.25 15V20C14.25 20.3542 14.37 20.6512 14.61 20.8912C14.85 21.1312 15.1467 21.2508 15.5 21.25ZM15.5 11.25C15.8542 11.25 16.1513 11.13 16.3913 10.89C16.6313 10.65 16.7508 10.3533 16.75 10C16.7492 9.64667 16.6292 9.35 16.39 9.11C16.1508 8.87 15.8542 8.75 15.5 8.75C15.1458 8.75 14.8492 8.87 14.61 9.11C14.3708 9.35 14.2508 9.64667 14.25 10C14.2492 10.3533 14.3692 10.6504 14.61 10.8913C14.8508 11.1321 15.1475 11.2517 15.5 11.25ZM15.5 27.5C13.7708 27.5 12.1458 27.1717 10.625 26.515C9.10417 25.8583 7.78125 24.9679 6.65625 23.8438C5.53125 22.7196 4.64084 21.3967 3.985 19.875C3.32917 18.3533 3.00083 16.7283 3 15C2.99917 13.2717 3.3275 11.6467 3.985 10.125C4.6425 8.60333 5.53292 7.28042 6.65625 6.15625C7.77958 5.03208 9.1025 4.14167 10.625 3.485C12.1475 2.82833 13.7725 2.5 15.5 2.5C17.2275 2.5 18.8525 2.82833 20.375 3.485C21.8975 4.14167 23.2204 5.03208 24.3438 6.15625C25.4671 7.28042 26.3579 8.60333 27.0163 10.125C27.6746 11.6467 28.0025 13.2717 28 15C27.9975 16.7283 27.6692 18.3533 27.015 19.875C26.3608 21.3967 25.4704 22.7196 24.3438 23.8438C23.2171 24.9679 21.8942 25.8587 20.375 26.5162C18.8558 27.1737 17.2308 27.5017 15.5 27.5ZM15.5 25C18.2917 25 20.6562 24.0312 22.5938 22.0938C24.5312 20.1562 25.5 17.7917 25.5 15C25.5 12.2083 24.5312 9.84375 22.5938 7.90625C20.6562 5.96875 18.2917 5 15.5 5C12.7083 5 10.3438 5.96875 8.40625 7.90625C6.46875 9.84375 5.5 12.2083 5.5 15C5.5 17.7917 6.46875 20.1562 8.40625 22.0938C10.3438 24.0312 12.7083 25 15.5 25Z" fill="#222222"/>
</svg>
