<svg width="16" height="16" viewBox="0 0 16 16" fill="none" xmlns="http://www.w3.org/2000/svg">
<path d="M6.59375 8C6.59375 7.62704 6.74191 7.26935 7.00563 7.00563C7.26935 6.74191 7.62704 6.59375 8 6.59375C8.37296 6.59375 8.73065 6.74191 8.99437 7.00563C9.25809 7.26935 9.40625 7.62704 9.40625 8C9.40625 8.37296 9.25809 8.73065 8.99437 8.99437C8.73065 9.25809 8.37296 9.40625 8 9.40625C7.62704 9.40625 7.26935 9.25809 7.00563 8.99437C6.74191 8.73065 6.59375 8.37296 6.59375 8Z" fill="white"/>
<path fill-rule="evenodd" clip-rule="evenodd" d="M1.75 8C1.75 9.025 2.01563 9.36937 2.54688 10.06C3.6075 11.4375 5.38625 13 8 13C10.6138 13 12.3925 11.4375 13.4531 10.06C13.9844 9.37 14.25 9.02437 14.25 8C14.25 6.975 13.9844 6.63063 13.4531 5.94C12.3925 4.5625 10.6138 3 8 3C5.38625 3 3.6075 4.5625 2.54688 5.94C2.01563 6.63125 1.75 6.97563 1.75 8ZM8 5.65625C7.3784 5.65625 6.78226 5.90318 6.34272 6.34272C5.90318 6.78226 5.65625 7.3784 5.65625 8C5.65625 8.6216 5.90318 9.21774 6.34272 9.65728C6.78226 10.0968 7.3784 10.3438 8 10.3438C8.6216 10.3438 9.21774 10.0968 9.65728 9.65728C10.0968 9.21774 10.3438 8.6216 10.3438 8C10.3438 7.3784 10.0968 6.78226 9.65728 6.34272C9.21774 5.90318 8.6216 5.65625 8 5.65625Z" fill="white"/>
</svg>
