<svg width="21" height="20" viewBox="0 0 21 20" fill="none" xmlns="http://www.w3.org/2000/svg">
<path fill-rule="evenodd" clip-rule="evenodd" d="M4.66667 2.5C4.22464 2.5 3.80072 2.67559 3.48816 2.98816C3.17559 3.30072 3 3.72464 3 4.16667V15.8333C3 16.2754 3.17559 16.6993 3.48816 17.0118C3.80072 17.3244 4.22464 17.5 4.66667 17.5H9.66667C10.1087 17.5 10.5326 17.3244 10.8452 17.0118C11.1577 16.6993 11.3333 16.2754 11.3333 15.8333V10.8333H16.3333C16.7754 10.8333 17.1993 10.6577 17.5118 10.3452C17.8244 10.0326 18 9.60869 18 9.16667V4.16667C18 3.72464 17.8244 3.30072 17.5118 2.98816C17.1993 2.67559 16.7754 2.5 16.3333 2.5H4.66667ZM10.5 10V4.16667H4.66667V10H10.5Z" fill="white"/>
</svg>
