<svg width="31" height="30" viewBox="0 0 31 30" fill="none" xmlns="http://www.w3.org/2000/svg">
<path d="M15.4987 19.666V9.33268V19.666ZM15.4987 9.33268L20.0195 13.8535L15.4987 9.33268ZM15.4987 9.33268L10.9779 13.8535L15.4987 9.33268ZM15.4987 1.58268C22.6326 1.58268 28.4154 7.36547 28.4154 14.4993C28.4154 21.6332 22.6326 27.416 15.4987 27.416C8.36482 27.416 2.58203 21.6332 2.58203 14.4993C2.58203 7.36547 8.36482 1.58268 15.4987 1.58268Z" fill="black"/>
<path d="M15.4987 19.666V9.33268M15.4987 9.33268L20.0195 13.8535M15.4987 9.33268L10.9779 13.8535M15.4987 1.58268C22.6326 1.58268 28.4154 7.36547 28.4154 14.4993C28.4154 21.6332 22.6326 27.416 15.4987 27.416C8.36482 27.416 2.58203 21.6332 2.58203 14.4993C2.58203 7.36547 8.36482 1.58268 15.4987 1.58268Z" stroke="white" stroke-width="1.5" stroke-linecap="round" stroke-linejoin="round"/>
</svg>
