<svg width="15" height="17" viewBox="0 0 15 17" fill="none" xmlns="http://www.w3.org/2000/svg">
<path d="M4.82143 4.78125V6.375H10.1786V4.78125C10.1786 3.31367 8.97991 2.125 7.5 2.125C6.02009 2.125 4.82143 3.31367 4.82143 4.78125ZM2.67857 6.375V4.78125C2.67857 2.1416 4.83817 0 7.5 0C10.1618 0 12.3214 2.1416 12.3214 4.78125V6.375H12.8571C14.0391 6.375 15 7.32793 15 8.5V14.875C15 16.0471 14.0391 17 12.8571 17H2.14286C0.960938 17 0 16.0471 0 14.875V8.5C0 7.32793 0.960938 6.375 2.14286 6.375H2.67857Z" fill="white" fill-opacity="0.98"/>
</svg>
