<svg width="31" height="30" viewBox="0 0 31 30" fill="none" xmlns="http://www.w3.org/2000/svg">
<rect x="0.5" width="30" height="30" rx="15" fill="#3242F5"/>
<path d="M16.9084 12.7464C16.8686 12.3454 16.6979 12.0339 16.3963 11.8118C16.0947 11.5897 15.6854 11.4787 15.1683 11.4787C14.817 11.4787 14.5204 11.5284 14.2784 11.6278C14.0365 11.724 13.8509 11.8582 13.7216 12.0305C13.5956 12.2029 13.5327 12.3984 13.5327 12.6172C13.526 12.7995 13.5642 12.9586 13.647 13.0945C13.7332 13.2304 13.8509 13.348 14 13.4474C14.1491 13.5436 14.3215 13.6281 14.517 13.701C14.7126 13.7706 14.9214 13.8303 15.1435 13.88L16.0582 14.0987C16.5024 14.1982 16.91 14.3307 17.2812 14.4964C17.6525 14.6622 17.974 14.866 18.2457 15.108C18.5175 15.3499 18.728 15.6349 18.8771 15.9631C19.0296 16.2912 19.1075 16.6674 19.1108 17.0916C19.1075 17.7147 18.9484 18.255 18.6335 18.7124C18.322 19.1664 17.8712 19.5194 17.2812 19.7713C16.6946 20.0199 15.987 20.1442 15.1584 20.1442C14.3364 20.1442 13.6205 20.0182 13.0107 19.7663C12.4041 19.5144 11.9302 19.1416 11.5888 18.6477C11.2507 18.1506 11.0734 17.5357 11.0568 16.8033H13.1399C13.1631 17.1446 13.2609 17.4297 13.4332 17.6584C13.6089 17.8838 13.8426 18.0545 14.1342 18.1705C14.4292 18.2831 14.7623 18.3395 15.1335 18.3395C15.4981 18.3395 15.8146 18.2865 16.0831 18.1804C16.3549 18.0743 16.5653 17.9268 16.7145 17.7379C16.8636 17.549 16.9382 17.3319 16.9382 17.0866C16.9382 16.858 16.8703 16.6657 16.7344 16.5099C16.6018 16.3542 16.4063 16.2216 16.1477 16.1122C15.8925 16.0028 15.5793 15.9034 15.2081 15.8139L14.0994 15.5355C13.241 15.3267 12.5632 15.0002 12.0661 14.5561C11.5689 14.112 11.322 13.5137 11.3253 12.7614C11.322 12.1449 11.486 11.6063 11.8175 11.1456C12.1522 10.6849 12.6113 10.3253 13.1946 10.0668C13.7779 9.80824 14.4408 9.67898 15.1832 9.67898C15.9389 9.67898 16.5985 9.80824 17.1619 10.0668C17.7287 10.3253 18.1695 10.6849 18.4844 11.1456C18.7992 11.6063 18.9616 12.1399 18.9716 12.7464H16.9084Z" fill="white"/>
</svg>
