<svg width="19" height="18" viewBox="0 0 19 18" fill="none" xmlns="http://www.w3.org/2000/svg">
<path d="M15.4994 10.4999C15.7884 10.5 16.0661 10.6113 16.2752 10.8107C16.4843 11.01 16.6087 11.2822 16.6226 11.5708C16.6365 11.8594 16.5388 12.1422 16.3498 12.3608C16.1608 12.5793 15.895 12.7167 15.6074 12.7446L15.4994 12.7499H6.21519L7.29519 13.8299C7.49977 14.0337 7.61812 14.3084 7.62574 14.5971C7.63337 14.8858 7.52968 15.1664 7.33615 15.3807C7.14261 15.5951 6.87406 15.7268 6.58609 15.7486C6.29813 15.7704 6.0128 15.6806 5.78919 15.4979L5.70369 15.4206L2.83194 12.5481C2.10144 11.8176 2.57694 10.5854 3.57519 10.5044L3.68019 10.4999H15.4994ZM11.7044 2.57986C11.9012 2.38291 12.164 2.26592 12.4421 2.25151C12.7201 2.2371 12.9936 2.3263 13.2097 2.50186L13.2952 2.57911L16.1669 5.45161C16.8974 6.18211 16.4219 7.41436 15.4237 7.49536L15.3187 7.49986H3.49944C3.21053 7.49972 2.93275 7.38843 2.72365 7.18905C2.51456 6.98968 2.39019 6.7175 2.3763 6.42892C2.36242 6.14035 2.46009 5.85749 2.64908 5.63896C2.83806 5.42043 3.10388 5.28299 3.39144 5.25511L3.49944 5.24986H12.7837L11.7037 4.16986C11.493 3.95892 11.3747 3.67299 11.3747 3.37486C11.3747 3.07673 11.4938 2.7908 11.7044 2.57986Z" fill="white"/>
</svg>
