<svg width="20" height="20" viewBox="0 0 20 20" fill="none" xmlns="http://www.w3.org/2000/svg">
<path d="M0 10C0 7.34784 1.05357 4.8043 2.92893 2.92893C4.8043 1.05357 7.34784 0 10 0C12.6522 0 15.1957 1.05357 17.0711 2.92893C18.9464 4.8043 20 7.34784 20 10C20 12.6522 18.9464 15.1957 17.0711 17.0711C15.1957 18.9464 12.6522 20 10 20C7.34784 20 4.8043 18.9464 2.92893 17.0711C1.05357 15.1957 0 12.6522 0 10ZM7.35547 5.74609C7.05859 5.91016 6.875 6.22656 6.875 6.5625V13.4375C6.875 13.7773 7.05859 14.0898 7.35547 14.2539C7.65234 14.418 8.01172 14.4141 8.30469 14.2344L13.9297 10.7969C14.207 10.625 14.3789 10.3242 14.3789 9.99609C14.3789 9.66797 14.207 9.36719 13.9297 9.19531L8.30469 5.75781C8.01562 5.58203 7.65234 5.57422 7.35547 5.73828V5.74609Z" fill="white" fill-opacity="0.98"/>
</svg>
