<svg width="18" height="18" viewBox="0 0 18 18" fill="none" xmlns="http://www.w3.org/2000/svg">
<path d="M14.2009 10.4588L13.6984 7.72275C13.4809 6.54075 13.3721 5.94975 12.9424 5.60025C12.5126 5.25075 11.8946 5.25 10.6594 5.25H7.33988C6.10463 5.25 5.48738 5.25 5.05688 5.60025C4.62713 5.94975 4.51838 6.54075 4.30088 7.72275L3.79838 10.4588C3.34838 12.912 3.12263 14.139 3.81638 14.9438C4.51013 15.75 5.79263 15.75 8.35613 15.75H9.64313C12.2066 15.75 13.4891 15.75 14.1829 14.9445C14.8766 14.139 14.6516 12.912 14.2009 10.4595" stroke="white" stroke-width="1.125" stroke-linecap="round" stroke-linejoin="round"/>
<path d="M9 7.875V12.75M7.125 11.25L9 13.125L10.875 11.25M15.75 8.25C15.8659 8.19219 15.9709 8.1148 16.0605 8.02125C16.5 7.56675 16.5 6.8325 16.5 5.364C16.5 3.8955 16.5 3.162 16.0605 2.706C15.621 2.25 14.9145 2.25 13.5 2.25H4.5C3.0855 2.25 2.379 2.25 1.9395 2.706C1.5 3.162 1.5 3.89625 1.5 5.364C1.5 6.83175 1.5 7.566 1.9395 8.02125C2.0295 8.11525 2.133 8.1915 2.25 8.25" stroke="white" stroke-width="1.125" stroke-linecap="round" stroke-linejoin="round"/>
</svg>
