<svg width="19" height="18" viewBox="0 0 19 18" fill="none" xmlns="http://www.w3.org/2000/svg">
<path d="M14.7009 10.4588L14.1984 7.72275C13.9809 6.54075 13.8721 5.94975 13.4424 5.60025C13.0126 5.25075 12.3946 5.25 11.1594 5.25H7.83988C6.60463 5.25 5.98738 5.25 5.55688 5.60025C5.12713 5.94975 5.01838 6.54075 4.80088 7.72275L4.29838 10.4588C3.84838 12.912 3.62263 14.139 4.31638 14.9438C5.01013 15.75 6.29263 15.75 8.85613 15.75H10.1431C12.7066 15.75 13.9891 15.75 14.6829 14.9445C15.3766 14.139 15.1516 12.912 14.7009 10.4595" stroke="white" stroke-width="1.125" stroke-linecap="round" stroke-linejoin="round"/>
<path d="M9.5 7.875V12.75M7.625 11.25L9.5 13.125L11.375 11.25M16.25 8.25C16.3659 8.19219 16.4709 8.1148 16.5605 8.02125C17 7.56675 17 6.8325 17 5.364C17 3.8955 17 3.162 16.5605 2.706C16.121 2.25 15.4145 2.25 14 2.25H5C3.5855 2.25 2.879 2.25 2.4395 2.706C2 3.162 2 3.89625 2 5.364C2 6.83175 2 7.566 2.4395 8.02125C2.5295 8.11525 2.633 8.1915 2.75 8.25" stroke="white" stroke-width="1.125" stroke-linecap="round" stroke-linejoin="round"/>
</svg>
